<svg width="15" height="20" viewBox="0 0 15 20" fill="none" xmlns="http://www.w3.org/2000/svg">
<path fill-rule="evenodd" clip-rule="evenodd" d="M0.75 0C0.335786 0 0 0.335787 0 0.75V0.850192V2.35019V9.5527V11.0527V19.25C0 19.6642 0.335786 20 0.75 20C1.16421 20 1.5 19.6642 1.5 19.25V11.0527H13.3171H13.4379H14.1332H14.5363C14.8363 11.0527 14.9973 10.6998 14.8005 10.4732L14.5363 10.1689L14.0803 9.64389L14.0011 9.5527L11.019 6.11869C10.9357 6.02275 10.9357 5.88014 11.019 5.7842L14.0011 2.35019L14.0803 2.259L14.5363 1.73398L14.8005 1.42968C14.9973 1.20311 14.8363 0.850192 14.5363 0.850192H14.1332H13.4379H13.3171H1.5V0.75C1.5 0.335786 1.16421 0 0.75 0ZM1.5 2.35019V9.5527H12.0145L9.88641 7.10222C9.31317 6.44212 9.31317 5.46077 9.88641 4.80067L12.0145 2.35019H1.5Z" fill="#75B875"/>
</svg>
