<svg width="18" height="18" viewBox="0 0 18 18" fill="none" xmlns="http://www.w3.org/2000/svg">
<path fill-rule="evenodd" clip-rule="evenodd" d="M7.46367 14.9273C3.3416 14.9273 0 11.5857 0 7.46367C0 3.3416 3.3416 0 7.46367 0C11.5857 0 14.9273 3.3416 14.9273 7.46367C14.9273 9.19137 14.3403 10.782 13.3548 12.0469C13.3872 12.0717 13.4183 12.0989 13.4479 12.1285L17.7262 16.4068C18.0905 16.7711 18.0905 17.3619 17.7262 17.7262C17.3619 18.0905 16.7711 18.0905 16.4068 17.7262L12.1285 13.4479C12.0989 13.4183 12.0717 13.3872 12.0469 13.3548C10.782 14.3403 9.19137 14.9273 7.46367 14.9273ZM13.0627 7.46396C13.0627 10.5555 10.5565 13.0617 7.46494 13.0617C4.37339 13.0617 1.86719 10.5555 1.86719 7.46396C1.86719 4.37241 4.37339 1.86621 7.46494 1.86621C10.5565 1.86621 13.0627 4.37241 13.0627 7.46396Z" fill="#575757"/>
</svg>
