<svg width="40" height="40" viewBox="0 0 40 40" fill="none" xmlns="http://www.w3.org/2000/svg">
<circle cx="20" cy="20" r="20" fill="#131313"/>
<mask id="path-2-outside-1_170_43930" maskUnits="userSpaceOnUse" x="12" y="12" width="16" height="16" fill="black">
<rect fill="white" x="12" y="12" width="16" height="16"/>
<path fill-rule="evenodd" clip-rule="evenodd" d="M20 13C19.4477 13 19 13.4477 19 14V19H14C13.4477 19 13 19.4477 13 20C13 20.5523 13.4477 21 14 21H19V26C19 26.5523 19.4477 27 20 27C20.5523 27 21 26.5523 21 26V21H26C26.5523 21 27 20.5523 27 20C27 19.4477 26.5523 19 26 19H21V14C21 13.4477 20.5523 13 20 13Z"/>
</mask>
<path fill-rule="evenodd" clip-rule="evenodd" d="M20 13C19.4477 13 19 13.4477 19 14V19H14C13.4477 19 13 19.4477 13 20C13 20.5523 13.4477 21 14 21H19V26C19 26.5523 19.4477 27 20 27C20.5523 27 21 26.5523 21 26V21H26C26.5523 21 27 20.5523 27 20C27 19.4477 26.5523 19 26 19H21V14C21 13.4477 20.5523 13 20 13Z" fill="#EBEBEB"/>
<path d="M19 19V19.5H19.5V19H19ZM19 21H19.5V20.5H19V21ZM21 21V20.5H20.5V21H21ZM21 19H20.5V19.5H21V19ZM19.5 14C19.5 13.7239 19.7239 13.5 20 13.5V12.5C19.1716 12.5 18.5 13.1716 18.5 14H19.5ZM19.5 19V14H18.5V19H19.5ZM14 19.5H19V18.5H14V19.5ZM13.5 20C13.5 19.7239 13.7239 19.5 14 19.5V18.5C13.1716 18.5 12.5 19.1716 12.5 20H13.5ZM14 20.5C13.7239 20.5 13.5 20.2761 13.5 20H12.5C12.5 20.8284 13.1716 21.5 14 21.5V20.5ZM19 20.5H14V21.5H19V20.5ZM19.5 26V21H18.5V26H19.5ZM20 26.5C19.7239 26.5 19.5 26.2761 19.5 26H18.5C18.5 26.8284 19.1716 27.5 20 27.5V26.5ZM20.5 26C20.5 26.2761 20.2761 26.5 20 26.5V27.5C20.8284 27.5 21.5 26.8284 21.5 26H20.5ZM20.5 21V26H21.5V21H20.5ZM26 20.5H21V21.5H26V20.5ZM26.5 20C26.5 20.2761 26.2761 20.5 26 20.5V21.5C26.8284 21.5 27.5 20.8284 27.5 20H26.5ZM26 19.5C26.2761 19.5 26.5 19.7239 26.5 20H27.5C27.5 19.1716 26.8284 18.5 26 18.5V19.5ZM21 19.5H26V18.5H21V19.5ZM20.5 14V19H21.5V14H20.5ZM20 13.5C20.2761 13.5 20.5 13.7239 20.5 14H21.5C21.5 13.1716 20.8284 12.5 20 12.5V13.5Z" fill="#EBEBEB" mask="url(#path-2-outside-1_170_43930)"/>
</svg>
