<svg width="153" height="153" viewBox="0 0 153 153" fill="none" xmlns="http://www.w3.org/2000/svg">
<path fill-rule="evenodd" clip-rule="evenodd" d="M111.83 75.4873C111.83 55.34 95.3645 38.9765 75.0156 38.9765V36.165C96.8766 36.165 114.628 53.7541 114.628 75.4873C114.628 97.2205 96.8766 114.81 75.0156 114.81V111.998C95.3645 111.998 111.83 95.6347 111.83 75.4873Z" fill="white"/>
<path fill-rule="evenodd" clip-rule="evenodd" d="M74.8242 151.166V1.53125H77.6946V151.166H74.8242Z" fill="white"/>
<path fill-rule="evenodd" clip-rule="evenodd" d="M12.0547 36.165H75.0133V39.0353H12.0547V36.165Z" fill="white"/>
<path fill-rule="evenodd" clip-rule="evenodd" d="M1.33984 75.0088H76.3544V77.6877H1.33984V75.0088Z" fill="white"/>
<path fill-rule="evenodd" clip-rule="evenodd" d="M10.9062 111.939H77.1181V114.81H10.9062V111.939Z" fill="white"/>
<path fill-rule="evenodd" clip-rule="evenodd" d="M76.2584 2.80685C35.6923 2.80685 2.80706 35.6897 2.80706 76.2527C2.80706 116.816 35.6923 149.699 76.2584 149.699C116.824 149.699 149.71 116.816 149.71 76.2527C149.71 35.6897 116.824 2.80685 76.2584 2.80685ZM0 76.2527C0 34.1395 34.1421 0 76.2584 0C118.375 0 152.517 34.1395 152.517 76.2527C152.517 118.366 118.375 152.505 76.2584 152.505C34.1421 152.505 0 118.366 0 76.2527Z" fill="white"/>
<path fill-rule="evenodd" clip-rule="evenodd" d="M76.2584 2.80685C35.6923 2.80685 2.80706 35.6897 2.80706 76.2527C2.80706 116.816 35.6923 149.699 76.2584 149.699C116.824 149.699 149.71 116.816 149.71 76.2527C149.71 35.6897 116.824 2.80685 76.2584 2.80685ZM0 76.2527C0 34.1395 34.1421 0 76.2584 0C118.375 0 152.517 34.1395 152.517 76.2527C152.517 118.366 118.375 152.505 76.2584 152.505C34.1421 152.505 0 118.366 0 76.2527Z" fill="white"/>
<path d="M63 76C63 71.5817 59.4183 68 55 68C50.5817 68 47 71.5817 47 76" stroke="white" stroke-width="2.66667"/>
<path d="M69 76C69 68.268 62.732 62 55 62C47.268 62 41 68.268 41 76" stroke="white" stroke-width="2.66667"/>
<path d="M75 76C75 64.9543 66.0457 56 55 56C43.9543 56 35 64.9543 35 76" stroke="white" stroke-width="2.66667"/>
<path d="M23 76C23 71.5817 19.4183 68 15 68C10.5817 68 7 71.5817 7 76" stroke="white" stroke-width="2.66667"/>
<path d="M28.9984 76C28.9984 68.268 22.7304 62 14.9984 62C8.65633 62 3.29922 66.217 1.57812 72" stroke="white" stroke-width="2.66667"/>
<path d="M35 76C35 64.9543 26.0457 56 15 56C10.4976 56 6.34264 57.4878 3 59.9985" stroke="white" stroke-width="2.66667"/>
<path d="M47.5 114.21C48.6323 111.167 51.5631 109 55 109C58.4369 109 61.3677 111.167 62.5 114.21" stroke="white" stroke-width="2.66667"/>
<path d="M68.676 114C67.3026 107.71 61.7004 103 54.9981 103C48.2959 103 42.6937 107.71 41.3203 114" stroke="white" stroke-width="2.66667"/>
<path d="M74.778 114C73.3306 104.377 65.0276 97 55.0015 97C44.8025 97 36.3865 104.634 35.1562 114.5" stroke="white" stroke-width="2.66667"/>
<path d="M9.70703 111C11.1173 109.755 12.9698 109 14.9987 109C18.3561 109 21.2304 111.068 22.4172 114" stroke="white" stroke-width="2.66667"/>
<path d="M7.01172 105.5C9.27683 103.924 12.0296 103 14.9983 103C21.7005 103 27.3027 107.71 28.6761 114" stroke="white" stroke-width="2.66667"/>
<path d="M34.824 114.345C33.5256 104.555 25.1443 97 14.9986 97C11.483 97 8.17922 97.9071 5.30859 99.5" stroke="white" stroke-width="2.66667"/>
<path d="M47.5 38.2901C48.6323 41.3326 51.5631 43.5 55 43.5C58.4369 43.5 61.3677 41.3326 62.5 38.2901" stroke="white" stroke-width="2.66667"/>
<path d="M68.676 38.5C67.3026 44.7904 61.7004 49.5 54.9981 49.5C48.2959 49.5 42.6937 44.7904 41.3203 38.5" stroke="white" stroke-width="2.66667"/>
<path d="M74.778 38.5C73.3306 48.1225 65.0276 55.5 55.0015 55.5C44.8025 55.5 36.3865 47.8658 35.1562 38" stroke="white" stroke-width="2.66667"/>
<path d="M63.3424 2.29012C62.2101 5.33264 59.2794 7.5 55.8424 7.5C53.8135 7.5 51.961 6.74473 50.5508 5.5" stroke="white" stroke-width="2.66667"/>
<path d="M69.5197 2.5C68.1464 8.79036 62.5441 13.5 55.8419 13.5C51.4707 13.5 47.5674 11.4967 45 8.35807" stroke="white" stroke-width="2.66667"/>
<path d="M75.6218 2.5C74.1743 12.1225 65.8713 19.5 55.8453 19.5C49.0925 19.5 43.1214 16.1533 39.5 11.0281" stroke="white" stroke-width="2.66667"/>
<path d="M9.70703 41.5C11.1173 42.7447 12.9698 43.5 14.9987 43.5C18.3561 43.5 21.2304 41.4318 22.4172 38.5" stroke="white" stroke-width="2.66667"/>
<path d="M7.01172 47C9.27683 48.576 12.0296 49.5 14.9983 49.5C21.7005 49.5 27.3027 44.7904 28.6761 38.5" stroke="white" stroke-width="2.66667"/>
<path d="M34.824 38.1546C33.5256 47.9454 25.1443 55.5 14.9986 55.5C11.483 55.5 8.17922 54.5929 5.30859 53" stroke="white" stroke-width="2.66667"/>
<path d="M17.0005 77C17.0005 81.4183 13.4188 85 9.00051 85C5.64314 85 2.76881 82.9318 1.58203 80" stroke="white" stroke-width="2.66667"/>
<path d="M23 77C23 84.732 16.732 91 9 91C6.65379 91 4.44239 90.4229 2.5 89.4028" stroke="white" stroke-width="2.66667"/>
<path d="M29 77C29 88.0457 20.0457 97 9 97C7.45267 97 5.94638 96.8243 4.5 96.4917" stroke="white" stroke-width="2.66667"/>
<path d="M57 77C57 81.4183 53.4183 85 49 85C44.5817 85 41 81.4183 41 77" stroke="white" stroke-width="2.66667"/>
<path d="M63 77C63 84.732 56.732 91 49 91C41.268 91 35 84.732 35 77" stroke="white" stroke-width="2.66667"/>
<path d="M69 77C69 88.0457 60.0457 97 49 97C37.9543 97 29 88.0457 29 77" stroke="white" stroke-width="2.66667"/>
<path d="M16 112.5C16 114.63 15.3577 115.066 14 116.5" stroke="white" stroke-width="2.66667"/>
<path d="M17.5 121.5C19.403 119.635 21.4744 116.424 22.4422 113.298" stroke="white" stroke-width="2.66667"/>
<path d="M21.5 126C24.5688 123.084 27.5284 118.243 28.588 113.5" stroke="white" stroke-width="2.66667"/>
<path d="M41.6953 113.27C42.9456 116.058 45.7453 118 48.9985 118C52.2517 118 55.0513 116.058 56.3016 113.27" stroke="white" stroke-width="2.66667"/>
<path d="M62.4984 113.721C60.8686 119.647 55.4418 124 48.9984 124C42.6563 124 37.2992 119.783 35.5781 114" stroke="white" stroke-width="2.66667"/>
<path d="M68.6931 113.5C67.0381 122.877 58.8501 130 48.9984 130C39.3225 130 31.2515 123.129 29.3984 114" stroke="white" stroke-width="2.66667"/>
<path d="M69 114C69.9822 118.838 72.7111 123.043 76.5 125.926" stroke="white" stroke-width="2.66667"/>
<path d="M69 75.9999C69.9822 80.8384 72.7111 85.0427 76.5 87.9258" stroke="white" stroke-width="2.66667"/>
<path d="M69 38.9259C69.9822 34.0873 72.7111 29.8831 76.5 27" stroke="white" stroke-width="2.66667"/>
<path d="M47.0181 145.72C49.0017 143.396 52.2343 142.319 55.3563 143.234C58.4783 144.148 60.6192 146.799 61.0354 149.826" stroke="white" stroke-width="2.66667"/>
<path d="M66.9567 150.708C66.883 144.563 62.7377 138.976 56.5049 137.342C50.3702 135.734 44.1187 138.454 40.9872 143.612" stroke="white" stroke-width="2.66667"/>
<path d="M73.5563 151.1C73.6036 141.578 66.8204 133.106 57.1273 131.346C48.7013 129.815 40.5504 133.805 36.3929 140.741" stroke="white" stroke-width="2.66667"/>
<path d="M16 37.5C16 35.3696 15.3577 34.9337 14 33.5" stroke="white" stroke-width="2.66667"/>
<path d="M17.5 28.5C19.403 30.3648 21.4744 33.5763 22.4422 36.7019" stroke="white" stroke-width="2.66667"/>
<path d="M21.5 24C24.5688 26.9163 27.5284 31.7573 28.588 36.5" stroke="white" stroke-width="2.66667"/>
<path d="M41.6953 36.7296C42.9456 33.9418 45.7453 32 48.9985 32C52.2517 32 55.0513 33.9418 56.3016 36.7296" stroke="white" stroke-width="2.66667"/>
<path d="M62.5 37C60.8702 31.0744 55.4418 26 48.9984 26C42.6563 26 37.2211 31.217 35.5 37" stroke="white" stroke-width="2.66667"/>
<path d="M68.6931 36.5C67.0381 27.1231 58.8501 20 48.9984 20C39.3225 20 30.8531 27.371 29 36.5" stroke="white" stroke-width="2.66667"/>
<circle cx="32" cy="97" r="4" fill="white"/>
<circle cx="35" cy="56" r="4" fill="white"/>
<circle cx="32" cy="20" r="4" fill="white"/>
<circle cx="31" cy="130" r="4" fill="white"/>
<circle cx="70" cy="23" r="4" fill="white"/>
<circle cx="72" cy="56" r="4" fill="white"/>
<circle cx="70" cy="93" r="4" fill="white"/>
<circle cx="70" cy="128" r="4" fill="white"/>
</svg>
