<svg width="24" height="20" viewBox="0 0 24 20" fill="none" xmlns="http://www.w3.org/2000/svg">
<path d="M22 11.255C22.6931 11.255 23.255 10.6931 23.255 10C23.255 9.30689 22.6931 8.74501 22 8.74501V11.255ZM1.11259 9.11259C0.622484 9.60269 0.622484 10.3973 1.11259 10.8874L9.0993 18.8741C9.5894 19.3642 10.384 19.3642 10.8741 18.8741C11.3642 18.384 11.3642 17.5894 10.8741 17.0993L3.77482 10L10.8741 2.9007C11.3642 2.4106 11.3642 1.61598 10.8741 1.12588C10.384 0.635776 9.5894 0.635776 9.0993 1.12588L1.11259 9.11259ZM22 8.74501L2 8.74501V11.255L22 11.255V8.74501Z" fill="#75B875"/>
</svg>
