<svg width="722" height="41" viewBox="0 0 722 41" fill="none" xmlns="http://www.w3.org/2000/svg">
<mask id="mask0_631_99585" style="mask-type:alpha" maskUnits="userSpaceOnUse" x="0" y="0" width="1094" height="22">
<path d="M15.8136 2.80232C15.8136 3.79771 15.0067 4.60463 14.0113 4.60463C13.0159 4.60463 12.209 3.79771 12.209 2.80232C12.209 1.80692 13.0159 1 14.0113 1C15.0067 1 15.8136 1.80692 15.8136 2.80232Z" stroke="#FE724D" stroke-width="2"/>
<path d="M40.1007 2.80232C40.1007 3.79771 39.2938 4.60463 38.2984 4.60463C37.303 4.60463 36.4961 3.79771 36.4961 2.80232C36.4961 1.80692 37.303 1 38.2984 1C39.2938 1 40.1007 1.80692 40.1007 2.80232Z" stroke="#FE724D" stroke-width="2"/>
<path d="M64.3878 2.80232C64.3878 3.79771 63.5809 4.60463 62.5855 4.60463C61.5901 4.60463 60.7832 3.79771 60.7832 2.80232C60.7832 1.80693 61.5901 1 62.5855 1C63.5809 1 64.3878 1.80693 64.3878 2.80232Z" stroke="#FE724D" stroke-width="2"/>
<path d="M88.6749 2.80232C88.6749 3.79771 87.868 4.60463 86.8726 4.60463C85.8772 4.60463 85.0703 3.79771 85.0703 2.80232C85.0703 1.80692 85.8772 1 86.8726 1C87.868 1 88.6749 1.80692 88.6749 2.80232Z" stroke="#FE724D" stroke-width="2"/>
<path d="M112.96 2.80232C112.96 3.79771 112.153 4.60463 111.158 4.60463C110.162 4.60463 109.355 3.79771 109.355 2.80232C109.355 1.80693 110.162 1 111.158 1C112.153 1 112.96 1.80693 112.96 2.80232Z" stroke="#FE724D" stroke-width="2"/>
<path d="M137.247 2.80232C137.247 3.79771 136.44 4.60463 135.445 4.60463C134.45 4.60463 133.643 3.79771 133.643 2.80232C133.643 1.80692 134.45 1 135.445 1C136.44 1 137.247 1.80692 137.247 2.80232Z" stroke="#FE724D" stroke-width="2"/>
<path d="M161.534 2.80232C161.534 3.7977 160.727 4.60463 159.732 4.60463C158.737 4.60463 157.93 3.7977 157.93 2.80232C157.93 1.80693 158.737 1 159.732 1C160.727 1 161.534 1.80693 161.534 2.80232Z" stroke="#FE724D" stroke-width="2"/>
<path d="M185.821 2.80232C185.821 3.79771 185.015 4.60463 184.019 4.60463C183.024 4.60463 182.217 3.79771 182.217 2.80232C182.217 1.80692 183.024 1 184.019 1C185.015 1 185.821 1.80692 185.821 2.80232Z" stroke="#FE724D" stroke-width="2"/>
<path d="M210.109 2.80232C210.109 3.79771 209.302 4.60463 208.306 4.60463C207.311 4.60463 206.504 3.79771 206.504 2.80232C206.504 1.80692 207.311 1 208.306 1C209.302 1 210.109 1.80692 210.109 2.80232Z" stroke="#FE724D" stroke-width="2"/>
<path d="M234.394 2.80232C234.394 3.79771 233.587 4.60463 232.591 4.60463C231.596 4.60463 230.789 3.79771 230.789 2.80232C230.789 1.80692 231.596 1 232.591 1C233.587 1 234.394 1.80692 234.394 2.80232Z" stroke="#FE724D" stroke-width="2"/>
<path d="M258.681 2.80232C258.681 3.79771 257.874 4.60463 256.878 4.60463C255.883 4.60463 255.076 3.79771 255.076 2.80232C255.076 1.80692 255.883 1 256.878 1C257.874 1 258.681 1.80692 258.681 2.80232Z" stroke="#FE724D" stroke-width="2"/>
<path d="M26.1554 19.6164L20.5508 14.0117H31.76L26.1554 19.6164Z" stroke="#FE724D" stroke-width="2"/>
<path d="M50.4425 19.6164L44.8379 14.0117H56.0471L50.4425 19.6164Z" stroke="#FE724D" stroke-width="2"/>
<path d="M74.7277 19.6164L69.123 14.0117H80.3323L74.7277 19.6164Z" stroke="#FE724D" stroke-width="2"/>
<path d="M99.0148 19.6164L93.4102 14.0117H104.619L99.0148 19.6164Z" stroke="#FE724D" stroke-width="2"/>
<path d="M123.302 19.6164L117.697 14.0117H128.907L123.302 19.6164Z" stroke="#FE724D" stroke-width="2"/>
<path d="M147.589 19.6164L141.984 14.0117H153.194L147.589 19.6164Z" stroke="#FE724D" stroke-width="2"/>
<path d="M171.876 19.6164L166.271 14.0117H177.481L171.876 19.6164Z" stroke="#FE724D" stroke-width="2"/>
<path d="M196.161 19.6164L190.557 14.0117H201.766L196.161 19.6164Z" stroke="#FE724D" stroke-width="2"/>
<path d="M220.448 19.6164L214.844 14.0117H226.053L220.448 19.6164Z" stroke="#FE724D" stroke-width="2"/>
<path d="M244.735 19.6164L239.131 14.0117H250.34L244.735 19.6164Z" stroke="#FE724D" stroke-width="2"/>
<rect x="13.5452" y="5.13697" width="0.934105" height="3.73642" fill="#FE724D" stroke="#FE724D" stroke-width="0.934105"/>
<rect x="37.8303" y="5.13697" width="0.934103" height="3.73642" fill="#FE724D" stroke="#FE724D" stroke-width="0.934103"/>
<rect x="62.1174" y="5.13698" width="0.934107" height="3.73642" fill="#FE724D" stroke="#FE724D" stroke-width="0.934107"/>
<rect x="86.4046" y="5.13697" width="0.934105" height="3.73642" fill="#FE724D" stroke="#FE724D" stroke-width="0.934105"/>
<rect x="110.692" y="5.13697" width="0.934105" height="3.73642" fill="#FE724D" stroke="#FE724D" stroke-width="0.934105"/>
<rect x="134.979" y="5.13697" width="0.934105" height="3.73642" fill="#FE724D" stroke="#FE724D" stroke-width="0.934105"/>
<rect x="159.264" y="5.13697" width="0.934105" height="3.73642" fill="#FE724D" stroke="#FE724D" stroke-width="0.934105"/>
<rect x="183.551" y="5.13697" width="0.934105" height="3.73642" fill="#FE724D" stroke="#FE724D" stroke-width="0.934105"/>
<rect x="207.838" y="5.13697" width="0.934105" height="3.73642" fill="#FE724D" stroke="#FE724D" stroke-width="0.934105"/>
<rect x="232.125" y="5.13697" width="0.934105" height="3.73642" fill="#FE724D" stroke="#FE724D" stroke-width="0.934105"/>
<rect x="256.412" y="5.13697" width="0.934097" height="3.73643" fill="#FE724D" stroke="#FE724D" stroke-width="0.934097"/>
<path d="M258.681 2.80232C258.681 3.79771 257.874 4.60463 256.878 4.60463C255.883 4.60463 255.076 3.79771 255.076 2.80232C255.076 1.80692 255.883 1 256.878 1C257.874 1 258.681 1.80692 258.681 2.80232Z" stroke="#FE724D" stroke-width="2"/>
<path d="M282.968 2.80232C282.968 3.79771 282.161 4.60463 281.166 4.60463C280.17 4.60463 279.363 3.79771 279.363 2.80232C279.363 1.80692 280.17 1 281.166 1C282.161 1 282.968 1.80692 282.968 2.80232Z" stroke="#FE724D" stroke-width="2"/>
<path d="M307.255 2.80232C307.255 3.79771 306.448 4.60463 305.453 4.60463C304.457 4.60463 303.65 3.79771 303.65 2.80232C303.65 1.80692 304.457 1 305.453 1C306.448 1 307.255 1.80692 307.255 2.80232Z" stroke="#FE724D" stroke-width="2"/>
<path d="M331.542 2.80232C331.542 3.7977 330.735 4.60463 329.74 4.60463C328.744 4.60463 327.938 3.7977 327.938 2.80232C327.938 1.80693 328.744 1 329.74 1C330.735 1 331.542 1.80693 331.542 2.80232Z" stroke="#FE724D" stroke-width="2"/>
<path d="M355.827 2.80232C355.827 3.7977 355.02 4.60463 354.025 4.60463C353.03 4.60463 352.223 3.7977 352.223 2.80232C352.223 1.80693 353.03 1 354.025 1C355.02 1 355.827 1.80693 355.827 2.80232Z" stroke="#FE724D" stroke-width="2"/>
<path d="M244.735 19.6164L240.064 14.0117H250.34L244.735 19.6164Z" stroke="#FE724D" stroke-width="2"/>
<path d="M269.023 19.6164L263.418 14.0117H274.627L269.023 19.6164Z" stroke="#FE724D" stroke-width="2"/>
<path d="M293.31 19.6164L287.705 14.0117H298.914L293.31 19.6164Z" stroke="#FE724D" stroke-width="2"/>
<path d="M317.595 19.6164L311.99 14.0117H323.199L317.595 19.6164Z" stroke="#FE724D" stroke-width="2"/>
<path d="M341.882 19.6164L336.277 14.0117H347.487L341.882 19.6164Z" stroke="#FE724D" stroke-width="2"/>
<rect x="256.412" y="5.13697" width="0.934097" height="3.73643" fill="#FE724D" stroke="#FE724D" stroke-width="0.934097"/>
<rect x="280.699" y="5.13698" width="0.934113" height="3.73641" fill="#FE724D" stroke="#FE724D" stroke-width="0.934113"/>
<rect x="304.985" y="5.13697" width="0.934097" height="3.73643" fill="#FE724D" stroke="#FE724D" stroke-width="0.934097"/>
<rect x="329.272" y="5.13697" width="0.934097" height="3.73643" fill="#FE724D" stroke="#FE724D" stroke-width="0.934097"/>
<rect x="353.559" y="5.13697" width="0.934097" height="3.73643" fill="#FE724D" stroke="#FE724D" stroke-width="0.934097"/>
<mask id="path-48-inside-1_631_99585" fill="white">
<path fill-rule="evenodd" clip-rule="evenodd" d="M366 7.47266H242.867V9.34087H366V7.47266Z"/>
</mask>
<path fill-rule="evenodd" clip-rule="evenodd" d="M366 7.47266H242.867V9.34087H366V7.47266Z" fill="#FE724D"/>
<path d="M242.867 7.47266V6.47266H241.867V7.47266H242.867ZM366 7.47266H367V6.47266H366V7.47266ZM242.867 9.34087H241.867V10.3409H242.867V9.34087ZM366 9.34087V10.3409H367V9.34087H366ZM242.867 8.47266H366V6.47266H242.867V8.47266ZM243.867 9.34087V7.47266H241.867V9.34087H243.867ZM366 8.34087H242.867V10.3409H366V8.34087ZM367 9.34087V7.47266H365V9.34087H367Z" fill="#FE724D" mask="url(#path-48-inside-1_631_99585)"/>
<path fill-rule="evenodd" clip-rule="evenodd" d="M366 13.0117H360.565H358.15L359.857 14.7188L365.462 20.3235L366 20.8615V18.0331L362.979 15.0117H366V13.0117Z" fill="#FE724D"/>
<path fill-rule="evenodd" clip-rule="evenodd" d="M2 20.8992L2.57574 20.3235L8.18037 14.7188L9.88747 13.0117H7.47326H2V15.0117H5.05905L2 18.0708V20.8992Z" fill="#FE724D"/>
<mask id="path-52-inside-2_631_99585" fill="white">
<path fill-rule="evenodd" clip-rule="evenodd" d="M2 9.34087H262.483V7.47266H2V9.34087Z"/>
</mask>
<path fill-rule="evenodd" clip-rule="evenodd" d="M2 9.34087H262.483V7.47266H2V9.34087Z" fill="#FE8C24"/>
<path d="M262.483 9.34087V10.3409H263.483V9.34087H262.483ZM2 9.34087H1V10.3409H2V9.34087ZM262.483 7.47266H263.483V6.47266H262.483V7.47266ZM2 7.47266V6.47266H1V7.47266H2ZM262.483 8.34087H2V10.3409H262.483V8.34087ZM261.483 7.47266V9.34087H263.483V7.47266H261.483ZM2 8.47266H262.483V6.47266H2V8.47266ZM1 7.47266V9.34087H3V7.47266H1Z" fill="#FE724D" mask="url(#path-52-inside-2_631_99585)"/>
<path d="M379.814 2.80232C379.814 3.79771 379.007 4.60463 378.011 4.60463C377.016 4.60463 376.209 3.79771 376.209 2.80232C376.209 1.80692 377.016 1 378.011 1C379.007 1 379.814 1.80692 379.814 2.80232Z" stroke="#FE724D" stroke-width="2"/>
<path d="M404.101 2.80232C404.101 3.79771 403.294 4.60463 402.298 4.60463C401.303 4.60463 400.496 3.79771 400.496 2.80232C400.496 1.80692 401.303 1 402.298 1C403.294 1 404.101 1.80692 404.101 2.80232Z" stroke="#FE724D" stroke-width="2"/>
<path d="M428.388 2.80232C428.388 3.79771 427.581 4.60463 426.586 4.60463C425.59 4.60463 424.783 3.79771 424.783 2.80232C424.783 1.80693 425.59 1 426.586 1C427.581 1 428.388 1.80693 428.388 2.80232Z" stroke="#FE724D" stroke-width="2"/>
<path d="M452.675 2.80232C452.675 3.79771 451.868 4.60463 450.873 4.60463C449.877 4.60463 449.07 3.79771 449.07 2.80232C449.07 1.80692 449.877 1 450.873 1C451.868 1 452.675 1.80692 452.675 2.80232Z" stroke="#FE724D" stroke-width="2"/>
<path d="M476.96 2.80232C476.96 3.79771 476.153 4.60463 475.158 4.60463C474.162 4.60463 473.355 3.79771 473.355 2.80232C473.355 1.80693 474.162 1 475.158 1C476.153 1 476.96 1.80693 476.96 2.80232Z" stroke="#FE724D" stroke-width="2"/>
<path d="M501.247 2.80232C501.247 3.79771 500.44 4.60463 499.445 4.60463C498.45 4.60463 497.643 3.79771 497.643 2.80232C497.643 1.80692 498.45 1 499.445 1C500.44 1 501.247 1.80692 501.247 2.80232Z" stroke="#FE724D" stroke-width="2"/>
<path d="M525.534 2.80232C525.534 3.7977 524.727 4.60463 523.732 4.60463C522.737 4.60463 521.93 3.7977 521.93 2.80232C521.93 1.80693 522.737 1 523.732 1C524.727 1 525.534 1.80693 525.534 2.80232Z" stroke="#FE724D" stroke-width="2"/>
<path d="M549.821 2.80232C549.821 3.79771 549.015 4.60463 548.019 4.60463C547.024 4.60463 546.217 3.79771 546.217 2.80232C546.217 1.80692 547.024 1 548.019 1C549.015 1 549.821 1.80692 549.821 2.80232Z" stroke="#FE724D" stroke-width="2"/>
<path d="M574.109 2.80232C574.109 3.79771 573.302 4.60463 572.306 4.60463C571.311 4.60463 570.504 3.79771 570.504 2.80232C570.504 1.80692 571.311 1 572.306 1C573.302 1 574.109 1.80692 574.109 2.80232Z" stroke="#FE724D" stroke-width="2"/>
<path d="M598.394 2.80232C598.394 3.79771 597.587 4.60463 596.591 4.60463C595.596 4.60463 594.789 3.79771 594.789 2.80232C594.789 1.80692 595.596 1 596.591 1C597.587 1 598.394 1.80692 598.394 2.80232Z" stroke="#FE724D" stroke-width="2"/>
<path d="M622.681 2.80232C622.681 3.79771 621.874 4.60463 620.878 4.60463C619.883 4.60463 619.076 3.79771 619.076 2.80232C619.076 1.80692 619.883 1 620.878 1C621.874 1 622.681 1.80692 622.681 2.80232Z" stroke="#FE724D" stroke-width="2"/>
<path d="M390.155 19.6164L384.551 14.0117H395.76L390.155 19.6164Z" stroke="#FE724D" stroke-width="2"/>
<path d="M414.443 19.6164L408.838 14.0117H420.047L414.443 19.6164Z" stroke="#FE724D" stroke-width="2"/>
<path d="M438.728 19.6164L433.123 14.0117H444.332L438.728 19.6164Z" stroke="#FE724D" stroke-width="2"/>
<path d="M463.015 19.6164L457.41 14.0117H468.619L463.015 19.6164Z" stroke="#FE724D" stroke-width="2"/>
<path d="M487.302 19.6164L481.697 14.0117H492.907L487.302 19.6164Z" stroke="#FE724D" stroke-width="2"/>
<path d="M511.589 19.6164L505.984 14.0117H517.194L511.589 19.6164Z" stroke="#FE724D" stroke-width="2"/>
<path d="M535.876 19.6164L530.271 14.0117H541.481L535.876 19.6164Z" stroke="#FE724D" stroke-width="2"/>
<path d="M560.161 19.6164L554.557 14.0117H565.766L560.161 19.6164Z" stroke="#FE724D" stroke-width="2"/>
<path d="M584.448 19.6164L578.844 14.0117H590.053L584.448 19.6164Z" stroke="#FE724D" stroke-width="2"/>
<path d="M608.735 19.6164L603.131 14.0117H614.34L608.735 19.6164Z" stroke="#FE724D" stroke-width="2"/>
<rect x="377.545" y="5.13697" width="0.934105" height="3.73642" fill="#FE724D" stroke="#FE724D" stroke-width="0.934105"/>
<rect x="401.83" y="5.13697" width="0.934103" height="3.73642" fill="#FE724D" stroke="#FE724D" stroke-width="0.934103"/>
<rect x="426.117" y="5.13698" width="0.934107" height="3.73642" fill="#FE724D" stroke="#FE724D" stroke-width="0.934107"/>
<rect x="450.405" y="5.13697" width="0.934105" height="3.73642" fill="#FE724D" stroke="#FE724D" stroke-width="0.934105"/>
<rect x="474.692" y="5.13697" width="0.934105" height="3.73642" fill="#FE724D" stroke="#FE724D" stroke-width="0.934105"/>
<rect x="498.979" y="5.13697" width="0.934105" height="3.73642" fill="#FE724D" stroke="#FE724D" stroke-width="0.934105"/>
<rect x="523.264" y="5.13697" width="0.934105" height="3.73642" fill="#FE724D" stroke="#FE724D" stroke-width="0.934105"/>
<rect x="547.551" y="5.13697" width="0.934105" height="3.73642" fill="#FE724D" stroke="#FE724D" stroke-width="0.934105"/>
<rect x="571.838" y="5.13697" width="0.934105" height="3.73642" fill="#FE724D" stroke="#FE724D" stroke-width="0.934105"/>
<rect x="596.125" y="5.13697" width="0.934105" height="3.73642" fill="#FE724D" stroke="#FE724D" stroke-width="0.934105"/>
<rect x="620.412" y="5.13697" width="0.934097" height="3.73643" fill="#FE724D" stroke="#FE724D" stroke-width="0.934097"/>
<path d="M622.681 2.80232C622.681 3.79771 621.874 4.60463 620.878 4.60463C619.883 4.60463 619.076 3.79771 619.076 2.80232C619.076 1.80692 619.883 1 620.878 1C621.874 1 622.681 1.80692 622.681 2.80232Z" stroke="#FE724D" stroke-width="2"/>
<path d="M646.968 2.80232C646.968 3.79771 646.161 4.60463 645.166 4.60463C644.17 4.60463 643.363 3.79771 643.363 2.80232C643.363 1.80692 644.17 1 645.166 1C646.161 1 646.968 1.80692 646.968 2.80232Z" stroke="#FE724D" stroke-width="2"/>
<path d="M671.255 2.80232C671.255 3.79771 670.448 4.60463 669.453 4.60463C668.457 4.60463 667.65 3.79771 667.65 2.80232C667.65 1.80692 668.457 1 669.453 1C670.448 1 671.255 1.80692 671.255 2.80232Z" stroke="#FE724D" stroke-width="2"/>
<path d="M695.542 2.80232C695.542 3.7977 694.735 4.60463 693.74 4.60463C692.744 4.60463 691.938 3.7977 691.938 2.80232C691.938 1.80693 692.744 1 693.74 1C694.735 1 695.542 1.80693 695.542 2.80232Z" stroke="#FE724D" stroke-width="2"/>
<path d="M719.827 2.80232C719.827 3.7977 719.02 4.60463 718.025 4.60463C717.03 4.60463 716.223 3.7977 716.223 2.80232C716.223 1.80693 717.03 1 718.025 1C719.02 1 719.827 1.80693 719.827 2.80232Z" stroke="#FE724D" stroke-width="2"/>
<path d="M608.735 19.6164L604.064 14.0117H614.34L608.735 19.6164Z" stroke="#FE724D" stroke-width="2"/>
<path d="M633.023 19.6164L627.418 14.0117H638.627L633.023 19.6164Z" stroke="#FE724D" stroke-width="2"/>
<path d="M657.31 19.6164L651.705 14.0117H662.914L657.31 19.6164Z" stroke="#FE724D" stroke-width="2"/>
<path d="M681.595 19.6164L675.99 14.0117H687.199L681.595 19.6164Z" stroke="#FE724D" stroke-width="2"/>
<path d="M705.882 19.6164L700.277 14.0117H711.487L705.882 19.6164Z" stroke="#FE724D" stroke-width="2"/>
<rect x="620.412" y="5.13697" width="0.934097" height="3.73643" fill="#FE724D" stroke="#FE724D" stroke-width="0.934097"/>
<rect x="644.699" y="5.13698" width="0.934113" height="3.73641" fill="#FE724D" stroke="#FE724D" stroke-width="0.934113"/>
<rect x="668.985" y="5.13697" width="0.934097" height="3.73643" fill="#FE724D" stroke="#FE724D" stroke-width="0.934097"/>
<rect x="693.272" y="5.13697" width="0.934097" height="3.73643" fill="#FE724D" stroke="#FE724D" stroke-width="0.934097"/>
<rect x="717.559" y="5.13697" width="0.934097" height="3.73643" fill="#FE724D" stroke="#FE724D" stroke-width="0.934097"/>
<mask id="path-101-inside-3_631_99585" fill="white">
<path fill-rule="evenodd" clip-rule="evenodd" d="M730 7.47266H606.867V9.34087H730V7.47266Z"/>
</mask>
<path fill-rule="evenodd" clip-rule="evenodd" d="M730 7.47266H606.867V9.34087H730V7.47266Z" fill="#FE724D"/>
<path d="M606.867 7.47266V6.47266H605.867V7.47266H606.867ZM730 7.47266H731V6.47266H730V7.47266ZM606.867 9.34087H605.867V10.3409H606.867V9.34087ZM730 9.34087V10.3409H731V9.34087H730ZM606.867 8.47266H730V6.47266H606.867V8.47266ZM607.867 9.34087V7.47266H605.867V9.34087H607.867ZM730 8.34087H606.867V10.3409H730V8.34087ZM731 9.34087V7.47266H729V9.34087H731Z" fill="#FE724D" mask="url(#path-101-inside-3_631_99585)"/>
<path fill-rule="evenodd" clip-rule="evenodd" d="M366 20.8992L366.576 20.3235L372.18 14.7188L373.887 13.0117H371.473H366V15.0117H369.059L366 18.0708V20.8992Z" fill="#FE724D"/>
<mask id="path-104-inside-4_631_99585" fill="white">
<path fill-rule="evenodd" clip-rule="evenodd" d="M366 9.34087H626.483V7.47266H366V9.34087Z"/>
</mask>
<path fill-rule="evenodd" clip-rule="evenodd" d="M366 9.34087H626.483V7.47266H366V9.34087Z" fill="#FE8C24"/>
<path d="M626.483 9.34087V10.3409H627.483V9.34087H626.483ZM366 9.34087H365V10.3409H366V9.34087ZM626.483 7.47266H627.483V6.47266H626.483V7.47266ZM366 7.47266V6.47266H365V7.47266H366ZM626.483 8.34087H366V10.3409H626.483V8.34087ZM625.483 7.47266V9.34087H627.483V7.47266H625.483ZM366 8.47266H626.483V6.47266H366V8.47266ZM365 7.47266V9.34087H367V7.47266H365Z" fill="#FE724D" mask="url(#path-104-inside-4_631_99585)"/>
</mask>
<g mask="url(#mask0_631_99585)">
<rect x="2" width="680" height="33" fill="#FF6058"/>
</g>
<mask id="mask1_631_99585" style="mask-type:alpha" maskUnits="userSpaceOnUse" x="0" y="19" width="1094" height="22">
<path d="M15.8136 38.1977C15.8136 37.2023 15.0067 36.3954 14.0113 36.3954C13.0159 36.3954 12.209 37.2023 12.209 38.1977C12.209 39.1931 13.0159 40 14.0113 40C15.0067 40 15.8136 39.1931 15.8136 38.1977Z" stroke="#FE724D" stroke-width="2"/>
<path d="M40.1007 38.1977C40.1007 37.2023 39.2938 36.3954 38.2984 36.3954C37.303 36.3954 36.4961 37.2023 36.4961 38.1977C36.4961 39.1931 37.303 40 38.2984 40C39.2938 40 40.1007 39.1931 40.1007 38.1977Z" stroke="#FE724D" stroke-width="2"/>
<path d="M64.3878 38.1977C64.3878 37.2023 63.5809 36.3954 62.5855 36.3954C61.5901 36.3954 60.7832 37.2023 60.7832 38.1977C60.7832 39.1931 61.5901 40 62.5855 40C63.5809 40 64.3878 39.1931 64.3878 38.1977Z" stroke="#FE724D" stroke-width="2"/>
<path d="M88.6749 38.1977C88.6749 37.2023 87.868 36.3954 86.8726 36.3954C85.8772 36.3954 85.0703 37.2023 85.0703 38.1977C85.0703 39.1931 85.8772 40 86.8726 40C87.868 40 88.6749 39.1931 88.6749 38.1977Z" stroke="#FE724D" stroke-width="2"/>
<path d="M112.96 38.1977C112.96 37.2023 112.153 36.3954 111.158 36.3954C110.162 36.3954 109.355 37.2023 109.355 38.1977C109.355 39.1931 110.162 40 111.158 40C112.153 40 112.96 39.1931 112.96 38.1977Z" stroke="#FE724D" stroke-width="2"/>
<path d="M137.247 38.1977C137.247 37.2023 136.44 36.3954 135.445 36.3954C134.45 36.3954 133.643 37.2023 133.643 38.1977C133.643 39.1931 134.45 40 135.445 40C136.44 40 137.247 39.1931 137.247 38.1977Z" stroke="#FE724D" stroke-width="2"/>
<path d="M161.534 38.1977C161.534 37.2023 160.727 36.3954 159.732 36.3954C158.737 36.3954 157.93 37.2023 157.93 38.1977C157.93 39.1931 158.737 40 159.732 40C160.727 40 161.534 39.1931 161.534 38.1977Z" stroke="#FE724D" stroke-width="2"/>
<path d="M185.821 38.1977C185.821 37.2023 185.015 36.3954 184.019 36.3954C183.024 36.3954 182.217 37.2023 182.217 38.1977C182.217 39.1931 183.024 40 184.019 40C185.015 40 185.821 39.1931 185.821 38.1977Z" stroke="#FE724D" stroke-width="2"/>
<path d="M210.109 38.1977C210.109 37.2023 209.302 36.3954 208.306 36.3954C207.311 36.3954 206.504 37.2023 206.504 38.1977C206.504 39.1931 207.311 40 208.306 40C209.302 40 210.109 39.1931 210.109 38.1977Z" stroke="#FE724D" stroke-width="2"/>
<path d="M234.394 38.1977C234.394 37.2023 233.587 36.3954 232.591 36.3954C231.596 36.3954 230.789 37.2023 230.789 38.1977C230.789 39.1931 231.596 40 232.591 40C233.587 40 234.394 39.1931 234.394 38.1977Z" stroke="#FE724D" stroke-width="2"/>
<path d="M258.681 38.1977C258.681 37.2023 257.874 36.3954 256.878 36.3954C255.883 36.3954 255.076 37.2023 255.076 38.1977C255.076 39.1931 255.883 40 256.878 40C257.874 40 258.681 39.1931 258.681 38.1977Z" stroke="#FE724D" stroke-width="2"/>
<path d="M26.1554 21.3836L20.5508 26.9883H31.76L26.1554 21.3836Z" stroke="#FE724D" stroke-width="2"/>
<path d="M50.4425 21.3836L44.8379 26.9883H56.0471L50.4425 21.3836Z" stroke="#FE724D" stroke-width="2"/>
<path d="M74.7277 21.3836L69.123 26.9883H80.3323L74.7277 21.3836Z" stroke="#FE724D" stroke-width="2"/>
<path d="M99.0148 21.3836L93.4102 26.9883H104.619L99.0148 21.3836Z" stroke="#FE724D" stroke-width="2"/>
<path d="M123.302 21.3836L117.697 26.9883H128.907L123.302 21.3836Z" stroke="#FE724D" stroke-width="2"/>
<path d="M147.589 21.3836L141.984 26.9883H153.194L147.589 21.3836Z" stroke="#FE724D" stroke-width="2"/>
<path d="M171.876 21.3836L166.271 26.9883H177.481L171.876 21.3836Z" stroke="#FE724D" stroke-width="2"/>
<path d="M196.161 21.3836L190.557 26.9883H201.766L196.161 21.3836Z" stroke="#FE724D" stroke-width="2"/>
<path d="M220.448 21.3836L214.844 26.9883H226.053L220.448 21.3836Z" stroke="#FE724D" stroke-width="2"/>
<path d="M244.735 21.3836L239.131 26.9883H250.34L244.735 21.3836Z" stroke="#FE724D" stroke-width="2"/>
<rect x="0.467052" y="-0.467052" width="0.934105" height="3.73642" transform="matrix(1 0 0 -1 13.0781 35.396)" fill="#FE724D" stroke="#FE724D" stroke-width="0.934105"/>
<rect x="0.467052" y="-0.467052" width="0.934103" height="3.73642" transform="matrix(1 0 0 -1 37.3633 35.396)" fill="#FE724D" stroke="#FE724D" stroke-width="0.934103"/>
<rect x="0.467053" y="-0.467053" width="0.934107" height="3.73642" transform="matrix(1 0 0 -1 61.6504 35.396)" fill="#FE724D" stroke="#FE724D" stroke-width="0.934107"/>
<rect x="0.467052" y="-0.467052" width="0.934105" height="3.73642" transform="matrix(1 0 0 -1 85.9375 35.396)" fill="#FE724D" stroke="#FE724D" stroke-width="0.934105"/>
<rect x="0.467052" y="-0.467052" width="0.934105" height="3.73642" transform="matrix(1 0 0 -1 110.225 35.396)" fill="#FE724D" stroke="#FE724D" stroke-width="0.934105"/>
<rect x="0.467052" y="-0.467052" width="0.934105" height="3.73642" transform="matrix(1 0 0 -1 134.512 35.396)" fill="#FE724D" stroke="#FE724D" stroke-width="0.934105"/>
<rect x="0.467052" y="-0.467052" width="0.934105" height="3.73642" transform="matrix(1 0 0 -1 158.797 35.396)" fill="#FE724D" stroke="#FE724D" stroke-width="0.934105"/>
<rect x="0.467052" y="-0.467052" width="0.934105" height="3.73642" transform="matrix(1 0 0 -1 183.084 35.396)" fill="#FE724D" stroke="#FE724D" stroke-width="0.934105"/>
<rect x="0.467052" y="-0.467052" width="0.934105" height="3.73642" transform="matrix(1 0 0 -1 207.371 35.396)" fill="#FE724D" stroke="#FE724D" stroke-width="0.934105"/>
<rect x="0.467052" y="-0.467052" width="0.934105" height="3.73642" transform="matrix(1 0 0 -1 231.658 35.396)" fill="#FE724D" stroke="#FE724D" stroke-width="0.934105"/>
<rect x="0.467049" y="-0.467049" width="0.934097" height="3.73643" transform="matrix(1 0 0 -1 255.945 35.396)" fill="#FE724D" stroke="#FE724D" stroke-width="0.934097"/>
<path d="M258.681 38.1977C258.681 37.2023 257.874 36.3954 256.878 36.3954C255.883 36.3954 255.076 37.2023 255.076 38.1977C255.076 39.1931 255.883 40 256.878 40C257.874 40 258.681 39.1931 258.681 38.1977Z" stroke="#FE724D" stroke-width="2"/>
<path d="M282.968 38.1977C282.968 37.2023 282.161 36.3954 281.166 36.3954C280.17 36.3954 279.363 37.2023 279.363 38.1977C279.363 39.1931 280.17 40 281.166 40C282.161 40 282.968 39.1931 282.968 38.1977Z" stroke="#FE724D" stroke-width="2"/>
<path d="M307.255 38.1977C307.255 37.2023 306.448 36.3954 305.453 36.3954C304.457 36.3954 303.65 37.2023 303.65 38.1977C303.65 39.1931 304.457 40 305.453 40C306.448 40 307.255 39.1931 307.255 38.1977Z" stroke="#FE724D" stroke-width="2"/>
<path d="M331.542 38.1977C331.542 37.2023 330.735 36.3954 329.74 36.3954C328.744 36.3954 327.938 37.2023 327.938 38.1977C327.938 39.1931 328.744 40 329.74 40C330.735 40 331.542 39.1931 331.542 38.1977Z" stroke="#FE724D" stroke-width="2"/>
<path d="M355.827 38.1977C355.827 37.2023 355.02 36.3954 354.025 36.3954C353.03 36.3954 352.223 37.2023 352.223 38.1977C352.223 39.1931 353.03 40 354.025 40C355.02 40 355.827 39.1931 355.827 38.1977Z" stroke="#FE724D" stroke-width="2"/>
<path d="M244.735 21.3836L240.064 26.9883H250.34L244.735 21.3836Z" stroke="#FE724D" stroke-width="2"/>
<path d="M269.023 21.3836L263.418 26.9883H274.627L269.023 21.3836Z" stroke="#FE724D" stroke-width="2"/>
<path d="M293.31 21.3836L287.705 26.9883H298.914L293.31 21.3836Z" stroke="#FE724D" stroke-width="2"/>
<path d="M317.595 21.3836L311.99 26.9883H323.199L317.595 21.3836Z" stroke="#FE724D" stroke-width="2"/>
<path d="M341.882 21.3836L336.277 26.9883H347.487L341.882 21.3836Z" stroke="#FE724D" stroke-width="2"/>
<rect x="0.467049" y="-0.467049" width="0.934097" height="3.73643" transform="matrix(1 0 0 -1 255.945 35.396)" fill="#FE724D" stroke="#FE724D" stroke-width="0.934097"/>
<rect x="0.467056" y="-0.467056" width="0.934113" height="3.73641" transform="matrix(1 0 0 -1 280.232 35.396)" fill="#FE724D" stroke="#FE724D" stroke-width="0.934113"/>
<rect x="0.467049" y="-0.467049" width="0.934097" height="3.73643" transform="matrix(1 0 0 -1 304.518 35.396)" fill="#FE724D" stroke="#FE724D" stroke-width="0.934097"/>
<rect x="0.467049" y="-0.467049" width="0.934097" height="3.73643" transform="matrix(1 0 0 -1 328.805 35.396)" fill="#FE724D" stroke="#FE724D" stroke-width="0.934097"/>
<rect x="0.467049" y="-0.467049" width="0.934097" height="3.73643" transform="matrix(1 0 0 -1 353.092 35.396)" fill="#FE724D" stroke="#FE724D" stroke-width="0.934097"/>
<mask id="path-154-inside-5_631_99585" fill="white">
<path fill-rule="evenodd" clip-rule="evenodd" d="M366 33.5273H242.867V31.6591H366V33.5273Z"/>
</mask>
<path fill-rule="evenodd" clip-rule="evenodd" d="M366 33.5273H242.867V31.6591H366V33.5273Z" fill="#FE724D"/>
<path d="M242.867 33.5273V34.5273H241.867V33.5273H242.867ZM366 33.5273H367V34.5273H366V33.5273ZM242.867 31.6591H241.867V30.6591H242.867V31.6591ZM366 31.6591V30.6591H367V31.6591H366ZM242.867 32.5273H366V34.5273H242.867V32.5273ZM243.867 31.6591V33.5273H241.867V31.6591H243.867ZM366 32.6591H242.867V30.6591H366V32.6591ZM367 31.6591V33.5273H365V31.6591H367Z" fill="#FE724D" mask="url(#path-154-inside-5_631_99585)"/>
<path fill-rule="evenodd" clip-rule="evenodd" d="M366 27.9883H360.565H358.15L359.857 26.2812L365.462 20.6765L366 20.1385V22.9669L362.979 25.9883H366V27.9883Z" fill="#FE724D"/>
<path fill-rule="evenodd" clip-rule="evenodd" d="M2 20.1008L2.57574 20.6765L8.18037 26.2812L9.88747 27.9883H7.47326H2V25.9883H5.05905L2 22.9292V20.1008Z" fill="#FE724D"/>
<mask id="path-158-inside-6_631_99585" fill="white">
<path fill-rule="evenodd" clip-rule="evenodd" d="M2 31.6591H262.483V33.5273H2V31.6591Z"/>
</mask>
<path fill-rule="evenodd" clip-rule="evenodd" d="M2 31.6591H262.483V33.5273H2V31.6591Z" fill="#FE724D"/>
<path d="M262.483 31.6591V30.6591H263.483V31.6591H262.483ZM2 31.6591H1V30.6591H2V31.6591ZM262.483 33.5273H263.483V34.5273H262.483V33.5273ZM2 33.5273V34.5273H1V33.5273H2ZM262.483 32.6591H2V30.6591H262.483V32.6591ZM261.483 33.5273V31.6591H263.483V33.5273H261.483ZM2 32.5273H262.483V34.5273H2V32.5273ZM1 33.5273V31.6591H3V33.5273H1Z" fill="#FE724D" mask="url(#path-158-inside-6_631_99585)"/>
<path d="M379.814 38.1977C379.814 37.2023 379.007 36.3954 378.011 36.3954C377.016 36.3954 376.209 37.2023 376.209 38.1977C376.209 39.1931 377.016 40 378.011 40C379.007 40 379.814 39.1931 379.814 38.1977Z" stroke="#FE724D" stroke-width="2"/>
<path d="M404.101 38.1977C404.101 37.2023 403.294 36.3954 402.298 36.3954C401.303 36.3954 400.496 37.2023 400.496 38.1977C400.496 39.1931 401.303 40 402.298 40C403.294 40 404.101 39.1931 404.101 38.1977Z" stroke="#FE724D" stroke-width="2"/>
<path d="M428.388 38.1977C428.388 37.2023 427.581 36.3954 426.586 36.3954C425.59 36.3954 424.783 37.2023 424.783 38.1977C424.783 39.1931 425.59 40 426.586 40C427.581 40 428.388 39.1931 428.388 38.1977Z" stroke="#FE724D" stroke-width="2"/>
<path d="M452.675 38.1977C452.675 37.2023 451.868 36.3954 450.873 36.3954C449.877 36.3954 449.07 37.2023 449.07 38.1977C449.07 39.1931 449.877 40 450.873 40C451.868 40 452.675 39.1931 452.675 38.1977Z" stroke="#FE724D" stroke-width="2"/>
<path d="M476.96 38.1977C476.96 37.2023 476.153 36.3954 475.158 36.3954C474.162 36.3954 473.355 37.2023 473.355 38.1977C473.355 39.1931 474.162 40 475.158 40C476.153 40 476.96 39.1931 476.96 38.1977Z" stroke="#FE724D" stroke-width="2"/>
<path d="M501.247 38.1977C501.247 37.2023 500.44 36.3954 499.445 36.3954C498.45 36.3954 497.643 37.2023 497.643 38.1977C497.643 39.1931 498.45 40 499.445 40C500.44 40 501.247 39.1931 501.247 38.1977Z" stroke="#FE724D" stroke-width="2"/>
<path d="M525.534 38.1977C525.534 37.2023 524.727 36.3954 523.732 36.3954C522.737 36.3954 521.93 37.2023 521.93 38.1977C521.93 39.1931 522.737 40 523.732 40C524.727 40 525.534 39.1931 525.534 38.1977Z" stroke="#FE724D" stroke-width="2"/>
<path d="M549.821 38.1977C549.821 37.2023 549.015 36.3954 548.019 36.3954C547.024 36.3954 546.217 37.2023 546.217 38.1977C546.217 39.1931 547.024 40 548.019 40C549.015 40 549.821 39.1931 549.821 38.1977Z" stroke="#FE724D" stroke-width="2"/>
<path d="M574.109 38.1977C574.109 37.2023 573.302 36.3954 572.306 36.3954C571.311 36.3954 570.504 37.2023 570.504 38.1977C570.504 39.1931 571.311 40 572.306 40C573.302 40 574.109 39.1931 574.109 38.1977Z" stroke="#FE724D" stroke-width="2"/>
<path d="M598.394 38.1977C598.394 37.2023 597.587 36.3954 596.591 36.3954C595.596 36.3954 594.789 37.2023 594.789 38.1977C594.789 39.1931 595.596 40 596.591 40C597.587 40 598.394 39.1931 598.394 38.1977Z" stroke="#FE724D" stroke-width="2"/>
<path d="M622.681 38.1977C622.681 37.2023 621.874 36.3954 620.878 36.3954C619.883 36.3954 619.076 37.2023 619.076 38.1977C619.076 39.1931 619.883 40 620.878 40C621.874 40 622.681 39.1931 622.681 38.1977Z" stroke="#FE724D" stroke-width="2"/>
<path d="M390.155 21.3836L384.551 26.9883H395.76L390.155 21.3836Z" stroke="#FE724D" stroke-width="2"/>
<path d="M414.443 21.3836L408.838 26.9883H420.047L414.443 21.3836Z" stroke="#FE724D" stroke-width="2"/>
<path d="M438.728 21.3836L433.123 26.9883H444.332L438.728 21.3836Z" stroke="#FE724D" stroke-width="2"/>
<path d="M463.015 21.3836L457.41 26.9883H468.619L463.015 21.3836Z" stroke="#FE724D" stroke-width="2"/>
<path d="M487.302 21.3836L481.697 26.9883H492.907L487.302 21.3836Z" stroke="#FE724D" stroke-width="2"/>
<path d="M511.589 21.3836L505.984 26.9883H517.194L511.589 21.3836Z" stroke="#FE724D" stroke-width="2"/>
<path d="M535.876 21.3836L530.271 26.9883H541.481L535.876 21.3836Z" stroke="#FE724D" stroke-width="2"/>
<path d="M560.161 21.3836L554.557 26.9883H565.766L560.161 21.3836Z" stroke="#FE724D" stroke-width="2"/>
<path d="M584.448 21.3836L578.844 26.9883H590.053L584.448 21.3836Z" stroke="#FE724D" stroke-width="2"/>
<path d="M608.735 21.3836L603.131 26.9883H614.34L608.735 21.3836Z" stroke="#FE724D" stroke-width="2"/>
<rect x="0.467052" y="-0.467052" width="0.934105" height="3.73642" transform="matrix(1 0 0 -1 377.078 35.396)" fill="#FE724D" stroke="#FE724D" stroke-width="0.934105"/>
<rect x="0.467052" y="-0.467052" width="0.934103" height="3.73642" transform="matrix(1 0 0 -1 401.363 35.396)" fill="#FE724D" stroke="#FE724D" stroke-width="0.934103"/>
<rect x="0.467053" y="-0.467053" width="0.934107" height="3.73642" transform="matrix(1 0 0 -1 425.65 35.396)" fill="#FE724D" stroke="#FE724D" stroke-width="0.934107"/>
<rect x="0.467052" y="-0.467052" width="0.934105" height="3.73642" transform="matrix(1 0 0 -1 449.938 35.396)" fill="#FE724D" stroke="#FE724D" stroke-width="0.934105"/>
<rect x="0.467052" y="-0.467052" width="0.934105" height="3.73642" transform="matrix(1 0 0 -1 474.225 35.396)" fill="#FE724D" stroke="#FE724D" stroke-width="0.934105"/>
<rect x="0.467052" y="-0.467052" width="0.934105" height="3.73642" transform="matrix(1 0 0 -1 498.512 35.396)" fill="#FE724D" stroke="#FE724D" stroke-width="0.934105"/>
<rect x="0.467052" y="-0.467052" width="0.934105" height="3.73642" transform="matrix(1 0 0 -1 522.797 35.396)" fill="#FE724D" stroke="#FE724D" stroke-width="0.934105"/>
<rect x="0.467052" y="-0.467052" width="0.934105" height="3.73642" transform="matrix(1 0 0 -1 547.084 35.396)" fill="#FE724D" stroke="#FE724D" stroke-width="0.934105"/>
<rect x="0.467052" y="-0.467052" width="0.934105" height="3.73642" transform="matrix(1 0 0 -1 571.371 35.396)" fill="#FE724D" stroke="#FE724D" stroke-width="0.934105"/>
<rect x="0.467052" y="-0.467052" width="0.934105" height="3.73642" transform="matrix(1 0 0 -1 595.658 35.396)" fill="#FE724D" stroke="#FE724D" stroke-width="0.934105"/>
<rect x="0.467049" y="-0.467049" width="0.934097" height="3.73643" transform="matrix(1 0 0 -1 619.945 35.396)" fill="#FE724D" stroke="#FE724D" stroke-width="0.934097"/>
<path d="M622.681 38.1977C622.681 37.2023 621.874 36.3954 620.878 36.3954C619.883 36.3954 619.076 37.2023 619.076 38.1977C619.076 39.1931 619.883 40 620.878 40C621.874 40 622.681 39.1931 622.681 38.1977Z" stroke="#FE724D" stroke-width="2"/>
<path d="M646.968 38.1977C646.968 37.2023 646.161 36.3954 645.166 36.3954C644.17 36.3954 643.363 37.2023 643.363 38.1977C643.363 39.1931 644.17 40 645.166 40C646.161 40 646.968 39.1931 646.968 38.1977Z" stroke="#FE724D" stroke-width="2"/>
<path d="M671.255 38.1977C671.255 37.2023 670.448 36.3954 669.453 36.3954C668.457 36.3954 667.65 37.2023 667.65 38.1977C667.65 39.1931 668.457 40 669.453 40C670.448 40 671.255 39.1931 671.255 38.1977Z" stroke="#FE724D" stroke-width="2"/>
<path d="M695.542 38.1977C695.542 37.2023 694.735 36.3954 693.74 36.3954C692.744 36.3954 691.938 37.2023 691.938 38.1977C691.938 39.1931 692.744 40 693.74 40C694.735 40 695.542 39.1931 695.542 38.1977Z" stroke="#FE724D" stroke-width="2"/>
<path d="M719.827 38.1977C719.827 37.2023 719.02 36.3954 718.025 36.3954C717.03 36.3954 716.223 37.2023 716.223 38.1977C716.223 39.1931 717.03 40 718.025 40C719.02 40 719.827 39.1931 719.827 38.1977Z" stroke="#FE724D" stroke-width="2"/>
<path d="M608.735 21.3836L604.064 26.9883H614.34L608.735 21.3836Z" stroke="#FE724D" stroke-width="2"/>
<path d="M633.023 21.3836L627.418 26.9883H638.627L633.023 21.3836Z" stroke="#FE724D" stroke-width="2"/>
<path d="M657.31 21.3836L651.705 26.9883H662.914L657.31 21.3836Z" stroke="#FE724D" stroke-width="2"/>
<path d="M681.595 21.3836L675.99 26.9883H687.199L681.595 21.3836Z" stroke="#FE724D" stroke-width="2"/>
<path d="M705.882 21.3836L700.277 26.9883H711.487L705.882 21.3836Z" stroke="#FE724D" stroke-width="2"/>
<rect x="0.467049" y="-0.467049" width="0.934097" height="3.73643" transform="matrix(1 0 0 -1 619.945 35.396)" fill="#FE724D" stroke="#FE724D" stroke-width="0.934097"/>
<rect x="0.467056" y="-0.467056" width="0.934113" height="3.73641" transform="matrix(1 0 0 -1 644.232 35.396)" fill="#FE724D" stroke="#FE724D" stroke-width="0.934113"/>
<rect x="0.467049" y="-0.467049" width="0.934097" height="3.73643" transform="matrix(1 0 0 -1 668.518 35.396)" fill="#FE724D" stroke="#FE724D" stroke-width="0.934097"/>
<rect x="0.467049" y="-0.467049" width="0.934097" height="3.73643" transform="matrix(1 0 0 -1 692.805 35.396)" fill="#FE724D" stroke="#FE724D" stroke-width="0.934097"/>
<rect x="0.467049" y="-0.467049" width="0.934097" height="3.73643" transform="matrix(1 0 0 -1 717.092 35.396)" fill="#FE724D" stroke="#FE724D" stroke-width="0.934097"/>
<mask id="path-207-inside-7_631_99585" fill="white">
<path fill-rule="evenodd" clip-rule="evenodd" d="M730 33.5273H606.867V31.6591H730V33.5273Z"/>
</mask>
<path fill-rule="evenodd" clip-rule="evenodd" d="M730 33.5273H606.867V31.6591H730V33.5273Z" fill="#FE724D"/>
<path d="M606.867 33.5273V34.5273H605.867V33.5273H606.867ZM730 33.5273H731V34.5273H730V33.5273ZM606.867 31.6591H605.867V30.6591H606.867V31.6591ZM730 31.6591V30.6591H731V31.6591H730ZM606.867 32.5273H730V34.5273H606.867V32.5273ZM607.867 31.6591V33.5273H605.867V31.6591H607.867ZM730 32.6591H606.867V30.6591H730V32.6591ZM731 31.6591V33.5273H729V31.6591H731Z" fill="#FE724D" mask="url(#path-207-inside-7_631_99585)"/>
<path fill-rule="evenodd" clip-rule="evenodd" d="M366 20.1008L366.576 20.6765L372.18 26.2812L373.887 27.9883H371.473H366V25.9883H369.059L366 22.9292V20.1008Z" fill="#FE724D"/>
<mask id="path-210-inside-8_631_99585" fill="white">
<path fill-rule="evenodd" clip-rule="evenodd" d="M366 31.6591H626.483V33.5273H366V31.6591Z"/>
</mask>
<path fill-rule="evenodd" clip-rule="evenodd" d="M366 31.6591H626.483V33.5273H366V31.6591Z" fill="#FE724D"/>
<path d="M626.483 31.6591V30.6591H627.483V31.6591H626.483ZM366 31.6591H365V30.6591H366V31.6591ZM626.483 33.5273H627.483V34.5273H626.483V33.5273ZM366 33.5273V34.5273H365V33.5273H366ZM626.483 32.6591H366V30.6591H626.483V32.6591ZM625.483 33.5273V31.6591H627.483V33.5273H625.483ZM366 32.5273H626.483V34.5273H366V32.5273ZM365 33.5273V31.6591H367V33.5273H365Z" fill="#FE724D" mask="url(#path-210-inside-8_631_99585)"/>
</mask>
<g mask="url(#mask1_631_99585)">
<path d="M2 41H682V8H2V41Z" fill="#FF6058"/>
</g>
</svg>
