<svg width="723" height="41" viewBox="0 0 723 41" fill="none" xmlns="http://www.w3.org/2000/svg">
<mask id="mask0_631_96991" style="mask-type:alpha" maskUnits="userSpaceOnUse" x="0" y="0" width="890" height="22">
<path fill-rule="evenodd" clip-rule="evenodd" d="M193.802 14.9527C192.653 16.0872 191.203 16.8999 189.269 16.8999C187.335 16.8999 185.886 16.0872 184.737 14.9526C183.642 13.871 182.782 12.4564 182.002 11.1714L181.967 11.1137C181.145 9.76223 180.403 8.55116 179.5 7.6601C178.635 6.80578 177.668 6.29238 176.379 6.29238C175.09 6.29238 174.123 6.80578 173.257 7.6601C172.355 8.55116 171.612 9.76223 170.791 11.1137L170.756 11.1714C169.975 12.4565 169.116 13.871 168.021 14.9526C166.872 16.0872 165.422 16.8999 163.488 16.8999C161.554 16.8999 160.103 16.0874 158.954 14.9528C157.858 13.8706 156.998 12.4551 156.217 11.1695L156.183 11.1137C155.362 9.76213 154.619 8.55105 153.717 7.65994C152.852 6.80561 151.885 6.29238 150.598 6.29238C149.309 6.29238 148.342 6.80578 147.476 7.6601C146.574 8.55116 145.831 9.76223 145.01 11.1137L144.975 11.1714C144.194 12.4565 143.335 13.871 142.24 14.9526C141.091 16.0872 139.641 16.8999 137.707 16.8999C135.773 16.8999 134.322 16.0874 133.173 14.9528C132.077 13.8706 131.217 12.4551 130.436 11.1695L130.402 11.1137C129.581 9.76213 128.838 8.55105 127.936 7.65994C127.071 6.80561 126.104 6.29238 124.817 6.29238V4.28965C126.751 4.28965 128.2 5.10236 129.349 6.23694C130.444 7.31856 131.304 8.73314 132.084 10.0182L132.119 10.0758C132.941 11.4273 133.683 12.6384 134.586 13.5295C135.451 14.3838 136.418 14.8972 137.707 14.8972C138.995 14.8972 139.962 14.3839 140.827 13.5296C141.729 12.6385 142.471 11.4274 143.292 10.0758L143.326 10.0201C144.107 8.73441 144.967 7.31897 146.064 6.23678C147.213 5.10219 148.663 4.28965 150.598 4.28965C152.532 4.28965 153.981 5.10236 155.13 6.23694C156.225 7.31855 157.085 8.73312 157.865 10.0182L157.9 10.0758C158.722 11.4273 159.464 12.6384 160.367 13.5295C161.232 14.3838 162.199 14.8972 163.488 14.8972C164.776 14.8972 165.743 14.3839 166.608 13.5296C167.51 12.6385 168.252 11.4274 169.073 10.0758L169.107 10.02C169.888 8.73436 170.748 7.31895 171.844 6.23678C172.994 5.10219 174.444 4.28965 176.379 4.28965C178.313 4.28965 179.764 5.10219 180.913 6.23678C182.009 7.31896 182.869 8.73438 183.65 10.0201L183.684 10.0758C184.505 11.4274 185.248 12.6385 186.15 13.5296C187.015 14.3839 187.981 14.8972 189.269 14.8972C190.557 14.8972 191.524 14.3839 192.389 13.5295C193.292 12.6384 194.034 11.4273 194.856 10.0757C194.867 10.0568 194.879 10.038 194.89 10.019C195.671 8.73365 196.531 7.3187 197.627 6.23684C198.776 5.10233 200.226 4.28965 202.16 4.28965V6.29238C200.872 6.29238 199.905 6.80564 199.04 7.66004C198.137 8.55116 197.394 9.76229 196.573 11.1138C196.562 11.1327 196.55 11.1516 196.539 11.1705C195.757 12.4559 194.898 13.8708 193.802 14.9527Z" fill="#75B875"/>
<path fill-rule="evenodd" clip-rule="evenodd" d="M116.459 14.9527C115.31 16.0872 113.86 16.8999 111.926 16.8999C109.992 16.8999 108.543 16.0872 107.394 14.9526C106.299 13.871 105.44 12.4564 104.659 11.1714L104.624 11.1137C103.803 9.76223 103.06 8.55116 102.157 7.6601C101.292 6.80578 100.325 6.29238 99.0359 6.29238C97.7471 6.29238 96.7798 6.80578 95.9144 7.6601C95.0119 8.55116 94.2693 9.76223 93.4481 11.1137L93.413 11.1714C92.6323 12.4565 91.7729 13.871 90.6778 14.9526C89.5291 16.0872 88.0795 16.8999 86.1454 16.8999C84.2108 16.8999 82.7605 16.0874 81.6112 14.9528C80.5151 13.8706 79.6551 12.4551 78.874 11.1695L78.8402 11.1137C78.0189 9.76213 77.2765 8.55105 76.3743 7.65994C75.5093 6.80561 74.5427 6.29238 73.255 6.29238C71.9662 6.29238 70.9988 6.80578 70.1335 7.6601C69.2309 8.55116 68.4883 9.76223 67.6671 11.1137L67.6321 11.1714C66.8514 12.4565 65.992 13.871 64.8969 14.9526C63.7482 16.0872 62.2985 16.8999 60.3645 16.8999C58.4298 16.8999 56.9795 16.0874 55.8303 14.9528C54.7341 13.8706 53.8742 12.4551 53.0931 11.1695L53.0592 11.1137C52.238 9.76213 51.4956 8.55105 50.5933 7.65994C49.7284 6.80561 48.7617 6.29238 47.474 6.29238V4.28965C49.408 4.28965 50.8577 5.10236 52.0064 6.23694C53.1015 7.31856 53.9609 8.73314 54.7416 10.0182L54.7766 10.0758C55.5978 11.4273 56.3404 12.6384 57.243 13.5295C58.1083 14.3838 59.0757 14.8972 60.3645 14.8972C61.6522 14.8972 62.6189 14.3839 63.4838 13.5296C64.386 12.6385 65.1285 11.4274 65.9497 10.0758L65.9836 10.0201C66.7647 8.73441 67.6246 7.31897 68.7207 6.23678C69.87 5.10219 71.3203 4.28965 73.255 4.28965C75.189 4.28965 76.6386 5.10236 77.7874 6.23694C78.8825 7.31855 79.7419 8.73312 80.5226 10.0182L80.5576 10.0758C81.3788 11.4273 82.1214 12.6384 83.024 13.5295C83.8893 14.3838 84.8566 14.8972 86.1454 14.8972C87.4332 14.8972 88.3998 14.3839 89.2648 13.5296C90.167 12.6385 90.9094 11.4274 91.7307 10.0758L91.7646 10.02C92.5457 8.73436 93.4056 7.31895 94.5017 6.23678C95.6509 5.10219 97.1012 4.28965 99.0359 4.28965C100.971 4.28965 102.421 5.10219 103.57 6.23678C104.666 7.31896 105.526 8.73438 106.307 10.0201L106.341 10.0758C107.162 11.4274 107.905 12.6385 108.807 13.5296C109.672 14.3839 110.639 14.8972 111.926 14.8972C113.214 14.8972 114.181 14.3839 115.046 13.5295C115.949 12.6384 116.692 11.4273 117.513 10.0757C117.524 10.0568 117.536 10.038 117.547 10.019C118.329 8.73365 119.188 7.3187 120.284 6.23684C121.433 5.10233 122.883 4.28965 124.817 4.28965V6.29238C123.529 6.29238 122.562 6.80564 121.697 7.66004C120.794 8.55116 120.052 9.76229 119.23 11.1138C119.219 11.1327 119.207 11.1516 119.196 11.1705C118.415 12.4559 117.555 13.8708 116.459 14.9527Z" fill="#75B875"/>
<rect x="7.37012" y="19.0972" width="26.7358" height="1.9097" rx="0.95485" fill="#75B875"/>
<rect x="58.9321" y="19.0972" width="26.7358" height="1.9097" rx="0.95485" fill="#75B875"/>
<rect x="110.494" y="19.0972" width="27.6907" height="1.9097" rx="0.95485" fill="#75B875"/>
<rect x="163.011" y="19.0972" width="26.7358" height="1.9097" rx="0.95485" fill="#75B875"/>
<rect x="214.573" y="19.0972" width="26.7358" height="1.9097" rx="0.95485" fill="#75B875"/>
<rect x="20.7383" width="26.7358" height="1.9097" rx="0.954851" fill="#75B875"/>
<rect x="72.3003" width="26.7358" height="1.9097" rx="0.954851" fill="#75B875"/>
<rect x="123.862" width="27.6907" height="1.9097" rx="0.954851" fill="#75B875"/>
<rect x="176.379" width="26.7358" height="1.9097" rx="0.954851" fill="#75B875"/>
<rect x="227.941" width="26.7358" height="1.9097" rx="0.954851" fill="#75B875"/>
<ellipse cx="21.6928" cy="12.8905" rx="2.38713" ry="2.38713" fill="#75B875"/>
<ellipse cx="73.2548" cy="12.8905" rx="2.38713" ry="2.38713" fill="#75B875"/>
<ellipse cx="124.817" cy="12.8905" rx="2.38713" ry="2.38713" fill="#75B875"/>
<ellipse cx="176.379" cy="12.8905" rx="2.38713" ry="2.38713" fill="#75B875"/>
<ellipse cx="227.941" cy="12.8905" rx="2.38713" ry="2.38713" fill="#75B875"/>
<ellipse cx="34.5834" cy="8.11613" rx="2.38713" ry="2.38713" fill="#75B875"/>
<ellipse cx="86.1454" cy="8.11613" rx="2.38713" ry="2.38713" fill="#75B875"/>
<ellipse cx="137.707" cy="8.11613" rx="2.38712" ry="2.38713" fill="#75B875"/>
<ellipse cx="189.269" cy="8.11613" rx="2.38712" ry="2.38713" fill="#75B875"/>
<ellipse cx="240.831" cy="8.11613" rx="2.38712" ry="2.38713" fill="#75B875"/>
<path d="M265.18 20.052C265.18 19.5247 265.607 19.0972 266.135 19.0972H270.909V21.0069H266.135C265.607 21.0069 265.18 20.5794 265.18 20.052V20.052Z" fill="#75B875"/>
<path fill-rule="evenodd" clip-rule="evenodd" d="M270.909 12.1076C270.535 12.6409 270.151 13.1233 269.732 13.5367C268.867 14.3911 267.9 14.9044 266.612 14.9044C265.324 14.9044 264.358 14.3912 263.493 13.5368C262.591 12.6457 261.848 11.4346 261.027 10.083L260.993 10.0273C260.212 8.74161 259.352 7.32619 258.256 6.24401C257.107 5.10942 255.656 4.29688 253.722 4.29688C251.787 4.29688 250.337 5.10942 249.187 6.24401C248.091 7.32618 247.231 8.74159 246.45 10.0273L246.416 10.083C245.595 11.4346 244.853 12.6457 243.95 13.5368C243.085 14.3912 242.119 14.9044 240.831 14.9044C239.542 14.9044 238.575 14.391 237.71 13.5367C236.807 12.6456 236.064 11.4345 235.243 10.083L235.208 10.0254C234.428 8.74035 233.568 7.32578 232.473 6.24417C231.324 5.10959 229.875 4.29688 227.941 4.29688C226.006 4.29688 224.556 5.10942 223.406 6.24401C222.31 7.3262 221.45 8.74164 220.669 10.0273L220.635 10.083C219.814 11.4346 219.072 12.6457 218.17 13.5368C217.305 14.3912 216.338 14.9044 215.05 14.9044C213.761 14.9044 212.794 14.391 211.929 13.5367C211.026 12.6456 210.283 11.4345 209.462 10.083L209.427 10.0255L209.427 10.0254C208.647 8.74036 207.787 7.32579 206.692 6.24417C205.543 5.10959 204.094 4.29688 202.16 4.29688V6.29961C203.447 6.29961 204.414 6.81284 205.279 7.66717C206.181 8.55828 206.924 9.76936 207.745 11.121L207.779 11.1767L207.779 11.1768C208.56 12.4624 209.42 13.8778 210.516 14.96C211.665 16.0946 213.115 16.9071 215.05 16.9071C216.984 16.9071 218.434 16.0944 219.583 14.9598C220.678 13.8782 221.537 12.4637 222.318 11.1786L222.353 11.121C223.174 9.76946 223.917 8.55839 224.819 7.66733C225.684 6.81301 226.652 6.29961 227.941 6.29961C229.228 6.29961 230.195 6.81284 231.06 7.66717C231.962 8.55828 232.705 9.76936 233.526 11.121L233.56 11.1767C234.341 12.4624 235.201 13.8778 236.297 14.96C237.446 16.0946 238.896 16.9071 240.831 16.9071C242.765 16.9071 244.215 16.0944 245.364 14.9598C246.459 13.8782 247.318 12.4637 248.099 11.1786L248.134 11.121C248.955 9.76946 249.698 8.55839 250.6 7.66733C251.465 6.81301 252.433 6.29961 253.722 6.29961C255.01 6.29961 255.978 6.81301 256.843 7.66733C257.746 8.55839 258.488 9.76946 259.309 11.121L259.344 11.1786C260.125 12.4637 260.985 13.8782 262.08 14.9598C263.228 16.0944 264.678 16.9071 266.612 16.9071C268.416 16.9071 269.799 16.2001 270.909 15.1843V12.1076Z" fill="#75B875"/>
<path fill-rule="evenodd" clip-rule="evenodd" d="M0.00146484 8.80845C0.507811 9.49645 0.987412 10.2816 1.49741 11.121L1.53127 11.1767C2.31236 12.4624 3.1723 13.8778 4.26845 14.96C5.41768 16.0946 6.86797 16.9071 8.80267 16.9071C10.7367 16.9071 12.1863 16.0944 13.3351 14.9598C14.4301 13.8782 15.2895 12.4637 16.0703 11.1786L16.1053 11.121C16.9265 9.76946 17.6691 8.55839 18.5717 7.66733C19.437 6.81301 20.4043 6.29961 21.6931 6.29961C22.982 6.29961 23.9493 6.81301 24.8146 7.66733C25.7172 8.55839 26.4598 9.76946 27.281 11.121L27.316 11.1786C28.0968 12.4637 28.9561 13.8782 30.0512 14.9598C31.1999 16.0944 32.6496 16.9071 34.5836 16.9071C36.5176 16.9071 37.9675 16.0944 39.1164 14.9599C40.2121 13.8781 41.0719 12.4632 41.853 11.1778L41.8531 11.1777L41.8875 11.1211C42.7089 9.76952 43.4517 8.55839 44.3542 7.66727C45.2195 6.81287 46.1864 6.29961 47.4741 6.29961V4.29688C45.5401 4.29688 44.0903 5.10956 42.9413 6.24407C41.8457 7.32593 40.9858 8.74087 40.2047 10.0263L40.1702 10.0829C39.3488 11.4345 38.6061 12.6456 37.7036 13.5367C36.8383 14.3911 35.8714 14.9044 34.5836 14.9044C33.2959 14.9044 32.3293 14.3912 31.4643 13.5368C30.5621 12.6457 29.8197 11.4346 28.9984 10.083L28.9645 10.0273C28.1834 8.74161 27.3235 7.32619 26.2274 6.24401C25.0781 5.10942 23.6278 4.29688 21.6931 4.29688C19.7585 4.29688 18.3082 5.10942 17.1589 6.24401C16.0628 7.32618 15.2029 8.74159 14.4218 10.0273L14.3879 10.083C13.5666 11.4346 12.8242 12.6457 11.922 13.5368C11.057 14.3912 10.0904 14.9044 8.80267 14.9044C7.51387 14.9044 6.54652 14.391 5.68118 13.5367C4.77862 12.6456 4.036 11.4345 3.21481 10.083L3.17981 10.0254C2.64172 9.13974 2.06627 8.19255 1.40205 7.33525C0.922346 7.81382 0.455303 8.30507 0.00146484 8.80845Z" fill="#75B875"/>
<path fill-rule="evenodd" clip-rule="evenodd" d="M451.612 14.9527C450.463 16.0872 449.013 16.8999 447.079 16.8999C445.145 16.8999 443.696 16.0872 442.547 14.9526C441.452 13.871 440.592 12.4564 439.812 11.1714L439.777 11.1137C438.955 9.76223 438.213 8.55116 437.31 7.6601C436.445 6.80578 435.478 6.29238 434.189 6.29238C432.9 6.29238 431.933 6.80578 431.067 7.6601C430.165 8.55116 429.422 9.76223 428.601 11.1137L428.566 11.1714C427.785 12.4565 426.926 13.871 425.831 14.9526C424.682 16.0872 423.232 16.8999 421.298 16.8999C419.364 16.8999 417.913 16.0874 416.764 14.9528C415.668 13.8706 414.808 12.4551 414.027 11.1695L413.993 11.1137C413.172 9.76213 412.429 8.55105 411.527 7.65994C410.662 6.80561 409.696 6.29238 408.408 6.29238C407.119 6.29238 406.152 6.80578 405.286 7.6601C404.384 8.55116 403.641 9.76223 402.82 11.1137L402.785 11.1714C402.004 12.4565 401.145 13.871 400.05 14.9526C398.901 16.0872 397.451 16.8999 395.517 16.8999C393.583 16.8999 392.132 16.0874 390.983 14.9528C389.887 13.8706 389.027 12.4551 388.246 11.1695L388.212 11.1137C387.391 9.76213 386.648 8.55105 385.746 7.65994C384.881 6.80561 383.915 6.29238 382.627 6.29238V4.28965C384.561 4.28965 386.011 5.10236 387.159 6.23694C388.254 7.31856 389.114 8.73314 389.894 10.0182L389.929 10.0758C390.751 11.4273 391.493 12.6384 392.396 13.5295C393.261 14.3838 394.229 14.8972 395.517 14.8972C396.805 14.8972 397.772 14.3839 398.637 13.5296C399.539 12.6385 400.281 11.4274 401.103 10.0758L401.136 10.0201C401.917 8.73441 402.777 7.31897 403.874 6.23678C405.023 5.10219 406.473 4.28965 408.408 4.28965C410.342 4.28965 411.791 5.10236 412.94 6.23694C414.035 7.31855 414.895 8.73312 415.675 10.0182L415.71 10.0758C416.532 11.4273 417.274 12.6384 418.177 13.5295C419.042 14.3838 420.009 14.8972 421.298 14.8972C422.586 14.8972 423.553 14.3839 424.418 13.5296C425.32 12.6385 426.062 11.4274 426.884 10.0758L426.917 10.02C427.698 8.73436 428.558 7.31895 429.655 6.23678C430.804 5.10219 432.254 4.28965 434.189 4.28965C436.123 4.28965 437.574 5.10219 438.723 6.23678C439.819 7.31896 440.679 8.73438 441.46 10.0201L441.494 10.0758C442.315 11.4274 443.058 12.6385 443.96 13.5296C444.825 14.3839 445.792 14.8972 447.079 14.8972C448.367 14.8972 449.334 14.3839 450.199 13.5295C451.102 12.6384 451.844 11.4273 452.666 10.0757C452.677 10.0568 452.689 10.038 452.7 10.019C453.481 8.73365 454.341 7.3187 455.437 6.23684C456.586 5.10233 458.036 4.28965 459.97 4.28965V6.29238C458.682 6.29238 457.715 6.80564 456.85 7.66004C455.947 8.55116 455.205 9.76229 454.383 11.1138C454.372 11.1327 454.36 11.1516 454.349 11.1705C453.568 12.4559 452.708 13.8708 451.612 14.9527Z" fill="#75B875"/>
<path fill-rule="evenodd" clip-rule="evenodd" d="M374.269 14.9527C373.12 16.0872 371.67 16.8999 369.736 16.8999C367.802 16.8999 366.353 16.0872 365.204 14.9526C364.109 13.871 363.25 12.4564 362.469 11.1714L362.434 11.1137C361.613 9.76223 360.87 8.55116 359.967 7.6601C359.102 6.80578 358.135 6.29238 356.846 6.29238C355.557 6.29238 354.59 6.80578 353.725 7.6601C352.822 8.55116 352.079 9.76223 351.258 11.1137L351.223 11.1714C350.442 12.4565 349.583 13.871 348.488 14.9526C347.339 16.0872 345.89 16.8999 343.956 16.8999C342.021 16.8999 340.571 16.0874 339.421 14.9528C338.325 13.8706 337.465 12.4551 336.684 11.1695L336.65 11.1137C335.829 9.76213 335.087 8.55105 334.184 7.65994C333.319 6.80561 332.353 6.29238 331.065 6.29238C329.776 6.29238 328.809 6.80578 327.944 7.6601C327.041 8.55116 326.298 9.76223 325.477 11.1137L325.442 11.1714C324.661 12.4565 323.802 13.871 322.707 14.9526C321.558 16.0872 320.109 16.8999 318.175 16.8999C316.24 16.8999 314.79 16.0874 313.64 14.9528C312.544 13.8706 311.684 12.4551 310.903 11.1695L310.869 11.1137C310.048 9.76213 309.306 8.55105 308.403 7.65994C307.538 6.80561 306.572 6.29238 305.284 6.29238V4.28965C307.218 4.28965 308.668 5.10236 309.816 6.23694C310.912 7.31856 311.771 8.73314 312.552 10.0182L312.587 10.0758C313.408 11.4273 314.15 12.6384 315.053 13.5295C315.918 14.3838 316.886 14.8972 318.175 14.8972C319.462 14.8972 320.429 14.3839 321.294 13.5296C322.196 12.6385 322.939 11.4274 323.76 10.0758L323.794 10.0201C324.575 8.73441 325.435 7.31897 326.531 6.23678C327.68 5.10219 329.13 4.28965 331.065 4.28965C332.999 4.28965 334.449 5.10236 335.597 6.23694C336.693 7.31855 337.552 8.73312 338.333 10.0182L338.368 10.0758C339.189 11.4273 339.931 12.6384 340.834 13.5295C341.699 14.3838 342.667 14.8972 343.956 14.8972C345.243 14.8972 346.21 14.3839 347.075 13.5296C347.977 12.6385 348.719 11.4274 349.541 10.0758L349.575 10.02C350.356 8.73436 351.216 7.31895 352.312 6.23678C353.461 5.10219 354.911 4.28965 356.846 4.28965C358.781 4.28965 360.231 5.10219 361.38 6.23678C362.476 7.31896 363.336 8.73438 364.117 10.0201L364.151 10.0758C364.972 11.4274 365.715 12.6385 366.617 13.5296C367.482 14.3839 368.449 14.8972 369.736 14.8972C371.024 14.8972 371.991 14.3839 372.856 13.5295C373.759 12.6384 374.502 11.4273 375.323 10.0757C375.335 10.0568 375.346 10.038 375.358 10.019C376.139 8.73365 376.999 7.3187 378.094 6.23684C379.243 5.10233 380.693 4.28965 382.627 4.28965V6.29238C381.339 6.29238 380.372 6.80564 379.507 7.66004C378.605 8.55116 377.862 9.76229 377.04 11.1138C377.029 11.1327 377.017 11.1516 377.006 11.1705C376.225 12.4559 375.365 13.8708 374.269 14.9527Z" fill="#75B875"/>
<rect x="265.18" y="19.0972" width="26.7358" height="1.9097" rx="0.95485" fill="#75B875"/>
<rect x="316.742" y="19.0972" width="26.7358" height="1.9097" rx="0.95485" fill="#75B875"/>
<rect x="368.304" y="19.0972" width="27.6907" height="1.9097" rx="0.95485" fill="#75B875"/>
<rect x="420.821" y="19.0972" width="26.7358" height="1.9097" rx="0.95485" fill="#75B875"/>
<rect x="472.383" y="19.0972" width="26.7358" height="1.9097" rx="0.95485" fill="#75B875"/>
<rect x="278.548" width="26.7358" height="1.9097" rx="0.954851" fill="#75B875"/>
<rect x="330.11" width="26.7358" height="1.9097" rx="0.954851" fill="#75B875"/>
<rect x="381.672" width="27.6907" height="1.9097" rx="0.954851" fill="#75B875"/>
<rect x="434.189" width="26.7358" height="1.9097" rx="0.954851" fill="#75B875"/>
<rect x="485.751" width="26.7358" height="1.9097" rx="0.954851" fill="#75B875"/>
<ellipse cx="279.503" cy="12.8905" rx="2.38713" ry="2.38713" fill="#75B875"/>
<ellipse cx="331.065" cy="12.8905" rx="2.38713" ry="2.38713" fill="#75B875"/>
<ellipse cx="382.627" cy="12.8905" rx="2.38713" ry="2.38713" fill="#75B875"/>
<ellipse cx="434.189" cy="12.8905" rx="2.38713" ry="2.38713" fill="#75B875"/>
<ellipse cx="485.751" cy="12.8905" rx="2.38713" ry="2.38713" fill="#75B875"/>
<ellipse cx="292.393" cy="8.11613" rx="2.38713" ry="2.38713" fill="#75B875"/>
<ellipse cx="343.955" cy="8.11613" rx="2.38713" ry="2.38713" fill="#75B875"/>
<ellipse cx="395.517" cy="8.11613" rx="2.38712" ry="2.38713" fill="#75B875"/>
<ellipse cx="447.079" cy="8.11613" rx="2.38712" ry="2.38713" fill="#75B875"/>
<ellipse cx="498.642" cy="8.11613" rx="2.38712" ry="2.38713" fill="#75B875"/>
<path d="M522.99 20.052C522.99 19.5247 523.418 19.0972 523.945 19.0972H528.719V21.0069H523.945C523.418 21.0069 522.99 20.5794 522.99 20.052V20.052Z" fill="#75B875"/>
<path fill-rule="evenodd" clip-rule="evenodd" d="M528.719 12.1076C528.345 12.6409 527.961 13.1233 527.542 13.5367C526.677 14.3911 525.71 14.9044 524.422 14.9044C523.134 14.9044 522.168 14.3912 521.303 13.5368C520.401 12.6457 519.658 11.4346 518.837 10.083L518.803 10.0273C518.022 8.74161 517.162 7.32619 516.066 6.24401C514.917 5.10942 513.466 4.29688 511.532 4.29688C509.597 4.29688 508.147 5.10942 506.997 6.24401C505.901 7.32618 505.041 8.74159 504.26 10.0273L504.226 10.083C503.405 11.4346 502.663 12.6457 501.761 13.5368C500.896 14.3912 499.929 14.9044 498.641 14.9044C497.352 14.9044 496.385 14.391 495.52 13.5367C494.617 12.6456 493.875 11.4345 493.053 10.083L493.018 10.0254C492.238 8.74035 491.378 7.32578 490.283 6.24417C489.134 5.10959 487.685 4.29688 485.751 4.29688C483.816 4.29688 482.366 5.10942 481.216 6.24401C480.12 7.3262 479.26 8.74164 478.479 10.0273L478.445 10.083C477.624 11.4346 476.882 12.6457 475.98 13.5368C475.115 14.3912 474.148 14.9044 472.86 14.9044C471.571 14.9044 470.604 14.391 469.739 13.5367C468.836 12.6456 468.094 11.4345 467.272 10.083L467.237 10.0255L467.237 10.0254C466.457 8.74036 465.597 7.32579 464.502 6.24417C463.353 5.10959 461.904 4.29688 459.97 4.29688V6.29961C461.257 6.29961 462.224 6.81284 463.089 7.66717C463.991 8.55828 464.734 9.76936 465.555 11.121L465.589 11.1767L465.589 11.1768C466.37 12.4624 467.23 13.8778 468.326 14.96C469.475 16.0946 470.926 16.9071 472.86 16.9071C474.794 16.9071 476.244 16.0944 477.393 14.9598C478.488 13.8782 479.347 12.4637 480.128 11.1786L480.163 11.121C480.984 9.76946 481.727 8.55839 482.629 7.66733C483.495 6.81301 484.462 6.29961 485.751 6.29961C487.038 6.29961 488.005 6.81284 488.87 7.66717C489.772 8.55828 490.515 9.76936 491.336 11.121L491.37 11.1767C492.151 12.4624 493.011 13.8778 494.107 14.96C495.256 16.0946 496.706 16.9071 498.641 16.9071C500.575 16.9071 502.025 16.0944 503.174 14.9598C504.269 13.8782 505.128 12.4637 505.909 11.1786L505.944 11.121C506.765 9.76946 507.508 8.55839 508.41 7.66733C509.276 6.81301 510.243 6.29961 511.532 6.29961C512.82 6.29961 513.788 6.81301 514.653 7.66733C515.556 8.55839 516.298 9.76946 517.12 11.121L517.155 11.1786C517.935 12.4637 518.795 13.8782 519.89 14.9598C521.038 16.0944 522.488 16.9071 524.422 16.9071C526.226 16.9071 527.609 16.2001 528.719 15.1843V12.1076Z" fill="#75B875"/>
<path fill-rule="evenodd" clip-rule="evenodd" d="M257.812 8.80845C258.318 9.49645 258.797 10.2816 259.307 11.121L259.341 11.1767C260.122 12.4624 260.982 13.8778 262.079 14.96C263.228 16.0946 264.678 16.9071 266.613 16.9071C268.547 16.9071 269.996 16.0944 271.145 14.9598C272.24 13.8782 273.1 12.4637 273.88 11.1786L273.915 11.121C274.737 9.76946 275.479 8.55839 276.382 7.66733C277.247 6.81301 278.214 6.29961 279.503 6.29961C280.792 6.29961 281.759 6.81301 282.625 7.66733C283.527 8.55839 284.27 9.76946 285.091 11.121L285.126 11.1786C285.907 12.4637 286.766 13.8782 287.861 14.9598C289.01 16.0944 290.46 16.9071 292.394 16.9071C294.328 16.9071 295.778 16.0944 296.926 14.9599C298.022 13.8781 298.882 12.4632 299.663 11.1778L299.663 11.1777L299.698 11.1211C300.519 9.76952 301.262 8.55839 302.164 7.66727C303.03 6.81287 303.996 6.29961 305.284 6.29961V4.29688C303.35 4.29688 301.9 5.10956 300.751 6.24407C299.656 7.32593 298.796 8.74087 298.015 10.0263L297.98 10.0829C297.159 11.4345 296.416 12.6456 295.514 13.5367C294.648 14.3911 293.681 14.9044 292.394 14.9044C291.106 14.9044 290.139 14.3912 289.274 13.5368C288.372 12.6457 287.63 11.4346 286.808 10.083L286.775 10.0273C285.993 8.74161 285.134 7.32619 284.037 6.24401C282.888 5.10942 281.438 4.29688 279.503 4.29688C277.569 4.29688 276.118 5.10942 274.969 6.24401C273.873 7.32618 273.013 8.74159 272.232 10.0273L272.198 10.083C271.377 11.4346 270.634 12.6457 269.732 13.5368C268.867 14.3912 267.9 14.9044 266.613 14.9044C265.324 14.9044 264.357 14.391 263.491 13.5367C262.589 12.6456 261.846 11.4345 261.025 10.083L260.99 10.0254C260.452 9.13974 259.876 8.19255 259.212 7.33525C258.732 7.81382 258.265 8.30507 257.812 8.80845Z" fill="#75B875"/>
<path fill-rule="evenodd" clip-rule="evenodd" d="M554.802 14.9527C553.653 16.0872 552.203 16.8999 550.269 16.8999C548.335 16.8999 546.886 16.0872 545.737 14.9526C544.642 13.871 543.782 12.4564 543.002 11.1714L542.967 11.1137C542.145 9.76223 541.403 8.55116 540.5 7.6601C539.635 6.80578 538.668 6.29238 537.379 6.29238C536.09 6.29238 535.123 6.80578 534.257 7.6601C533.355 8.55116 532.612 9.76223 531.791 11.1137L531.756 11.1714C530.975 12.4565 530.116 13.871 529.021 14.9526C527.872 16.0872 526.422 16.8999 524.488 16.8999C522.554 16.8999 521.103 16.0874 519.954 14.9528C518.858 13.8706 517.998 12.4551 517.217 11.1695L517.183 11.1137C516.362 9.76213 515.619 8.55105 514.717 7.65994C513.852 6.80561 512.885 6.29238 511.598 6.29238C510.309 6.29238 509.342 6.80578 508.476 7.6601C507.574 8.55116 506.831 9.76223 506.01 11.1137L505.975 11.1714C505.194 12.4565 504.335 13.871 503.24 14.9526C502.091 16.0872 500.641 16.8999 498.707 16.8999C496.773 16.8999 495.322 16.0874 494.173 14.9528C493.077 13.8706 492.217 12.4551 491.436 11.1695L491.402 11.1137C490.581 9.76213 489.838 8.55105 488.936 7.65994C488.071 6.80561 487.104 6.29238 485.817 6.29238V4.28965C487.751 4.28965 489.2 5.10236 490.349 6.23694C491.444 7.31856 492.304 8.73314 493.084 10.0182L493.119 10.0758C493.941 11.4273 494.683 12.6384 495.586 13.5295C496.451 14.3838 497.418 14.8972 498.707 14.8972C499.995 14.8972 500.962 14.3839 501.827 13.5296C502.729 12.6385 503.471 11.4274 504.292 10.0758L504.326 10.0201C505.107 8.73441 505.967 7.31897 507.064 6.23678C508.213 5.10219 509.663 4.28965 511.598 4.28965C513.532 4.28965 514.981 5.10236 516.13 6.23694C517.225 7.31855 518.085 8.73312 518.865 10.0182L518.9 10.0758C519.722 11.4273 520.464 12.6384 521.367 13.5295C522.232 14.3838 523.199 14.8972 524.488 14.8972C525.776 14.8972 526.743 14.3839 527.608 13.5296C528.51 12.6385 529.252 11.4274 530.073 10.0758L530.107 10.02C530.888 8.73436 531.748 7.31895 532.844 6.23678C533.994 5.10219 535.444 4.28965 537.379 4.28965C539.313 4.28965 540.764 5.10219 541.913 6.23678C543.009 7.31896 543.869 8.73438 544.65 10.0201L544.684 10.0758C545.505 11.4274 546.248 12.6385 547.15 13.5296C548.015 14.3839 548.981 14.8972 550.269 14.8972C551.557 14.8972 552.524 14.3839 553.389 13.5295C554.292 12.6384 555.034 11.4273 555.856 10.0757C555.867 10.0568 555.879 10.038 555.89 10.019C556.671 8.73365 557.531 7.3187 558.627 6.23684C559.776 5.10233 561.226 4.28965 563.16 4.28965V6.29238C561.872 6.29238 560.905 6.80564 560.04 7.66004C559.137 8.55116 558.394 9.76229 557.573 11.1138C557.562 11.1327 557.55 11.1516 557.539 11.1705C556.757 12.4559 555.898 13.8708 554.802 14.9527Z" fill="#75B875"/>
<path fill-rule="evenodd" clip-rule="evenodd" d="M477.459 14.9527C476.31 16.0872 474.86 16.8999 472.926 16.8999C470.992 16.8999 469.543 16.0872 468.394 14.9526C467.299 13.871 466.44 12.4564 465.659 11.1714L465.624 11.1137C464.803 9.76223 464.06 8.55116 463.157 7.6601C462.292 6.80578 461.325 6.29238 460.036 6.29238C458.747 6.29238 457.78 6.80578 456.914 7.6601C456.012 8.55116 455.269 9.76223 454.448 11.1137L454.413 11.1714C453.632 12.4565 452.773 13.871 451.678 14.9526C450.529 16.0872 449.079 16.8999 447.145 16.8999C445.211 16.8999 443.76 16.0874 442.611 14.9528C441.515 13.8706 440.655 12.4551 439.874 11.1695L439.84 11.1137C439.019 9.76213 438.277 8.55105 437.374 7.65994C436.509 6.80561 435.543 6.29238 434.255 6.29238C432.966 6.29238 431.999 6.80578 431.133 7.6601C430.231 8.55116 429.488 9.76223 428.667 11.1137L428.632 11.1714C427.851 12.4565 426.992 13.871 425.897 14.9526C424.748 16.0872 423.298 16.8999 421.364 16.8999C419.43 16.8999 417.979 16.0874 416.83 14.9528C415.734 13.8706 414.874 12.4551 414.093 11.1695L414.059 11.1137C413.238 9.76213 412.496 8.55105 411.593 7.65994C410.728 6.80561 409.762 6.29238 408.474 6.29238V4.28965C410.408 4.28965 411.858 5.10236 413.006 6.23694C414.102 7.31856 414.961 8.73314 415.742 10.0182L415.777 10.0758C416.598 11.4273 417.34 12.6384 418.243 13.5295C419.108 14.3838 420.076 14.8972 421.364 14.8972C422.652 14.8972 423.619 14.3839 424.484 13.5296C425.386 12.6385 426.128 11.4274 426.95 10.0758L426.984 10.0201C427.765 8.73441 428.625 7.31897 429.721 6.23678C430.87 5.10219 432.32 4.28965 434.255 4.28965C436.189 4.28965 437.639 5.10236 438.787 6.23694C439.882 7.31855 440.742 8.73312 441.523 10.0182L441.558 10.0758C442.379 11.4273 443.121 12.6384 444.024 13.5295C444.889 14.3838 445.857 14.8972 447.145 14.8972C448.433 14.8972 449.4 14.3839 450.265 13.5296C451.167 12.6385 451.909 11.4274 452.731 10.0758L452.765 10.02C453.546 8.73436 454.406 7.31895 455.502 6.23678C456.651 5.10219 458.101 4.28965 460.036 4.28965C461.971 4.28965 463.421 5.10219 464.57 6.23678C465.666 7.31896 466.526 8.73438 467.307 10.0201L467.341 10.0758C468.162 11.4274 468.905 12.6385 469.807 13.5296C470.672 14.3839 471.639 14.8972 472.926 14.8972C474.214 14.8972 475.181 14.3839 476.046 13.5295C476.949 12.6384 477.692 11.4273 478.513 10.0757C478.524 10.0568 478.536 10.038 478.547 10.019C479.329 8.73365 480.188 7.3187 481.284 6.23684C482.433 5.10233 483.883 4.28965 485.817 4.28965V6.29238C484.529 6.29238 483.562 6.80564 482.697 7.66004C481.794 8.55116 481.052 9.76229 480.23 11.1138C480.219 11.1327 480.207 11.1516 480.196 11.1705C479.415 12.4559 478.555 13.8708 477.459 14.9527Z" fill="#75B875"/>
<rect x="368.37" y="19.0972" width="26.7358" height="1.9097" rx="0.95485" fill="#75B875"/>
<rect x="419.932" y="19.0972" width="26.7358" height="1.9097" rx="0.95485" fill="#75B875"/>
<rect x="471.494" y="19.0972" width="27.6907" height="1.9097" rx="0.95485" fill="#75B875"/>
<rect x="524.011" y="19.0972" width="26.7358" height="1.9097" rx="0.95485" fill="#75B875"/>
<rect x="575.573" y="19.0972" width="26.7358" height="1.9097" rx="0.95485" fill="#75B875"/>
<rect x="381.738" width="26.7358" height="1.9097" rx="0.954851" fill="#75B875"/>
<rect x="433.3" width="26.7358" height="1.9097" rx="0.954851" fill="#75B875"/>
<rect x="484.862" width="27.6907" height="1.9097" rx="0.954851" fill="#75B875"/>
<rect x="537.379" width="26.7358" height="1.9097" rx="0.954851" fill="#75B875"/>
<rect x="588.941" width="26.7358" height="1.9097" rx="0.954851" fill="#75B875"/>
<ellipse cx="382.693" cy="12.8905" rx="2.38713" ry="2.38713" fill="#75B875"/>
<ellipse cx="434.255" cy="12.8905" rx="2.38713" ry="2.38713" fill="#75B875"/>
<ellipse cx="485.817" cy="12.8905" rx="2.38713" ry="2.38713" fill="#75B875"/>
<ellipse cx="537.379" cy="12.8905" rx="2.38713" ry="2.38713" fill="#75B875"/>
<ellipse cx="588.941" cy="12.8905" rx="2.38713" ry="2.38713" fill="#75B875"/>
<ellipse cx="395.583" cy="8.11613" rx="2.38713" ry="2.38713" fill="#75B875"/>
<ellipse cx="447.145" cy="8.11613" rx="2.38713" ry="2.38713" fill="#75B875"/>
<ellipse cx="498.707" cy="8.11613" rx="2.38712" ry="2.38713" fill="#75B875"/>
<ellipse cx="550.269" cy="8.11613" rx="2.38712" ry="2.38713" fill="#75B875"/>
<ellipse cx="601.831" cy="8.11613" rx="2.38712" ry="2.38713" fill="#75B875"/>
<path d="M626.18 20.052C626.18 19.5247 626.607 19.0972 627.135 19.0972H631.909V21.0069H627.135C626.607 21.0069 626.18 20.5794 626.18 20.052V20.052Z" fill="#75B875"/>
<path fill-rule="evenodd" clip-rule="evenodd" d="M631.909 12.1076C631.535 12.6409 631.151 13.1233 630.732 13.5367C629.867 14.3911 628.9 14.9044 627.612 14.9044C626.324 14.9044 625.358 14.3912 624.493 13.5368C623.591 12.6457 622.848 11.4346 622.027 10.083L621.993 10.0273C621.212 8.74161 620.352 7.32619 619.256 6.24401C618.107 5.10942 616.656 4.29688 614.722 4.29688C612.787 4.29688 611.337 5.10942 610.187 6.24401C609.091 7.32618 608.231 8.74159 607.45 10.0273L607.416 10.083C606.595 11.4346 605.853 12.6457 604.95 13.5368C604.085 14.3912 603.119 14.9044 601.831 14.9044C600.542 14.9044 599.575 14.391 598.71 13.5367C597.807 12.6456 597.064 11.4345 596.243 10.083L596.208 10.0254C595.428 8.74035 594.568 7.32578 593.473 6.24417C592.324 5.10959 590.875 4.29688 588.941 4.29688C587.006 4.29688 585.556 5.10942 584.406 6.24401C583.31 7.3262 582.45 8.74164 581.669 10.0273L581.635 10.083C580.814 11.4346 580.072 12.6457 579.17 13.5368C578.305 14.3912 577.338 14.9044 576.05 14.9044C574.761 14.9044 573.794 14.391 572.929 13.5367C572.026 12.6456 571.283 11.4345 570.462 10.083L570.427 10.0255L570.427 10.0254C569.647 8.74036 568.787 7.32579 567.692 6.24417C566.543 5.10959 565.094 4.29688 563.16 4.29688V6.29961C564.447 6.29961 565.414 6.81284 566.279 7.66717C567.181 8.55828 567.924 9.76936 568.745 11.121L568.779 11.1767L568.779 11.1768C569.56 12.4624 570.42 13.8778 571.516 14.96C572.665 16.0946 574.115 16.9071 576.05 16.9071C577.984 16.9071 579.434 16.0944 580.583 14.9598C581.678 13.8782 582.537 12.4637 583.318 11.1786L583.353 11.121C584.174 9.76946 584.917 8.55839 585.819 7.66733C586.684 6.81301 587.652 6.29961 588.941 6.29961C590.228 6.29961 591.195 6.81284 592.06 7.66717C592.962 8.55828 593.705 9.76936 594.526 11.121L594.56 11.1767C595.341 12.4624 596.201 13.8778 597.297 14.96C598.446 16.0946 599.896 16.9071 601.831 16.9071C603.765 16.9071 605.215 16.0944 606.364 14.9598C607.459 13.8782 608.318 12.4637 609.099 11.1786L609.134 11.121C609.955 9.76946 610.698 8.55839 611.6 7.66733C612.465 6.81301 613.433 6.29961 614.722 6.29961C616.01 6.29961 616.978 6.81301 617.843 7.66733C618.746 8.55839 619.488 9.76946 620.309 11.121L620.344 11.1786C621.125 12.4637 621.985 13.8782 623.08 14.9598C624.228 16.0944 625.678 16.9071 627.612 16.9071C629.416 16.9071 630.799 16.2001 631.909 15.1843V12.1076Z" fill="#75B875"/>
<path fill-rule="evenodd" clip-rule="evenodd" d="M361.001 8.80845C361.508 9.49645 361.987 10.2816 362.497 11.121L362.531 11.1767C363.312 12.4624 364.172 13.8778 365.268 14.96C366.418 16.0946 367.868 16.9071 369.803 16.9071C371.737 16.9071 373.186 16.0944 374.335 14.9598C375.43 13.8782 376.29 12.4637 377.07 11.1786L377.105 11.121C377.926 9.76946 378.669 8.55839 379.572 7.66733C380.437 6.81301 381.404 6.29961 382.693 6.29961C383.982 6.29961 384.949 6.81301 385.815 7.66733C386.717 8.55839 387.46 9.76946 388.281 11.121L388.316 11.1786C389.097 12.4637 389.956 13.8782 391.051 14.9598C392.2 16.0944 393.65 16.9071 395.584 16.9071C397.518 16.9071 398.967 16.0944 400.116 14.9599C401.212 13.8781 402.072 12.4632 402.853 11.1778L402.853 11.1777L402.888 11.1211C403.709 9.76952 404.452 8.55839 405.354 7.66727C406.219 6.81287 407.186 6.29961 408.474 6.29961V4.29688C406.54 4.29688 405.09 5.10956 403.941 6.24407C402.846 7.32593 401.986 8.74087 401.205 10.0263L401.17 10.0829C400.349 11.4345 399.606 12.6456 398.704 13.5367C397.838 14.3911 396.871 14.9044 395.584 14.9044C394.296 14.9044 393.329 14.3912 392.464 13.5368C391.562 12.6457 390.82 11.4346 389.998 10.083L389.965 10.0273C389.183 8.74161 388.324 7.32619 387.227 6.24401C386.078 5.10942 384.628 4.29688 382.693 4.29688C380.758 4.29688 379.308 5.10942 378.159 6.24401C377.063 7.32618 376.203 8.74159 375.422 10.0273L375.388 10.083C374.567 11.4346 373.824 12.6457 372.922 13.5368C372.057 14.3912 371.09 14.9044 369.803 14.9044C368.514 14.9044 367.547 14.391 366.681 13.5367C365.779 12.6456 365.036 11.4345 364.215 10.083L364.18 10.0254C363.642 9.13974 363.066 8.19255 362.402 7.33525C361.922 7.81382 361.455 8.30507 361.001 8.80845Z" fill="#75B875"/>
<path fill-rule="evenodd" clip-rule="evenodd" d="M735.269 14.9527C734.12 16.0872 732.67 16.8999 730.736 16.8999C728.802 16.8999 727.353 16.0872 726.204 14.9526C725.109 13.871 724.25 12.4564 723.469 11.1714L723.434 11.1137C722.613 9.76223 721.87 8.55116 720.967 7.6601C720.102 6.80578 719.135 6.29238 717.846 6.29238C716.557 6.29238 715.59 6.80578 714.725 7.6601C713.822 8.55116 713.079 9.76223 712.258 11.1137L712.223 11.1714C711.442 12.4565 710.583 13.871 709.488 14.9526C708.339 16.0872 706.89 16.8999 704.956 16.8999C703.021 16.8999 701.571 16.0874 700.421 14.9528C699.325 13.8706 698.465 12.4551 697.684 11.1695L697.65 11.1137C696.829 9.76213 696.087 8.55105 695.184 7.65994C694.319 6.80561 693.353 6.29238 692.065 6.29238C690.776 6.29238 689.809 6.80578 688.944 7.6601C688.041 8.55116 687.298 9.76223 686.477 11.1137L686.442 11.1714C685.661 12.4565 684.802 13.871 683.707 14.9526C682.558 16.0872 681.109 16.8999 679.175 16.8999C677.24 16.8999 675.79 16.0874 674.64 14.9528C673.544 13.8706 672.684 12.4551 671.903 11.1695L671.869 11.1137C671.048 9.76213 670.306 8.55105 669.403 7.65994C668.538 6.80561 667.572 6.29238 666.284 6.29238V4.28965C668.218 4.28965 669.668 5.10236 670.816 6.23694C671.912 7.31856 672.771 8.73314 673.552 10.0182L673.587 10.0758C674.408 11.4273 675.15 12.6384 676.053 13.5295C676.918 14.3838 677.886 14.8972 679.175 14.8972C680.462 14.8972 681.429 14.3839 682.294 13.5296C683.196 12.6385 683.939 11.4274 684.76 10.0758L684.794 10.0201C685.575 8.73441 686.435 7.31897 687.531 6.23678C688.68 5.10219 690.13 4.28965 692.065 4.28965C693.999 4.28965 695.449 5.10236 696.597 6.23694C697.693 7.31855 698.552 8.73312 699.333 10.0182L699.368 10.0758C700.189 11.4273 700.931 12.6384 701.834 13.5295C702.699 14.3838 703.667 14.8972 704.956 14.8972C706.243 14.8972 707.21 14.3839 708.075 13.5296C708.977 12.6385 709.719 11.4274 710.541 10.0758L710.575 10.02C711.356 8.73436 712.216 7.31895 713.312 6.23678C714.461 5.10219 715.911 4.28965 717.846 4.28965C719.781 4.28965 721.231 5.10219 722.38 6.23678C723.476 7.31896 724.336 8.73438 725.117 10.0201L725.151 10.0758C725.972 11.4274 726.715 12.6385 727.617 13.5296C728.482 14.3839 729.449 14.8972 730.736 14.8972C732.024 14.8972 732.991 14.3839 733.856 13.5295C734.759 12.6384 735.502 11.4273 736.323 10.0757C736.335 10.0568 736.346 10.038 736.358 10.019C737.139 8.73365 737.999 7.3187 739.094 6.23684C740.243 5.10233 741.693 4.28965 743.627 4.28965V6.29238C742.339 6.29238 741.372 6.80564 740.507 7.66004C739.605 8.55116 738.862 9.76229 738.04 11.1138C738.029 11.1327 738.017 11.1516 738.006 11.1705C737.225 12.4559 736.365 13.8708 735.269 14.9527Z" fill="#75B875"/>
<rect x="626.18" y="19.0972" width="26.7358" height="1.9097" rx="0.95485" fill="#75B875"/>
<rect x="677.742" y="19.0972" width="26.7358" height="1.9097" rx="0.95485" fill="#75B875"/>
<rect x="639.548" width="26.7358" height="1.9097" rx="0.954851" fill="#75B875"/>
<rect x="691.11" width="26.7358" height="1.9097" rx="0.954851" fill="#75B875"/>
<ellipse cx="640.503" cy="12.8905" rx="2.38713" ry="2.38713" fill="#75B875"/>
<ellipse cx="692.065" cy="12.8905" rx="2.38713" ry="2.38713" fill="#75B875"/>
<ellipse cx="653.393" cy="8.11613" rx="2.38713" ry="2.38713" fill="#75B875"/>
<ellipse cx="704.956" cy="8.11613" rx="2.38713" ry="2.38713" fill="#75B875"/>
<path fill-rule="evenodd" clip-rule="evenodd" d="M618.812 8.80845C619.318 9.49645 619.797 10.2816 620.307 11.121L620.341 11.1767C621.122 12.4624 621.982 13.8778 623.079 14.96C624.228 16.0946 625.678 16.9071 627.613 16.9071C629.547 16.9071 630.996 16.0944 632.145 14.9598C633.24 13.8782 634.1 12.4637 634.88 11.1786L634.915 11.121C635.737 9.76946 636.479 8.55839 637.382 7.66733C638.247 6.81301 639.214 6.29961 640.503 6.29961C641.792 6.29961 642.759 6.81301 643.625 7.66733C644.527 8.55839 645.27 9.76946 646.091 11.121L646.126 11.1786C646.907 12.4637 647.766 13.8782 648.861 14.9598C650.01 16.0944 651.46 16.9071 653.394 16.9071C655.328 16.9071 656.778 16.0944 657.926 14.9599C659.022 13.8781 659.882 12.4632 660.663 11.1778L660.663 11.1777L660.698 11.1211C661.519 9.76952 662.262 8.55839 663.164 7.66727C664.03 6.81287 664.996 6.29961 666.284 6.29961V4.29688C664.35 4.29688 662.9 5.10956 661.751 6.24407C660.656 7.32593 659.796 8.74087 659.015 10.0263L658.98 10.0829C658.159 11.4345 657.416 12.6456 656.514 13.5367C655.648 14.3911 654.681 14.9044 653.394 14.9044C652.106 14.9044 651.139 14.3912 650.274 13.5368C649.372 12.6457 648.63 11.4346 647.808 10.083L647.775 10.0273C646.993 8.74161 646.134 7.32619 645.037 6.24401C643.888 5.10942 642.438 4.29688 640.503 4.29688C638.569 4.29688 637.118 5.10942 635.969 6.24401C634.873 7.32618 634.013 8.74159 633.232 10.0273L633.198 10.083C632.377 11.4346 631.634 12.6457 630.732 13.5368C629.867 14.3912 628.9 14.9044 627.613 14.9044C626.324 14.9044 625.357 14.391 624.491 13.5367C623.589 12.6456 622.846 11.4345 622.025 10.083L621.99 10.0254C621.452 9.13974 620.876 8.19255 620.212 7.33525C619.732 7.81382 619.265 8.30507 618.812 8.80845Z" fill="#75B875"/>
</mask>
<g mask="url(#mask0_631_96991)">
<path d="M3 0H683V29H3V0Z" fill="#75B875"/>
</g>
<mask id="mask1_631_96991" style="mask-type:alpha" maskUnits="userSpaceOnUse" x="0" y="19" width="890" height="22">
<path fill-rule="evenodd" clip-rule="evenodd" d="M193.802 25.0541C192.653 23.9196 191.203 23.1069 189.269 23.1069C187.335 23.1069 185.886 23.9197 184.737 25.0542C183.642 26.1358 182.782 27.5504 182.002 28.8355L181.967 28.8931C181.145 30.2446 180.403 31.4557 179.5 32.3467C178.635 33.2011 177.668 33.7145 176.379 33.7145C175.09 33.7145 174.123 33.2011 173.257 32.3467C172.355 31.4557 171.612 30.2446 170.791 28.8931L170.756 28.8354C169.975 27.5504 169.116 26.1358 168.021 25.0542C166.872 23.9197 165.422 23.1069 163.488 23.1069C161.554 23.1069 160.103 23.9195 158.954 25.0541C157.858 26.1363 156.998 27.5517 156.217 28.8374L156.183 28.8931C155.362 30.2447 154.619 31.4558 153.717 32.3469C152.852 33.2012 151.885 33.7145 150.598 33.7145C149.309 33.7145 148.342 33.2011 147.476 32.3467C146.574 31.4557 145.831 30.2446 145.01 28.8931L144.975 28.8354C144.194 27.5504 143.335 26.1358 142.24 25.0542C141.091 23.9197 139.641 23.1069 137.707 23.1069C135.773 23.1069 134.322 23.9195 133.173 25.0541C132.077 26.1363 131.217 27.5517 130.436 28.8374L130.402 28.8931C129.581 30.2447 128.838 31.4558 127.936 32.3469C127.071 33.2012 126.104 33.7145 124.817 33.7145V35.7172C126.751 35.7172 128.2 34.9045 129.349 33.7699C130.444 32.6883 131.304 31.2737 132.084 29.9886L132.119 29.931C132.941 28.5795 133.683 27.3684 134.586 26.4774C135.451 25.6231 136.418 25.1097 137.707 25.1097C138.995 25.1097 139.962 25.6229 140.827 26.4772C141.729 27.3683 142.471 28.5794 143.292 29.931L143.326 29.9867C144.107 31.2724 144.967 32.6879 146.064 33.7701C147.213 34.9046 148.663 35.7172 150.598 35.7172C152.532 35.7172 153.981 34.9045 155.13 33.7699C156.225 32.6883 157.085 31.2737 157.865 29.9886L157.9 29.931C158.722 28.5795 159.464 27.3684 160.367 26.4774C161.232 25.6231 162.199 25.1097 163.488 25.1097C164.776 25.1097 165.743 25.6229 166.608 26.4772C167.51 27.3683 168.252 28.5794 169.073 29.931L169.107 29.9868C169.888 31.2725 170.748 32.6879 171.844 33.7701C172.994 34.9046 174.444 35.7172 176.379 35.7172C178.313 35.7172 179.764 34.9046 180.913 33.7701C182.009 32.6879 182.869 31.2725 183.65 29.9868L183.684 29.931C184.505 28.5794 185.248 27.3683 186.15 26.4772C187.015 25.6229 187.981 25.1097 189.269 25.1097C190.557 25.1097 191.524 25.6229 192.389 26.4773C193.292 27.3685 194.034 28.5796 194.856 29.9311C194.867 29.95 194.879 29.9689 194.89 29.9878C195.671 31.2732 196.531 32.6881 197.627 33.77C198.776 34.9045 200.226 35.7172 202.16 35.7172V33.7145C200.872 33.7145 199.905 33.2012 199.04 32.3468C198.137 31.4557 197.394 30.2445 196.573 28.893C196.562 28.8741 196.55 28.8552 196.539 28.8363C195.757 27.5509 194.898 26.136 193.802 25.0541Z" fill="#75B875"/>
<path fill-rule="evenodd" clip-rule="evenodd" d="M116.459 25.0541C115.31 23.9196 113.86 23.1069 111.926 23.1069C109.992 23.1069 108.543 23.9197 107.394 25.0542C106.299 26.1358 105.44 27.5504 104.659 28.8355L104.624 28.8931C103.803 30.2446 103.06 31.4557 102.157 32.3467C101.292 33.2011 100.325 33.7145 99.0359 33.7145C97.7471 33.7145 96.7798 33.2011 95.9144 32.3467C95.0119 31.4557 94.2693 30.2446 93.4481 28.8931L93.413 28.8354C92.6323 27.5504 91.7729 26.1358 90.6778 25.0542C89.5291 23.9197 88.0795 23.1069 86.1454 23.1069C84.2108 23.1069 82.7605 23.9195 81.6112 25.0541C80.5151 26.1363 79.6551 27.5517 78.874 28.8374L78.8402 28.8931C78.0189 30.2447 77.2765 31.4558 76.3743 32.3469C75.5093 33.2012 74.5427 33.7145 73.255 33.7145C71.9662 33.7145 70.9988 33.2011 70.1335 32.3467C69.2309 31.4557 68.4883 30.2446 67.6671 28.8931L67.6321 28.8354C66.8514 27.5504 65.992 26.1358 64.8969 25.0542C63.7482 23.9197 62.2985 23.1069 60.3645 23.1069C58.4298 23.1069 56.9795 23.9195 55.8303 25.0541C54.7341 26.1363 53.8742 27.5517 53.0931 28.8374L53.0592 28.8931C52.238 30.2447 51.4956 31.4558 50.5933 32.3469C49.7284 33.2012 48.7617 33.7145 47.474 33.7145V35.7172C49.408 35.7172 50.8577 34.9045 52.0064 33.7699C53.1015 32.6883 53.9609 31.2737 54.7416 29.9886L54.7766 29.931C55.5978 28.5795 56.3404 27.3684 57.243 26.4774C58.1083 25.6231 59.0757 25.1097 60.3645 25.1097C61.6522 25.1097 62.6189 25.6229 63.4838 26.4772C64.386 27.3683 65.1285 28.5794 65.9497 29.931L65.9836 29.9867C66.7647 31.2724 67.6246 32.6879 68.7207 33.7701C69.87 34.9046 71.3203 35.7172 73.255 35.7172C75.189 35.7172 76.6386 34.9045 77.7874 33.7699C78.8825 32.6883 79.7419 31.2737 80.5226 29.9886L80.5576 29.931C81.3788 28.5795 82.1214 27.3684 83.024 26.4774C83.8893 25.6231 84.8566 25.1097 86.1454 25.1097C87.4332 25.1097 88.3998 25.6229 89.2648 26.4772C90.167 27.3683 90.9094 28.5794 91.7307 29.931L91.7646 29.9868C92.5457 31.2725 93.4056 32.6879 94.5017 33.7701C95.6509 34.9046 97.1012 35.7172 99.0359 35.7172C100.971 35.7172 102.421 34.9046 103.57 33.7701C104.666 32.6879 105.526 31.2725 106.307 29.9868L106.341 29.931C107.162 28.5794 107.905 27.3683 108.807 26.4772C109.672 25.6229 110.639 25.1097 111.926 25.1097C113.214 25.1097 114.181 25.6229 115.046 26.4773C115.949 27.3685 116.692 28.5796 117.513 29.9311C117.524 29.95 117.536 29.9689 117.547 29.9878C118.329 31.2732 119.188 32.6881 120.284 33.77C121.433 34.9045 122.883 35.7172 124.817 35.7172V33.7145C123.529 33.7145 122.562 33.2012 121.697 32.3468C120.794 31.4557 120.052 30.2445 119.23 28.893C119.219 28.8741 119.207 28.8552 119.196 28.8363C118.415 27.5509 117.555 26.136 116.459 25.0541Z" fill="#75B875"/>
<rect width="26.7358" height="1.9097" rx="0.95485" transform="matrix(1 0 0 -1 7.37012 20.9097)" fill="#75B875"/>
<rect width="26.7358" height="1.9097" rx="0.95485" transform="matrix(1 0 0 -1 58.9321 20.9097)" fill="#75B875"/>
<rect width="27.6907" height="1.9097" rx="0.95485" transform="matrix(1 0 0 -1 110.494 20.9097)" fill="#75B875"/>
<rect width="26.7358" height="1.9097" rx="0.95485" transform="matrix(1 0 0 -1 163.011 20.9097)" fill="#75B875"/>
<rect width="26.7358" height="1.9097" rx="0.95485" transform="matrix(1 0 0 -1 214.573 20.9097)" fill="#75B875"/>
<rect width="26.7358" height="1.9097" rx="0.954851" transform="matrix(1 0 0 -1 20.7383 40.0068)" fill="#75B875"/>
<rect width="26.7358" height="1.9097" rx="0.954851" transform="matrix(1 0 0 -1 72.3003 40.0068)" fill="#75B875"/>
<rect width="27.6907" height="1.9097" rx="0.954851" transform="matrix(1 0 0 -1 123.862 40.0068)" fill="#75B875"/>
<rect width="26.7358" height="1.9097" rx="0.954851" transform="matrix(1 0 0 -1 176.379 40.0068)" fill="#75B875"/>
<rect width="26.7358" height="1.9097" rx="0.954851" transform="matrix(1 0 0 -1 227.941 40.0068)" fill="#75B875"/>
<ellipse rx="2.38713" ry="2.38713" transform="matrix(1 0 0 -1 21.6928 27.1163)" fill="#75B875"/>
<ellipse rx="2.38713" ry="2.38713" transform="matrix(1 0 0 -1 73.2548 27.1163)" fill="#75B875"/>
<ellipse rx="2.38713" ry="2.38713" transform="matrix(1 0 0 -1 124.817 27.1163)" fill="#75B875"/>
<ellipse rx="2.38713" ry="2.38713" transform="matrix(1 0 0 -1 176.379 27.1163)" fill="#75B875"/>
<ellipse rx="2.38713" ry="2.38713" transform="matrix(1 0 0 -1 227.941 27.1163)" fill="#75B875"/>
<ellipse rx="2.38713" ry="2.38713" transform="matrix(1 0 0 -1 34.5834 31.8907)" fill="#75B875"/>
<ellipse rx="2.38713" ry="2.38713" transform="matrix(1 0 0 -1 86.1454 31.8907)" fill="#75B875"/>
<ellipse rx="2.38712" ry="2.38713" transform="matrix(1 0 0 -1 137.707 31.8907)" fill="#75B875"/>
<ellipse rx="2.38712" ry="2.38713" transform="matrix(1 0 0 -1 189.269 31.8907)" fill="#75B875"/>
<ellipse rx="2.38712" ry="2.38713" transform="matrix(1 0 0 -1 240.831 31.8907)" fill="#75B875"/>
<path d="M265.18 19.9548C265.18 20.4822 265.607 20.9097 266.135 20.9097H270.909V19H266.135C265.607 19 265.18 19.4275 265.18 19.9548V19.9548Z" fill="#75B875"/>
<path fill-rule="evenodd" clip-rule="evenodd" d="M270.909 27.8993C270.535 27.3659 270.151 26.8836 269.732 26.4701C268.867 25.6157 267.9 25.1024 266.612 25.1024C265.324 25.1024 264.358 25.6157 263.493 26.47C262.591 27.3611 261.848 28.5722 261.027 29.9238L260.993 29.9795C260.212 31.2652 259.352 32.6806 258.256 33.7628C257.107 34.8974 255.656 35.71 253.722 35.71C251.787 35.71 250.337 34.8974 249.187 33.7628C248.091 32.6807 247.231 31.2652 246.45 29.9796L246.416 29.9238C245.595 28.5722 244.853 27.3611 243.95 26.47C243.085 25.6157 242.119 25.1024 240.831 25.1024C239.542 25.1024 238.575 25.6158 237.71 26.4702C236.807 27.3612 236.064 28.5723 235.243 29.9238L235.208 29.9814C234.428 31.2665 233.568 32.6811 232.473 33.7627C231.324 34.8972 229.875 35.71 227.941 35.71C226.006 35.71 224.556 34.8974 223.406 33.7628C222.31 32.6806 221.45 31.2652 220.669 29.9795L220.635 29.9238C219.814 28.5722 219.072 27.3611 218.17 26.47C217.305 25.6157 216.338 25.1024 215.05 25.1024C213.761 25.1024 212.794 25.6158 211.929 26.4702C211.026 27.3612 210.283 28.5723 209.462 29.9238L209.427 29.9814L209.427 29.9814C208.647 31.2665 207.787 32.681 206.692 33.7627C205.543 34.8972 204.094 35.71 202.16 35.71V33.7072C203.447 33.7072 204.414 33.194 205.279 32.3397C206.181 31.4486 206.924 30.2375 207.745 28.8859L207.779 28.8301L207.779 28.8301C208.56 27.5444 209.42 26.129 210.516 25.0468C211.665 23.9122 213.115 23.0997 215.05 23.0997C216.984 23.0997 218.434 23.9124 219.583 25.047C220.678 26.1286 221.537 27.5431 222.318 28.8282L222.353 28.8859C223.174 30.2374 223.917 31.4484 224.819 32.3395C225.684 33.1938 226.652 33.7072 227.941 33.7072C229.228 33.7072 230.195 33.194 231.06 32.3397C231.962 31.4486 232.705 30.2375 233.526 28.8859L233.56 28.8301C234.341 27.5445 235.201 26.129 236.297 25.0468C237.446 23.9122 238.896 23.0997 240.831 23.0997C242.765 23.0997 244.215 23.9124 245.364 25.047C246.459 26.1286 247.318 27.5431 248.099 28.8282L248.134 28.8859C248.955 30.2374 249.698 31.4484 250.6 32.3395C251.465 33.1938 252.433 33.7072 253.722 33.7072C255.01 33.7072 255.978 33.1938 256.843 32.3395C257.746 31.4484 258.488 30.2374 259.309 28.8859L259.344 28.8282C260.125 27.5432 260.985 26.1286 262.08 25.047C263.228 23.9124 264.678 23.0997 266.612 23.0997C268.416 23.0997 269.799 23.8067 270.909 24.8225V27.8993Z" fill="#75B875"/>
<path fill-rule="evenodd" clip-rule="evenodd" d="M0.00146484 31.1984C0.507811 30.5104 0.987412 29.7252 1.49741 28.8859L1.53127 28.8301C2.31236 27.5445 3.1723 26.129 4.26845 25.0468C5.41768 23.9122 6.86797 23.0997 8.80267 23.0997C10.7367 23.0997 12.1863 23.9124 13.3351 25.047C14.4301 26.1286 15.2895 27.5431 16.0703 28.8282L16.1053 28.8859C16.9265 30.2374 17.6691 31.4484 18.5717 32.3395C19.437 33.1938 20.4043 33.7072 21.6931 33.7072C22.982 33.7072 23.9493 33.1938 24.8146 32.3395C25.7172 31.4484 26.4598 30.2374 27.281 28.8859L27.316 28.8282C28.0968 27.5432 28.9561 26.1286 30.0512 25.047C31.1999 23.9124 32.6496 23.0997 34.5836 23.0997C36.5176 23.0997 37.9675 23.9124 39.1164 25.0469C40.2121 26.1287 41.0719 27.5437 41.853 28.829L41.8531 28.8291L41.8875 28.8858C42.7089 30.2373 43.4517 31.4484 44.3542 32.3396C45.2195 33.194 46.1864 33.7072 47.4741 33.7072V35.71C45.5401 35.71 44.0903 34.8973 42.9413 33.7628C41.8457 32.6809 40.9858 31.266 40.2047 29.9806L40.1702 29.9239C39.3488 28.5724 38.6061 27.3612 37.7036 26.4701C36.8383 25.6157 35.8714 25.1024 34.5836 25.1024C33.2959 25.1024 32.3293 25.6157 31.4643 26.47C30.5621 27.3611 29.8197 28.5722 28.9984 29.9238L28.9645 29.9795C28.1834 31.2652 27.3235 32.6806 26.2274 33.7628C25.0781 34.8974 23.6278 35.71 21.6931 35.71C19.7585 35.71 18.3082 34.8974 17.1589 33.7628C16.0628 32.6807 15.2029 31.2652 14.4218 29.9796L14.3879 29.9238C13.5666 28.5722 12.8242 27.3611 11.922 26.47C11.057 25.6157 10.0904 25.1024 8.80267 25.1024C7.51387 25.1024 6.54652 25.6158 5.68118 26.4702C4.77862 27.3612 4.036 28.5723 3.21481 29.9238L3.17981 29.9814C2.64172 30.8671 2.06627 31.8143 1.40205 32.6716C0.922346 32.193 0.455303 31.7018 0.00146484 31.1984Z" fill="#75B875"/>
<path fill-rule="evenodd" clip-rule="evenodd" d="M451.612 25.0541C450.463 23.9196 449.013 23.1069 447.079 23.1069C445.145 23.1069 443.696 23.9197 442.547 25.0542C441.452 26.1358 440.592 27.5504 439.812 28.8355L439.777 28.8931C438.955 30.2446 438.213 31.4557 437.31 32.3467C436.445 33.2011 435.478 33.7145 434.189 33.7145C432.9 33.7145 431.933 33.2011 431.067 32.3467C430.165 31.4557 429.422 30.2446 428.601 28.8931L428.566 28.8354C427.785 27.5504 426.926 26.1358 425.831 25.0542C424.682 23.9197 423.232 23.1069 421.298 23.1069C419.364 23.1069 417.913 23.9195 416.764 25.0541C415.668 26.1363 414.808 27.5517 414.027 28.8374L413.993 28.8931C413.172 30.2447 412.429 31.4558 411.527 32.3469C410.662 33.2012 409.696 33.7145 408.408 33.7145C407.119 33.7145 406.152 33.2011 405.286 32.3467C404.384 31.4557 403.641 30.2446 402.82 28.8931L402.785 28.8354C402.004 27.5504 401.145 26.1358 400.05 25.0542C398.901 23.9197 397.451 23.1069 395.517 23.1069C393.583 23.1069 392.132 23.9195 390.983 25.0541C389.887 26.1363 389.027 27.5517 388.246 28.8374L388.212 28.8931C387.391 30.2447 386.648 31.4558 385.746 32.3469C384.881 33.2012 383.915 33.7145 382.627 33.7145V35.7172C384.561 35.7172 386.011 34.9045 387.159 33.7699C388.254 32.6883 389.114 31.2737 389.894 29.9886L389.929 29.931C390.751 28.5795 391.493 27.3684 392.396 26.4774C393.261 25.6231 394.229 25.1097 395.517 25.1097C396.805 25.1097 397.772 25.6229 398.637 26.4772C399.539 27.3683 400.281 28.5794 401.103 29.931L401.136 29.9867C401.917 31.2724 402.777 32.6879 403.874 33.7701C405.023 34.9046 406.473 35.7172 408.408 35.7172C410.342 35.7172 411.791 34.9045 412.94 33.7699C414.035 32.6883 414.895 31.2737 415.675 29.9886L415.71 29.931C416.532 28.5795 417.274 27.3684 418.177 26.4774C419.042 25.6231 420.009 25.1097 421.298 25.1097C422.586 25.1097 423.553 25.6229 424.418 26.4772C425.32 27.3683 426.062 28.5794 426.884 29.931L426.917 29.9868C427.698 31.2725 428.558 32.6879 429.655 33.7701C430.804 34.9046 432.254 35.7172 434.189 35.7172C436.123 35.7172 437.574 34.9046 438.723 33.7701C439.819 32.6879 440.679 31.2725 441.46 29.9868L441.494 29.931C442.315 28.5794 443.058 27.3683 443.96 26.4772C444.825 25.6229 445.792 25.1097 447.079 25.1097C448.367 25.1097 449.334 25.6229 450.199 26.4773C451.102 27.3685 451.844 28.5796 452.666 29.9311C452.677 29.95 452.689 29.9689 452.7 29.9878C453.481 31.2732 454.341 32.6881 455.437 33.77C456.586 34.9045 458.036 35.7172 459.97 35.7172V33.7145C458.682 33.7145 457.715 33.2012 456.85 32.3468C455.947 31.4557 455.205 30.2445 454.383 28.893C454.372 28.8741 454.36 28.8552 454.349 28.8363C453.568 27.5509 452.708 26.136 451.612 25.0541Z" fill="#75B875"/>
<path fill-rule="evenodd" clip-rule="evenodd" d="M374.269 25.0541C373.12 23.9196 371.67 23.1069 369.736 23.1069C367.802 23.1069 366.353 23.9197 365.204 25.0542C364.109 26.1358 363.25 27.5504 362.469 28.8355L362.434 28.8931C361.613 30.2446 360.87 31.4557 359.967 32.3467C359.102 33.2011 358.135 33.7145 356.846 33.7145C355.557 33.7145 354.59 33.2011 353.725 32.3467C352.822 31.4557 352.079 30.2446 351.258 28.8931L351.223 28.8354C350.442 27.5504 349.583 26.1358 348.488 25.0542C347.339 23.9197 345.89 23.1069 343.956 23.1069C342.021 23.1069 340.571 23.9195 339.421 25.0541C338.325 26.1363 337.465 27.5517 336.684 28.8374L336.65 28.8931C335.829 30.2447 335.087 31.4558 334.184 32.3469C333.319 33.2012 332.353 33.7145 331.065 33.7145C329.776 33.7145 328.809 33.2011 327.944 32.3467C327.041 31.4557 326.298 30.2446 325.477 28.8931L325.442 28.8354C324.661 27.5504 323.802 26.1358 322.707 25.0542C321.558 23.9197 320.109 23.1069 318.175 23.1069C316.24 23.1069 314.79 23.9195 313.64 25.0541C312.544 26.1363 311.684 27.5517 310.903 28.8374L310.869 28.8931C310.048 30.2447 309.306 31.4558 308.403 32.3469C307.538 33.2012 306.572 33.7145 305.284 33.7145V35.7172C307.218 35.7172 308.668 34.9045 309.816 33.7699C310.912 32.6883 311.771 31.2737 312.552 29.9886L312.587 29.931C313.408 28.5795 314.15 27.3684 315.053 26.4774C315.918 25.6231 316.886 25.1097 318.175 25.1097C319.462 25.1097 320.429 25.6229 321.294 26.4772C322.196 27.3683 322.939 28.5794 323.76 29.931L323.794 29.9867C324.575 31.2724 325.435 32.6879 326.531 33.7701C327.68 34.9046 329.13 35.7172 331.065 35.7172C332.999 35.7172 334.449 34.9045 335.597 33.7699C336.693 32.6883 337.552 31.2737 338.333 29.9886L338.368 29.931C339.189 28.5795 339.931 27.3684 340.834 26.4774C341.699 25.6231 342.667 25.1097 343.956 25.1097C345.243 25.1097 346.21 25.6229 347.075 26.4772C347.977 27.3683 348.719 28.5794 349.541 29.931L349.575 29.9868C350.356 31.2725 351.216 32.6879 352.312 33.7701C353.461 34.9046 354.911 35.7172 356.846 35.7172C358.781 35.7172 360.231 34.9046 361.38 33.7701C362.476 32.6879 363.336 31.2725 364.117 29.9868L364.151 29.931C364.972 28.5794 365.715 27.3683 366.617 26.4772C367.482 25.6229 368.449 25.1097 369.736 25.1097C371.024 25.1097 371.991 25.6229 372.856 26.4773C373.759 27.3685 374.502 28.5796 375.323 29.9311C375.335 29.95 375.346 29.9689 375.358 29.9878C376.139 31.2732 376.999 32.6881 378.094 33.77C379.243 34.9045 380.693 35.7172 382.627 35.7172V33.7145C381.339 33.7145 380.372 33.2012 379.507 32.3468C378.605 31.4557 377.862 30.2445 377.04 28.893C377.029 28.8741 377.017 28.8552 377.006 28.8363C376.225 27.5509 375.365 26.136 374.269 25.0541Z" fill="#75B875"/>
<rect width="26.7358" height="1.9097" rx="0.95485" transform="matrix(1 0 0 -1 265.18 20.9097)" fill="#75B875"/>
<rect width="26.7358" height="1.9097" rx="0.95485" transform="matrix(1 0 0 -1 316.742 20.9097)" fill="#75B875"/>
<rect width="27.6907" height="1.9097" rx="0.95485" transform="matrix(1 0 0 -1 368.304 20.9097)" fill="#75B875"/>
<rect width="26.7358" height="1.9097" rx="0.95485" transform="matrix(1 0 0 -1 420.821 20.9097)" fill="#75B875"/>
<rect width="26.7358" height="1.9097" rx="0.95485" transform="matrix(1 0 0 -1 472.383 20.9097)" fill="#75B875"/>
<rect width="26.7358" height="1.9097" rx="0.954851" transform="matrix(1 0 0 -1 278.548 40.0068)" fill="#75B875"/>
<rect width="26.7358" height="1.9097" rx="0.954851" transform="matrix(1 0 0 -1 330.11 40.0068)" fill="#75B875"/>
<rect width="27.6907" height="1.9097" rx="0.954851" transform="matrix(1 0 0 -1 381.672 40.0068)" fill="#75B875"/>
<rect width="26.7358" height="1.9097" rx="0.954851" transform="matrix(1 0 0 -1 434.189 40.0068)" fill="#75B875"/>
<rect width="26.7358" height="1.9097" rx="0.954851" transform="matrix(1 0 0 -1 485.751 40.0068)" fill="#75B875"/>
<ellipse rx="2.38713" ry="2.38713" transform="matrix(1 0 0 -1 279.503 27.1163)" fill="#75B875"/>
<ellipse rx="2.38713" ry="2.38713" transform="matrix(1 0 0 -1 331.065 27.1163)" fill="#75B875"/>
<ellipse rx="2.38713" ry="2.38713" transform="matrix(1 0 0 -1 382.627 27.1163)" fill="#75B875"/>
<ellipse rx="2.38713" ry="2.38713" transform="matrix(1 0 0 -1 434.189 27.1163)" fill="#75B875"/>
<ellipse rx="2.38713" ry="2.38713" transform="matrix(1 0 0 -1 485.751 27.1163)" fill="#75B875"/>
<ellipse rx="2.38713" ry="2.38713" transform="matrix(1 0 0 -1 292.393 31.8907)" fill="#75B875"/>
<ellipse rx="2.38713" ry="2.38713" transform="matrix(1 0 0 -1 343.955 31.8907)" fill="#75B875"/>
<ellipse rx="2.38712" ry="2.38713" transform="matrix(1 0 0 -1 395.517 31.8907)" fill="#75B875"/>
<ellipse rx="2.38712" ry="2.38713" transform="matrix(1 0 0 -1 447.08 31.8907)" fill="#75B875"/>
<ellipse rx="2.38712" ry="2.38713" transform="matrix(1 0 0 -1 498.642 31.8907)" fill="#75B875"/>
<path d="M522.99 19.9548C522.99 20.4822 523.418 20.9097 523.945 20.9097H528.719V19H523.945C523.418 19 522.99 19.4275 522.99 19.9548V19.9548Z" fill="#75B875"/>
<path fill-rule="evenodd" clip-rule="evenodd" d="M528.719 27.8993C528.345 27.3659 527.961 26.8836 527.542 26.4701C526.677 25.6157 525.71 25.1024 524.422 25.1024C523.134 25.1024 522.168 25.6157 521.303 26.47C520.401 27.3611 519.658 28.5722 518.837 29.9238L518.803 29.9795C518.022 31.2652 517.162 32.6806 516.066 33.7628C514.917 34.8974 513.466 35.71 511.532 35.71C509.597 35.71 508.147 34.8974 506.997 33.7628C505.901 32.6807 505.041 31.2652 504.26 29.9796L504.226 29.9238C503.405 28.5722 502.663 27.3611 501.761 26.47C500.896 25.6157 499.929 25.1024 498.641 25.1024C497.352 25.1024 496.385 25.6158 495.52 26.4702C494.617 27.3612 493.875 28.5723 493.053 29.9238L493.018 29.9814C492.238 31.2665 491.378 32.6811 490.283 33.7627C489.134 34.8972 487.685 35.71 485.751 35.71C483.816 35.71 482.366 34.8974 481.216 33.7628C480.12 32.6806 479.26 31.2652 478.479 29.9795L478.445 29.9238C477.624 28.5722 476.882 27.3611 475.98 26.47C475.115 25.6157 474.148 25.1024 472.86 25.1024C471.571 25.1024 470.604 25.6158 469.739 26.4702C468.836 27.3612 468.094 28.5723 467.272 29.9238L467.237 29.9814L467.237 29.9814C466.457 31.2665 465.597 32.681 464.502 33.7627C463.353 34.8972 461.904 35.71 459.97 35.71V33.7072C461.257 33.7072 462.224 33.194 463.089 32.3397C463.991 31.4486 464.734 30.2375 465.555 28.8859L465.589 28.8301L465.589 28.8301C466.37 27.5444 467.23 26.129 468.326 25.0468C469.475 23.9122 470.926 23.0997 472.86 23.0997C474.794 23.0997 476.244 23.9124 477.393 25.047C478.488 26.1286 479.347 27.5431 480.128 28.8282L480.163 28.8859C480.984 30.2374 481.727 31.4484 482.629 32.3395C483.495 33.1938 484.462 33.7072 485.751 33.7072C487.038 33.7072 488.005 33.194 488.87 32.3397C489.772 31.4486 490.515 30.2375 491.336 28.8859L491.37 28.8301C492.151 27.5445 493.011 26.129 494.107 25.0468C495.256 23.9122 496.706 23.0997 498.641 23.0997C500.575 23.0997 502.025 23.9124 503.174 25.047C504.269 26.1286 505.128 27.5431 505.909 28.8282L505.944 28.8859C506.765 30.2374 507.508 31.4484 508.41 32.3395C509.276 33.1938 510.243 33.7072 511.532 33.7072C512.82 33.7072 513.788 33.1938 514.653 32.3395C515.556 31.4484 516.298 30.2374 517.12 28.8859L517.155 28.8282C517.935 27.5432 518.795 26.1286 519.89 25.047C521.038 23.9124 522.488 23.0997 524.422 23.0997C526.226 23.0997 527.609 23.8067 528.719 24.8225V27.8993Z" fill="#75B875"/>
<path fill-rule="evenodd" clip-rule="evenodd" d="M257.812 31.1984C258.318 30.5104 258.797 29.7252 259.307 28.8859L259.341 28.8301C260.122 27.5445 260.982 26.129 262.079 25.0468C263.228 23.9122 264.678 23.0997 266.613 23.0997C268.547 23.0997 269.996 23.9124 271.145 25.047C272.24 26.1286 273.1 27.5431 273.88 28.8282L273.915 28.8859C274.737 30.2374 275.479 31.4484 276.382 32.3395C277.247 33.1938 278.214 33.7072 279.503 33.7072C280.792 33.7072 281.759 33.1938 282.625 32.3395C283.527 31.4484 284.27 30.2374 285.091 28.8859L285.126 28.8282C285.907 27.5432 286.766 26.1286 287.861 25.047C289.01 23.9124 290.46 23.0997 292.394 23.0997C294.328 23.0997 295.778 23.9124 296.926 25.0469C298.022 26.1287 298.882 27.5437 299.663 28.829L299.663 28.8291L299.698 28.8858C300.519 30.2373 301.262 31.4484 302.164 32.3396C303.03 33.194 303.996 33.7072 305.284 33.7072V35.71C303.35 35.71 301.9 34.8973 300.751 33.7628C299.656 32.6809 298.796 31.266 298.015 29.9806L297.98 29.9239C297.159 28.5724 296.416 27.3612 295.514 26.4701C294.648 25.6157 293.681 25.1024 292.394 25.1024C291.106 25.1024 290.139 25.6157 289.274 26.47C288.372 27.3611 287.63 28.5722 286.808 29.9238L286.775 29.9795C285.993 31.2652 285.134 32.6806 284.037 33.7628C282.888 34.8974 281.438 35.71 279.503 35.71C277.569 35.71 276.118 34.8974 274.969 33.7628C273.873 32.6807 273.013 31.2652 272.232 29.9796L272.198 29.9238C271.377 28.5722 270.634 27.3611 269.732 26.47C268.867 25.6157 267.9 25.1024 266.613 25.1024C265.324 25.1024 264.357 25.6158 263.491 26.4702C262.589 27.3612 261.846 28.5723 261.025 29.9238L260.99 29.9814C260.452 30.8671 259.876 31.8143 259.212 32.6716C258.732 32.193 258.265 31.7018 257.812 31.1984Z" fill="#75B875"/>
<path fill-rule="evenodd" clip-rule="evenodd" d="M554.802 25.0541C553.653 23.9196 552.203 23.1069 550.269 23.1069C548.335 23.1069 546.886 23.9197 545.737 25.0542C544.642 26.1358 543.782 27.5504 543.002 28.8355L542.967 28.8931C542.145 30.2446 541.403 31.4557 540.5 32.3467C539.635 33.2011 538.668 33.7145 537.379 33.7145C536.09 33.7145 535.123 33.2011 534.257 32.3467C533.355 31.4557 532.612 30.2446 531.791 28.8931L531.756 28.8354C530.975 27.5504 530.116 26.1358 529.021 25.0542C527.872 23.9197 526.422 23.1069 524.488 23.1069C522.554 23.1069 521.103 23.9195 519.954 25.0541C518.858 26.1363 517.998 27.5517 517.217 28.8374L517.183 28.8931C516.362 30.2447 515.619 31.4558 514.717 32.3469C513.852 33.2012 512.885 33.7145 511.598 33.7145C510.309 33.7145 509.342 33.2011 508.476 32.3467C507.574 31.4557 506.831 30.2446 506.01 28.8931L505.975 28.8354C505.194 27.5504 504.335 26.1358 503.24 25.0542C502.091 23.9197 500.641 23.1069 498.707 23.1069C496.773 23.1069 495.322 23.9195 494.173 25.0541C493.077 26.1363 492.217 27.5517 491.436 28.8374L491.402 28.8931C490.581 30.2447 489.838 31.4558 488.936 32.3469C488.071 33.2012 487.104 33.7145 485.817 33.7145V35.7172C487.751 35.7172 489.2 34.9045 490.349 33.7699C491.444 32.6883 492.304 31.2737 493.084 29.9886L493.119 29.931C493.941 28.5795 494.683 27.3684 495.586 26.4774C496.451 25.6231 497.418 25.1097 498.707 25.1097C499.995 25.1097 500.962 25.6229 501.827 26.4772C502.729 27.3683 503.471 28.5794 504.292 29.931L504.326 29.9867C505.107 31.2724 505.967 32.6879 507.064 33.7701C508.213 34.9046 509.663 35.7172 511.598 35.7172C513.532 35.7172 514.981 34.9045 516.13 33.7699C517.225 32.6883 518.085 31.2737 518.865 29.9886L518.9 29.931C519.722 28.5795 520.464 27.3684 521.367 26.4774C522.232 25.6231 523.199 25.1097 524.488 25.1097C525.776 25.1097 526.743 25.6229 527.608 26.4772C528.51 27.3683 529.252 28.5794 530.073 29.931L530.107 29.9868C530.888 31.2725 531.748 32.6879 532.844 33.7701C533.994 34.9046 535.444 35.7172 537.379 35.7172C539.313 35.7172 540.764 34.9046 541.913 33.7701C543.009 32.6879 543.869 31.2725 544.65 29.9868L544.684 29.931C545.505 28.5794 546.248 27.3683 547.15 26.4772C548.015 25.6229 548.981 25.1097 550.269 25.1097C551.557 25.1097 552.524 25.6229 553.389 26.4773C554.292 27.3685 555.034 28.5796 555.856 29.9311C555.867 29.95 555.879 29.9689 555.89 29.9878C556.671 31.2732 557.531 32.6881 558.627 33.77C559.776 34.9045 561.226 35.7172 563.16 35.7172V33.7145C561.872 33.7145 560.905 33.2012 560.04 32.3468C559.137 31.4557 558.394 30.2445 557.573 28.893C557.562 28.8741 557.55 28.8552 557.539 28.8363C556.757 27.5509 555.898 26.136 554.802 25.0541Z" fill="#75B875"/>
<path fill-rule="evenodd" clip-rule="evenodd" d="M477.459 25.0541C476.31 23.9196 474.86 23.1069 472.926 23.1069C470.992 23.1069 469.543 23.9197 468.394 25.0542C467.299 26.1358 466.44 27.5504 465.659 28.8355L465.624 28.8931C464.803 30.2446 464.06 31.4557 463.157 32.3467C462.292 33.2011 461.325 33.7145 460.036 33.7145C458.747 33.7145 457.78 33.2011 456.914 32.3467C456.012 31.4557 455.269 30.2446 454.448 28.8931L454.413 28.8354C453.632 27.5504 452.773 26.1358 451.678 25.0542C450.529 23.9197 449.079 23.1069 447.145 23.1069C445.211 23.1069 443.76 23.9195 442.611 25.0541C441.515 26.1363 440.655 27.5517 439.874 28.8374L439.84 28.8931C439.019 30.2447 438.277 31.4558 437.374 32.3469C436.509 33.2012 435.543 33.7145 434.255 33.7145C432.966 33.7145 431.999 33.2011 431.133 32.3467C430.231 31.4557 429.488 30.2446 428.667 28.8931L428.632 28.8354C427.851 27.5504 426.992 26.1358 425.897 25.0542C424.748 23.9197 423.298 23.1069 421.364 23.1069C419.43 23.1069 417.979 23.9195 416.83 25.0541C415.734 26.1363 414.874 27.5517 414.093 28.8374L414.059 28.8931C413.238 30.2447 412.496 31.4558 411.593 32.3469C410.728 33.2012 409.762 33.7145 408.474 33.7145V35.7172C410.408 35.7172 411.858 34.9045 413.006 33.7699C414.102 32.6883 414.961 31.2737 415.742 29.9886L415.777 29.931C416.598 28.5795 417.34 27.3684 418.243 26.4774C419.108 25.6231 420.076 25.1097 421.364 25.1097C422.652 25.1097 423.619 25.6229 424.484 26.4772C425.386 27.3683 426.128 28.5794 426.95 29.931L426.984 29.9867C427.765 31.2724 428.625 32.6879 429.721 33.7701C430.87 34.9046 432.32 35.7172 434.255 35.7172C436.189 35.7172 437.639 34.9045 438.787 33.7699C439.882 32.6883 440.742 31.2737 441.523 29.9886L441.558 29.931C442.379 28.5795 443.121 27.3684 444.024 26.4774C444.889 25.6231 445.857 25.1097 447.145 25.1097C448.433 25.1097 449.4 25.6229 450.265 26.4772C451.167 27.3683 451.909 28.5794 452.731 29.931L452.765 29.9868C453.546 31.2725 454.406 32.6879 455.502 33.7701C456.651 34.9046 458.101 35.7172 460.036 35.7172C461.971 35.7172 463.421 34.9046 464.57 33.7701C465.666 32.6879 466.526 31.2725 467.307 29.9868L467.341 29.931C468.162 28.5794 468.905 27.3683 469.807 26.4772C470.672 25.6229 471.639 25.1097 472.926 25.1097C474.214 25.1097 475.181 25.6229 476.046 26.4773C476.949 27.3685 477.692 28.5796 478.513 29.9311C478.524 29.95 478.536 29.9689 478.547 29.9878C479.329 31.2732 480.188 32.6881 481.284 33.77C482.433 34.9045 483.883 35.7172 485.817 35.7172V33.7145C484.529 33.7145 483.562 33.2012 482.697 32.3468C481.794 31.4557 481.052 30.2445 480.23 28.893C480.219 28.8741 480.207 28.8552 480.196 28.8363C479.415 27.5509 478.555 26.136 477.459 25.0541Z" fill="#75B875"/>
<rect width="26.7358" height="1.9097" rx="0.95485" transform="matrix(1 0 0 -1 368.37 20.9097)" fill="#75B875"/>
<rect width="26.7358" height="1.9097" rx="0.95485" transform="matrix(1 0 0 -1 419.932 20.9097)" fill="#75B875"/>
<rect width="27.6907" height="1.9097" rx="0.95485" transform="matrix(1 0 0 -1 471.494 20.9097)" fill="#75B875"/>
<rect width="26.7358" height="1.9097" rx="0.95485" transform="matrix(1 0 0 -1 524.011 20.9097)" fill="#75B875"/>
<rect width="26.7358" height="1.9097" rx="0.95485" transform="matrix(1 0 0 -1 575.573 20.9097)" fill="#75B875"/>
<rect width="26.7358" height="1.9097" rx="0.954851" transform="matrix(1 0 0 -1 381.738 40.0068)" fill="#75B875"/>
<rect width="26.7358" height="1.9097" rx="0.954851" transform="matrix(1 0 0 -1 433.3 40.0068)" fill="#75B875"/>
<rect width="27.6907" height="1.9097" rx="0.954851" transform="matrix(1 0 0 -1 484.862 40.0068)" fill="#75B875"/>
<rect width="26.7358" height="1.9097" rx="0.954851" transform="matrix(1 0 0 -1 537.379 40.0068)" fill="#75B875"/>
<rect width="26.7358" height="1.9097" rx="0.954851" transform="matrix(1 0 0 -1 588.941 40.0068)" fill="#75B875"/>
<ellipse rx="2.38713" ry="2.38713" transform="matrix(1 0 0 -1 382.693 27.1163)" fill="#75B875"/>
<ellipse rx="2.38713" ry="2.38713" transform="matrix(1 0 0 -1 434.255 27.1163)" fill="#75B875"/>
<ellipse rx="2.38713" ry="2.38713" transform="matrix(1 0 0 -1 485.817 27.1163)" fill="#75B875"/>
<ellipse rx="2.38713" ry="2.38713" transform="matrix(1 0 0 -1 537.379 27.1163)" fill="#75B875"/>
<ellipse rx="2.38713" ry="2.38713" transform="matrix(1 0 0 -1 588.941 27.1163)" fill="#75B875"/>
<ellipse rx="2.38713" ry="2.38713" transform="matrix(1 0 0 -1 395.583 31.8907)" fill="#75B875"/>
<ellipse rx="2.38713" ry="2.38713" transform="matrix(1 0 0 -1 447.145 31.8907)" fill="#75B875"/>
<ellipse rx="2.38712" ry="2.38713" transform="matrix(1 0 0 -1 498.707 31.8907)" fill="#75B875"/>
<ellipse rx="2.38712" ry="2.38713" transform="matrix(1 0 0 -1 550.269 31.8907)" fill="#75B875"/>
<ellipse rx="2.38712" ry="2.38713" transform="matrix(1 0 0 -1 601.831 31.8907)" fill="#75B875"/>
<path d="M626.18 19.9548C626.18 20.4822 626.607 20.9097 627.135 20.9097H631.909V19H627.135C626.607 19 626.18 19.4275 626.18 19.9548V19.9548Z" fill="#75B875"/>
<path fill-rule="evenodd" clip-rule="evenodd" d="M631.909 27.8993C631.535 27.3659 631.151 26.8836 630.732 26.4701C629.867 25.6157 628.9 25.1024 627.612 25.1024C626.324 25.1024 625.358 25.6157 624.493 26.47C623.591 27.3611 622.848 28.5722 622.027 29.9238L621.993 29.9795C621.212 31.2652 620.352 32.6806 619.256 33.7628C618.107 34.8974 616.656 35.71 614.722 35.71C612.787 35.71 611.337 34.8974 610.187 33.7628C609.091 32.6807 608.231 31.2652 607.45 29.9796L607.416 29.9238C606.595 28.5722 605.853 27.3611 604.95 26.47C604.085 25.6157 603.119 25.1024 601.831 25.1024C600.542 25.1024 599.575 25.6158 598.71 26.4702C597.807 27.3612 597.064 28.5723 596.243 29.9238L596.208 29.9814C595.428 31.2665 594.568 32.6811 593.473 33.7627C592.324 34.8972 590.875 35.71 588.941 35.71C587.006 35.71 585.556 34.8974 584.406 33.7628C583.31 32.6806 582.45 31.2652 581.669 29.9795L581.635 29.9238C580.814 28.5722 580.072 27.3611 579.17 26.47C578.305 25.6157 577.338 25.1024 576.05 25.1024C574.761 25.1024 573.794 25.6158 572.929 26.4702C572.026 27.3612 571.283 28.5723 570.462 29.9238L570.427 29.9814L570.427 29.9814C569.647 31.2665 568.787 32.681 567.692 33.7627C566.543 34.8972 565.094 35.71 563.16 35.71V33.7072C564.447 33.7072 565.414 33.194 566.279 32.3397C567.181 31.4486 567.924 30.2375 568.745 28.8859L568.779 28.8301L568.779 28.8301C569.56 27.5444 570.42 26.129 571.516 25.0468C572.665 23.9122 574.115 23.0997 576.05 23.0997C577.984 23.0997 579.434 23.9124 580.583 25.047C581.678 26.1286 582.537 27.5431 583.318 28.8282L583.353 28.8859C584.174 30.2374 584.917 31.4484 585.819 32.3395C586.684 33.1938 587.652 33.7072 588.941 33.7072C590.228 33.7072 591.195 33.194 592.06 32.3397C592.962 31.4486 593.705 30.2375 594.526 28.8859L594.56 28.8301C595.341 27.5445 596.201 26.129 597.297 25.0468C598.446 23.9122 599.896 23.0997 601.831 23.0997C603.765 23.0997 605.215 23.9124 606.364 25.047C607.459 26.1286 608.318 27.5431 609.099 28.8282L609.134 28.8859C609.955 30.2374 610.698 31.4484 611.6 32.3395C612.465 33.1938 613.433 33.7072 614.722 33.7072C616.01 33.7072 616.978 33.1938 617.843 32.3395C618.746 31.4484 619.488 30.2374 620.309 28.8859L620.344 28.8282C621.125 27.5432 621.985 26.1286 623.08 25.047C624.228 23.9124 625.678 23.0997 627.612 23.0997C629.416 23.0997 630.799 23.8067 631.909 24.8225V27.8993Z" fill="#75B875"/>
<path fill-rule="evenodd" clip-rule="evenodd" d="M361.001 31.1984C361.508 30.5104 361.987 29.7252 362.497 28.8859L362.531 28.8301C363.312 27.5445 364.172 26.129 365.268 25.0468C366.418 23.9122 367.868 23.0997 369.803 23.0997C371.737 23.0997 373.186 23.9124 374.335 25.047C375.43 26.1286 376.29 27.5431 377.07 28.8282L377.105 28.8859C377.926 30.2374 378.669 31.4484 379.572 32.3395C380.437 33.1938 381.404 33.7072 382.693 33.7072C383.982 33.7072 384.949 33.1938 385.815 32.3395C386.717 31.4484 387.46 30.2374 388.281 28.8859L388.316 28.8282C389.097 27.5432 389.956 26.1286 391.051 25.047C392.2 23.9124 393.65 23.0997 395.584 23.0997C397.518 23.0997 398.967 23.9124 400.116 25.0469C401.212 26.1287 402.072 27.5437 402.853 28.829L402.853 28.8291L402.888 28.8858C403.709 30.2373 404.452 31.4484 405.354 32.3396C406.219 33.194 407.186 33.7072 408.474 33.7072V35.71C406.54 35.71 405.09 34.8973 403.941 33.7628C402.846 32.6809 401.986 31.266 401.205 29.9806L401.17 29.9239C400.349 28.5724 399.606 27.3612 398.704 26.4701C397.838 25.6157 396.871 25.1024 395.584 25.1024C394.296 25.1024 393.329 25.6157 392.464 26.47C391.562 27.3611 390.82 28.5722 389.998 29.9238L389.965 29.9795C389.183 31.2652 388.324 32.6806 387.227 33.7628C386.078 34.8974 384.628 35.71 382.693 35.71C380.758 35.71 379.308 34.8974 378.159 33.7628C377.063 32.6807 376.203 31.2652 375.422 29.9796L375.388 29.9238C374.567 28.5722 373.824 27.3611 372.922 26.47C372.057 25.6157 371.09 25.1024 369.803 25.1024C368.514 25.1024 367.547 25.6158 366.681 26.4702C365.779 27.3612 365.036 28.5723 364.215 29.9238L364.18 29.9814C363.642 30.8671 363.066 31.8143 362.402 32.6716C361.922 32.193 361.455 31.7018 361.001 31.1984Z" fill="#75B875"/>
<path fill-rule="evenodd" clip-rule="evenodd" d="M735.269 25.0541C734.12 23.9196 732.67 23.1069 730.736 23.1069C728.802 23.1069 727.353 23.9197 726.204 25.0542C725.109 26.1358 724.25 27.5504 723.469 28.8355L723.434 28.8931C722.613 30.2446 721.87 31.4557 720.967 32.3467C720.102 33.2011 719.135 33.7145 717.846 33.7145C716.557 33.7145 715.59 33.2011 714.725 32.3467C713.822 31.4557 713.079 30.2446 712.258 28.8931L712.223 28.8354C711.442 27.5504 710.583 26.1358 709.488 25.0542C708.339 23.9197 706.89 23.1069 704.956 23.1069C703.021 23.1069 701.571 23.9195 700.421 25.0541C699.325 26.1363 698.465 27.5517 697.684 28.8374L697.65 28.8931C696.829 30.2447 696.087 31.4558 695.184 32.3469C694.319 33.2012 693.353 33.7145 692.065 33.7145C690.776 33.7145 689.809 33.2011 688.944 32.3467C688.041 31.4557 687.298 30.2446 686.477 28.8931L686.442 28.8354C685.661 27.5504 684.802 26.1358 683.707 25.0542C682.558 23.9197 681.109 23.1069 679.175 23.1069C677.24 23.1069 675.79 23.9195 674.64 25.0541C673.544 26.1363 672.684 27.5517 671.903 28.8374L671.869 28.8931C671.048 30.2447 670.306 31.4558 669.403 32.3469C668.538 33.2012 667.572 33.7145 666.284 33.7145V35.7172C668.218 35.7172 669.668 34.9045 670.816 33.7699C671.912 32.6883 672.771 31.2737 673.552 29.9886L673.587 29.931C674.408 28.5795 675.15 27.3684 676.053 26.4774C676.918 25.6231 677.886 25.1097 679.175 25.1097C680.462 25.1097 681.429 25.6229 682.294 26.4772C683.196 27.3683 683.939 28.5794 684.76 29.931L684.794 29.9867C685.575 31.2724 686.435 32.6879 687.531 33.7701C688.68 34.9046 690.13 35.7172 692.065 35.7172C693.999 35.7172 695.449 34.9045 696.597 33.7699C697.693 32.6883 698.552 31.2737 699.333 29.9886L699.368 29.931C700.189 28.5795 700.931 27.3684 701.834 26.4774C702.699 25.6231 703.667 25.1097 704.956 25.1097C706.243 25.1097 707.21 25.6229 708.075 26.4772C708.977 27.3683 709.719 28.5794 710.541 29.931L710.575 29.9868C711.356 31.2725 712.216 32.6879 713.312 33.7701C714.461 34.9046 715.911 35.7172 717.846 35.7172C719.781 35.7172 721.231 34.9046 722.38 33.7701C723.476 32.6879 724.336 31.2725 725.117 29.9868L725.151 29.931C725.972 28.5794 726.715 27.3683 727.617 26.4772C728.482 25.6229 729.449 25.1097 730.736 25.1097C732.024 25.1097 732.991 25.6229 733.856 26.4773C734.759 27.3685 735.502 28.5796 736.323 29.9311C736.335 29.95 736.346 29.9689 736.358 29.9878C737.139 31.2732 737.999 32.6881 739.094 33.77C740.243 34.9045 741.693 35.7172 743.627 35.7172V33.7145C742.339 33.7145 741.372 33.2012 740.507 32.3468C739.605 31.4557 738.862 30.2445 738.04 28.893C738.029 28.8741 738.017 28.8552 738.006 28.8363C737.225 27.5509 736.365 26.136 735.269 25.0541Z" fill="#75B875"/>
<rect width="26.7358" height="1.9097" rx="0.95485" transform="matrix(1 0 0 -1 626.18 20.9097)" fill="#75B875"/>
<rect width="26.7358" height="1.9097" rx="0.95485" transform="matrix(1 0 0 -1 677.742 20.9097)" fill="#75B875"/>
<rect width="26.7358" height="1.9097" rx="0.954851" transform="matrix(1 0 0 -1 639.548 40.0068)" fill="#75B875"/>
<rect width="26.7358" height="1.9097" rx="0.954851" transform="matrix(1 0 0 -1 691.11 40.0068)" fill="#75B875"/>
<ellipse rx="2.38713" ry="2.38713" transform="matrix(1 0 0 -1 640.503 27.1163)" fill="#75B875"/>
<ellipse rx="2.38713" ry="2.38713" transform="matrix(1 0 0 -1 692.065 27.1163)" fill="#75B875"/>
<ellipse rx="2.38713" ry="2.38713" transform="matrix(1 0 0 -1 653.393 31.8907)" fill="#75B875"/>
<ellipse rx="2.38713" ry="2.38713" transform="matrix(1 0 0 -1 704.955 31.8907)" fill="#75B875"/>
<path fill-rule="evenodd" clip-rule="evenodd" d="M618.812 31.1984C619.318 30.5104 619.797 29.7252 620.307 28.8859L620.341 28.8301C621.122 27.5445 621.982 26.129 623.079 25.0468C624.228 23.9122 625.678 23.0997 627.613 23.0997C629.547 23.0997 630.996 23.9124 632.145 25.047C633.24 26.1286 634.1 27.5431 634.88 28.8282L634.915 28.8859C635.737 30.2374 636.479 31.4484 637.382 32.3395C638.247 33.1938 639.214 33.7072 640.503 33.7072C641.792 33.7072 642.759 33.1938 643.625 32.3395C644.527 31.4484 645.27 30.2374 646.091 28.8859L646.126 28.8282C646.907 27.5432 647.766 26.1286 648.861 25.047C650.01 23.9124 651.46 23.0997 653.394 23.0997C655.328 23.0997 656.778 23.9124 657.926 25.0469C659.022 26.1287 659.882 27.5437 660.663 28.829L660.663 28.8291L660.698 28.8858C661.519 30.2373 662.262 31.4484 663.164 32.3396C664.03 33.194 664.996 33.7072 666.284 33.7072V35.71C664.35 35.71 662.9 34.8973 661.751 33.7628C660.656 32.6809 659.796 31.266 659.015 29.9806L658.98 29.9239C658.159 28.5724 657.416 27.3612 656.514 26.4701C655.648 25.6157 654.681 25.1024 653.394 25.1024C652.106 25.1024 651.139 25.6157 650.274 26.47C649.372 27.3611 648.63 28.5722 647.808 29.9238L647.775 29.9795C646.993 31.2652 646.134 32.6806 645.037 33.7628C643.888 34.8974 642.438 35.71 640.503 35.71C638.569 35.71 637.118 34.8974 635.969 33.7628C634.873 32.6807 634.013 31.2652 633.232 29.9796L633.198 29.9238C632.377 28.5722 631.634 27.3611 630.732 26.47C629.867 25.6157 628.9 25.1024 627.613 25.1024C626.324 25.1024 625.357 25.6158 624.491 26.4702C623.589 27.3612 622.846 28.5723 622.025 29.9238L621.99 29.9814C621.452 30.8671 620.876 31.8143 620.212 32.6716C619.732 32.193 619.265 31.7018 618.812 31.1984Z" fill="#75B875"/>
</mask>
<g mask="url(#mask1_631_96991)">
<path d="M3 40.0068H683V11.0068H3V40.0068Z" fill="#75B875"/>
</g>
</svg>
