<svg width="720" height="43" viewBox="0 0 720 43" fill="none" xmlns="http://www.w3.org/2000/svg">
<mask id="mask0_631_99586" style="mask-type:alpha" maskUnits="userSpaceOnUse" x="0" y="0" width="1089" height="22">
<path d="M141.273 0.000444233C141.273 11.0712 132.298 20.0459 121.227 20.0459C110.156 20.0459 101.182 11.0712 101.182 0.000444233" stroke="#FE724D" stroke-width="2"/>
<path d="M135.546 0.000177443C135.546 7.90789 129.135 14.3184 121.227 14.3184C113.32 14.3184 106.909 7.90789 106.909 0.000177443" stroke="#FE724D" stroke-width="2"/>
<path d="M130.773 0.000443608C130.773 5.27225 126.499 9.5459 121.227 9.5459C115.955 9.5459 111.682 5.27225 111.682 0.000443608" stroke="#FE724D" stroke-width="2"/>
<path d="M170.864 0.000443608C170.864 5.27225 166.59 9.5459 161.318 9.5459C156.047 9.5459 151.773 5.27225 151.773 0.000443608" stroke="#FE724D" stroke-width="2"/>
<path d="M9.54545 0.000443459C9.54545 5.27225 5.27181 9.5459 0 9.5459" stroke="#FE724D" stroke-width="2"/>
<path d="M210.955 0.000443608C210.955 5.27225 206.681 9.5459 201.409 9.5459C196.137 9.5459 191.864 5.27225 191.864 0.000443608" stroke="#FE724D" stroke-width="2"/>
<path d="M49.6363 0.000443459C49.6363 5.27225 45.3627 9.5459 40.0909 9.5459C34.8191 9.5459 30.5454 5.27225 30.5454 0.000443459" stroke="#FE724D" stroke-width="2"/>
<path d="M251.045 0.000443459C251.045 5.27225 246.772 9.5459 241.5 9.5459C236.228 9.5459 231.955 5.27225 231.955 0.000443459" stroke="#FE724D" stroke-width="2"/>
<path d="M89.7271 0.000443608C89.7271 5.27225 85.4535 9.5459 80.1817 9.5459C74.9099 9.5459 70.6362 5.27225 70.6362 0.000443608" stroke="#FE724D" stroke-width="2"/>
<path d="M175.636 0.000177443C175.636 7.90789 169.226 14.3184 161.318 14.3184C153.41 14.3184 147 7.90789 147 0.000177443" stroke="#FE724D" stroke-width="2"/>
<path d="M14.3182 0.000177801C14.3182 7.90789 7.90771 14.3184 0 14.3184" stroke="#FE724D" stroke-width="2"/>
<path d="M215.727 0.000177443C215.727 7.90789 209.317 14.3184 201.409 14.3184C193.501 14.3184 187.091 7.90789 187.091 0.000177443" stroke="#FE724D" stroke-width="2"/>
<path d="M54.4093 0.000177443C54.4093 7.90789 47.9988 14.3184 40.0911 14.3184C32.1834 14.3184 25.7729 7.90789 25.7729 0.000177443" stroke="#FE724D" stroke-width="2"/>
<path d="M255.818 0.000177443C255.818 7.90789 249.408 14.3184 241.5 14.3184C233.592 14.3184 227.182 7.90789 227.182 0.000177443" stroke="#FE724D" stroke-width="2"/>
<path d="M94.5001 0.000177443C94.5001 7.90789 88.0897 14.3184 80.182 14.3184C72.2742 14.3184 65.8638 7.90789 65.8638 0.000177443" stroke="#FE724D" stroke-width="2"/>
<path d="M181.364 0.000444233C181.364 11.0712 172.389 20.0459 161.318 20.0459C150.248 20.0459 141.273 11.0712 141.273 0.000444233" stroke="#FE724D" stroke-width="2"/>
<path d="M20.0455 0.000444233C20.0455 11.0712 11.0708 20.0459 0 20.0459" stroke="#FE724D" stroke-width="2"/>
<path d="M221.455 0.000444233C221.455 11.0712 212.48 20.0459 201.409 20.0459C190.338 20.0459 181.364 11.0712 181.364 0.000444233" stroke="#FE724D" stroke-width="2"/>
<path d="M60.1363 0.000444233C60.1363 11.0712 51.1617 20.0459 40.0909 20.0459C29.0201 20.0459 20.0454 11.0712 20.0454 0.000444233" stroke="#FE724D" stroke-width="2"/>
<path d="M221.455 0.000444233C221.455 11.0712 230.429 20.0459 241.5 20.0459C248.312 20.0459 254.33 16.6481 257.953 11.455" stroke="#FE724D" stroke-width="2"/>
<path d="M100.227 0.000444233C100.227 11.0712 91.2525 20.0459 80.1817 20.0459C69.1109 20.0459 60.1362 11.0712 60.1362 0.000444233" stroke="#FE724D" stroke-width="2"/>
<path d="M2.86364 2.8639C2.86364 1.28236 1.58154 0.000266552 0 0.000266552C0 1.90936 0.00141368 1.28236 0.00141368 2.8639C0.00141368 4.44545 0 4.77299 0 5.72754C1.58154 5.72754 2.86364 4.44545 2.86364 2.8639Z" fill="#FFBE4D"/>
<circle r="2.86364" transform="matrix(1 0 0 -1 20.0453 18.1364)" fill="#FFBE4D"/>
<circle r="2.86364" transform="matrix(1 0 0 -1 40.0907 2.8639)" fill="#FFBE4D"/>
<circle r="2.86364" transform="matrix(1 0 0 -1 60.1366 18.1364)" fill="#FFBE4D"/>
<circle r="2.86364" transform="matrix(1 0 0 -1 80.182 2.8639)" fill="#FFBE4D"/>
<circle r="2.86364" transform="matrix(1 0 0 -1 100.227 18.1364)" fill="#FFBE4D"/>
<circle r="2.86364" transform="matrix(1 0 0 -1 121.227 2.8639)" fill="#FFBE4D"/>
<circle r="2.86364" transform="matrix(1 0 0 -1 141.273 18.1364)" fill="#FFBE4D"/>
<circle r="2.86364" transform="matrix(1 0 0 -1 161.318 2.8639)" fill="#FFBE4D"/>
<circle r="2.86364" transform="matrix(1 0 0 -1 181.364 18.1364)" fill="#FFBE4D"/>
<circle r="2.86364" transform="matrix(1 0 0 -1 201.409 2.8639)" fill="#FFBE4D"/>
<circle r="2.86364" transform="matrix(1 0 0 -1 241.5 2.8639)" fill="#FFBE4D"/>
<circle r="2.86364" transform="matrix(1 0 0 -1 221.454 18.1364)" fill="#FFBE4D"/>
<path d="M251.045 0.000443608C251.045 5.27225 246.772 9.5459 241.5 9.5459C236.228 9.5459 231.955 5.27225 231.955 0.000443608" stroke="#FE724D" stroke-width="2"/>
<path d="M291.136 0.000443459C291.136 5.27225 286.863 9.5459 281.591 9.5459C276.319 9.5459 272.045 5.27225 272.045 0.000443459" stroke="#FE724D" stroke-width="2"/>
<path d="M331.227 0.000443608C331.227 5.27225 326.953 9.5459 321.682 9.5459C316.41 9.5459 312.136 5.27225 312.136 0.000443608" stroke="#FE724D" stroke-width="2"/>
<path d="M255.818 0.000177443C255.818 7.90789 249.408 14.3184 241.5 14.3184C233.592 14.3184 227.182 7.90789 227.182 0.000177443" stroke="#FE724D" stroke-width="2"/>
<path d="M295.909 0.000177443C295.909 7.90789 289.499 14.3184 281.591 14.3184C273.683 14.3184 267.273 7.90789 267.273 0.000177443" stroke="#FE724D" stroke-width="2"/>
<path d="M336 0.000177443C336 7.90789 329.59 14.3184 321.682 14.3184C313.774 14.3184 307.364 7.90789 307.364 0.000177443" stroke="#FE724D" stroke-width="2"/>
<path d="M261.545 0.000444233C261.545 11.0712 252.571 20.0459 241.5 20.0459" stroke="#FE724D" stroke-width="2"/>
<path d="M301.636 0.000444233C301.636 11.0712 292.662 20.0459 281.591 20.0459C270.52 20.0459 261.545 11.0712 261.545 0.000444233" stroke="#FE724D" stroke-width="2"/>
<path d="M341.727 0.000444233C341.727 11.0712 332.752 20.0459 321.682 20.0459C310.611 20.0459 301.636 11.0712 301.636 0.000444233" stroke="#FE724D" stroke-width="2"/>
<circle r="2.86364" transform="matrix(1 0 0 -1 241.5 2.8639)" fill="#FFBE4D"/>
<circle r="2.86364" transform="matrix(1 0 0 -1 261.545 18.1364)" fill="#FFBE4D"/>
<circle r="2.86364" transform="matrix(1 0 0 -1 281.591 2.8639)" fill="#FFBE4D"/>
<circle r="2.86364" transform="matrix(1 0 0 -1 301.637 18.1364)" fill="#FFBE4D"/>
<circle r="2.86364" transform="matrix(1 0 0 -1 321.682 2.8639)" fill="#FFBE4D"/>
<circle r="2.86364" transform="matrix(1 0 0 -1 341.727 18.1364)" fill="#FFBE4D"/>
<path fill-rule="evenodd" clip-rule="evenodd" d="M362.728 0C361.146 0 359.864 1.28209 359.864 2.86364C359.864 4.44518 361.146 5.72727 362.728 5.72727V0Z" fill="#FFBE4D"/>
<path fill-rule="evenodd" clip-rule="evenodd" d="M362.729 13.3182C355.373 13.3182 349.411 7.35543 349.411 0H347.411C347.411 8.46 354.269 15.3182 362.729 15.3182V13.3182Z" fill="#FFBE4D"/>
<path fill-rule="evenodd" clip-rule="evenodd" d="M362.728 8.54545C358.009 8.54545 354.183 4.71952 354.183 0H352.183C352.183 5.82409 356.904 10.5455 362.728 10.5455V8.54545Z" fill="#FFBE4D"/>
<path fill-rule="evenodd" clip-rule="evenodd" d="M362.728 19.0455C352.21 19.0455 343.683 10.5185 343.683 0H341.683C341.683 11.6231 351.105 21.0455 362.728 21.0455V19.0455Z" fill="#FFBE4D"/>
<path d="M504.001 0.000444233C504.001 11.0712 495.026 20.0459 483.956 20.0459C472.885 20.0459 463.91 11.0712 463.91 0.000444233" stroke="#FE724D" stroke-width="2"/>
<path d="M498.274 0.000177443C498.274 7.90789 491.864 14.3184 483.956 14.3184C476.048 14.3184 469.638 7.90789 469.638 0.000177443" stroke="#FE724D" stroke-width="2"/>
<path d="M493.501 0.000443608C493.501 5.27225 489.227 9.5459 483.956 9.5459C478.684 9.5459 474.41 5.27225 474.41 0.000443608" stroke="#FE724D" stroke-width="2"/>
<path d="M533.592 0.000443608C533.592 5.27225 529.319 9.5459 524.047 9.5459C518.775 9.5459 514.501 5.27225 514.501 0.000443608" stroke="#FE724D" stroke-width="2"/>
<path d="M372.274 0.000443459C372.274 5.27225 368 9.5459 362.729 9.5459" stroke="#FE724D" stroke-width="2"/>
<path d="M573.683 0.000443608C573.683 5.27225 569.41 9.5459 564.138 9.5459C558.866 9.5459 554.592 5.27225 554.592 0.000443608" stroke="#FE724D" stroke-width="2"/>
<path d="M412.365 0.000443459C412.365 5.27225 408.091 9.5459 402.819 9.5459C397.548 9.5459 393.274 5.27225 393.274 0.000443459" stroke="#FE724D" stroke-width="2"/>
<path d="M613.774 0.000443459C613.774 5.27225 609.5 9.5459 604.229 9.5459C598.957 9.5459 594.683 5.27225 594.683 0.000443459" stroke="#FE724D" stroke-width="2"/>
<path d="M452.456 0.000443608C452.456 5.27225 448.182 9.5459 442.91 9.5459C437.638 9.5459 433.365 5.27225 433.365 0.000443608" stroke="#FE724D" stroke-width="2"/>
<path d="M538.365 0.000177443C538.365 7.90789 531.954 14.3184 524.047 14.3184C516.139 14.3184 509.729 7.90789 509.729 0.000177443" stroke="#FE724D" stroke-width="2"/>
<path d="M377.047 0.000177801C377.047 7.90789 370.636 14.3184 362.729 14.3184" stroke="#FE724D" stroke-width="2"/>
<path d="M578.456 0.000177443C578.456 7.90789 572.045 14.3184 564.138 14.3184C556.23 14.3184 549.819 7.90789 549.819 0.000177443" stroke="#FE724D" stroke-width="2"/>
<path d="M417.138 0.000177443C417.138 7.90789 410.727 14.3184 402.82 14.3184C394.912 14.3184 388.501 7.90789 388.501 0.000177443" stroke="#FE724D" stroke-width="2"/>
<path d="M618.547 0.000177443C618.547 7.90789 612.136 14.3184 604.228 14.3184C596.321 14.3184 589.91 7.90789 589.91 0.000177443" stroke="#FE724D" stroke-width="2"/>
<path d="M457.229 0.000177443C457.229 7.90789 450.818 14.3184 442.91 14.3184C435.003 14.3184 428.592 7.90789 428.592 0.000177443" stroke="#FE724D" stroke-width="2"/>
<path d="M544.092 0.000444233C544.092 11.0712 535.118 20.0459 524.047 20.0459C512.976 20.0459 504.001 11.0712 504.001 0.000444233" stroke="#FE724D" stroke-width="2"/>
<path d="M382.774 0.000444233C382.774 11.0712 373.799 20.0459 362.729 20.0459" stroke="#FE724D" stroke-width="2"/>
<path d="M584.183 0.000444233C584.183 11.0712 575.209 20.0459 564.138 20.0459C553.067 20.0459 544.092 11.0712 544.092 0.000444233" stroke="#FE724D" stroke-width="2"/>
<path d="M422.865 0.000444233C422.865 11.0712 413.89 20.0459 402.819 20.0459C391.749 20.0459 382.774 11.0712 382.774 0.000444233" stroke="#FE724D" stroke-width="2"/>
<path d="M584.183 0.000444233C584.183 11.0712 593.158 20.0459 604.229 20.0459C611.04 20.0459 617.059 16.6481 620.681 11.455" stroke="#FE724D" stroke-width="2"/>
<path d="M462.956 0.000444233C462.956 11.0712 453.981 20.0459 442.91 20.0459C431.839 20.0459 422.865 11.0712 422.865 0.000444233" stroke="#FE724D" stroke-width="2"/>
<path d="M365.592 2.8639C365.592 1.28236 364.31 0.000266552 362.729 0.000266552C362.729 1.90936 362.73 1.28236 362.73 2.8639C362.73 4.44545 362.729 4.77299 362.729 5.72754C364.31 5.72754 365.592 4.44545 365.592 2.8639Z" fill="#FFBE4D"/>
<circle r="2.86364" transform="matrix(1 0 0 -1 382.774 18.1364)" fill="#FFBE4D"/>
<circle r="2.86364" transform="matrix(1 0 0 -1 402.819 2.8639)" fill="#FFBE4D"/>
<circle r="2.86364" transform="matrix(1 0 0 -1 422.865 18.1364)" fill="#FFBE4D"/>
<circle r="2.86364" transform="matrix(1 0 0 -1 442.911 2.8639)" fill="#FFBE4D"/>
<circle r="2.86364" transform="matrix(1 0 0 -1 462.956 18.1364)" fill="#FFBE4D"/>
<circle r="2.86364" transform="matrix(1 0 0 -1 483.956 2.8639)" fill="#FFBE4D"/>
<circle r="2.86364" transform="matrix(1 0 0 -1 504.001 18.1364)" fill="#FFBE4D"/>
<circle r="2.86364" transform="matrix(1 0 0 -1 524.047 2.8639)" fill="#FFBE4D"/>
<circle r="2.86364" transform="matrix(1 0 0 -1 544.092 18.1364)" fill="#FFBE4D"/>
<circle r="2.86364" transform="matrix(1 0 0 -1 564.138 2.8639)" fill="#FFBE4D"/>
<circle r="2.86364" transform="matrix(1 0 0 -1 604.228 2.8639)" fill="#FFBE4D"/>
<circle r="2.86364" transform="matrix(1 0 0 -1 584.183 18.1364)" fill="#FFBE4D"/>
<path d="M613.774 0.000443608C613.774 5.27225 609.5 9.5459 604.229 9.5459C598.957 9.5459 594.683 5.27225 594.683 0.000443608" stroke="#FE724D" stroke-width="2"/>
<path d="M653.865 0.000443459C653.865 5.27225 649.591 9.5459 644.319 9.5459C639.048 9.5459 634.774 5.27225 634.774 0.000443459" stroke="#FE724D" stroke-width="2"/>
<path d="M693.956 0.000443608C693.956 5.27225 689.682 9.5459 684.41 9.5459C679.138 9.5459 674.865 5.27225 674.865 0.000443608" stroke="#FE724D" stroke-width="2"/>
<path d="M618.547 0.000177443C618.547 7.90789 612.136 14.3184 604.228 14.3184C596.321 14.3184 589.91 7.90789 589.91 0.000177443" stroke="#FE724D" stroke-width="2"/>
<path d="M658.638 0.000177443C658.638 7.90789 652.227 14.3184 644.32 14.3184C636.412 14.3184 630.001 7.90789 630.001 0.000177443" stroke="#FE724D" stroke-width="2"/>
<path d="M698.729 0.000177443C698.729 7.90789 692.318 14.3184 684.41 14.3184C676.503 14.3184 670.092 7.90789 670.092 0.000177443" stroke="#FE724D" stroke-width="2"/>
<path d="M624.274 0.000444233C624.274 11.0712 615.299 20.0459 604.229 20.0459" stroke="#FE724D" stroke-width="2"/>
<path d="M664.365 0.000444233C664.365 11.0712 655.39 20.0459 644.319 20.0459C633.249 20.0459 624.274 11.0712 624.274 0.000444233" stroke="#FE724D" stroke-width="2"/>
<path d="M704.456 0.000444233C704.456 11.0712 695.481 20.0459 684.41 20.0459C673.339 20.0459 664.365 11.0712 664.365 0.000444233" stroke="#FE724D" stroke-width="2"/>
<circle r="2.86364" transform="matrix(1 0 0 -1 604.228 2.8639)" fill="#FFBE4D"/>
<circle r="2.86364" transform="matrix(1 0 0 -1 624.274 18.1364)" fill="#FFBE4D"/>
<circle r="2.86364" transform="matrix(1 0 0 -1 644.32 2.8639)" fill="#FFBE4D"/>
<circle r="2.86364" transform="matrix(1 0 0 -1 664.365 18.1364)" fill="#FFBE4D"/>
<circle r="2.86364" transform="matrix(1 0 0 -1 684.411 2.8639)" fill="#FFBE4D"/>
<circle r="2.86364" transform="matrix(1 0 0 -1 704.456 18.1364)" fill="#FFBE4D"/>
<path fill-rule="evenodd" clip-rule="evenodd" d="M725.457 13.3182C718.102 13.3182 712.139 7.35543 712.139 0H710.139C710.139 8.46 716.997 15.3182 725.457 15.3182V13.3182Z" fill="#FFBE4D"/>
<path fill-rule="evenodd" clip-rule="evenodd" d="M725.457 8.54545C720.737 8.54545 716.911 4.71952 716.911 0H714.911C714.911 5.82409 719.632 10.5455 725.457 10.5455V8.54545Z" fill="#FFBE4D"/>
<path fill-rule="evenodd" clip-rule="evenodd" d="M725.457 19.0455C714.938 19.0455 706.411 10.5185 706.411 0H704.411C704.411 11.6231 713.834 21.0455 725.457 21.0455V19.0455Z" fill="#FFBE4D"/>
</mask>
<g mask="url(#mask0_631_99586)">
<path d="M0 0H680V21H0V0Z" fill="#FFBE4D"/>
</g>
<mask id="mask1_631_99586" style="mask-type:alpha" maskUnits="userSpaceOnUse" x="0" y="20" width="1089" height="23">
<path d="M141.273 42.0445C141.273 30.9737 132.298 21.999 121.227 21.999C110.156 21.999 101.182 30.9737 101.182 42.0445" stroke="#FE724D" stroke-width="2"/>
<path d="M135.546 42.0447C135.546 34.137 129.135 27.7266 121.227 27.7266C113.32 27.7266 106.909 34.137 106.909 42.0447" stroke="#FE724D" stroke-width="2"/>
<path d="M130.773 42.0445C130.773 36.7727 126.499 32.499 121.227 32.499C115.955 32.499 111.682 36.7727 111.682 42.0445" stroke="#FE724D" stroke-width="2"/>
<path d="M170.864 42.0445C170.864 36.7727 166.59 32.499 161.318 32.499C156.047 32.499 151.773 36.7727 151.773 42.0445" stroke="#FE724D" stroke-width="2"/>
<path d="M9.54545 42.0445C9.54545 36.7727 5.27181 32.499 0 32.499" stroke="#FE724D" stroke-width="2"/>
<path d="M210.955 42.0445C210.955 36.7727 206.681 32.499 201.409 32.499C196.137 32.499 191.864 36.7727 191.864 42.0445" stroke="#FE724D" stroke-width="2"/>
<path d="M49.6363 42.0445C49.6363 36.7727 45.3627 32.499 40.0909 32.499C34.8191 32.499 30.5454 36.7727 30.5454 42.0445" stroke="#FE724D" stroke-width="2"/>
<path d="M251.045 42.0445C251.045 36.7727 246.772 32.499 241.5 32.499C236.228 32.499 231.955 36.7727 231.955 42.0445" stroke="#FE724D" stroke-width="2"/>
<path d="M89.7271 42.0445C89.7271 36.7727 85.4535 32.499 80.1817 32.499C74.9099 32.499 70.6362 36.7727 70.6362 42.0445" stroke="#FE724D" stroke-width="2"/>
<path d="M175.636 42.0447C175.636 34.137 169.226 27.7266 161.318 27.7266C153.41 27.7266 147 34.137 147 42.0447" stroke="#FE724D" stroke-width="2"/>
<path d="M14.3182 42.0447C14.3182 34.137 7.90771 27.7266 0 27.7266" stroke="#FE724D" stroke-width="2"/>
<path d="M215.727 42.0447C215.727 34.137 209.317 27.7266 201.409 27.7266C193.501 27.7266 187.091 34.137 187.091 42.0447" stroke="#FE724D" stroke-width="2"/>
<path d="M54.4093 42.0447C54.4093 34.137 47.9988 27.7266 40.0911 27.7266C32.1834 27.7266 25.7729 34.137 25.7729 42.0447" stroke="#FE724D" stroke-width="2"/>
<path d="M255.818 42.0447C255.818 34.137 249.408 27.7266 241.5 27.7266C233.592 27.7266 227.182 34.137 227.182 42.0447" stroke="#FE724D" stroke-width="2"/>
<path d="M94.5001 42.0447C94.5001 34.137 88.0897 27.7266 80.182 27.7266C72.2742 27.7266 65.8638 34.137 65.8638 42.0447" stroke="#FE724D" stroke-width="2"/>
<path d="M181.364 42.0445C181.364 30.9737 172.389 21.999 161.318 21.999C150.248 21.999 141.273 30.9737 141.273 42.0445" stroke="#FE724D" stroke-width="2"/>
<path d="M20.0455 42.0445C20.0455 30.9737 11.0708 21.999 0 21.999" stroke="#FE724D" stroke-width="2"/>
<path d="M221.455 42.0445C221.455 30.9737 212.48 21.999 201.409 21.999C190.338 21.999 181.364 30.9737 181.364 42.0445" stroke="#FE724D" stroke-width="2"/>
<path d="M60.1363 42.0445C60.1363 30.9737 51.1617 21.999 40.0909 21.999C29.0201 21.999 20.0454 30.9737 20.0454 42.0445" stroke="#FE724D" stroke-width="2"/>
<path d="M221.455 42.0445C221.455 30.9737 230.429 21.999 241.5 21.999C248.312 21.999 254.33 25.3968 257.953 30.5899" stroke="#FE724D" stroke-width="2"/>
<path d="M100.227 42.0445C100.227 30.9737 91.2525 21.999 80.1817 21.999C69.1109 21.999 60.1362 30.9737 60.1362 42.0445" stroke="#FE724D" stroke-width="2"/>
<path d="M2.86364 39.181C2.86364 40.7626 1.58154 42.0447 0 42.0447C0 40.1356 0.00141368 40.7626 0.00141368 39.181C0.00141368 37.5995 0 37.2719 0 36.3174C1.58154 36.3174 2.86364 37.5995 2.86364 39.181Z" fill="#FFBE4D"/>
<circle cx="20.0453" cy="23.9086" r="2.86364" fill="#FFBE4D"/>
<circle cx="40.0907" cy="39.181" r="2.86364" fill="#FFBE4D"/>
<circle cx="60.1366" cy="23.9086" r="2.86364" fill="#FFBE4D"/>
<circle cx="80.182" cy="39.181" r="2.86364" fill="#FFBE4D"/>
<circle cx="100.227" cy="23.9086" r="2.86364" fill="#FFBE4D"/>
<circle cx="121.227" cy="39.181" r="2.86364" fill="#FFBE4D"/>
<circle cx="141.273" cy="23.9086" r="2.86364" fill="#FFBE4D"/>
<circle cx="161.318" cy="39.181" r="2.86364" fill="#FFBE4D"/>
<circle cx="181.364" cy="23.9086" r="2.86364" fill="#FFBE4D"/>
<circle cx="201.409" cy="39.181" r="2.86364" fill="#FFBE4D"/>
<circle cx="241.5" cy="39.181" r="2.86364" fill="#FFBE4D"/>
<circle cx="221.454" cy="23.9086" r="2.86364" fill="#FFBE4D"/>
<path d="M251.045 42.0445C251.045 36.7727 246.772 32.499 241.5 32.499C236.228 32.499 231.955 36.7727 231.955 42.0445" stroke="#FE724D" stroke-width="2"/>
<path d="M291.136 42.0445C291.136 36.7727 286.863 32.499 281.591 32.499C276.319 32.499 272.045 36.7727 272.045 42.0445" stroke="#FE724D" stroke-width="2"/>
<path d="M331.227 42.0445C331.227 36.7727 326.953 32.499 321.682 32.499C316.41 32.499 312.136 36.7727 312.136 42.0445" stroke="#FE724D" stroke-width="2"/>
<path d="M255.818 42.0447C255.818 34.137 249.408 27.7266 241.5 27.7266C233.592 27.7266 227.182 34.137 227.182 42.0447" stroke="#FE724D" stroke-width="2"/>
<path d="M295.909 42.0447C295.909 34.137 289.499 27.7266 281.591 27.7266C273.683 27.7266 267.273 34.137 267.273 42.0447" stroke="#FE724D" stroke-width="2"/>
<path d="M336 42.0447C336 34.137 329.59 27.7266 321.682 27.7266C313.774 27.7266 307.364 34.137 307.364 42.0447" stroke="#FE724D" stroke-width="2"/>
<path d="M261.545 42.0445C261.545 30.9737 252.571 21.999 241.5 21.999" stroke="#FE724D" stroke-width="2"/>
<path d="M301.636 42.0445C301.636 30.9737 292.662 21.999 281.591 21.999C270.52 21.999 261.545 30.9737 261.545 42.0445" stroke="#FE724D" stroke-width="2"/>
<path d="M341.727 42.0445C341.727 30.9737 332.752 21.999 321.682 21.999C310.611 21.999 301.636 30.9737 301.636 42.0445" stroke="#FE724D" stroke-width="2"/>
<circle cx="241.5" cy="39.181" r="2.86364" fill="#FFBE4D"/>
<circle cx="261.545" cy="23.9086" r="2.86364" fill="#FFBE4D"/>
<circle cx="281.591" cy="39.181" r="2.86364" fill="#FFBE4D"/>
<circle cx="301.637" cy="23.9086" r="2.86364" fill="#FFBE4D"/>
<circle cx="321.682" cy="39.181" r="2.86364" fill="#FFBE4D"/>
<circle cx="341.727" cy="23.9086" r="2.86364" fill="#FFBE4D"/>
<path fill-rule="evenodd" clip-rule="evenodd" d="M362.728 42.0449C361.146 42.0449 359.864 40.7628 359.864 39.1813C359.864 37.5997 361.146 36.3176 362.728 36.3176V42.0449Z" fill="#FFBE4D"/>
<path fill-rule="evenodd" clip-rule="evenodd" d="M362.729 28.7267C355.373 28.7267 349.411 34.6895 349.411 42.0449H347.411C347.411 33.5849 354.269 26.7267 362.729 26.7267V28.7267Z" fill="#FFBE4D"/>
<path fill-rule="evenodd" clip-rule="evenodd" d="M362.728 33.4995C358.009 33.4995 354.183 37.3254 354.183 42.0449H352.183C352.183 36.2208 356.904 31.4995 362.728 31.4995V33.4995Z" fill="#FFBE4D"/>
<path fill-rule="evenodd" clip-rule="evenodd" d="M362.728 22.9995C352.21 22.9995 343.683 31.5264 343.683 42.0449H341.683C341.683 30.4218 351.105 20.9995 362.728 20.9995V22.9995Z" fill="#FFBE4D"/>
<path d="M504.001 42.0445C504.001 30.9737 495.026 21.999 483.956 21.999C472.885 21.999 463.91 30.9737 463.91 42.0445" stroke="#FE724D" stroke-width="2"/>
<path d="M498.274 42.0447C498.274 34.137 491.864 27.7266 483.956 27.7266C476.048 27.7266 469.638 34.137 469.638 42.0447" stroke="#FE724D" stroke-width="2"/>
<path d="M493.501 42.0445C493.501 36.7727 489.227 32.499 483.956 32.499C478.684 32.499 474.41 36.7727 474.41 42.0445" stroke="#FE724D" stroke-width="2"/>
<path d="M533.592 42.0445C533.592 36.7727 529.319 32.499 524.047 32.499C518.775 32.499 514.501 36.7727 514.501 42.0445" stroke="#FE724D" stroke-width="2"/>
<path d="M372.274 42.0445C372.274 36.7727 368 32.499 362.729 32.499" stroke="#FE724D" stroke-width="2"/>
<path d="M573.683 42.0445C573.683 36.7727 569.41 32.499 564.138 32.499C558.866 32.499 554.592 36.7727 554.592 42.0445" stroke="#FE724D" stroke-width="2"/>
<path d="M412.365 42.0445C412.365 36.7727 408.091 32.499 402.819 32.499C397.548 32.499 393.274 36.7727 393.274 42.0445" stroke="#FE724D" stroke-width="2"/>
<path d="M613.774 42.0445C613.774 36.7727 609.5 32.499 604.229 32.499C598.957 32.499 594.683 36.7727 594.683 42.0445" stroke="#FE724D" stroke-width="2"/>
<path d="M452.456 42.0445C452.456 36.7727 448.182 32.499 442.91 32.499C437.638 32.499 433.365 36.7727 433.365 42.0445" stroke="#FE724D" stroke-width="2"/>
<path d="M538.365 42.0447C538.365 34.137 531.954 27.7266 524.047 27.7266C516.139 27.7266 509.729 34.137 509.729 42.0447" stroke="#FE724D" stroke-width="2"/>
<path d="M377.047 42.0447C377.047 34.137 370.636 27.7266 362.729 27.7266" stroke="#FE724D" stroke-width="2"/>
<path d="M578.456 42.0447C578.456 34.137 572.045 27.7266 564.138 27.7266C556.23 27.7266 549.819 34.137 549.819 42.0447" stroke="#FE724D" stroke-width="2"/>
<path d="M417.138 42.0447C417.138 34.137 410.727 27.7266 402.82 27.7266C394.912 27.7266 388.501 34.137 388.501 42.0447" stroke="#FE724D" stroke-width="2"/>
<path d="M618.547 42.0447C618.547 34.137 612.136 27.7266 604.228 27.7266C596.321 27.7266 589.91 34.137 589.91 42.0447" stroke="#FE724D" stroke-width="2"/>
<path d="M457.229 42.0447C457.229 34.137 450.818 27.7266 442.91 27.7266C435.003 27.7266 428.592 34.137 428.592 42.0447" stroke="#FE724D" stroke-width="2"/>
<path d="M544.092 42.0445C544.092 30.9737 535.118 21.999 524.047 21.999C512.976 21.999 504.001 30.9737 504.001 42.0445" stroke="#FE724D" stroke-width="2"/>
<path d="M382.774 42.0445C382.774 30.9737 373.799 21.999 362.729 21.999" stroke="#FE724D" stroke-width="2"/>
<path d="M584.183 42.0445C584.183 30.9737 575.209 21.999 564.138 21.999C553.067 21.999 544.092 30.9737 544.092 42.0445" stroke="#FE724D" stroke-width="2"/>
<path d="M422.865 42.0445C422.865 30.9737 413.89 21.999 402.819 21.999C391.749 21.999 382.774 30.9737 382.774 42.0445" stroke="#FE724D" stroke-width="2"/>
<path d="M584.183 42.0445C584.183 30.9737 593.158 21.999 604.229 21.999C611.04 21.999 617.059 25.3968 620.681 30.5899" stroke="#FE724D" stroke-width="2"/>
<path d="M462.956 42.0445C462.956 30.9737 453.981 21.999 442.91 21.999C431.839 21.999 422.865 30.9737 422.865 42.0445" stroke="#FE724D" stroke-width="2"/>
<path d="M365.592 39.181C365.592 40.7626 364.31 42.0447 362.729 42.0447C362.729 40.1356 362.73 40.7626 362.73 39.181C362.73 37.5995 362.729 37.2719 362.729 36.3174C364.31 36.3174 365.592 37.5995 365.592 39.181Z" fill="#FFBE4D"/>
<circle cx="382.774" cy="23.9086" r="2.86364" fill="#FFBE4D"/>
<circle cx="402.819" cy="39.181" r="2.86364" fill="#FFBE4D"/>
<circle cx="422.865" cy="23.9086" r="2.86364" fill="#FFBE4D"/>
<circle cx="442.911" cy="39.181" r="2.86364" fill="#FFBE4D"/>
<circle cx="462.956" cy="23.9086" r="2.86364" fill="#FFBE4D"/>
<circle cx="483.956" cy="39.181" r="2.86364" fill="#FFBE4D"/>
<circle cx="504.001" cy="23.9086" r="2.86364" fill="#FFBE4D"/>
<circle cx="524.047" cy="39.181" r="2.86364" fill="#FFBE4D"/>
<circle cx="544.092" cy="23.9086" r="2.86364" fill="#FFBE4D"/>
<circle cx="564.138" cy="39.181" r="2.86364" fill="#FFBE4D"/>
<circle cx="604.228" cy="39.181" r="2.86364" fill="#FFBE4D"/>
<circle cx="584.183" cy="23.9086" r="2.86364" fill="#FFBE4D"/>
<path d="M613.774 42.0445C613.774 36.7727 609.5 32.499 604.229 32.499C598.957 32.499 594.683 36.7727 594.683 42.0445" stroke="#FE724D" stroke-width="2"/>
<path d="M653.865 42.0445C653.865 36.7727 649.591 32.499 644.319 32.499C639.048 32.499 634.774 36.7727 634.774 42.0445" stroke="#FE724D" stroke-width="2"/>
<path d="M693.956 42.0445C693.956 36.7727 689.682 32.499 684.41 32.499C679.138 32.499 674.865 36.7727 674.865 42.0445" stroke="#FE724D" stroke-width="2"/>
<path d="M618.547 42.0447C618.547 34.137 612.136 27.7266 604.228 27.7266C596.321 27.7266 589.91 34.137 589.91 42.0447" stroke="#FE724D" stroke-width="2"/>
<path d="M658.638 42.0447C658.638 34.137 652.227 27.7266 644.32 27.7266C636.412 27.7266 630.001 34.137 630.001 42.0447" stroke="#FE724D" stroke-width="2"/>
<path d="M698.729 42.0447C698.729 34.137 692.318 27.7266 684.41 27.7266C676.503 27.7266 670.092 34.137 670.092 42.0447" stroke="#FE724D" stroke-width="2"/>
<path d="M624.274 42.0445C624.274 30.9737 615.299 21.999 604.229 21.999" stroke="#FE724D" stroke-width="2"/>
<path d="M664.365 42.0445C664.365 30.9737 655.39 21.999 644.319 21.999C633.249 21.999 624.274 30.9737 624.274 42.0445" stroke="#FE724D" stroke-width="2"/>
<path d="M704.456 42.0445C704.456 30.9737 695.481 21.999 684.41 21.999C673.339 21.999 664.365 30.9737 664.365 42.0445" stroke="#FE724D" stroke-width="2"/>
<circle cx="604.228" cy="39.181" r="2.86364" fill="#FFBE4D"/>
<circle cx="624.274" cy="23.9086" r="2.86364" fill="#FFBE4D"/>
<circle cx="644.32" cy="39.181" r="2.86364" fill="#FFBE4D"/>
<circle cx="664.365" cy="23.9086" r="2.86364" fill="#FFBE4D"/>
<circle cx="684.411" cy="39.181" r="2.86364" fill="#FFBE4D"/>
<circle cx="704.456" cy="23.9086" r="2.86364" fill="#FFBE4D"/>
<path fill-rule="evenodd" clip-rule="evenodd" d="M725.457 28.7267C718.102 28.7267 712.139 34.6895 712.139 42.0449H710.139C710.139 33.5849 716.997 26.7267 725.457 26.7267V28.7267Z" fill="#FFBE4D"/>
<path fill-rule="evenodd" clip-rule="evenodd" d="M725.457 33.4995C720.737 33.4995 716.911 37.3254 716.911 42.0449H714.911C714.911 36.2208 719.632 31.4995 725.457 31.4995V33.4995Z" fill="#FFBE4D"/>
<path fill-rule="evenodd" clip-rule="evenodd" d="M725.457 22.9995C714.938 22.9995 706.411 31.5264 706.411 42.0449H704.411C704.411 30.4218 713.834 20.9995 725.457 20.9995V22.9995Z" fill="#FFBE4D"/>
</mask>
<g mask="url(#mask1_631_99586)">
<path d="M0 42.0449H680V21.0449H0V42.0449Z" fill="#FFBE4D"/>
</g>
</svg>
