<svg width="683" height="41" viewBox="0 0 683 41" fill="none" xmlns="http://www.w3.org/2000/svg">
<mask id="mask0_631_97364" style="mask-type:alpha" maskUnits="userSpaceOnUse" x="0" y="0" width="683" height="22">
<path d="M247.379 19.7918L247.344 20.6836H227.949V19.7918H247.379Z" fill="#4F8AEA" stroke="#4F8AEA"/>
<path d="M227.409 20.4809L203.957 1.76893L204.513 1.07187L227.965 19.7838L227.409 20.4809Z" fill="#4F8AEA" stroke="#4F8AEA"/>
<path d="M232.645 13.9265L232.092 14.6201L215.576 1.50128L215.968 0.913506L232.645 13.9265Z" fill="#4F8AEA" stroke="#4F8AEA"/>
<path d="M232.024 6.56401L215.616 19.6553L216.172 20.3524L232.58 7.26108L232.024 6.56401Z" fill="#4F8AEA" stroke="#4F8AEA"/>
<path d="M204.752 20.4809L228.204 1.76893L227.648 1.07187L204.196 19.7838L204.752 20.4809Z" fill="#4F8AEA" stroke="#4F8AEA"/>
<path d="M247.344 0.870934L247.379 1.7627H228.031L228.162 0.870934H247.344Z" fill="#4F8AEA" stroke="#4F8AEA"/>
<path d="M203.954 19.7918L204.098 20.6836H184.659L184.519 19.7918H203.954Z" fill="#4F8AEA" stroke="#4F8AEA"/>
<path d="M203.883 1.7627H184.448L184.471 0.870934H203.883V1.7627Z" fill="#4F8AEA" stroke="#4F8AEA"/>
<path d="M160.372 20.6836H141.223V19.7918H160.372V20.6836Z" fill="#4F8AEA" stroke="#4F8AEA"/>
<path d="M184.141 20.4809L160.689 1.76893L161.245 1.07187L184.697 19.7838L184.141 20.4809Z" fill="#4F8AEA" stroke="#4F8AEA"/>
<path d="M160.37 19.6251L160.918 20.4508L184.257 1.69014L183.864 1.10166L160.37 19.6251Z" fill="#4F8AEA" stroke="#4F8AEA"/>
<path d="M140.63 20.4809L117.178 1.76893L117.734 1.07187L141.186 19.7838L140.63 20.4809Z" fill="#4F8AEA" stroke="#4F8AEA"/>
<path d="M117.447 20.4848L140.899 1.7728L140.343 1.07573L116.891 19.7877L117.447 20.4848Z" fill="#4F8AEA" stroke="#4F8AEA"/>
<path d="M160.67 1.7627H140.94V0.870934H160.67V1.7627Z" fill="#4F8AEA" stroke="#4F8AEA"/>
<path d="M116.86 20.6836H97.6917V19.7918H116.86V20.6836Z" fill="#4F8AEA" stroke="#4F8AEA"/>
<path d="M117.146 1.7627H97.7218V0.870934H117.146V1.7627Z" fill="#4F8AEA" stroke="#4F8AEA"/>
<path d="M73.3735 19.7918L73.5477 20.6836H54.1886V19.7918H73.3735Z" fill="#4F8AEA" stroke="#4F8AEA"/>
<path d="M97.1222 20.4809L73.6702 1.76893L74.2264 1.07187L97.6784 19.7838L97.1222 20.4809Z" fill="#4F8AEA" stroke="#4F8AEA"/>
<path d="M74.226 20.4809L97.6779 1.76893L97.1218 1.07187L73.6698 19.7838L74.226 20.4809Z" fill="#4F8AEA" stroke="#4F8AEA"/>
<path d="M53.6149 20.4809L30.1629 1.76893L30.7191 1.07187L54.171 19.7838L53.6149 20.4809Z" fill="#4F8AEA" stroke="#4F8AEA"/>
<path d="M30.7186 20.4809L54.1706 1.76893L53.6144 1.07187L30.1625 19.7838L30.7186 20.4809Z" fill="#4F8AEA" stroke="#4F8AEA"/>
<path d="M73.5638 0.870934L73.4322 1.7627H54.3671L54.2574 0.870934H73.5638Z" fill="#4F8AEA" stroke="#4F8AEA"/>
<path d="M29.9188 19.7918L30.0565 20.6836H10.6225L10.4815 19.7918H29.9188Z" fill="#4F8AEA" stroke="#4F8AEA"/>
<path d="M30.0495 0.870934L29.9138 1.7627H10.4786L10.6197 0.870934H30.0495Z" fill="#4F8AEA" stroke="#4F8AEA"/>
<path d="M243.016 14.8184H232.684V13.9266H243.016V14.8184Z" fill="#4F8AEA" stroke="#4F8AEA"/>
<path d="M243.098 7.25391H232.597V6.36214H243.098V7.25391Z" fill="#4F8AEA" stroke="#4F8AEA"/>
<path d="M199.528 13.9212L200.085 14.6201L216.522 1.56384L215.817 0.858255L199.528 13.9212Z" fill="#4F8AEA" stroke="#4F8AEA"/>
<path d="M200.17 6.56401L216.577 19.6553L216.021 20.3524L199.614 7.26108L200.17 6.56401Z" fill="#4F8AEA" stroke="#4F8AEA"/>
<path d="M189.173 14.8184H199.508V13.9266H189.173V14.8184Z" fill="#4F8AEA" stroke="#4F8AEA"/>
<path d="M189.095 7.25391H199.595V6.36214H189.095V7.25391Z" fill="#4F8AEA" stroke="#4F8AEA"/>
<path d="M189.138 13.9265L188.584 14.6201L172.069 1.50128L172.461 0.913506L189.138 13.9265Z" fill="#4F8AEA" stroke="#4F8AEA"/>
<path d="M188.516 6.56401L172.108 19.6553L172.664 20.3524L189.072 7.26108L188.516 6.56401Z" fill="#4F8AEA" stroke="#4F8AEA"/>
<path d="M156.017 13.9212L156.574 14.6201L173.011 1.56384L172.305 0.858255L156.017 13.9212Z" fill="#4F8AEA" stroke="#4F8AEA"/>
<path d="M156.662 6.56401L173.069 19.6553L172.513 20.3524L156.106 7.26108L156.662 6.56401Z" fill="#4F8AEA" stroke="#4F8AEA"/>
<path d="M145.654 14.8184H155.997V13.9266H145.654V14.8184Z" fill="#4F8AEA" stroke="#4F8AEA"/>
<path d="M145.583 7.25391H156.239V6.36214H145.583V7.25391Z" fill="#4F8AEA" stroke="#4F8AEA"/>
<path d="M145.622 13.9265L145.069 14.6201L128.553 1.50128L128.945 0.913506L145.622 13.9265Z" fill="#4F8AEA" stroke="#4F8AEA"/>
<path d="M145.005 6.56401L128.597 19.6553L129.153 20.3524L145.561 7.26108L145.005 6.56401Z" fill="#4F8AEA" stroke="#4F8AEA"/>
<path d="M112.505 13.9212L113.063 14.6201L129.5 1.56384L128.794 0.858255L112.505 13.9212Z" fill="#4F8AEA" stroke="#4F8AEA"/>
<path d="M113.151 6.56401L129.558 19.6553L129.002 20.3524L112.595 7.26108L113.151 6.56401Z" fill="#4F8AEA" stroke="#4F8AEA"/>
<path d="M102.154 14.8184H112.493V13.9266H102.154V14.8184Z" fill="#4F8AEA" stroke="#4F8AEA"/>
<path d="M102.072 7.25391H112.561V6.36214H102.072V7.25391Z" fill="#4F8AEA" stroke="#4F8AEA"/>
<path d="M102.119 13.9265L101.565 14.6201L85.05 1.50128L85.4418 0.913506L102.119 13.9265Z" fill="#4F8AEA" stroke="#4F8AEA"/>
<path d="M101.493 6.56401L85.0858 19.6553L85.642 20.3524L102.049 7.26108L101.493 6.56401Z" fill="#4F8AEA" stroke="#4F8AEA"/>
<path d="M68.9937 13.9212L69.5513 14.6201L85.988 1.56384L85.2824 0.858255L68.9937 13.9212Z" fill="#4F8AEA" stroke="#4F8AEA"/>
<path d="M69.6356 6.56401L86.0431 19.6553L85.4869 20.3524L69.0795 7.26108L69.6356 6.56401Z" fill="#4F8AEA" stroke="#4F8AEA"/>
<path d="M58.6313 14.8184H68.9708V13.9266H58.6313V14.8184Z" fill="#4F8AEA" stroke="#4F8AEA"/>
<path d="M58.5566 7.25391H69.0465V6.36214H58.5566V7.25391Z" fill="#4F8AEA" stroke="#4F8AEA"/>
<path d="M58.6076 13.9265L58.0542 14.6201L41.5388 1.50128L41.9306 0.913506L58.6076 13.9265Z" fill="#4F8AEA" stroke="#4F8AEA"/>
<path d="M57.9776 6.56401L41.5702 19.6553L42.1264 20.3524L58.5338 7.26108L57.9776 6.56401Z" fill="#4F8AEA" stroke="#4F8AEA"/>
<path d="M25.4902 13.9212L26.0479 14.6201L42.4845 1.56384L41.779 0.858255L25.4902 13.9212Z" fill="#4F8AEA" stroke="#4F8AEA"/>
<path d="M26.1278 6.56401L42.5353 19.6553L41.9791 20.3524L25.5716 7.26108L26.1278 6.56401Z" fill="#4F8AEA" stroke="#4F8AEA"/>
<path d="M15.1274 14.8184H25.4629V13.9266H15.1274V14.8184Z" fill="#4F8AEA" stroke="#4F8AEA"/>
<path d="M15.0376 7.25391H25.5341V6.36214H15.0376V7.25391Z" fill="#4F8AEA" stroke="#4F8AEA"/>
<mask id="path-55-inside-1_631_97364" fill="white">
<path fill-rule="evenodd" clip-rule="evenodd" d="M0.00773048 19.8818L15.728 7.33884L14.5482 5.8601L0.00773048 17.4617V19.8818Z"/>
</mask>
<path fill-rule="evenodd" clip-rule="evenodd" d="M0.00773048 19.8818L15.728 7.33884L14.5482 5.8601L0.00773048 17.4617V19.8818Z" fill="#4F8AEA"/>
<path d="M0.00773048 19.8818H-0.99227V21.959L0.631417 20.6635L0.00773048 19.8818ZM15.728 7.33884L16.3517 8.12052L17.1334 7.49683L16.5097 6.71516L15.728 7.33884ZM14.5482 5.8601L15.3298 5.23642L14.7061 4.45474L13.9245 5.07843L14.5482 5.8601ZM0.00773048 17.4617L-0.615955 16.68L-0.99227 16.9803V17.4617H0.00773048ZM0.631417 20.6635L16.3517 8.12052L15.1043 6.55717L-0.615955 19.1002L0.631417 20.6635ZM16.5097 6.71516L15.3298 5.23642L13.7665 6.48379L14.9464 7.96253L16.5097 6.71516ZM13.9245 5.07843L-0.615955 16.68L0.631417 18.2434L15.1718 6.64178L13.9245 5.07843ZM-0.99227 17.4617V19.8818H1.00773V17.4617H-0.99227Z" fill="#4F8AEA" mask="url(#path-55-inside-1_631_97364)"/>
<mask id="path-57-inside-2_631_97364" fill="white">
<path fill-rule="evenodd" clip-rule="evenodd" d="M0.00387669 13.066L10.1766 21.1826L11.3564 19.7039L0.00387669 10.6458V13.066Z"/>
</mask>
<path fill-rule="evenodd" clip-rule="evenodd" d="M0.00387669 13.066L10.1766 21.1826L11.3564 19.7039L0.00387669 10.6458V13.066Z" fill="#4F8AEA"/>
<path d="M0.00387669 13.066H-0.996123V13.5474L-0.61981 13.8476L0.00387669 13.066ZM10.1766 21.1826L9.55289 21.9643L10.3346 22.588L10.9583 21.8063L10.1766 21.1826ZM11.3564 19.7039L12.1381 20.3276L12.7618 19.5459L11.9801 18.9222L11.3564 19.7039ZM0.00387669 10.6458L0.627563 9.86415L-0.996123 8.56864V10.6458H0.00387669ZM-0.61981 13.8476L9.55289 21.9643L10.8003 20.4009L0.627563 12.2843L-0.61981 13.8476ZM10.9583 21.8063L12.1381 20.3276L10.5748 19.0802L9.3949 20.5589L10.9583 21.8063ZM11.9801 18.9222L0.627563 9.86415L-0.61981 11.4275L10.7328 20.4856L11.9801 18.9222ZM-0.996123 10.6458V13.066H1.00388V10.6458H-0.996123Z" fill="#4F8AEA" mask="url(#path-57-inside-2_631_97364)"/>
<mask id="path-59-inside-3_631_97364" fill="white">
<path fill-rule="evenodd" clip-rule="evenodd" d="M7.53403e-05 10.9102L11.356 1.84947L10.1761 0.370725L7.53403e-05 8.49002V10.9102Z"/>
</mask>
<path fill-rule="evenodd" clip-rule="evenodd" d="M7.53403e-05 10.9102L11.356 1.84947L10.1761 0.370725L7.53403e-05 8.49002V10.9102Z" fill="#4F8AEA"/>
<path d="M7.53403e-05 10.9102H-0.999925V12.9873L0.623762 11.6918L7.53403e-05 10.9102ZM11.356 1.84947L11.9796 2.63114L12.7613 2.00745L12.1376 1.22578L11.356 1.84947ZM10.1761 0.370725L10.9578 -0.252962L10.3341 -1.03464L9.5524 -0.410951L10.1761 0.370725ZM7.53403e-05 8.49002L-0.623611 7.70834L-0.999925 8.0086V8.49002H7.53403e-05ZM0.623762 11.6918L11.9796 2.63114L10.7323 1.06779L-0.623611 10.1285L0.623762 11.6918ZM12.1376 1.22578L10.9578 -0.252962L9.39442 0.994411L10.5743 2.47315L12.1376 1.22578ZM9.5524 -0.410951L-0.623611 7.70834L0.623762 9.27169L10.7998 1.1524L9.5524 -0.410951ZM-0.999925 8.49002V10.9102H1.00008V8.49002H-0.999925Z" fill="#4F8AEA" mask="url(#path-59-inside-3_631_97364)"/>
<mask id="path-61-inside-4_631_97364" fill="white">
<path fill-rule="evenodd" clip-rule="evenodd" d="M0.000125885 3.71211L14.6175 15.3232L15.7974 13.8445L0.000125885 1.51805V3.71211Z"/>
</mask>
<path fill-rule="evenodd" clip-rule="evenodd" d="M0.000125885 3.71211L14.6175 15.3232L15.7974 13.8445L0.000125885 1.51805V3.71211Z" fill="#4F8AEA"/>
<path d="M14.6175 15.3232L13.9955 16.1063L14.7768 16.7269L15.3992 15.9469L14.6175 15.3232ZM0.000125885 3.71211H-0.999874V4.19487L-0.621862 4.49514L0.000125885 3.71211ZM15.7974 13.8445L16.579 14.4682L17.2095 13.678L16.4125 13.0561L15.7974 13.8445ZM0.000125885 1.51805L0.6153 0.729662L-0.999874 -0.530644V1.51805H0.000125885ZM15.2395 14.5402L0.622114 2.92908L-0.621862 4.49514L13.9955 16.1063L15.2395 14.5402ZM15.0157 13.2208L13.8358 14.6996L15.3992 15.9469L16.579 14.4682L15.0157 13.2208ZM-0.615049 2.30644L15.1822 14.6329L16.4125 13.0561L0.6153 0.729662L-0.615049 2.30644ZM-0.999874 1.51805V3.71211H1.00013V1.51805H-0.999874Z" fill="#4F8AEA" mask="url(#path-61-inside-4_631_97364)"/>
<path d="M464.934 19.7918L464.899 20.6836H445.505V19.7918H464.934Z" fill="#4F8AEA" stroke="#4F8AEA"/>
<path d="M444.961 20.4809L421.509 1.76893L422.065 1.07187L445.517 19.7838L444.961 20.4809Z" fill="#4F8AEA" stroke="#4F8AEA"/>
<path d="M450.197 13.9265L449.644 14.6201L433.128 1.50128L433.52 0.913506L450.197 13.9265Z" fill="#4F8AEA" stroke="#4F8AEA"/>
<path d="M449.567 6.56401L433.16 19.6553L433.716 20.3524L450.124 7.26108L449.567 6.56401Z" fill="#4F8AEA" stroke="#4F8AEA"/>
<path d="M422.304 20.4809L445.756 1.76893L445.2 1.07187L421.748 19.7838L422.304 20.4809Z" fill="#4F8AEA" stroke="#4F8AEA"/>
<path d="M464.899 0.870934L464.934 1.7627H445.586L445.718 0.870934H464.899Z" fill="#4F8AEA" stroke="#4F8AEA"/>
<path d="M421.502 19.7918L421.646 20.6836H402.207L402.066 19.7918H421.502Z" fill="#4F8AEA" stroke="#4F8AEA"/>
<path d="M421.435 1.7627H402L402.023 0.870934H421.435V1.7627Z" fill="#4F8AEA" stroke="#4F8AEA"/>
<path d="M377.923 20.6836H358.775V19.7918H377.923V20.6836Z" fill="#4F8AEA" stroke="#4F8AEA"/>
<path d="M401.697 20.4809L378.245 1.76893L378.801 1.07187L402.253 19.7838L401.697 20.4809Z" fill="#4F8AEA" stroke="#4F8AEA"/>
<path d="M377.922 19.6251L378.47 20.4508L401.809 1.69014L401.415 1.10166L377.922 19.6251Z" fill="#4F8AEA" stroke="#4F8AEA"/>
<path d="M358.186 20.4809L334.734 1.76893L335.29 1.07187L358.742 19.7838L358.186 20.4809Z" fill="#4F8AEA" stroke="#4F8AEA"/>
<path d="M334.995 20.4848L358.447 1.7728L357.891 1.07573L334.439 19.7877L334.995 20.4848Z" fill="#4F8AEA" stroke="#4F8AEA"/>
<path d="M378.218 1.7627H358.488V0.870934H378.218V1.7627Z" fill="#4F8AEA" stroke="#4F8AEA"/>
<path d="M334.408 20.6836H315.24V19.7918H334.408V20.6836Z" fill="#4F8AEA" stroke="#4F8AEA"/>
<path d="M334.694 1.7627H315.27V0.870934H334.694V1.7627Z" fill="#4F8AEA" stroke="#4F8AEA"/>
<path d="M290.925 19.7918L291.099 20.6836H271.74V19.7918H290.925Z" fill="#4F8AEA" stroke="#4F8AEA"/>
<path d="M314.678 20.4809L291.226 1.76893L291.782 1.07187L315.234 19.7838L314.678 20.4809Z" fill="#4F8AEA" stroke="#4F8AEA"/>
<path d="M291.778 20.4809L315.23 1.76893L314.674 1.07187L291.222 19.7838L291.778 20.4809Z" fill="#4F8AEA" stroke="#4F8AEA"/>
<path d="M271.163 20.4809L247.711 1.76893L248.267 1.07187L271.719 19.7838L271.163 20.4809Z" fill="#4F8AEA" stroke="#4F8AEA"/>
<path d="M248.262 20.4809L271.714 1.76893L271.158 1.07187L247.706 19.7838L248.262 20.4809Z" fill="#4F8AEA" stroke="#4F8AEA"/>
<path d="M291.112 0.870934L290.98 1.7627H271.915L271.805 0.870934H291.112Z" fill="#4F8AEA" stroke="#4F8AEA"/>
<path d="M247.462 19.7918L247.6 20.6836H228.166L228.025 19.7918H247.462Z" fill="#4F8AEA" stroke="#4F8AEA"/>
<path d="M247.597 0.870934L247.462 1.7627H228.026L228.168 0.870934H247.597Z" fill="#4F8AEA" stroke="#4F8AEA"/>
<path d="M460.556 14.8184H450.224V13.9266H460.556V14.8184Z" fill="#4F8AEA" stroke="#4F8AEA"/>
<path d="M460.658 7.25391H450.156V6.36214H460.658V7.25391Z" fill="#4F8AEA" stroke="#4F8AEA"/>
<path d="M417.076 13.9212L417.633 14.6201L434.07 1.56384L433.364 0.858255L417.076 13.9212Z" fill="#4F8AEA" stroke="#4F8AEA"/>
<path d="M417.714 6.56401L434.121 19.6553L433.565 20.3524L417.158 7.26108L417.714 6.56401Z" fill="#4F8AEA" stroke="#4F8AEA"/>
<path d="M406.717 14.8184H417.052V13.9266H406.717V14.8184Z" fill="#4F8AEA" stroke="#4F8AEA"/>
<path d="M406.646 7.25391H417.146V6.36214H406.646V7.25391Z" fill="#4F8AEA" stroke="#4F8AEA"/>
<path d="M406.69 13.9265L406.136 14.6201L389.621 1.50128L390.013 0.913506L406.69 13.9265Z" fill="#4F8AEA" stroke="#4F8AEA"/>
<path d="M406.067 6.56401L389.66 19.6553L390.216 20.3524L406.624 7.26108L406.067 6.56401Z" fill="#4F8AEA" stroke="#4F8AEA"/>
<path d="M373.572 13.9212L374.13 14.6201L390.567 1.56384L389.861 0.858255L373.572 13.9212Z" fill="#4F8AEA" stroke="#4F8AEA"/>
<path d="M374.21 6.56401L390.617 19.6553L390.061 20.3524L373.654 7.26108L374.21 6.56401Z" fill="#4F8AEA" stroke="#4F8AEA"/>
<path d="M363.206 14.8184H373.549V13.9266H363.206V14.8184Z" fill="#4F8AEA" stroke="#4F8AEA"/>
<path d="M363.135 7.25391H373.79V6.36214H363.135V7.25391Z" fill="#4F8AEA" stroke="#4F8AEA"/>
<path d="M363.174 13.9265L362.621 14.6201L346.105 1.50128L346.497 0.913506L363.174 13.9265Z" fill="#4F8AEA" stroke="#4F8AEA"/>
<path d="M362.556 6.56401L346.149 19.6553L346.705 20.3524L363.112 7.26108L362.556 6.56401Z" fill="#4F8AEA" stroke="#4F8AEA"/>
<path d="M330.057 13.9212L330.614 14.6201L347.051 1.56384L346.345 0.858255L330.057 13.9212Z" fill="#4F8AEA" stroke="#4F8AEA"/>
<path d="M330.699 6.56401L347.106 19.6553L346.55 20.3524L330.142 7.26108L330.699 6.56401Z" fill="#4F8AEA" stroke="#4F8AEA"/>
<path d="M319.706 14.8184H330.045V13.9266H319.706V14.8184Z" fill="#4F8AEA" stroke="#4F8AEA"/>
<path d="M319.62 7.25391H330.109V6.36214H319.62V7.25391Z" fill="#4F8AEA" stroke="#4F8AEA"/>
<path d="M319.667 13.9265L319.113 14.6201L302.598 1.50128L302.99 0.913506L319.667 13.9265Z" fill="#4F8AEA" stroke="#4F8AEA"/>
<path d="M319.041 6.56401L302.634 19.6553L303.19 20.3524L319.597 7.26108L319.041 6.56401Z" fill="#4F8AEA" stroke="#4F8AEA"/>
<path d="M286.553 13.9212L287.111 14.6201L303.548 1.56384L302.842 0.858255L286.553 13.9212Z" fill="#4F8AEA" stroke="#4F8AEA"/>
<path d="M287.191 6.56401L303.599 19.6553L303.043 20.3524L286.635 7.26108L287.191 6.56401Z" fill="#4F8AEA" stroke="#4F8AEA"/>
<path d="M276.187 14.8184H286.526V13.9266H276.187V14.8184Z" fill="#4F8AEA" stroke="#4F8AEA"/>
<path d="M276.116 7.25391H286.606V6.36214H276.116V7.25391Z" fill="#4F8AEA" stroke="#4F8AEA"/>
<path d="M276.163 13.9265L275.61 14.6201L259.094 1.50128L259.486 0.913506L276.163 13.9265Z" fill="#4F8AEA" stroke="#4F8AEA"/>
<path d="M275.537 6.56401L259.13 19.6553L259.686 20.3524L276.093 7.26108L275.537 6.56401Z" fill="#4F8AEA" stroke="#4F8AEA"/>
<path d="M243.038 13.9212L243.596 14.6201L260.032 1.56384L259.327 0.858255L243.038 13.9212Z" fill="#4F8AEA" stroke="#4F8AEA"/>
<path d="M243.68 6.56401L260.087 19.6553L259.531 20.3524L243.123 7.26108L243.68 6.56401Z" fill="#4F8AEA" stroke="#4F8AEA"/>
<path d="M232.683 14.8184H243.019V13.9266H232.683V14.8184Z" fill="#4F8AEA" stroke="#4F8AEA"/>
<path d="M232.589 7.25391H243.086V6.36214H232.589V7.25391Z" fill="#4F8AEA" stroke="#4F8AEA"/>
<mask id="path-117-inside-5_631_97364" fill="white">
<path fill-rule="evenodd" clip-rule="evenodd" d="M217.562 19.8818L233.282 7.33885L232.102 5.8601L217.562 17.4617V19.8818Z"/>
</mask>
<path fill-rule="evenodd" clip-rule="evenodd" d="M217.562 19.8818L233.282 7.33885L232.102 5.8601L217.562 17.4617V19.8818Z" fill="#4F8AEA"/>
<path d="M217.562 19.8818H216.562V21.959L218.186 20.6635L217.562 19.8818ZM233.282 7.33885L233.906 8.12052L234.688 7.49683L234.064 6.71516L233.282 7.33885ZM232.102 5.8601L232.884 5.23642L232.26 4.45474L231.479 5.07843L232.102 5.8601ZM217.562 17.4617L216.938 16.68L216.562 16.9803V17.4617H217.562ZM218.186 20.6635L233.906 8.12052L232.659 6.55717L216.938 19.1002L218.186 20.6635ZM234.064 6.71516L232.884 5.23642L231.321 6.48379L232.501 7.96253L234.064 6.71516ZM231.479 5.07843L216.938 16.68L218.186 18.2434L232.726 6.64178L231.479 5.07843ZM216.562 17.4617V19.8818H218.562V17.4617H216.562Z" fill="#4F8AEA" mask="url(#path-117-inside-5_631_97364)"/>
<mask id="path-119-inside-6_631_97364" fill="white">
<path fill-rule="evenodd" clip-rule="evenodd" d="M217.562 13.0703L227.729 21.1826L228.909 19.7039L217.562 10.6501V13.0703Z"/>
</mask>
<path fill-rule="evenodd" clip-rule="evenodd" d="M217.562 13.0703L227.729 21.1826L228.909 19.7039L217.562 10.6501V13.0703Z" fill="#4F8AEA"/>
<path d="M217.562 13.0703H216.562V13.5517L216.938 13.852L217.562 13.0703ZM227.729 21.1826L227.106 21.9643L227.887 22.588L228.511 21.8063L227.729 21.1826ZM228.909 19.7039L229.691 20.3276L230.315 19.5459L229.533 18.9222L228.909 19.7039ZM217.562 10.6501L218.186 9.86847L216.562 8.57295V10.6501H217.562ZM216.938 13.852L227.106 21.9643L228.353 20.4009L218.186 12.2886L216.938 13.852ZM228.511 21.8063L229.691 20.3276L228.128 19.0802L226.948 20.5589L228.511 21.8063ZM229.533 18.9222L218.186 9.86847L216.938 11.4318L228.285 20.4856L229.533 18.9222ZM216.562 10.6501V13.0703H218.562V10.6501H216.562Z" fill="#4F8AEA" mask="url(#path-119-inside-6_631_97364)"/>
<mask id="path-121-inside-7_631_97364" fill="white">
<path fill-rule="evenodd" clip-rule="evenodd" d="M217.554 10.9082L228.905 1.85184L227.725 0.373097L217.554 8.48806V10.9082Z"/>
</mask>
<path fill-rule="evenodd" clip-rule="evenodd" d="M217.554 10.9082L228.905 1.85184L227.725 0.373097L217.554 8.48806V10.9082Z" fill="#4F8AEA"/>
<path d="M217.554 10.9082H216.554V12.9854L218.178 11.6899L217.554 10.9082ZM228.905 1.85184L229.528 2.63351L230.31 2.00983L229.686 1.22815L228.905 1.85184ZM227.725 0.373097L228.507 -0.250588L227.883 -1.03226L227.101 -0.408577L227.725 0.373097ZM217.554 8.48806L216.931 7.70639L216.554 8.00664V8.48806H217.554ZM218.178 11.6899L229.528 2.63351L228.281 1.07017L216.931 10.1265L218.178 11.6899ZM229.686 1.22815L228.507 -0.250588L226.943 0.996783L228.123 2.47553L229.686 1.22815ZM227.101 -0.408577L216.931 7.70639L218.178 9.26974L228.349 1.15477L227.101 -0.408577ZM216.554 8.48806V10.9082H218.554V8.48806H216.554Z" fill="#4F8AEA" mask="url(#path-121-inside-7_631_97364)"/>
<mask id="path-123-inside-8_631_97364" fill="white">
<path fill-rule="evenodd" clip-rule="evenodd" d="M217.554 3.71211L232.172 15.3232L233.352 13.8445L217.554 1.51805V3.71211Z"/>
</mask>
<path fill-rule="evenodd" clip-rule="evenodd" d="M217.554 3.71211L232.172 15.3232L233.352 13.8445L217.554 1.51805V3.71211Z" fill="#4F8AEA"/>
<path d="M232.172 15.3232L231.55 16.1063L232.331 16.7269L232.953 15.9469L232.172 15.3232ZM217.554 3.71211H216.554V4.19487L216.932 4.49514L217.554 3.71211ZM233.352 13.8445L234.133 14.4682L234.764 13.678L233.967 13.0561L233.352 13.8445ZM217.554 1.51805L218.169 0.729662L216.554 -0.530644V1.51805H217.554ZM232.794 14.5402L218.176 2.92908L216.932 4.49514L231.55 16.1063L232.794 14.5402ZM232.57 13.2208L231.39 14.6996L232.953 15.9469L234.133 14.4682L232.57 13.2208ZM216.939 2.30644L232.736 14.6329L233.967 13.0561L218.169 0.729662L216.939 2.30644ZM216.554 1.51805V3.71211H218.554V1.51805H216.554Z" fill="#4F8AEA" mask="url(#path-123-inside-8_631_97364)"/>
<path d="M682.478 19.7918L682.443 20.6836H663.048V19.7918H682.478Z" fill="#4F8AEA" stroke="#4F8AEA"/>
<path d="M662.505 20.4809L639.053 1.76893L639.609 1.07187L663.061 19.7838L662.505 20.4809Z" fill="#4F8AEA" stroke="#4F8AEA"/>
<path d="M667.749 13.9265L667.195 14.6201L650.68 1.50128L651.072 0.913506L667.749 13.9265Z" fill="#4F8AEA" stroke="#4F8AEA"/>
<path d="M667.119 6.56401L650.712 19.6553L651.268 20.3524L667.675 7.26108L667.119 6.56401Z" fill="#4F8AEA" stroke="#4F8AEA"/>
<path d="M639.848 20.4809L663.3 1.76893L662.744 1.07187L639.292 19.7838L639.848 20.4809Z" fill="#4F8AEA" stroke="#4F8AEA"/>
<path d="M682.443 0.870934L682.478 1.7627H663.13L663.262 0.870934H682.443Z" fill="#4F8AEA" stroke="#4F8AEA"/>
<path d="M639.046 19.7918L639.19 20.6836H619.75L619.61 19.7918H639.046Z" fill="#4F8AEA" stroke="#4F8AEA"/>
<path d="M638.982 1.7627H619.548L619.571 0.870934H638.982V1.7627Z" fill="#4F8AEA" stroke="#4F8AEA"/>
<path d="M595.475 20.6836H576.326V19.7918H595.475V20.6836Z" fill="#4F8AEA" stroke="#4F8AEA"/>
<path d="M619.245 20.4809L595.793 1.76893L596.349 1.07187L619.801 19.7838L619.245 20.4809Z" fill="#4F8AEA" stroke="#4F8AEA"/>
<path d="M595.466 19.6251L596.014 20.4508L619.353 1.69014L618.959 1.10166L595.466 19.6251Z" fill="#4F8AEA" stroke="#4F8AEA"/>
<path d="M575.725 20.4809L552.273 1.76893L552.829 1.07187L576.281 19.7838L575.725 20.4809Z" fill="#4F8AEA" stroke="#4F8AEA"/>
<path d="M552.542 20.4848L575.994 1.7728L575.438 1.07573L551.986 19.7877L552.542 20.4848Z" fill="#4F8AEA" stroke="#4F8AEA"/>
<path d="M595.765 1.7627H576.035V0.870934H595.765V1.7627Z" fill="#4F8AEA" stroke="#4F8AEA"/>
<path d="M551.956 20.6836H532.787V19.7918H551.956V20.6836Z" fill="#4F8AEA" stroke="#4F8AEA"/>
<path d="M552.234 1.7627H532.81V0.870934H552.234V1.7627Z" fill="#4F8AEA" stroke="#4F8AEA"/>
<path d="M508.469 19.7918L508.643 20.6836H489.284V19.7918H508.469Z" fill="#4F8AEA" stroke="#4F8AEA"/>
<path d="M532.214 20.4809L508.762 1.76893L509.318 1.07187L532.77 19.7838L532.214 20.4809Z" fill="#4F8AEA" stroke="#4F8AEA"/>
<path d="M509.326 20.4809L532.778 1.76893L532.221 1.07187L508.769 19.7838L509.326 20.4809Z" fill="#4F8AEA" stroke="#4F8AEA"/>
<path d="M488.711 20.4809L465.259 1.76893L465.815 1.07187L489.267 19.7838L488.711 20.4809Z" fill="#4F8AEA" stroke="#4F8AEA"/>
<path d="M465.81 20.4809L489.262 1.76893L488.706 1.07187L465.254 19.7838L465.81 20.4809Z" fill="#4F8AEA" stroke="#4F8AEA"/>
<path d="M508.66 0.870934L508.528 1.7627H489.463L489.353 0.870934H508.66Z" fill="#4F8AEA" stroke="#4F8AEA"/>
<path d="M465.01 19.7918L465.148 20.6836H445.714L445.573 19.7918H465.01Z" fill="#4F8AEA" stroke="#4F8AEA"/>
<path d="M465.145 0.870934L465.009 1.7627H445.574L445.715 0.870934H465.145Z" fill="#4F8AEA" stroke="#4F8AEA"/>
<path d="M679.5 14.8203H667.5V13.8203H679.5V14.8203Z" fill="#4F8AEA" stroke="#4F8AEA"/>
<path d="M679.5 7.25H667.5V6.25H679.5V7.25Z" fill="#4F8AEA" stroke="#4F8AEA"/>
<path d="M634.631 13.9212L635.189 14.6201L651.626 1.56384L650.92 0.858255L634.631 13.9212Z" fill="#4F8AEA" stroke="#4F8AEA"/>
<path d="M635.262 6.56401L651.669 19.6553L651.113 20.3524L634.705 7.26108L635.262 6.56401Z" fill="#4F8AEA" stroke="#4F8AEA"/>
<path d="M624.269 14.8184H634.604V13.9266H624.269V14.8184Z" fill="#4F8AEA" stroke="#4F8AEA"/>
<path d="M624.187 7.25391H634.686V6.36214H624.187V7.25391Z" fill="#4F8AEA" stroke="#4F8AEA"/>
<path d="M624.233 13.9265L623.68 14.6201L607.164 1.50128L607.556 0.913506L624.233 13.9265Z" fill="#4F8AEA" stroke="#4F8AEA"/>
<path d="M623.608 6.56401L607.2 19.6553L607.756 20.3524L624.164 7.26108L623.608 6.56401Z" fill="#4F8AEA" stroke="#4F8AEA"/>
<path d="M591.12 13.9212L591.678 14.6201L608.114 1.56384L607.409 0.858255L591.12 13.9212Z" fill="#4F8AEA" stroke="#4F8AEA"/>
<path d="M591.758 6.56401L608.165 19.6553L607.609 20.3524L591.202 7.26108L591.758 6.56401Z" fill="#4F8AEA" stroke="#4F8AEA"/>
<path d="M580.75 14.8184H591.092V13.9266H580.75V14.8184Z" fill="#4F8AEA" stroke="#4F8AEA"/>
<path d="M580.679 7.25391H591.334V6.36214H580.679V7.25391Z" fill="#4F8AEA" stroke="#4F8AEA"/>
<path d="M580.722 13.9265L580.168 14.6201L563.653 1.50128L564.045 0.913506L580.722 13.9265Z" fill="#4F8AEA" stroke="#4F8AEA"/>
<path d="M580.1 6.56401L563.693 19.6553L564.249 20.3524L580.656 7.26108L580.1 6.56401Z" fill="#4F8AEA" stroke="#4F8AEA"/>
<path d="M547.604 13.9212L548.162 14.6201L564.599 1.56384L563.893 0.858255L547.604 13.9212Z" fill="#4F8AEA" stroke="#4F8AEA"/>
<path d="M548.25 6.56401L564.658 19.6553L564.102 20.3524L547.694 7.26108L548.25 6.56401Z" fill="#4F8AEA" stroke="#4F8AEA"/>
<path d="M537.254 14.8184H547.593V13.9266H537.254V14.8184Z" fill="#4F8AEA" stroke="#4F8AEA"/>
<path d="M537.175 7.25391H547.664V6.36214H537.175V7.25391Z" fill="#4F8AEA" stroke="#4F8AEA"/>
<path d="M537.218 13.9265L536.665 14.6201L520.15 1.50128L520.541 0.913506L537.218 13.9265Z" fill="#4F8AEA" stroke="#4F8AEA"/>
<path d="M536.596 6.56401L520.189 19.6553L520.745 20.3524L537.152 7.26108L536.596 6.56401Z" fill="#4F8AEA" stroke="#4F8AEA"/>
<path d="M504.093 13.9212L504.651 14.6201L521.088 1.56384L520.382 0.858255L504.093 13.9212Z" fill="#4F8AEA" stroke="#4F8AEA"/>
<path d="M504.739 6.56401L521.146 19.6553L520.59 20.3524L504.182 7.26108L504.739 6.56401Z" fill="#4F8AEA" stroke="#4F8AEA"/>
<path d="M493.735 14.8184H504.074V13.9266H493.735V14.8184Z" fill="#4F8AEA" stroke="#4F8AEA"/>
<path d="M493.652 7.25391H504.142V6.36214H493.652V7.25391Z" fill="#4F8AEA" stroke="#4F8AEA"/>
<path d="M493.703 13.9265L493.149 14.6201L476.634 1.50128L477.026 0.913506L493.703 13.9265Z" fill="#4F8AEA" stroke="#4F8AEA"/>
<path d="M493.073 6.56401L476.666 19.6553L477.222 20.3524L493.63 7.26108L493.073 6.56401Z" fill="#4F8AEA" stroke="#4F8AEA"/>
<path d="M460.574 13.9212L461.131 14.6201L477.568 1.56384L476.862 0.858255L460.574 13.9212Z" fill="#4F8AEA" stroke="#4F8AEA"/>
<path d="M461.22 6.56401L477.627 19.6553L477.071 20.3524L460.663 7.26108L461.22 6.56401Z" fill="#4F8AEA" stroke="#4F8AEA"/>
<path d="M450.227 14.8184H460.563V13.9266H450.227V14.8184Z" fill="#4F8AEA" stroke="#4F8AEA"/>
<path d="M450.137 7.25391H460.633V6.36214H450.137V7.25391Z" fill="#4F8AEA" stroke="#4F8AEA"/>
<mask id="path-179-inside-9_631_97364" fill="white">
<path fill-rule="evenodd" clip-rule="evenodd" d="M435.096 19.8818L450.816 7.33885L449.637 5.8601L435.096 17.4617V19.8818Z"/>
</mask>
<path fill-rule="evenodd" clip-rule="evenodd" d="M435.096 19.8818L450.816 7.33885L449.637 5.8601L435.096 17.4617V19.8818Z" fill="#4F8AEA"/>
<path d="M435.096 19.8818H434.096V21.959L435.72 20.6635L435.096 19.8818ZM450.816 7.33885L451.44 8.12052L452.222 7.49683L451.598 6.71516L450.816 7.33885ZM449.637 5.8601L450.418 5.23642L449.795 4.45474L449.013 5.07843L449.637 5.8601ZM435.096 17.4617L434.472 16.68L434.096 16.9803V17.4617H435.096ZM435.72 20.6635L451.44 8.12052L450.193 6.55717L434.472 19.1002L435.72 20.6635ZM451.598 6.71516L450.418 5.23642L448.855 6.48379L450.035 7.96253L451.598 6.71516ZM449.013 5.07843L434.472 16.68L435.72 18.2434L450.26 6.64178L449.013 5.07843ZM434.096 17.4617V19.8818H436.096V17.4617H434.096Z" fill="#4F8AEA" mask="url(#path-179-inside-9_631_97364)"/>
<mask id="path-181-inside-10_631_97364" fill="white">
<path fill-rule="evenodd" clip-rule="evenodd" d="M435.101 13.0683L445.27 21.1826L446.45 19.7039L435.101 10.6482V13.0683Z"/>
</mask>
<path fill-rule="evenodd" clip-rule="evenodd" d="M435.101 13.0683L445.27 21.1826L446.45 19.7039L435.101 10.6482V13.0683Z" fill="#4F8AEA"/>
<path d="M435.101 13.0683H434.101V13.5498L434.477 13.85L435.101 13.0683ZM445.27 21.1826L444.647 21.9643L445.428 22.588L446.052 21.8063L445.27 21.1826ZM446.45 19.7039L447.232 20.3276L447.856 19.5459L447.074 18.9222L446.45 19.7039ZM435.101 10.6482L435.724 9.86653L434.101 8.57102V10.6482H435.101ZM434.477 13.85L444.647 21.9643L445.894 20.4009L435.724 12.2867L434.477 13.85ZM446.052 21.8063L447.232 20.3276L445.669 19.0802L444.489 20.5589L446.052 21.8063ZM447.074 18.9222L435.724 9.86653L434.477 11.4299L445.827 20.4856L447.074 18.9222ZM434.101 10.6482V13.0683H436.101V10.6482H434.101Z" fill="#4F8AEA" mask="url(#path-181-inside-10_631_97364)"/>
<mask id="path-183-inside-11_631_97364" fill="white">
<path fill-rule="evenodd" clip-rule="evenodd" d="M435.105 10.9072L446.454 1.85203L445.274 0.373289L435.105 8.48709V10.9072Z"/>
</mask>
<path fill-rule="evenodd" clip-rule="evenodd" d="M435.105 10.9072L446.454 1.85203L445.274 0.373289L435.105 8.48709V10.9072Z" fill="#4F8AEA"/>
<path d="M435.105 10.9072H434.105V12.9844L435.728 11.6889L435.105 10.9072ZM446.454 1.85203L447.077 2.63371L447.859 2.01002L447.235 1.22835L446.454 1.85203ZM445.274 0.373289L446.055 -0.250397L445.432 -1.03207L444.65 -0.408385L445.274 0.373289ZM435.105 8.48709L434.481 7.70541L434.105 8.00567V8.48709H435.105ZM435.728 11.6889L447.077 2.63371L445.83 1.07036L434.481 10.1256L435.728 11.6889ZM447.235 1.22835L446.055 -0.250397L444.492 0.996976L445.672 2.47572L447.235 1.22835ZM444.65 -0.408385L434.481 7.70541L435.728 9.26876L445.897 1.15496L444.65 -0.408385ZM434.105 8.48709V10.9072H436.105V8.48709H434.105Z" fill="#4F8AEA" mask="url(#path-183-inside-11_631_97364)"/>
<mask id="path-185-inside-12_631_97364" fill="white">
<path fill-rule="evenodd" clip-rule="evenodd" d="M435.096 3.71211L449.714 15.3232L450.894 13.8445L435.096 1.51805V3.71211Z"/>
</mask>
<path fill-rule="evenodd" clip-rule="evenodd" d="M435.096 3.71211L449.714 15.3232L450.894 13.8445L435.096 1.51805V3.71211Z" fill="#4F8AEA"/>
<path d="M449.714 15.3232L449.092 16.1063L449.873 16.7269L450.495 15.9469L449.714 15.3232ZM435.096 3.71211H434.096V4.19487L434.474 4.49514L435.096 3.71211ZM450.894 13.8445L451.675 14.4682L452.306 13.678L451.509 13.0561L450.894 13.8445ZM435.096 1.51805L435.711 0.729662L434.096 -0.530644V1.51805H435.096ZM450.336 14.5402L435.718 2.92908L434.474 4.49514L449.092 16.1063L450.336 14.5402ZM450.112 13.2208L448.932 14.6996L450.495 15.9469L451.675 14.4682L450.112 13.2208ZM434.481 2.30644L450.278 14.6329L451.509 13.0561L435.711 0.729662L434.481 2.30644ZM434.096 1.51805V3.71211H436.096V1.51805H434.096Z" fill="#4F8AEA" mask="url(#path-185-inside-12_631_97364)"/>
</mask>
<g mask="url(#mask0_631_97364)">
<path d="M0.000488281 -0.000976562H680V50.999H0.000488281V-0.000976562Z" fill="#4F8AEA"/>
</g>
<mask id="mask1_631_97364" style="mask-type:alpha" maskUnits="userSpaceOnUse" x="0" y="19" width="683" height="22">
<path d="M247.379 38.7918L247.344 39.6836H227.949V38.7918H247.379Z" fill="#4F8AEA" stroke="#4F8AEA"/>
<path d="M227.409 39.4809L203.957 20.7689L204.513 20.0719L227.965 38.7838L227.409 39.4809Z" fill="#4F8AEA" stroke="#4F8AEA"/>
<path d="M232.645 32.9265L232.092 33.6201L215.576 20.5013L215.968 19.9135L232.645 32.9265Z" fill="#4F8AEA" stroke="#4F8AEA"/>
<path d="M232.024 25.564L215.616 38.6553L216.172 39.3524L232.58 26.2611L232.024 25.564Z" fill="#4F8AEA" stroke="#4F8AEA"/>
<path d="M204.752 39.4809L228.204 20.7689L227.648 20.0719L204.196 38.7838L204.752 39.4809Z" fill="#4F8AEA" stroke="#4F8AEA"/>
<path d="M247.344 19.8709L247.379 20.7627H228.031L228.162 19.8709H247.344Z" fill="#4F8AEA" stroke="#4F8AEA"/>
<path d="M203.954 38.7918L204.098 39.6836H184.659L184.519 38.7918H203.954Z" fill="#4F8AEA" stroke="#4F8AEA"/>
<path d="M203.883 20.7627H184.448L184.471 19.8709H203.883V20.7627Z" fill="#4F8AEA" stroke="#4F8AEA"/>
<path d="M160.372 39.6836H141.223V38.7918H160.372V39.6836Z" fill="#4F8AEA" stroke="#4F8AEA"/>
<path d="M184.141 39.4809L160.689 20.7689L161.245 20.0719L184.697 38.7838L184.141 39.4809Z" fill="#4F8AEA" stroke="#4F8AEA"/>
<path d="M160.37 38.6251L160.918 39.4508L184.257 20.6901L183.864 20.1017L160.37 38.6251Z" fill="#4F8AEA" stroke="#4F8AEA"/>
<path d="M140.63 39.4809L117.178 20.7689L117.734 20.0719L141.186 38.7838L140.63 39.4809Z" fill="#4F8AEA" stroke="#4F8AEA"/>
<path d="M117.447 39.4848L140.899 20.7728L140.343 20.0757L116.891 38.7877L117.447 39.4848Z" fill="#4F8AEA" stroke="#4F8AEA"/>
<path d="M160.67 20.7627H140.94V19.8709H160.67V20.7627Z" fill="#4F8AEA" stroke="#4F8AEA"/>
<path d="M116.86 39.6836H97.6917V38.7918H116.86V39.6836Z" fill="#4F8AEA" stroke="#4F8AEA"/>
<path d="M117.146 20.7627H97.7218V19.8709H117.146V20.7627Z" fill="#4F8AEA" stroke="#4F8AEA"/>
<path d="M73.3735 38.7918L73.5477 39.6836H54.1886V38.7918H73.3735Z" fill="#4F8AEA" stroke="#4F8AEA"/>
<path d="M97.1222 39.4809L73.6702 20.7689L74.2264 20.0719L97.6784 38.7838L97.1222 39.4809Z" fill="#4F8AEA" stroke="#4F8AEA"/>
<path d="M74.226 39.4809L97.6779 20.7689L97.1218 20.0719L73.6698 38.7838L74.226 39.4809Z" fill="#4F8AEA" stroke="#4F8AEA"/>
<path d="M53.6149 39.4809L30.1629 20.7689L30.7191 20.0719L54.171 38.7838L53.6149 39.4809Z" fill="#4F8AEA" stroke="#4F8AEA"/>
<path d="M30.7186 39.4809L54.1706 20.7689L53.6144 20.0719L30.1625 38.7838L30.7186 39.4809Z" fill="#4F8AEA" stroke="#4F8AEA"/>
<path d="M73.5638 19.8709L73.4322 20.7627H54.3671L54.2574 19.8709H73.5638Z" fill="#4F8AEA" stroke="#4F8AEA"/>
<path d="M29.9188 38.7918L30.0565 39.6836H10.6225L10.4815 38.7918H29.9188Z" fill="#4F8AEA" stroke="#4F8AEA"/>
<path d="M30.0495 19.8709L29.9138 20.7627H10.4786L10.6197 19.8709H30.0495Z" fill="#4F8AEA" stroke="#4F8AEA"/>
<path d="M243.016 33.8184H232.684V32.9266H243.016V33.8184Z" fill="#4F8AEA" stroke="#4F8AEA"/>
<path d="M243.098 26.2539H232.597V25.3621H243.098V26.2539Z" fill="#4F8AEA" stroke="#4F8AEA"/>
<path d="M199.528 32.9212L200.085 33.6201L216.522 20.5638L215.817 19.8583L199.528 32.9212Z" fill="#4F8AEA" stroke="#4F8AEA"/>
<path d="M200.17 25.564L216.577 38.6553L216.021 39.3524L199.614 26.2611L200.17 25.564Z" fill="#4F8AEA" stroke="#4F8AEA"/>
<path d="M189.173 33.8184H199.508V32.9266H189.173V33.8184Z" fill="#4F8AEA" stroke="#4F8AEA"/>
<path d="M189.095 26.2539H199.595V25.3621H189.095V26.2539Z" fill="#4F8AEA" stroke="#4F8AEA"/>
<path d="M189.138 32.9265L188.584 33.6201L172.069 20.5013L172.461 19.9135L189.138 32.9265Z" fill="#4F8AEA" stroke="#4F8AEA"/>
<path d="M188.516 25.564L172.108 38.6553L172.664 39.3524L189.072 26.2611L188.516 25.564Z" fill="#4F8AEA" stroke="#4F8AEA"/>
<path d="M156.017 32.9212L156.574 33.6201L173.011 20.5638L172.305 19.8583L156.017 32.9212Z" fill="#4F8AEA" stroke="#4F8AEA"/>
<path d="M156.662 25.564L173.069 38.6553L172.513 39.3524L156.106 26.2611L156.662 25.564Z" fill="#4F8AEA" stroke="#4F8AEA"/>
<path d="M145.654 33.8184H155.997V32.9266H145.654V33.8184Z" fill="#4F8AEA" stroke="#4F8AEA"/>
<path d="M145.583 26.2539H156.239V25.3621H145.583V26.2539Z" fill="#4F8AEA" stroke="#4F8AEA"/>
<path d="M145.622 32.9265L145.069 33.6201L128.553 20.5013L128.945 19.9135L145.622 32.9265Z" fill="#4F8AEA" stroke="#4F8AEA"/>
<path d="M145.005 25.564L128.597 38.6553L129.153 39.3524L145.561 26.2611L145.005 25.564Z" fill="#4F8AEA" stroke="#4F8AEA"/>
<path d="M112.505 32.9212L113.063 33.6201L129.5 20.5638L128.794 19.8583L112.505 32.9212Z" fill="#4F8AEA" stroke="#4F8AEA"/>
<path d="M113.151 25.564L129.558 38.6553L129.002 39.3524L112.595 26.2611L113.151 25.564Z" fill="#4F8AEA" stroke="#4F8AEA"/>
<path d="M102.154 33.8184H112.493V32.9266H102.154V33.8184Z" fill="#4F8AEA" stroke="#4F8AEA"/>
<path d="M102.072 26.2539H112.561V25.3621H102.072V26.2539Z" fill="#4F8AEA" stroke="#4F8AEA"/>
<path d="M102.119 32.9265L101.565 33.6201L85.05 20.5013L85.4418 19.9135L102.119 32.9265Z" fill="#4F8AEA" stroke="#4F8AEA"/>
<path d="M101.493 25.564L85.0858 38.6553L85.642 39.3524L102.049 26.2611L101.493 25.564Z" fill="#4F8AEA" stroke="#4F8AEA"/>
<path d="M68.9937 32.9212L69.5513 33.6201L85.988 20.5638L85.2824 19.8583L68.9937 32.9212Z" fill="#4F8AEA" stroke="#4F8AEA"/>
<path d="M69.6356 25.564L86.0431 38.6553L85.4869 39.3524L69.0795 26.2611L69.6356 25.564Z" fill="#4F8AEA" stroke="#4F8AEA"/>
<path d="M58.6313 33.8184H68.9708V32.9266H58.6313V33.8184Z" fill="#4F8AEA" stroke="#4F8AEA"/>
<path d="M58.5566 26.2539H69.0465V25.3621H58.5566V26.2539Z" fill="#4F8AEA" stroke="#4F8AEA"/>
<path d="M58.6076 32.9265L58.0542 33.6201L41.5388 20.5013L41.9306 19.9135L58.6076 32.9265Z" fill="#4F8AEA" stroke="#4F8AEA"/>
<path d="M57.9776 25.564L41.5702 38.6553L42.1264 39.3524L58.5338 26.2611L57.9776 25.564Z" fill="#4F8AEA" stroke="#4F8AEA"/>
<path d="M25.4902 32.9212L26.0479 33.6201L42.4845 20.5638L41.779 19.8583L25.4902 32.9212Z" fill="#4F8AEA" stroke="#4F8AEA"/>
<path d="M26.1278 25.564L42.5353 38.6553L41.9791 39.3524L25.5716 26.2611L26.1278 25.564Z" fill="#4F8AEA" stroke="#4F8AEA"/>
<path d="M15.1274 33.8184H25.4629V32.9266H15.1274V33.8184Z" fill="#4F8AEA" stroke="#4F8AEA"/>
<path d="M15.0376 26.2539H25.5341V25.3621H15.0376V26.2539Z" fill="#4F8AEA" stroke="#4F8AEA"/>
<mask id="path-242-inside-13_631_97364" fill="white">
<path fill-rule="evenodd" clip-rule="evenodd" d="M0.00773048 38.8818L15.728 26.3388L14.5482 24.8601L0.00773048 36.4617V38.8818Z"/>
</mask>
<path fill-rule="evenodd" clip-rule="evenodd" d="M0.00773048 38.8818L15.728 26.3388L14.5482 24.8601L0.00773048 36.4617V38.8818Z" fill="#4F8AEA"/>
<path d="M0.00773048 38.8818H-0.99227V40.959L0.631417 39.6635L0.00773048 38.8818ZM15.728 26.3388L16.3517 27.1205L17.1334 26.4968L16.5097 25.7152L15.728 26.3388ZM14.5482 24.8601L15.3298 24.2364L14.7061 23.4547L13.9245 24.0784L14.5482 24.8601ZM0.00773048 36.4617L-0.615955 35.68L-0.99227 35.9803V36.4617H0.00773048ZM0.631417 39.6635L16.3517 27.1205L15.1043 25.5572L-0.615955 38.1002L0.631417 39.6635ZM16.5097 25.7152L15.3298 24.2364L13.7665 25.4838L14.9464 26.9625L16.5097 25.7152ZM13.9245 24.0784L-0.615955 35.68L0.631417 37.2434L15.1718 25.6418L13.9245 24.0784ZM-0.99227 36.4617V38.8818H1.00773V36.4617H-0.99227Z" fill="#4F8AEA" mask="url(#path-242-inside-13_631_97364)"/>
<mask id="path-244-inside-14_631_97364" fill="white">
<path fill-rule="evenodd" clip-rule="evenodd" d="M0.00387669 32.066L10.1766 40.1826L11.3564 38.7039L0.00387669 29.6458V32.066Z"/>
</mask>
<path fill-rule="evenodd" clip-rule="evenodd" d="M0.00387669 32.066L10.1766 40.1826L11.3564 38.7039L0.00387669 29.6458V32.066Z" fill="#4F8AEA"/>
<path d="M0.00387669 32.066H-0.996123V32.5474L-0.61981 32.8476L0.00387669 32.066ZM10.1766 40.1826L9.55289 40.9643L10.3346 41.588L10.9583 40.8063L10.1766 40.1826ZM11.3564 38.7039L12.1381 39.3276L12.7618 38.5459L11.9801 37.9222L11.3564 38.7039ZM0.00387669 29.6458L0.627563 28.8642L-0.996123 27.5686V29.6458H0.00387669ZM-0.61981 32.8476L9.55289 40.9643L10.8003 39.4009L0.627563 31.2843L-0.61981 32.8476ZM10.9583 40.8063L12.1381 39.3276L10.5748 38.0802L9.3949 39.5589L10.9583 40.8063ZM11.9801 37.9222L0.627563 28.8642L-0.61981 30.4275L10.7328 39.4856L11.9801 37.9222ZM-0.996123 29.6458V32.066H1.00388V29.6458H-0.996123Z" fill="#4F8AEA" mask="url(#path-244-inside-14_631_97364)"/>
<mask id="path-246-inside-15_631_97364" fill="white">
<path fill-rule="evenodd" clip-rule="evenodd" d="M7.53403e-05 29.9102L11.356 20.8495L10.1761 19.3707L7.53403e-05 27.49V29.9102Z"/>
</mask>
<path fill-rule="evenodd" clip-rule="evenodd" d="M7.53403e-05 29.9102L11.356 20.8495L10.1761 19.3707L7.53403e-05 27.49V29.9102Z" fill="#4F8AEA"/>
<path d="M7.53403e-05 29.9102H-0.999925V31.9873L0.623762 30.6918L7.53403e-05 29.9102ZM11.356 20.8495L11.9796 21.6311L12.7613 21.0075L12.1376 20.2258L11.356 20.8495ZM10.1761 19.3707L10.9578 18.747L10.3341 17.9654L9.5524 18.589L10.1761 19.3707ZM7.53403e-05 27.49L-0.623611 26.7083L-0.999925 27.0086V27.49H7.53403e-05ZM0.623762 30.6918L11.9796 21.6311L10.7323 20.0678L-0.623611 29.1285L0.623762 30.6918ZM12.1376 20.2258L10.9578 18.747L9.39442 19.9944L10.5743 21.4732L12.1376 20.2258ZM9.5524 18.589L-0.623611 26.7083L0.623762 28.2717L10.7998 20.1524L9.5524 18.589ZM-0.999925 27.49V29.9102H1.00008V27.49H-0.999925Z" fill="#4F8AEA" mask="url(#path-246-inside-15_631_97364)"/>
<mask id="path-248-inside-16_631_97364" fill="white">
<path fill-rule="evenodd" clip-rule="evenodd" d="M0.000125885 22.7121L14.6175 34.3232L15.7974 32.8445L0.000125885 20.5181V22.7121Z"/>
</mask>
<path fill-rule="evenodd" clip-rule="evenodd" d="M0.000125885 22.7121L14.6175 34.3232L15.7974 32.8445L0.000125885 20.5181V22.7121Z" fill="#4F8AEA"/>
<path d="M14.6175 34.3232L13.9955 35.1063L14.7768 35.7269L15.3992 34.9469L14.6175 34.3232ZM0.000125885 22.7121H-0.999874V23.1949L-0.621862 23.4951L0.000125885 22.7121ZM15.7974 32.8445L16.579 33.4682L17.2095 32.678L16.4125 32.0561L15.7974 32.8445ZM0.000125885 20.5181L0.6153 19.7297L-0.999874 18.4694V20.5181H0.000125885ZM15.2395 33.5402L0.622114 21.9291L-0.621862 23.4951L13.9955 35.1063L15.2395 33.5402ZM15.0157 32.2208L13.8358 33.6996L15.3992 34.9469L16.579 33.4682L15.0157 32.2208ZM-0.615049 21.3064L15.1822 33.6329L16.4125 32.0561L0.6153 19.7297L-0.615049 21.3064ZM-0.999874 20.5181V22.7121H1.00013V20.5181H-0.999874Z" fill="#4F8AEA" mask="url(#path-248-inside-16_631_97364)"/>
<path d="M464.934 38.7918L464.899 39.6836H445.505V38.7918H464.934Z" fill="#4F8AEA" stroke="#4F8AEA"/>
<path d="M444.961 39.4809L421.509 20.7689L422.065 20.0719L445.517 38.7838L444.961 39.4809Z" fill="#4F8AEA" stroke="#4F8AEA"/>
<path d="M450.197 32.9265L449.644 33.6201L433.128 20.5013L433.52 19.9135L450.197 32.9265Z" fill="#4F8AEA" stroke="#4F8AEA"/>
<path d="M449.567 25.564L433.16 38.6553L433.716 39.3524L450.124 26.2611L449.567 25.564Z" fill="#4F8AEA" stroke="#4F8AEA"/>
<path d="M422.304 39.4809L445.756 20.7689L445.2 20.0719L421.748 38.7838L422.304 39.4809Z" fill="#4F8AEA" stroke="#4F8AEA"/>
<path d="M464.899 19.8709L464.934 20.7627H445.586L445.718 19.8709H464.899Z" fill="#4F8AEA" stroke="#4F8AEA"/>
<path d="M421.502 38.7918L421.646 39.6836H402.207L402.066 38.7918H421.502Z" fill="#4F8AEA" stroke="#4F8AEA"/>
<path d="M421.435 20.7627H402L402.023 19.8709H421.435V20.7627Z" fill="#4F8AEA" stroke="#4F8AEA"/>
<path d="M377.923 39.6836H358.775V38.7918H377.923V39.6836Z" fill="#4F8AEA" stroke="#4F8AEA"/>
<path d="M401.697 39.4809L378.245 20.7689L378.801 20.0719L402.253 38.7838L401.697 39.4809Z" fill="#4F8AEA" stroke="#4F8AEA"/>
<path d="M377.922 38.6251L378.47 39.4508L401.809 20.6901L401.415 20.1017L377.922 38.6251Z" fill="#4F8AEA" stroke="#4F8AEA"/>
<path d="M358.186 39.4809L334.734 20.7689L335.29 20.0719L358.742 38.7838L358.186 39.4809Z" fill="#4F8AEA" stroke="#4F8AEA"/>
<path d="M334.995 39.4848L358.447 20.7728L357.891 20.0757L334.439 38.7877L334.995 39.4848Z" fill="#4F8AEA" stroke="#4F8AEA"/>
<path d="M378.218 20.7627H358.488V19.8709H378.218V20.7627Z" fill="#4F8AEA" stroke="#4F8AEA"/>
<path d="M334.408 39.6836H315.24V38.7918H334.408V39.6836Z" fill="#4F8AEA" stroke="#4F8AEA"/>
<path d="M334.694 20.7627H315.27V19.8709H334.694V20.7627Z" fill="#4F8AEA" stroke="#4F8AEA"/>
<path d="M290.925 38.7918L291.099 39.6836H271.74V38.7918H290.925Z" fill="#4F8AEA" stroke="#4F8AEA"/>
<path d="M314.678 39.4809L291.226 20.7689L291.782 20.0719L315.234 38.7838L314.678 39.4809Z" fill="#4F8AEA" stroke="#4F8AEA"/>
<path d="M291.778 39.4809L315.23 20.7689L314.674 20.0719L291.222 38.7838L291.778 39.4809Z" fill="#4F8AEA" stroke="#4F8AEA"/>
<path d="M271.163 39.4809L247.711 20.7689L248.267 20.0719L271.719 38.7838L271.163 39.4809Z" fill="#4F8AEA" stroke="#4F8AEA"/>
<path d="M248.262 39.4809L271.714 20.7689L271.158 20.0719L247.706 38.7838L248.262 39.4809Z" fill="#4F8AEA" stroke="#4F8AEA"/>
<path d="M291.112 19.8709L290.98 20.7627H271.915L271.805 19.8709H291.112Z" fill="#4F8AEA" stroke="#4F8AEA"/>
<path d="M247.462 38.7918L247.6 39.6836H228.166L228.025 38.7918H247.462Z" fill="#4F8AEA" stroke="#4F8AEA"/>
<path d="M247.597 19.8709L247.462 20.7627H228.026L228.168 19.8709H247.597Z" fill="#4F8AEA" stroke="#4F8AEA"/>
<path d="M460.556 33.8184H450.224V32.9266H460.556V33.8184Z" fill="#4F8AEA" stroke="#4F8AEA"/>
<path d="M460.658 26.2539H450.156V25.3621H460.658V26.2539Z" fill="#4F8AEA" stroke="#4F8AEA"/>
<path d="M417.076 32.9212L417.633 33.6201L434.07 20.5638L433.364 19.8583L417.076 32.9212Z" fill="#4F8AEA" stroke="#4F8AEA"/>
<path d="M417.714 25.564L434.121 38.6553L433.565 39.3524L417.158 26.2611L417.714 25.564Z" fill="#4F8AEA" stroke="#4F8AEA"/>
<path d="M406.717 33.8184H417.052V32.9266H406.717V33.8184Z" fill="#4F8AEA" stroke="#4F8AEA"/>
<path d="M406.646 26.2539H417.146V25.3621H406.646V26.2539Z" fill="#4F8AEA" stroke="#4F8AEA"/>
<path d="M406.69 32.9265L406.136 33.6201L389.621 20.5013L390.013 19.9135L406.69 32.9265Z" fill="#4F8AEA" stroke="#4F8AEA"/>
<path d="M406.067 25.564L389.66 38.6553L390.216 39.3524L406.624 26.2611L406.067 25.564Z" fill="#4F8AEA" stroke="#4F8AEA"/>
<path d="M373.572 32.9212L374.13 33.6201L390.567 20.5638L389.861 19.8583L373.572 32.9212Z" fill="#4F8AEA" stroke="#4F8AEA"/>
<path d="M374.21 25.564L390.617 38.6553L390.061 39.3524L373.654 26.2611L374.21 25.564Z" fill="#4F8AEA" stroke="#4F8AEA"/>
<path d="M363.206 33.8184H373.549V32.9266H363.206V33.8184Z" fill="#4F8AEA" stroke="#4F8AEA"/>
<path d="M363.135 26.2539H373.79V25.3621H363.135V26.2539Z" fill="#4F8AEA" stroke="#4F8AEA"/>
<path d="M363.174 32.9265L362.621 33.6201L346.105 20.5013L346.497 19.9135L363.174 32.9265Z" fill="#4F8AEA" stroke="#4F8AEA"/>
<path d="M362.556 25.564L346.149 38.6553L346.705 39.3524L363.112 26.2611L362.556 25.564Z" fill="#4F8AEA" stroke="#4F8AEA"/>
<path d="M330.057 32.9212L330.614 33.6201L347.051 20.5638L346.345 19.8583L330.057 32.9212Z" fill="#4F8AEA" stroke="#4F8AEA"/>
<path d="M330.699 25.564L347.106 38.6553L346.55 39.3524L330.142 26.2611L330.699 25.564Z" fill="#4F8AEA" stroke="#4F8AEA"/>
<path d="M319.706 33.8184H330.045V32.9266H319.706V33.8184Z" fill="#4F8AEA" stroke="#4F8AEA"/>
<path d="M319.62 26.2539H330.109V25.3621H319.62V26.2539Z" fill="#4F8AEA" stroke="#4F8AEA"/>
<path d="M319.667 32.9265L319.113 33.6201L302.598 20.5013L302.99 19.9135L319.667 32.9265Z" fill="#4F8AEA" stroke="#4F8AEA"/>
<path d="M319.041 25.564L302.634 38.6553L303.19 39.3524L319.597 26.2611L319.041 25.564Z" fill="#4F8AEA" stroke="#4F8AEA"/>
<path d="M286.553 32.9212L287.111 33.6201L303.548 20.5638L302.842 19.8583L286.553 32.9212Z" fill="#4F8AEA" stroke="#4F8AEA"/>
<path d="M287.191 25.564L303.599 38.6553L303.043 39.3524L286.635 26.2611L287.191 25.564Z" fill="#4F8AEA" stroke="#4F8AEA"/>
<path d="M276.187 33.8184H286.526V32.9266H276.187V33.8184Z" fill="#4F8AEA" stroke="#4F8AEA"/>
<path d="M276.116 26.2539H286.606V25.3621H276.116V26.2539Z" fill="#4F8AEA" stroke="#4F8AEA"/>
<path d="M276.163 32.9265L275.61 33.6201L259.094 20.5013L259.486 19.9135L276.163 32.9265Z" fill="#4F8AEA" stroke="#4F8AEA"/>
<path d="M275.537 25.564L259.13 38.6553L259.686 39.3524L276.093 26.2611L275.537 25.564Z" fill="#4F8AEA" stroke="#4F8AEA"/>
<path d="M243.038 32.9212L243.596 33.6201L260.032 20.5638L259.327 19.8583L243.038 32.9212Z" fill="#4F8AEA" stroke="#4F8AEA"/>
<path d="M243.68 25.564L260.087 38.6553L259.531 39.3524L243.123 26.2611L243.68 25.564Z" fill="#4F8AEA" stroke="#4F8AEA"/>
<path d="M232.683 33.8184H243.019V32.9266H232.683V33.8184Z" fill="#4F8AEA" stroke="#4F8AEA"/>
<path d="M232.589 26.2539H243.086V25.3621H232.589V26.2539Z" fill="#4F8AEA" stroke="#4F8AEA"/>
<mask id="path-304-inside-17_631_97364" fill="white">
<path fill-rule="evenodd" clip-rule="evenodd" d="M217.562 38.8818L233.282 26.3388L232.102 24.8601L217.562 36.4617V38.8818Z"/>
</mask>
<path fill-rule="evenodd" clip-rule="evenodd" d="M217.562 38.8818L233.282 26.3388L232.102 24.8601L217.562 36.4617V38.8818Z" fill="#4F8AEA"/>
<path d="M217.562 38.8818H216.562V40.959L218.186 39.6635L217.562 38.8818ZM233.282 26.3388L233.906 27.1205L234.688 26.4968L234.064 25.7152L233.282 26.3388ZM232.102 24.8601L232.884 24.2364L232.26 23.4547L231.479 24.0784L232.102 24.8601ZM217.562 36.4617L216.938 35.68L216.562 35.9803V36.4617H217.562ZM218.186 39.6635L233.906 27.1205L232.659 25.5572L216.938 38.1002L218.186 39.6635ZM234.064 25.7152L232.884 24.2364L231.321 25.4838L232.501 26.9625L234.064 25.7152ZM231.479 24.0784L216.938 35.68L218.186 37.2434L232.726 25.6418L231.479 24.0784ZM216.562 36.4617V38.8818H218.562V36.4617H216.562Z" fill="#4F8AEA" mask="url(#path-304-inside-17_631_97364)"/>
<mask id="path-306-inside-18_631_97364" fill="white">
<path fill-rule="evenodd" clip-rule="evenodd" d="M217.562 32.0703L227.729 40.1826L228.909 38.7039L217.562 29.6501V32.0703Z"/>
</mask>
<path fill-rule="evenodd" clip-rule="evenodd" d="M217.562 32.0703L227.729 40.1826L228.909 38.7039L217.562 29.6501V32.0703Z" fill="#4F8AEA"/>
<path d="M217.562 32.0703H216.562V32.5517L216.938 32.852L217.562 32.0703ZM227.729 40.1826L227.106 40.9643L227.887 41.588L228.511 40.8063L227.729 40.1826ZM228.909 38.7039L229.691 39.3276L230.315 38.5459L229.533 37.9222L228.909 38.7039ZM217.562 29.6501L218.186 28.8685L216.562 27.573V29.6501H217.562ZM216.938 32.852L227.106 40.9643L228.353 39.4009L218.186 31.2886L216.938 32.852ZM228.511 40.8063L229.691 39.3276L228.128 38.0802L226.948 39.5589L228.511 40.8063ZM229.533 37.9222L218.186 28.8685L216.938 30.4318L228.285 39.4856L229.533 37.9222ZM216.562 29.6501V32.0703H218.562V29.6501H216.562Z" fill="#4F8AEA" mask="url(#path-306-inside-18_631_97364)"/>
<mask id="path-308-inside-19_631_97364" fill="white">
<path fill-rule="evenodd" clip-rule="evenodd" d="M217.554 29.9082L228.905 20.8518L227.725 19.3731L217.554 27.4881V29.9082Z"/>
</mask>
<path fill-rule="evenodd" clip-rule="evenodd" d="M217.554 29.9082L228.905 20.8518L227.725 19.3731L217.554 27.4881V29.9082Z" fill="#4F8AEA"/>
<path d="M217.554 29.9082H216.554V31.9854L218.178 30.6899L217.554 29.9082ZM228.905 20.8518L229.528 21.6335L230.31 21.0098L229.686 20.2282L228.905 20.8518ZM227.725 19.3731L228.507 18.7494L227.883 17.9677L227.101 18.5914L227.725 19.3731ZM217.554 27.4881L216.931 26.7064L216.554 27.0066V27.4881H217.554ZM218.178 30.6899L229.528 21.6335L228.281 20.0702L216.931 29.1265L218.178 30.6899ZM229.686 20.2282L228.507 18.7494L226.943 19.9968L228.123 21.4755L229.686 20.2282ZM227.101 18.5914L216.931 26.7064L218.178 28.2697L228.349 20.1548L227.101 18.5914ZM216.554 27.4881V29.9082H218.554V27.4881H216.554Z" fill="#4F8AEA" mask="url(#path-308-inside-19_631_97364)"/>
<mask id="path-310-inside-20_631_97364" fill="white">
<path fill-rule="evenodd" clip-rule="evenodd" d="M217.554 22.7121L232.172 34.3232L233.352 32.8445L217.554 20.5181V22.7121Z"/>
</mask>
<path fill-rule="evenodd" clip-rule="evenodd" d="M217.554 22.7121L232.172 34.3232L233.352 32.8445L217.554 20.5181V22.7121Z" fill="#4F8AEA"/>
<path d="M232.172 34.3232L231.55 35.1063L232.331 35.7269L232.953 34.9469L232.172 34.3232ZM217.554 22.7121H216.554V23.1949L216.932 23.4951L217.554 22.7121ZM233.352 32.8445L234.133 33.4682L234.764 32.678L233.967 32.0561L233.352 32.8445ZM217.554 20.5181L218.169 19.7297L216.554 18.4694V20.5181H217.554ZM232.794 33.5402L218.176 21.9291L216.932 23.4951L231.55 35.1063L232.794 33.5402ZM232.57 32.2208L231.39 33.6996L232.953 34.9469L234.133 33.4682L232.57 32.2208ZM216.939 21.3064L232.736 33.6329L233.967 32.0561L218.169 19.7297L216.939 21.3064ZM216.554 20.5181V22.7121H218.554V20.5181H216.554Z" fill="#4F8AEA" mask="url(#path-310-inside-20_631_97364)"/>
<path d="M682.478 38.7918L682.443 39.6836H663.048V38.7918H682.478Z" fill="#4F8AEA" stroke="#4F8AEA"/>
<path d="M662.505 39.4809L639.053 20.7689L639.609 20.0719L663.061 38.7838L662.505 39.4809Z" fill="#4F8AEA" stroke="#4F8AEA"/>
<path d="M667.749 32.9265L667.195 33.6201L650.68 20.5013L651.072 19.9135L667.749 32.9265Z" fill="#4F8AEA" stroke="#4F8AEA"/>
<path d="M667.119 25.564L650.712 38.6553L651.268 39.3524L667.675 26.2611L667.119 25.564Z" fill="#4F8AEA" stroke="#4F8AEA"/>
<path d="M639.848 39.4809L663.3 20.7689L662.744 20.0719L639.292 38.7838L639.848 39.4809Z" fill="#4F8AEA" stroke="#4F8AEA"/>
<path d="M682.443 19.8709L682.478 20.7627H663.13L663.262 19.8709H682.443Z" fill="#4F8AEA" stroke="#4F8AEA"/>
<path d="M639.046 38.7918L639.19 39.6836H619.75L619.61 38.7918H639.046Z" fill="#4F8AEA" stroke="#4F8AEA"/>
<path d="M638.982 20.7627H619.548L619.571 19.8709H638.982V20.7627Z" fill="#4F8AEA" stroke="#4F8AEA"/>
<path d="M595.475 39.6836H576.326V38.7918H595.475V39.6836Z" fill="#4F8AEA" stroke="#4F8AEA"/>
<path d="M619.245 39.4809L595.793 20.7689L596.349 20.0719L619.801 38.7838L619.245 39.4809Z" fill="#4F8AEA" stroke="#4F8AEA"/>
<path d="M595.466 38.6251L596.014 39.4508L619.353 20.6901L618.959 20.1017L595.466 38.6251Z" fill="#4F8AEA" stroke="#4F8AEA"/>
<path d="M575.725 39.4809L552.273 20.7689L552.829 20.0719L576.281 38.7838L575.725 39.4809Z" fill="#4F8AEA" stroke="#4F8AEA"/>
<path d="M552.542 39.4848L575.994 20.7728L575.438 20.0757L551.986 38.7877L552.542 39.4848Z" fill="#4F8AEA" stroke="#4F8AEA"/>
<path d="M595.765 20.7627H576.035V19.8709H595.765V20.7627Z" fill="#4F8AEA" stroke="#4F8AEA"/>
<path d="M551.956 39.6836H532.787V38.7918H551.956V39.6836Z" fill="#4F8AEA" stroke="#4F8AEA"/>
<path d="M552.234 20.7627H532.81V19.8709H552.234V20.7627Z" fill="#4F8AEA" stroke="#4F8AEA"/>
<path d="M508.469 38.7918L508.643 39.6836H489.284V38.7918H508.469Z" fill="#4F8AEA" stroke="#4F8AEA"/>
<path d="M532.214 39.4809L508.762 20.7689L509.318 20.0719L532.77 38.7838L532.214 39.4809Z" fill="#4F8AEA" stroke="#4F8AEA"/>
<path d="M509.326 39.4809L532.778 20.7689L532.221 20.0719L508.769 38.7838L509.326 39.4809Z" fill="#4F8AEA" stroke="#4F8AEA"/>
<path d="M488.711 39.4809L465.259 20.7689L465.815 20.0719L489.267 38.7838L488.711 39.4809Z" fill="#4F8AEA" stroke="#4F8AEA"/>
<path d="M465.81 39.4809L489.262 20.7689L488.706 20.0719L465.254 38.7838L465.81 39.4809Z" fill="#4F8AEA" stroke="#4F8AEA"/>
<path d="M508.66 19.8709L508.528 20.7627H489.463L489.353 19.8709H508.66Z" fill="#4F8AEA" stroke="#4F8AEA"/>
<path d="M465.01 38.7918L465.148 39.6836H445.714L445.573 38.7918H465.01Z" fill="#4F8AEA" stroke="#4F8AEA"/>
<path d="M465.145 19.8709L465.009 20.7627H445.574L445.715 19.8709H465.145Z" fill="#4F8AEA" stroke="#4F8AEA"/>
<path d="M679.5 33.8184L667.772 33.8183V32.9266L679.5 32.9266V33.8184Z" fill="#4F8AEA" stroke="#4F8AEA"/>
<path d="M679.5 26.4004H667.5V25.4004H679.5V26.4004Z" fill="#4F8AEA" stroke="#4F8AEA"/>
<path d="M634.631 32.9212L635.189 33.6201L651.626 20.5638L650.92 19.8583L634.631 32.9212Z" fill="#4F8AEA" stroke="#4F8AEA"/>
<path d="M635.262 25.564L651.669 38.6553L651.113 39.3524L634.705 26.2611L635.262 25.564Z" fill="#4F8AEA" stroke="#4F8AEA"/>
<path d="M624.269 33.8184H634.604V32.9266H624.269V33.8184Z" fill="#4F8AEA" stroke="#4F8AEA"/>
<path d="M624.187 26.2539H634.686V25.3621H624.187V26.2539Z" fill="#4F8AEA" stroke="#4F8AEA"/>
<path d="M624.233 32.9265L623.68 33.6201L607.164 20.5013L607.556 19.9135L624.233 32.9265Z" fill="#4F8AEA" stroke="#4F8AEA"/>
<path d="M623.608 25.564L607.2 38.6553L607.756 39.3524L624.164 26.2611L623.608 25.564Z" fill="#4F8AEA" stroke="#4F8AEA"/>
<path d="M591.12 32.9212L591.678 33.6201L608.114 20.5638L607.409 19.8583L591.12 32.9212Z" fill="#4F8AEA" stroke="#4F8AEA"/>
<path d="M591.758 25.564L608.165 38.6553L607.609 39.3524L591.202 26.2611L591.758 25.564Z" fill="#4F8AEA" stroke="#4F8AEA"/>
<path d="M580.75 33.8184H591.092V32.9266H580.75V33.8184Z" fill="#4F8AEA" stroke="#4F8AEA"/>
<path d="M580.679 26.2539H591.334V25.3621H580.679V26.2539Z" fill="#4F8AEA" stroke="#4F8AEA"/>
<path d="M580.722 32.9265L580.168 33.6201L563.653 20.5013L564.045 19.9135L580.722 32.9265Z" fill="#4F8AEA" stroke="#4F8AEA"/>
<path d="M580.1 25.564L563.693 38.6553L564.249 39.3524L580.656 26.2611L580.1 25.564Z" fill="#4F8AEA" stroke="#4F8AEA"/>
<path d="M547.604 32.9212L548.162 33.6201L564.599 20.5638L563.893 19.8583L547.604 32.9212Z" fill="#4F8AEA" stroke="#4F8AEA"/>
<path d="M548.25 25.564L564.658 38.6553L564.102 39.3524L547.694 26.2611L548.25 25.564Z" fill="#4F8AEA" stroke="#4F8AEA"/>
<path d="M537.254 33.8184H547.593V32.9266H537.254V33.8184Z" fill="#4F8AEA" stroke="#4F8AEA"/>
<path d="M537.175 26.2539H547.664V25.3621H537.175V26.2539Z" fill="#4F8AEA" stroke="#4F8AEA"/>
<path d="M537.218 32.9265L536.665 33.6201L520.15 20.5013L520.541 19.9135L537.218 32.9265Z" fill="#4F8AEA" stroke="#4F8AEA"/>
<path d="M536.596 25.564L520.189 38.6553L520.745 39.3524L537.152 26.2611L536.596 25.564Z" fill="#4F8AEA" stroke="#4F8AEA"/>
<path d="M504.093 32.9212L504.651 33.6201L521.088 20.5638L520.382 19.8583L504.093 32.9212Z" fill="#4F8AEA" stroke="#4F8AEA"/>
<path d="M504.739 25.564L521.146 38.6553L520.59 39.3524L504.182 26.2611L504.739 25.564Z" fill="#4F8AEA" stroke="#4F8AEA"/>
<path d="M493.735 33.8184H504.074V32.9266H493.735V33.8184Z" fill="#4F8AEA" stroke="#4F8AEA"/>
<path d="M493.652 26.2539H504.142V25.3621H493.652V26.2539Z" fill="#4F8AEA" stroke="#4F8AEA"/>
<path d="M493.703 32.9265L493.149 33.6201L476.634 20.5013L477.026 19.9135L493.703 32.9265Z" fill="#4F8AEA" stroke="#4F8AEA"/>
<path d="M493.073 25.564L476.666 38.6553L477.222 39.3524L493.63 26.2611L493.073 25.564Z" fill="#4F8AEA" stroke="#4F8AEA"/>
<path d="M460.574 32.9212L461.131 33.6201L477.568 20.5638L476.862 19.8583L460.574 32.9212Z" fill="#4F8AEA" stroke="#4F8AEA"/>
<path d="M461.22 25.564L477.627 38.6553L477.071 39.3524L460.663 26.2611L461.22 25.564Z" fill="#4F8AEA" stroke="#4F8AEA"/>
<path d="M450.227 33.8184H460.563V32.9266H450.227V33.8184Z" fill="#4F8AEA" stroke="#4F8AEA"/>
<path d="M450.137 26.2539H460.633V25.3621H450.137V26.2539Z" fill="#4F8AEA" stroke="#4F8AEA"/>
<mask id="path-366-inside-21_631_97364" fill="white">
<path fill-rule="evenodd" clip-rule="evenodd" d="M435.096 38.8818L450.816 26.3388L449.637 24.8601L435.096 36.4617V38.8818Z"/>
</mask>
<path fill-rule="evenodd" clip-rule="evenodd" d="M435.096 38.8818L450.816 26.3388L449.637 24.8601L435.096 36.4617V38.8818Z" fill="#4F8AEA"/>
<path d="M435.096 38.8818H434.096V40.959L435.72 39.6635L435.096 38.8818ZM450.816 26.3388L451.44 27.1205L452.222 26.4968L451.598 25.7152L450.816 26.3388ZM449.637 24.8601L450.418 24.2364L449.795 23.4547L449.013 24.0784L449.637 24.8601ZM435.096 36.4617L434.472 35.68L434.096 35.9803V36.4617H435.096ZM435.72 39.6635L451.44 27.1205L450.193 25.5572L434.472 38.1002L435.72 39.6635ZM451.598 25.7152L450.418 24.2364L448.855 25.4838L450.035 26.9625L451.598 25.7152ZM449.013 24.0784L434.472 35.68L435.72 37.2434L450.26 25.6418L449.013 24.0784ZM434.096 36.4617V38.8818H436.096V36.4617H434.096Z" fill="#4F8AEA" mask="url(#path-366-inside-21_631_97364)"/>
<mask id="path-368-inside-22_631_97364" fill="white">
<path fill-rule="evenodd" clip-rule="evenodd" d="M435.101 32.0683L445.27 40.1826L446.45 38.7039L435.101 29.6482V32.0683Z"/>
</mask>
<path fill-rule="evenodd" clip-rule="evenodd" d="M435.101 32.0683L445.27 40.1826L446.45 38.7039L435.101 29.6482V32.0683Z" fill="#4F8AEA"/>
<path d="M435.101 32.0683H434.101V32.5498L434.477 32.85L435.101 32.0683ZM445.27 40.1826L444.647 40.9643L445.428 41.588L446.052 40.8063L445.27 40.1826ZM446.45 38.7039L447.232 39.3276L447.856 38.5459L447.074 37.9222L446.45 38.7039ZM435.101 29.6482L435.724 28.8665L434.101 27.571V29.6482H435.101ZM434.477 32.85L444.647 40.9643L445.894 39.4009L435.724 31.2867L434.477 32.85ZM446.052 40.8063L447.232 39.3276L445.669 38.0802L444.489 39.5589L446.052 40.8063ZM447.074 37.9222L435.724 28.8665L434.477 30.4299L445.827 39.4856L447.074 37.9222ZM434.101 29.6482V32.0683H436.101V29.6482H434.101Z" fill="#4F8AEA" mask="url(#path-368-inside-22_631_97364)"/>
<mask id="path-370-inside-23_631_97364" fill="white">
<path fill-rule="evenodd" clip-rule="evenodd" d="M435.105 29.9072L446.454 20.852L445.274 19.3733L435.105 27.4871V29.9072Z"/>
</mask>
<path fill-rule="evenodd" clip-rule="evenodd" d="M435.105 29.9072L446.454 20.852L445.274 19.3733L435.105 27.4871V29.9072Z" fill="#4F8AEA"/>
<path d="M435.105 29.9072H434.105V31.9844L435.728 30.6889L435.105 29.9072ZM446.454 20.852L447.077 21.6337L447.859 21.01L447.235 20.2283L446.454 20.852ZM445.274 19.3733L446.055 18.7496L445.432 17.9679L444.65 18.5916L445.274 19.3733ZM435.105 27.4871L434.481 26.7054L434.105 27.0057V27.4871H435.105ZM435.728 30.6889L447.077 21.6337L445.83 20.0704L434.481 29.1256L435.728 30.6889ZM447.235 20.2283L446.055 18.7496L444.492 19.997L445.672 21.4757L447.235 20.2283ZM444.65 18.5916L434.481 26.7054L435.728 28.2688L445.897 20.155L444.65 18.5916ZM434.105 27.4871V29.9072H436.105V27.4871H434.105Z" fill="#4F8AEA" mask="url(#path-370-inside-23_631_97364)"/>
<mask id="path-372-inside-24_631_97364" fill="white">
<path fill-rule="evenodd" clip-rule="evenodd" d="M435.096 22.7121L449.714 34.3232L450.894 32.8445L435.096 20.5181V22.7121Z"/>
</mask>
<path fill-rule="evenodd" clip-rule="evenodd" d="M435.096 22.7121L449.714 34.3232L450.894 32.8445L435.096 20.5181V22.7121Z" fill="#4F8AEA"/>
<path d="M449.714 34.3232L449.092 35.1063L449.873 35.7269L450.495 34.9469L449.714 34.3232ZM435.096 22.7121H434.096V23.1949L434.474 23.4951L435.096 22.7121ZM450.894 32.8445L451.675 33.4682L452.306 32.678L451.509 32.0561L450.894 32.8445ZM435.096 20.5181L435.711 19.7297L434.096 18.4694V20.5181H435.096ZM450.336 33.5402L435.718 21.9291L434.474 23.4951L449.092 35.1063L450.336 33.5402ZM450.112 32.2208L448.932 33.6996L450.495 34.9469L451.675 33.4682L450.112 32.2208ZM434.481 21.3064L450.278 33.6329L451.509 32.0561L435.711 19.7297L434.481 21.3064ZM434.096 20.5181V22.7121H436.096V20.5181H434.096Z" fill="#4F8AEA" mask="url(#path-372-inside-24_631_97364)"/>
</mask>
<g mask="url(#mask1_631_97364)">
<path d="M0 -11H680V40H0V-11Z" fill="#4F8AEA"/>
</g>
</svg>
