<svg width="45" height="45" viewBox="0 0 45 45" fill="none" xmlns="http://www.w3.org/2000/svg">
<path fill-rule="evenodd" clip-rule="evenodd" d="M21.7543 34.9434C21.9942 35.0873 22.2507 35.151 22.5 35.1479C22.7493 35.151 23.0058 35.0873 23.2457 34.9434L25.3744 33.6662C29.549 31.1614 34.6547 30.7523 39.1749 32.5604C40.8424 33.2274 42.6562 31.9993 42.6562 30.2034V8.34299C42.6562 7.25934 41.9965 6.28486 40.9903 5.8824C35.1683 3.55358 28.5923 4.0805 23.2154 7.30666L22.5 7.73588L21.7846 7.30666C16.4077 4.0805 9.83169 3.55358 4.00965 5.8824C3.00351 6.28486 2.34375 7.25934 2.34375 8.34299V30.2034C2.34375 31.9993 4.15761 33.2274 5.82509 32.5604C10.3453 30.7523 15.451 31.1614 19.6256 33.6662L21.7543 34.9434ZM5.15625 8.45329V29.8035C10.3984 27.8385 16.2596 28.3666 21.0727 31.2545L21.0938 31.2671V10.172L20.3376 9.71836C15.7458 6.96325 10.1369 6.49762 5.15625 8.45329ZM23.9273 31.2545L23.9062 31.2671V10.172L24.6624 9.71836C29.2542 6.96325 34.8631 6.49762 39.8438 8.45329V29.8035C34.6016 27.8385 28.7404 28.3666 23.9273 31.2545Z" fill="#333FAC"/>
<path d="M17.3909 35.705C13.5962 33.4914 8.9038 33.4914 5.10907 35.705L4.91643 35.8174C4.24558 36.2087 4.01898 37.0698 4.41031 37.7407C4.80164 38.4115 5.66271 38.6381 6.33357 38.2468L6.52621 38.1344C9.44523 36.4316 13.0548 36.4316 15.9738 38.1344L18.0124 39.3236C20.7855 40.9412 24.2145 40.9412 26.9876 39.3236L29.0262 38.1344C31.9452 36.4316 35.5548 36.4316 38.4738 38.1344L38.6664 38.2468C39.3373 38.6381 40.1984 38.4115 40.5897 37.7407C40.981 37.0698 40.7544 36.2087 40.0836 35.8174L39.8909 35.705C36.0962 33.4914 31.4038 33.4914 27.6091 35.705L25.5705 36.8942C23.6731 38.001 21.3269 38.001 19.4295 36.8942L17.3909 35.705Z" fill="#333FAC"/>
</svg>
