<svg width="639" height="682" viewBox="0 0 639 682" fill="none" xmlns="http://www.w3.org/2000/svg">
<path fill-rule="evenodd" clip-rule="evenodd" d="M-184.06 219.988C-148.978 125.514 -85.8357 22.6373 16.4667 2.9231C118.383 -16.7167 206.595 79.8928 302.433 126.239C369.659 158.748 438.038 183.13 492.969 233.353C551.286 286.672 605.525 346.646 624.767 420.948C645.273 500.128 647.233 589.238 602.121 654.838C558.274 718.601 470.895 733.007 394.598 755.656C327.475 775.582 259.899 781.994 188.615 777.591C104.02 772.366 11.216 780.975 -55.8909 727.833C-126.015 672.302 -145.492 580.279 -166.708 496.212C-190.095 403.548 -216.478 307.29 -184.06 219.988Z" fill="#333FAC" fill-opacity="0.13"/>
</svg>
