<svg width="510" height="629" viewBox="0 0 510 629" fill="none" xmlns="http://www.w3.org/2000/svg">
<path fill-rule="evenodd" clip-rule="evenodd" d="M384.288 3.83467C450.886 17.3696 507.483 64.5373 544.722 121.387C577.543 171.493 557.305 236.754 574.452 294.146C595.264 363.809 672.68 420.464 655.155 491.026C637.666 561.44 563.101 613.056 491.848 626.733C425.362 639.494 373.122 566.919 306.007 558.043C237.809 549.024 165.686 608.861 105.453 575.632C43.6814 541.554 21.3737 462.89 7.97649 393.626C-5.59846 323.443 -2.56143 249.218 30.0094 185.586C62.2248 122.648 121.86 80.5061 184.769 48.2329C246.911 16.3531 315.845 -10.0751 384.288 3.83467Z" fill="white" fill-opacity="0.08"/>
</svg>
