<svg width="440" height="1132" viewBox="0 0 440 1132" fill="none" xmlns="http://www.w3.org/2000/svg">
<path fill-rule="evenodd" clip-rule="evenodd" d="M973.409 168.852C1045.02 255.478 1068.59 375.221 1057.09 487.395C1046.97 586.263 952.659 649.663 914.725 741.686C868.68 853.384 909.133 1007.01 812.776 1080.08C716.621 1152.99 566.617 1142.36 460.554 1086.1C361.586 1033.6 370.203 885.521 293.051 804.385C214.655 721.94 59.1998 724.476 16.3779 618.985C-27.5375 510.801 25.9938 385.91 81.1713 282.424C137.081 177.564 218.61 84.7189 327.097 36.2248C434.401 -11.7401 555.269 -4.34965 670.034 19.2007C783.399 42.4641 899.811 79.8278 973.409 168.852Z" fill="#333FAC" fill-opacity="0.13"/>
</svg>
