<svg width="502" height="614" viewBox="0 0 502 614" fill="none" xmlns="http://www.w3.org/2000/svg">
<path fill-rule="evenodd" clip-rule="evenodd" d="M267.809 4.49173C339.514 -5.69181 426.284 -1.99199 474.327 52.2043C522.189 106.196 492.079 190.189 496.275 262.219C499.219 312.744 507.681 361.288 495.189 410.333C481.926 462.4 463.053 514.233 422.969 550.012C380.253 588.141 324.827 618.53 267.809 613.296C212.388 608.208 172.885 561.121 132.051 523.307C96.1263 490.041 68.5538 452.073 46.4994 408.36C20.3265 356.484 -17.4158 304.277 -7.32619 247.056C3.21704 187.261 54.3779 145.53 99.9225 105.377C150.125 61.1175 201.547 13.9021 267.809 4.49173Z" fill="white" fill-opacity="0.08"/>
</svg>
