<svg width="348" height="645" viewBox="0 0 348 645" fill="none" xmlns="http://www.w3.org/2000/svg">
<path fill-rule="evenodd" clip-rule="evenodd" d="M-118.518 8.28589C-53.0072 -9.79379 18.8108 6.6434 77.7501 40.4769C129.698 70.2972 141.196 137.65 182.466 181.062C232.559 233.757 327.235 249.23 343.551 320.081C359.833 390.784 316.711 470.563 259.369 515.013C205.862 556.49 126.428 515.425 62.5649 537.893C-2.32764 560.723 -39.5499 646.728 -108.301 644.365C-178.807 641.942 -234.308 581.898 -277.609 526.202C-321.485 469.767 -352.377 402.209 -352.141 330.725C-351.907 260.022 -317.808 195.449 -276.324 138.194C-235.346 81.6371 -185.843 26.8663 -118.518 8.28589Z" fill="white" fill-opacity="0.08"/>
</svg>
