<svg width="264" height="347" viewBox="0 0 264 347" fill="none" xmlns="http://www.w3.org/2000/svg">
<path fill-rule="evenodd" clip-rule="evenodd" d="M169.907 9.83858C210.489 27.4558 254.475 57.1148 262.163 100.683C269.821 144.087 227.302 178.187 206.464 217.024C191.847 244.266 180.737 272.241 158.558 293.779C135.013 316.645 108.621 337.594 76.3194 343.408C41.8965 349.604 3.33068 347.708 -24.6779 326.759C-51.9017 306.398 -57.4155 269.26 -66.5866 236.524C-74.6549 207.725 -76.8729 179.147 -74.3822 149.343C-71.4263 113.973 -74.3874 74.7331 -50.846 48.1703C-26.2461 20.4132 13.7243 15.0415 50.2668 8.6962C90.5463 1.70202 132.406 -6.44112 169.907 9.83858Z" fill="white" fill-opacity="0.08"/>
</svg>
