<svg width="438" height="554" viewBox="0 0 438 554" fill="none" xmlns="http://www.w3.org/2000/svg">
<path fill-rule="evenodd" clip-rule="evenodd" d="M339.64 -56.6639C407.477 -52.5764 470.114 -13.788 514.937 37.2945C554.444 82.3178 543.533 149.768 568.537 204.198C598.888 270.265 683.467 315.536 675.983 387.856C668.514 460.023 601.901 521.561 533.261 545.068C469.213 567.003 407.337 502.448 339.64 503.046C270.851 503.653 207.806 572.99 143.517 548.511C77.5863 523.407 44.496 448.637 21.5432 381.927C-1.71414 314.332 -9.08799 240.412 14.2631 172.85C37.3593 106.025 90.5148 55.9569 148.291 15.2026C205.364 -25.055 269.924 -60.8646 339.64 -56.6639Z" fill="white" fill-opacity="0.08"/>
</svg>
