<svg width="711" height="483" viewBox="0 0 711 483" fill="none" xmlns="http://www.w3.org/2000/svg">
<path fill-rule="evenodd" clip-rule="evenodd" d="M-112.007 219.781C-76.9253 125.307 -13.783 22.4302 88.5195 2.71607C190.436 -16.9237 278.648 79.6858 374.486 126.032C441.712 158.541 510.091 182.923 565.022 233.146C623.339 286.465 677.578 346.439 696.82 420.741C717.325 499.921 719.286 589.031 674.174 654.631C630.326 718.394 542.948 732.8 466.651 755.449C399.528 775.375 331.951 781.787 260.668 777.384C176.073 772.159 83.2688 780.768 16.1618 727.626C-53.9626 672.095 -73.4392 580.072 -94.6556 496.005C-118.042 403.341 -144.425 307.083 -112.007 219.781Z" fill="#434EB3"/>
</svg>
