<svg width="355" height="614" viewBox="0 0 355 614" fill="none" xmlns="http://www.w3.org/2000/svg">
<path fill-rule="evenodd" clip-rule="evenodd" d="M276.809 4.49173C348.514 -5.69181 435.284 -1.99199 483.327 52.2043C531.189 106.196 501.079 190.189 505.275 262.219C508.219 312.744 516.681 361.288 504.189 410.333C490.926 462.4 472.053 514.233 431.969 550.012C389.253 588.141 333.827 618.53 276.809 613.296C221.388 608.208 181.885 561.121 141.051 523.307C105.126 490.041 77.5538 452.073 55.4994 408.36C29.3265 356.484 -8.41576 304.277 1.67381 247.056C12.217 187.261 63.3779 145.53 108.922 105.377C159.125 61.1175 210.547 13.9021 276.809 4.49173Z" fill="white" fill-opacity="0.08"/>
</svg>
