<svg width="608" height="927" viewBox="0 0 608 927" fill="none" xmlns="http://www.w3.org/2000/svg">
<path fill-rule="evenodd" clip-rule="evenodd" d="M768.269 211.001C818.95 290.165 830.973 388.225 816.411 475.027C803.577 551.532 727.787 587.357 693.909 654.269C652.788 735.487 676.078 862.831 598.217 905.979C520.52 949.037 405.653 918.035 326.92 857.643C253.454 801.291 267.635 685.715 212.414 610.049C156.303 533.162 36.5708 511.732 9.00422 422.018C-19.2664 330.013 28.2877 239.511 76.0167 166.15C124.379 91.8166 191.84 30.8266 277.779 8.90468C362.781 -12.778 455.397 11.2735 542.493 47.1593C628.527 82.6078 716.185 129.644 768.269 211.001Z" fill="white" fill-opacity="0.08"/>
</svg>
