<svg width="1501" height="895" viewBox="0 0 1501 895" fill="none" xmlns="http://www.w3.org/2000/svg">
<path d="M1500.5 778.5C1049 659.712 927.5 684.527 0 895V0H1500.5V778.5Z" fill="#333FAC"/>
<path fill-rule="evenodd" clip-rule="evenodd" d="M525.327 610.204C477.284 556.008 390.514 552.308 318.809 562.492C254.906 571.567 204.805 615.804 156.289 658.641C154.498 660.222 152.71 661.801 150.922 663.377C148.249 665.734 145.555 668.097 142.852 670.468C99.5108 708.492 53.5981 748.771 43.6738 805.056C38.934 831.937 44.75 857.711 54.9635 882.864C177.347 854.424 421.011 799.617 548.095 774.153C548.609 766.751 549.228 759.317 549.847 751.892C554.208 699.565 558.533 647.664 525.327 610.204Z" fill="white" fill-opacity="0.08"/>
<path fill-rule="evenodd" clip-rule="evenodd" d="M1232.99 -1.87964e-05C1222.19 6.78154 1211.62 13.9193 1201.29 21.2026C1143.51 61.9569 1090.36 112.025 1067.26 178.85C1043.91 246.412 1051.29 320.332 1074.54 387.927C1097.5 454.637 1130.59 529.407 1196.52 554.511C1233.13 568.452 1269.34 551.965 1306.44 535.074C1334.48 522.306 1363.03 509.307 1392.64 509.046C1422.17 508.785 1450.59 520.922 1478.57 532.869C1486.08 536.073 1493.55 539.264 1501 542.198V-7.08124e-06L1232.99 -1.87964e-05Z" fill="white" fill-opacity="0.08"/>
</svg>
