<svg width="154" height="154" viewBox="0 0 154 154" fill="none" xmlns="http://www.w3.org/2000/svg">
<path fill-rule="evenodd" clip-rule="evenodd" d="M112.83 76.4873C112.83 56.34 96.3645 39.9765 76.0156 39.9765V37.165C97.8766 37.165 115.628 54.7541 115.628 76.4873C115.628 98.2205 97.8766 115.81 76.0156 115.81V112.998C96.3645 112.998 112.83 96.6347 112.83 76.4873Z" fill="white" stroke="white" stroke-width="0.359873" stroke-miterlimit="10"/>
<path fill-rule="evenodd" clip-rule="evenodd" d="M75.8242 152.166V2.53125H78.6946V152.166H75.8242Z" fill="white" stroke="white" stroke-width="0.359873" stroke-miterlimit="10"/>
<path fill-rule="evenodd" clip-rule="evenodd" d="M13.0547 37.165H76.0133V40.0353H13.0547V37.165Z" fill="white" stroke="white" stroke-width="0.359873" stroke-miterlimit="10"/>
<path fill-rule="evenodd" clip-rule="evenodd" d="M2.33984 76.0088H77.3544V78.6877H2.33984V76.0088Z" fill="white" stroke="white" stroke-width="0.359873" stroke-miterlimit="10"/>
<path fill-rule="evenodd" clip-rule="evenodd" d="M11.9062 112.939H78.1181V115.81H11.9062V112.939Z" fill="white" stroke="white" stroke-width="0.359873" stroke-miterlimit="10"/>
<path fill-rule="evenodd" clip-rule="evenodd" d="M77.2584 3.80685C36.6923 3.80685 3.80706 36.6897 3.80706 77.2527C3.80706 117.816 36.6923 150.699 77.2584 150.699C117.824 150.699 150.71 117.816 150.71 77.2527C150.71 36.6897 117.824 3.80685 77.2584 3.80685ZM1 77.2527C1 35.1395 35.1421 1 77.2584 1C119.375 1 153.517 35.1395 153.517 77.2527C153.517 119.366 119.375 153.505 77.2584 153.505C35.1421 153.505 1 119.366 1 77.2527Z" fill="white" stroke="white" stroke-width="0.359873" stroke-miterlimit="10"/>
<path fill-rule="evenodd" clip-rule="evenodd" d="M77.2584 3.80685C36.6923 3.80685 3.80706 36.6897 3.80706 77.2527C3.80706 117.816 36.6923 150.699 77.2584 150.699C117.824 150.699 150.71 117.816 150.71 77.2527C150.71 36.6897 117.824 3.80685 77.2584 3.80685ZM1 77.2527C1 35.1395 35.1421 1 77.2584 1C119.375 1 153.517 35.1395 153.517 77.2527C153.517 119.366 119.375 153.505 77.2584 153.505C35.1421 153.505 1 119.366 1 77.2527Z" fill="white" stroke="white" stroke-width="0.359873" stroke-miterlimit="10"/>
<path fill-rule="evenodd" clip-rule="evenodd" d="M46.8366 9.65329C47.021 9.37235 47.1635 9.15512 46.5 8.50003C47.3216 9.31115 47.7983 9.14705 48.2123 9.00451C48.6396 8.8574 49.0002 8.73326 49.6044 9.72778L49.656 9.81264C50.9068 11.8712 52.0375 13.7158 53.4116 15.0729C54.729 16.3741 56.2013 17.1558 58.1626 17.1558C60.1255 17.1558 61.5988 16.3739 62.9167 15.0727C64.2914 13.7156 65.4225 11.8711 66.6732 9.81264L66.7264 9.72495L66.7265 9.7249C67.9156 7.76765 69.2245 5.6132 70.8924 3.96584C72.6419 2.23782 74.8498 1.00001 77.7954 1.00001V4.05029C75.8342 4.05029 74.3619 4.83195 73.0445 6.13315C71.6704 7.49035 70.5396 9.3349 69.2888 11.3935L69.2373 11.4783L69.2372 11.4784C68.0476 13.4366 66.7379 15.5923 65.0684 17.2405C63.3181 18.9685 61.1092 20.2061 58.1626 20.2061C55.217 20.2061 53.009 18.9683 51.2595 17.2403C49.5916 15.5929 48.2827 13.4385 47.0936 11.4813L47.0403 11.3935C46.3933 10.3286 46.639 9.95438 46.8366 9.65329Z" fill="white"/>
<path fill-rule="evenodd" clip-rule="evenodd" d="M25.804 20.9656C25.0984 21.7277 25.7829 21.968 26.0938 22.028C25.9994 22.0207 25.8504 22.0126 25.6297 22.007C25.7168 22.0153 25.641 22.0331 25.4768 22.0717C25.0164 22.18 23.8612 22.4516 23.6523 23.1334C25.027 24.4905 26.158 26.335 27.4088 28.3934L27.4621 28.4812C28.6512 30.4384 29.9601 32.5929 31.628 34.2402C33.3775 35.9682 35.5854 37.2061 38.531 37.2061C41.4777 37.2061 43.6865 35.9685 45.4369 34.2405C47.1064 32.5922 48.4161 30.4365 49.6058 28.4783L49.6573 28.3934C50.9081 26.3349 52.0389 24.4903 53.413 23.1331C54.7304 21.8319 56.2026 21.0503 58.1639 21.0503C60.1268 21.0503 61.6001 21.8322 62.9181 23.1334C64.2927 24.4905 65.4238 26.335 66.6745 28.3934L66.7278 28.4811L66.7278 28.4812C67.9169 30.4384 69.2258 32.5929 70.8937 34.2402C72.6432 35.9682 74.8512 37.2061 77.7968 37.2061V34.1558C75.8355 34.1558 74.3633 33.3741 73.0458 32.0729C71.6717 30.7157 70.541 28.8712 69.2902 26.8126L69.2386 26.7277L69.2386 26.7276C68.0489 24.7695 66.7392 22.6138 65.0698 20.9656C63.3194 19.2375 61.1105 18 58.1639 18C55.2183 18 53.0104 19.2378 51.2608 20.9658C49.593 22.6132 48.2841 24.7676 47.095 26.7248L47.0416 26.8126C45.7909 28.871 44.6599 30.7155 43.2852 32.0727C41.9673 33.3739 40.4939 34.1558 38.531 34.1558C36.5698 34.1558 35.0975 33.3741 33.7801 32.0729C32.406 30.7157 31.2753 28.8712 30.0244 26.8126L29.9729 26.7277C28.7832 24.7696 27.4735 22.6138 25.804 20.9656ZM24.9996 22C25.3607 22 25.5551 22 25.6297 22.007C25.463 22.0028 25.2554 22 24.9996 22Z" fill="white"/>
<path fill-rule="evenodd" clip-rule="evenodd" d="M7.9043 49.0678C8.19721 48.9904 8.40911 48.9344 7.77806 48.3113C8.62912 49.1516 8.96965 48.7345 9.2566 48.383C9.53254 48.045 9.75893 47.7678 10.3421 48.7277L10.3937 48.8126C11.6445 50.8712 12.7753 52.7158 14.1494 54.073C15.4668 55.3741 16.9391 56.1558 18.9003 56.1558C20.8632 56.1558 22.3366 55.3739 23.6545 54.0727C25.0292 52.7156 26.1602 50.8711 27.4109 48.8126L27.4642 48.7249C28.6533 46.7677 29.9622 44.6132 31.6301 42.9658C33.3797 41.2378 35.5876 40 38.5332 40C41.4798 40 43.6887 41.2376 45.4391 42.9656C47.1086 44.6138 48.4183 46.7696 49.6079 48.7278L49.6595 48.8126C50.9103 50.8712 52.041 52.7158 53.4151 54.073C54.7326 55.3741 56.2048 56.1558 58.1661 56.1558C60.129 56.1558 61.6023 55.3739 62.9203 54.0727C64.2949 52.7156 65.426 50.8711 66.6767 48.8126L66.7299 48.725C67.919 46.7677 69.228 44.6132 70.8959 42.9658C72.6454 41.2378 74.8533 40 77.799 40V43.0503C75.8377 43.0503 74.3654 43.832 73.048 45.1332C71.6739 46.4904 70.5432 48.3349 69.2923 50.3935L69.2408 50.4783L69.2407 50.4784C68.0511 52.4366 66.7414 54.5923 65.0719 56.2405C63.3216 57.9685 61.1127 59.2061 58.1661 59.2061C55.2205 59.2061 53.0126 57.9683 51.263 56.2403C49.5951 54.5929 48.2862 52.4385 47.0972 50.4813L47.0438 50.3935C45.7931 48.335 44.662 46.4905 43.2874 45.1334C41.9694 43.8322 40.4961 43.0503 38.5332 43.0503C36.5719 43.0503 35.0997 43.832 33.7823 45.1332C32.4082 46.4904 31.2774 48.3349 30.0266 50.3935L29.975 50.4783C28.7854 52.4365 27.4757 54.5923 25.8062 56.2405C24.0558 57.9685 21.847 59.2061 18.9003 59.2061C15.9547 59.2061 13.7468 57.9683 11.9973 56.2403C10.3294 54.5929 9.02052 52.4385 7.83143 50.4813L7.83143 50.4813L7.77806 50.3935C7.1015 49.28 7.55915 49.159 7.9043 49.0678Z" fill="white"/>
<path fill-rule="evenodd" clip-rule="evenodd" d="M3.10795 73.1028C2.86327 74.106 2.64524 75 1.5 75C4.39047 75 4.42113 74.9697 6.07339 73.3374C6.1055 73.3057 6.13822 73.2734 6.17158 73.2404C7.84105 71.5922 9.15075 69.4365 10.3404 67.4784L10.392 67.3934C11.6428 65.3348 12.7736 63.4903 14.1477 62.1331C15.4651 60.8319 16.9373 60.0502 18.8986 60.0502C20.8615 60.0502 22.3348 60.8322 23.6528 62.1333C25.0274 63.4905 26.1585 65.335 27.4092 67.3934L27.4625 67.4812C28.6516 69.4384 29.9605 71.5929 31.6284 73.2402C33.378 74.9682 35.5859 76.206 38.5315 76.206C41.4781 76.206 43.687 74.9685 45.4373 73.2404C47.1068 71.5922 48.4165 69.4364 49.6062 67.4783L49.6578 67.3934C50.9086 65.3348 52.0393 63.4903 53.4134 62.1331C54.7308 60.8319 56.2031 60.0502 58.1644 60.0502C60.1273 60.0502 61.6006 60.8322 62.9185 62.1333C64.2932 63.4905 65.4242 65.335 66.6749 67.3934L66.7282 67.4811L66.7283 67.4812L66.7284 67.4814C67.9175 69.4386 69.2263 71.5929 70.8941 73.2402C72.6437 74.9682 74.8516 76.206 77.7972 76.206V73.1558C75.8359 73.1558 74.3637 72.3741 73.0463 71.0729C71.6722 69.7157 70.5414 67.8712 69.2906 65.8126L69.2391 65.7277L69.239 65.7276L69.2389 65.7274C68.0493 63.7693 66.7396 61.6137 65.0702 59.9656C63.3199 58.2375 61.111 57 58.1644 57C55.2187 57 53.0108 58.2378 51.2613 59.9658C49.5934 61.6131 48.2845 63.7676 47.0954 65.7248L47.0421 65.8126C45.7914 67.871 44.6603 69.7155 43.2857 71.0727C41.9677 72.3738 40.4944 73.1558 38.5315 73.1558C36.5702 73.1558 35.098 72.3741 33.7805 71.0729C32.4064 69.7157 31.2757 67.8712 30.0249 65.8126L29.9733 65.7277C28.7837 63.7696 27.4739 61.6138 25.8044 59.9656C24.0541 58.2375 21.8452 57 18.8986 57C15.953 57 13.7451 58.2378 11.9955 59.9658C10.3277 61.6131 9.01879 63.7675 7.8297 65.7247L7.8297 65.7248L7.77634 65.8126C6.52562 67.871 5.39457 69.7155 4.01992 71.0727C3.47091 71.6147 3.28264 72.3866 3.10795 73.1028Z" fill="white"/>
<path fill-rule="evenodd" clip-rule="evenodd" d="M3.1053 81.0142C2.86169 79.9572 2.64111 79 1.5 79C4.20538 79 4.40547 79.2003 5.77475 80.5704C5.89686 80.6926 6.02827 80.8241 6.17158 80.9656C7.84105 82.6138 9.15075 84.7696 10.3404 86.7277L10.392 86.8126C11.6428 88.8712 12.7736 90.7158 14.1477 92.073C15.4651 93.3742 16.9373 94.1558 18.8986 94.1558C20.8615 94.1558 22.3348 93.3739 23.6528 92.0727C25.0274 90.7156 26.1585 88.8711 27.4092 86.8126L27.4625 86.7249C28.6516 84.7677 29.9605 82.6132 31.6284 80.9658C33.378 79.2378 35.5859 78 38.5315 78C41.4781 78 43.687 79.2376 45.4373 80.9656C47.1068 82.6138 48.4165 84.7696 49.6062 86.7278L49.6578 86.8126C50.9086 88.8712 52.0393 90.7158 53.4134 92.073C54.7308 93.3742 56.2031 94.1558 58.1644 94.1558C60.1273 94.1558 61.6006 93.3739 62.9185 92.0727C64.2932 90.7156 65.4242 88.8711 66.6749 86.8126L66.7282 86.725L66.7283 86.7249L66.7284 86.7247C67.9175 84.7675 69.2263 82.6131 70.8941 80.9658C72.6437 79.2378 74.8516 78 77.7972 78V81.0503C75.8359 81.0503 74.3637 81.832 73.0463 83.1332C71.6722 84.4904 70.5414 86.3349 69.2906 88.3935L69.2391 88.4783L69.239 88.4784L69.2389 88.4786C68.0493 90.4367 66.7396 92.5924 65.0702 94.2405C63.3199 95.9685 61.111 97.2061 58.1644 97.2061C55.2187 97.2061 53.0108 95.9683 51.2613 94.2403C49.5934 92.5929 48.2845 90.4385 47.0954 88.4813L47.0421 88.3935C45.7914 86.3351 44.6603 84.4905 43.2857 83.1334C41.9677 81.8322 40.4944 81.0503 38.5315 81.0503C36.5702 81.0503 35.098 81.832 33.7805 83.1332C32.4064 84.4904 31.2757 86.3349 30.0249 88.3935L29.9733 88.4783C28.7837 90.4365 27.4739 92.5923 25.8044 94.2405C24.0541 95.9685 21.8452 97.2061 18.8986 97.2061C15.953 97.2061 13.7451 95.9683 11.9955 94.2403C10.3277 92.5929 9.01879 90.4385 7.8297 88.4813L7.8297 88.4813L7.77634 88.3935C6.52562 86.3351 5.39457 84.4905 4.01992 83.1334C3.46813 82.5886 3.28074 81.7755 3.1053 81.0142Z" fill="white"/>
<path fill-rule="evenodd" clip-rule="evenodd" d="M7.7225 105.455C7.96494 105.681 8.15201 105.855 7.49913 106.5C8.33032 105.679 8.74304 105.908 9.09477 106.103C9.4495 106.299 9.74218 106.462 10.3395 105.478L10.3912 105.393C11.642 103.335 12.7727 101.49 14.1468 100.133C15.4642 98.8319 16.9365 98.0502 18.8977 98.0502C20.8607 98.0502 22.334 98.8322 23.6519 100.133C25.0266 101.49 26.1576 103.335 27.4083 105.393L27.4617 105.481C28.6507 107.438 29.9597 109.593 31.6275 111.24C33.3771 112.968 35.585 114.206 38.5306 114.206C41.4773 114.206 43.6861 112.968 45.4365 111.24C47.106 109.592 48.4157 107.436 49.6053 105.478L49.6569 105.393C50.9077 103.335 52.0384 101.49 53.4125 100.133C54.73 98.8319 56.2022 98.0502 58.1635 98.0502C60.1264 98.0502 61.5997 98.8322 62.9177 100.133C64.2923 101.49 65.4234 103.335 66.6741 105.393L66.7274 105.481C67.9165 107.438 69.2254 109.593 70.8933 111.24C72.6428 112.968 74.8507 114.206 77.7964 114.206V111.156C75.8351 111.156 74.3628 110.374 73.0454 109.073C71.6713 107.716 70.5406 105.871 69.2898 103.813L69.2382 103.728L69.2381 103.728C68.0485 101.769 66.7388 99.6138 65.0693 97.9656C63.319 96.2375 61.1101 95 58.1635 95C55.2179 95 53.01 96.2378 51.2604 97.9658C49.5925 99.6131 48.2836 101.768 47.0946 103.725L47.0412 103.813C45.7905 105.871 44.6594 107.716 43.2848 109.073C41.9668 110.374 40.4935 111.156 38.5306 111.156C36.5693 111.156 35.0971 110.374 33.7797 109.073C32.4056 107.716 31.2748 105.871 30.024 103.813L29.9725 103.728C28.7828 101.77 27.4731 99.6138 25.8036 97.9656C24.0532 96.2375 21.8444 95 18.8977 95C15.9521 95 13.7442 96.2378 11.9947 97.9658C10.3268 99.6131 9.01792 101.768 7.82884 103.725L7.82883 103.725L7.77547 103.813C7.11877 104.893 7.45447 105.206 7.7225 105.455Z" fill="white"/>
<path fill-rule="evenodd" clip-rule="evenodd" d="M25.8031 131.24C25.6137 131.427 25.4787 131.571 25.3847 131.679C25.4678 131.398 25.3231 131 23.9986 131C24.8426 131 24.653 130.884 24.2673 130.649C23.756 130.337 22.9001 129.814 23.6514 129.073C25.026 127.716 26.1571 125.871 27.4078 123.813L27.4611 123.725C28.6502 121.768 29.9591 119.613 31.627 117.966C33.3766 116.238 35.5845 115 38.5301 115C41.4767 115 43.6856 116.238 45.4359 117.966C47.1054 119.614 48.4152 121.77 49.6048 123.728L49.6564 123.813C50.9072 125.871 52.0379 127.716 53.412 129.073C54.7294 130.374 56.2017 131.156 58.163 131.156C60.1259 131.156 61.5992 130.374 62.9171 129.073C64.2918 127.716 65.4228 125.871 66.6736 123.813L66.7268 123.725L66.7269 123.725C67.916 121.768 69.2249 119.613 70.8927 117.966C72.6423 116.238 74.8502 115 77.7958 115V118.05C75.8346 118.05 74.3623 118.832 73.0449 120.133C71.6708 121.49 70.54 123.335 69.2892 125.393L69.2377 125.478L69.2376 125.478C68.048 127.437 66.7383 129.592 65.0688 131.24C63.3185 132.969 61.1096 134.206 58.163 134.206C55.2174 134.206 53.0094 132.968 51.2599 131.24C49.592 129.593 48.2831 127.438 47.094 125.481L47.0407 125.393C45.79 123.335 44.6589 121.491 43.2843 120.133C41.9663 118.832 40.493 118.05 38.5301 118.05C36.5688 118.05 35.0966 118.832 33.7792 120.133C32.405 121.49 31.2743 123.335 30.0235 125.393L29.9719 125.478C28.7823 127.436 27.4726 129.592 25.8031 131.24Z" fill="white"/>
<path fill-rule="evenodd" clip-rule="evenodd" d="M46.0744 142.51C45.4452 143.66 44.9526 144.559 43.9998 145.5C45.5582 145.5 45.8177 146.263 45.9753 146.726C46.1157 147.139 46.1752 147.314 46.9998 146.5C48.0955 145.418 48.3631 144.867 48.754 144.063C48.9587 143.642 49.1971 143.151 49.606 142.478L49.6575 142.393C50.9083 140.335 52.0391 138.49 53.4132 137.133C54.7306 135.832 56.2028 135.05 58.1641 135.05C60.127 135.05 61.6003 135.832 62.9183 137.133C64.2929 138.49 65.424 140.335 66.6747 142.393L66.728 142.481L66.728 142.481C67.9171 144.438 69.226 146.593 70.8939 148.24C72.6435 149.968 74.8514 151.206 77.797 151.206V148.156C75.8357 148.156 74.3635 147.374 73.0461 146.073C71.6719 144.716 70.5412 142.871 69.2904 140.813L69.2388 140.728L69.2388 140.728C68.0491 138.769 66.7394 136.614 65.07 134.966C63.3196 133.238 61.1108 132 58.1641 132C55.2185 132 53.0106 133.238 51.261 134.966C49.5932 136.613 48.2843 138.768 47.0952 140.725L47.0418 140.813C46.6581 141.444 46.3528 142.002 46.0744 142.51Z" fill="white"/>
<circle cx="38.6357" cy="57.6357" r="3.63572" fill="white"/>
<circle cx="38.6357" cy="96.6357" r="3.63572" fill="white"/>
<circle cx="38.6357" cy="133.636" r="3.63572" fill="white"/>
<circle cx="38.6357" cy="19.6357" r="3.63572" fill="white"/>
<path d="M77.5 19.6357C77.5 21.6437 78.6437 23.2714 76.6357 23.2714C74.6278 23.2714 73 21.6437 73 19.6357C73 17.6278 74.6278 16 76.6357 16C78.6437 16 77.5 17.6278 77.5 19.6357Z" fill="white"/>
<path d="M78 57.6357C78 59.6437 78.6437 61.2714 76.6357 61.2714C74.6278 61.2714 73 59.6437 73 57.6357C73 55.6278 74.6278 54 76.6357 54C78.6437 54 78 55.6278 78 57.6357Z" fill="white"/>
<path d="M78 96.6357C78 98.6437 78.6437 100.271 76.6357 100.271C74.6278 100.271 73 98.6437 73 96.6357C73 94.6278 74.6278 93 76.6357 93C78.6437 93 78 94.6278 78 96.6357Z" fill="white"/>
<path d="M78.5 133.636C78.5 135.644 78.6437 137.271 76.6357 137.271C74.6278 137.271 73 135.644 73 133.636C73 131.628 74.6278 130 76.6357 130C78.6437 130 78.5 131.628 78.5 133.636Z" fill="white"/>
</svg>
