<svg width="16" height="16" viewBox="0 0 16 16" fill="none" xmlns="http://www.w3.org/2000/svg">
<path d="M11.862 3.23082L1.62059 13.4975L1 14.9998L2.50236 14.3792L12.769 4.13781L11.862 3.23082ZM13.9112 1.18201L13.4675 1.62534L14.3745 2.53233L14.8182 2.08862C14.9346 1.97211 15 1.81414 15 1.64943C15 1.48472 14.9346 1.32675 14.8182 1.21024L14.79 1.18201C14.7323 1.12431 14.6638 1.07853 14.5884 1.0473C14.513 1.01607 14.4322 1 14.3506 1C14.269 1 14.1882 1.01607 14.1128 1.0473C14.0374 1.07853 13.9689 1.12431 13.9112 1.18201Z" stroke="#131313" stroke-width="1.65591" stroke-linecap="round" stroke-linejoin="round"/>
</svg>
