<svg width="154" height="154" viewBox="0 0 154 154" fill="none" xmlns="http://www.w3.org/2000/svg">
<path fill-rule="evenodd" clip-rule="evenodd" d="M112.83 76.4873C112.83 56.34 96.3645 39.9765 76.0156 39.9765V37.165C97.8766 37.165 115.628 54.7541 115.628 76.4873C115.628 98.2205 97.8766 115.81 76.0156 115.81V112.998C96.3645 112.998 112.83 96.6347 112.83 76.4873Z" fill="white" stroke="white" stroke-width="0.359873" stroke-miterlimit="10"/>
<path fill-rule="evenodd" clip-rule="evenodd" d="M75.8242 152.166V2.53125H78.6946V152.166H75.8242Z" fill="white" stroke="white" stroke-width="0.359873" stroke-miterlimit="10"/>
<path fill-rule="evenodd" clip-rule="evenodd" d="M13.0547 37.165H76.0133V40.0353H13.0547V37.165Z" fill="white" stroke="white" stroke-width="0.359873" stroke-miterlimit="10"/>
<path fill-rule="evenodd" clip-rule="evenodd" d="M2.33984 76.0088H77.3544V78.6877H2.33984V76.0088Z" fill="white" stroke="white" stroke-width="0.359873" stroke-miterlimit="10"/>
<path fill-rule="evenodd" clip-rule="evenodd" d="M11.9062 112.939H78.1181V115.81H11.9062V112.939Z" fill="white" stroke="white" stroke-width="0.359873" stroke-miterlimit="10"/>
<path fill-rule="evenodd" clip-rule="evenodd" d="M77.2584 3.80685C36.6923 3.80685 3.80706 36.6897 3.80706 77.2527C3.80706 117.816 36.6923 150.699 77.2584 150.699C117.824 150.699 150.71 117.816 150.71 77.2527C150.71 36.6897 117.824 3.80685 77.2584 3.80685ZM1 77.2527C1 35.1395 35.1421 1 77.2584 1C119.375 1 153.517 35.1395 153.517 77.2527C153.517 119.366 119.375 153.505 77.2584 153.505C35.1421 153.505 1 119.366 1 77.2527Z" fill="white" stroke="white" stroke-width="0.359873" stroke-miterlimit="10"/>
<path fill-rule="evenodd" clip-rule="evenodd" d="M77.2584 3.80685C36.6923 3.80685 3.80706 36.6897 3.80706 77.2527C3.80706 117.816 36.6923 150.699 77.2584 150.699C117.824 150.699 150.71 117.816 150.71 77.2527C150.71 36.6897 117.824 3.80685 77.2584 3.80685ZM1 77.2527C1 35.1395 35.1421 1 77.2584 1C119.375 1 153.517 35.1395 153.517 77.2527C153.517 119.366 119.375 153.505 77.2584 153.505C35.1421 153.505 1 119.366 1 77.2527Z" fill="white" stroke="white" stroke-width="0.359873" stroke-miterlimit="10"/>
<rect x="5.19201" y="58.1914" width="11.313" height="11.313" transform="rotate(-45 5.19201 58.1914)" stroke="white" stroke-width="3.09997"/>
<rect x="25.192" y="58.1914" width="11.313" height="11.313" transform="rotate(-45 25.192 58.1914)" stroke="white" stroke-width="3.09997"/>
<rect x="45.192" y="58.1914" width="11.313" height="11.313" transform="rotate(-45 45.192 58.1914)" stroke="white" stroke-width="3.09997"/>
<rect x="16.4453" y="52.9424" width="21.1319" height="3" transform="rotate(-45 16.4453 52.9424)" fill="white"/>
<rect x="36" y="52.9424" width="21.1319" height="3" transform="rotate(-45 36 52.9424)" fill="white"/>
<rect x="56" y="52.9424" width="21.1319" height="3" transform="rotate(-45 56 52.9424)" fill="white"/>
<rect x="53" y="75.9424" width="21.1319" height="3" transform="rotate(-45 53 75.9424)" fill="white"/>
<rect x="33" y="75.9424" width="21.1319" height="3" transform="rotate(-45 33 75.9424)" fill="white"/>
<rect x="13" y="75.9424" width="21.1319" height="3" transform="rotate(-45 13 75.9424)" fill="white"/>
<rect x="1.58594" y="69.3564" width="11.8175" height="3" transform="rotate(-45 1.58594 69.3564)" fill="white"/>
<path fill-rule="evenodd" clip-rule="evenodd" d="M67.384 58.1914L73.1915 52.3839L75.4997 54.692L76 55.1924V50.8083L75.3835 50.1919L73.1915 47.9999L70.9995 50.1919L65.192 55.9994L63 58.1914L65.192 60.3834L70.9995 66.1909L73.1915 68.3829L75.3835 66.1909L76 65.5745V61.1905L75.4997 61.6908L73.1915 63.9989L67.384 58.1914Z" fill="white"/>
<rect x="-2.19201" width="11.313" height="11.313" transform="matrix(-0.707107 -0.707107 -0.707107 0.707107 58.7424 94.6414)" stroke="white" stroke-width="3.09997"/>
<rect x="-2.19201" width="11.313" height="11.313" transform="matrix(-0.707107 -0.707107 -0.707107 0.707107 38.7424 94.6414)" stroke="white" stroke-width="3.09997"/>
<rect width="21.1319" height="3" transform="matrix(-0.707107 -0.707107 -0.707107 0.707107 69.0391 90.9424)" fill="white"/>
<rect width="21.1319" height="3" transform="matrix(-0.707107 -0.707107 -0.707107 0.707107 49.4844 90.9424)" fill="white"/>
<rect width="21.1319" height="3" transform="matrix(-0.707107 -0.707107 -0.707107 0.707107 29.4844 90.9424)" fill="white"/>
<rect width="9.56432" height="3" transform="matrix(-0.707107 -0.707107 -0.707107 0.707107 10.5469 90.9424)" fill="white"/>
<rect width="21.1319" height="3" transform="matrix(-0.707107 -0.707107 -0.707107 0.707107 32.4844 113.942)" fill="white"/>
<rect width="21.1319" height="3" transform="matrix(-0.707107 -0.707107 -0.707107 0.707107 52.4844 113.942)" fill="white"/>
<rect width="21.1319" height="3" transform="matrix(-0.707107 -0.707107 -0.707107 0.707107 72.4844 113.942)" fill="white"/>
<path fill-rule="evenodd" clip-rule="evenodd" d="M18.1004 96.1914L12.2928 90.3839L9.98472 92.692L6.48533 96.1914L9.98472 99.6908L12.2928 101.999L18.1004 96.1914ZM22.4844 96.1914L20.2924 93.9994L14.4849 88.1919L12.2928 85.9999L10.1008 88.1919L7.79271 90.5L4.48438 93.8083V98.5745L7.79271 101.883L10.1008 104.191L12.2928 106.383L14.4849 104.191L20.2924 98.3834L22.4844 96.1914Z" fill="white"/>
<rect x="-2.19201" width="11.313" height="11.313" transform="matrix(-0.707107 -0.707107 -0.707107 0.707107 59.258 17.6414)" stroke="white" stroke-width="3.09997"/>
<rect width="7.21282" height="3" transform="matrix(-0.707107 -0.707107 -0.707107 0.707107 50 13.9424)" fill="white"/>
<rect width="15.0079" height="3" transform="matrix(-0.707107 -0.707107 -0.707107 0.707107 70.0625 13.9424)" fill="white"/>
<rect width="14.7237" height="3" transform="matrix(-0.707107 -0.707107 -0.707107 0.707107 33 36.9424)" fill="white"/>
<rect width="21.1319" height="3" transform="matrix(-0.707107 -0.707107 -0.707107 0.707107 53 36.9424)" fill="white"/>
<rect width="21.1319" height="3" transform="matrix(-0.707107 -0.707107 -0.707107 0.707107 73 36.9424)" fill="white"/>
<path fill-rule="evenodd" clip-rule="evenodd" d="M76.4841 94.5754L72.2926 90.3839L66.4851 96.1914L72.2926 101.999L76.4841 97.8074V102.191L74.4846 104.191L72.2926 106.383L70.1006 104.191L64.2931 98.3834L62.1011 96.1914L64.2931 93.9994L70.1006 88.1919L72.2926 85.9999L74.4846 88.1919L76.4841 90.1914V94.5754Z" fill="white"/>
<rect x="44.192" y="133.191" width="11.313" height="11.313" transform="rotate(-45 44.192 133.191)" stroke="white" stroke-width="3.09997"/>
<rect x="18.418" y="124.97" width="16.9276" height="3" transform="rotate(-45 18.418 124.97)" fill="white"/>
<rect x="35" y="127.942" width="21.1319" height="3" transform="rotate(-45 35 127.942)" fill="white"/>
<rect x="55" y="127.942" width="21.1319" height="3" transform="rotate(-45 55 127.942)" fill="white"/>
<rect x="54.5625" y="148.378" width="17.5055" height="3" transform="rotate(-45 54.5625 148.378)" fill="white"/>
<rect x="40.4219" y="142.52" width="9.22089" height="3" transform="rotate(-45 40.4219 142.52)" fill="white"/>
<path fill-rule="evenodd" clip-rule="evenodd" d="M66.384 133.191L72.1915 127.384L74.4997 129.692L77 132.192V129H78.1917L76.6917 127.5L74.3835 125.192L72.1915 123L69.9995 125.192L64.192 130.999L62 133.191L64.192 135.383L69.9995 141.191L72.1915 143.383L74.3835 141.191L76.6917 138.883L78.5745 137H77V134.19L74.4997 136.691L72.1915 138.999L66.384 133.191Z" fill="white"/>
<path fill-rule="evenodd" clip-rule="evenodd" d="M25.3252 21.8998L30.6163 27.1909L32.8083 29.3829L35.0003 27.1909L40.8078 21.3834L42.9998 19.1914L40.8078 16.9994L36.5126 12.7042L34.1064 14.682L38.6158 19.1914L32.8083 24.9989L27.7314 19.922L25.3252 21.8998Z" fill="white"/>
<path fill-rule="evenodd" clip-rule="evenodd" d="M76.9998 17.1926L73.191 13.3839L67.3835 19.1914L73.191 24.9989L76.9998 21.1902V25.5742L75.3831 27.1909L73.191 29.3829L70.999 27.1909L65.1915 21.3834L62.9995 19.1914L65.1915 16.9994L70.999 11.1919L73.191 8.99988L75.3831 11.1919L76.9998 12.8086V17.1926Z" fill="white"/>
<path fill-rule="evenodd" clip-rule="evenodd" d="M26.8257 132.75L32.1915 127.384L37.9991 133.191L33.1246 138.066L35.5021 140.072L40.1911 135.383L42.3831 133.191L40.1911 130.999L34.3836 125.192L32.1915 123L29.9995 125.192L24.4482 130.743L26.8257 132.75Z" fill="white"/>
</svg>
