<svg width="23" height="35" viewBox="0 0 23 35" fill="none" xmlns="http://www.w3.org/2000/svg">
<mask id="path-1-inside-1_642_97487" fill="white">
<path d="M22.9536 0.0166016L22.9757 34.1399C22.976 34.523 22.9761 34.7145 22.9012 34.8098C22.8302 34.9002 22.7193 34.9499 22.6046 34.9429C22.4836 34.9355 22.3406 34.808 22.0547 34.5532L11.7734 25.3877C11.6804 25.3049 11.6339 25.2634 11.5817 25.247C11.5317 25.2312 11.478 25.2313 11.428 25.2471C11.3759 25.2636 11.3294 25.3051 11.2366 25.3881L0.967113 34.5692C0.681527 34.8245 0.538734 34.9522 0.417741 34.9598C0.303044 34.967 0.192128 34.9174 0.120986 34.8271C0.0459389 34.7319 0.0458147 34.5404 0.0455664 34.1574L0.0234436 0.0340388L22.9536 0.0166016Z"/>
</mask>
<path d="M22.9536 0.0166016L24.9536 0.0151928L24.9523 -1.98492L22.9522 -1.9834L22.9536 0.0166016ZM0.0234436 0.0340388L0.0220349 -1.96596L-1.97785 -1.96444L-1.97656 0.0354475L0.0234436 0.0340388ZM11.7734 25.3877L10.4424 26.8807L11.7734 25.3877ZM11.5817 25.247L10.9804 27.1545L11.5817 25.247ZM11.2366 25.3881L12.5695 26.8791L11.2366 25.3881ZM11.428 25.2471L10.824 23.3405L11.428 25.2471ZM0.0455664 34.1574L-1.95443 34.1588L0.0455664 34.1574ZM0.120986 34.8271L-1.4497 36.0654L0.120986 34.8271ZM0.967113 34.5692L-0.365832 33.0782L0.967113 34.5692ZM0.417741 34.9598L0.542884 36.9558L0.417741 34.9598ZM22.9757 34.1399L20.9757 34.1413L22.9757 34.1399ZM22.9012 34.8098L21.3288 33.5739L22.9012 34.8098ZM22.0547 34.5532L20.7238 36.0461L22.0547 34.5532ZM22.6046 34.9429L22.4823 36.9392L22.6046 34.9429ZM20.9536 0.0180103L20.9757 34.1413L24.9757 34.1385L24.9536 0.0151928L20.9536 0.0180103ZM2.04557 34.156L2.02344 0.03263L-1.97656 0.0354475L-1.95443 34.1588L2.04557 34.156ZM0.0248524 2.03404L22.955 2.0166L22.9522 -1.9834L0.0220349 -1.96596L0.0248524 2.03404ZM23.3856 33.0602L13.1043 23.8948L10.4424 26.8807L20.7238 36.0461L23.3856 33.0602ZM9.90364 23.8971L-0.365832 33.0782L2.30006 36.0602L12.5695 26.8791L9.90364 23.8971ZM13.1043 23.8948C13.0802 23.8733 12.9808 23.783 12.8777 23.704C12.7556 23.6107 12.5197 23.4456 12.1831 23.3395L10.9804 27.1545C10.696 27.0648 10.5094 26.9287 10.4469 26.8809C10.4158 26.8571 10.3975 26.841 10.4025 26.8452C10.4075 26.8496 10.4161 26.8572 10.4424 26.8807L13.1043 23.8948ZM12.5695 26.8791C12.5959 26.8556 12.6045 26.8479 12.6095 26.8436C12.6144 26.8393 12.5962 26.8555 12.5651 26.8793C12.5027 26.9272 12.3163 27.0636 12.032 27.1537L10.824 23.3405C10.4876 23.4471 10.2519 23.6125 10.13 23.7061C10.0269 23.7852 9.92773 23.8756 9.90364 23.8971L12.5695 26.8791ZM12.1831 23.3395C11.7407 23.2001 11.2661 23.2004 10.824 23.3405L12.032 27.1537C11.6899 27.2621 11.3227 27.2624 10.9804 27.1545L12.1831 23.3395ZM-1.95443 34.1588C-1.95433 34.3118 -1.956 34.5598 -1.93712 34.7751C-1.92252 34.9416 -1.87328 35.528 -1.4497 36.0654L1.69167 33.5889C1.87807 33.8254 1.96288 34.0533 2.00193 34.1912C2.03893 34.3219 2.04663 34.4145 2.04758 34.4253C2.04894 34.4409 2.04755 34.4324 2.04663 34.3769C2.04573 34.3228 2.04563 34.2565 2.04557 34.156L-1.95443 34.1588ZM-0.365832 33.0782C-0.440783 33.1452 -0.490286 33.1894 -0.531143 33.2248C-0.573163 33.2611 -0.580382 33.2657 -0.567912 33.2564C-0.559217 33.2499 -0.485107 33.1939 -0.363065 33.1343C-0.234283 33.0714 -0.0078832 32.9825 0.292598 32.9637L0.542884 36.9558C1.22574 36.913 1.69551 36.5585 1.82932 36.4583C2.00229 36.3288 2.18593 36.1622 2.30006 36.0602L-0.365832 33.0782ZM-1.4497 36.0654C-0.971989 36.6714 -0.227222 37.0042 0.542884 36.9558L0.292598 32.9637C0.833309 32.9298 1.35624 33.1634 1.69167 33.5889L-1.4497 36.0654ZM20.9757 34.1413C20.9758 34.2419 20.9758 34.3082 20.975 34.3622C20.9741 34.4178 20.9727 34.4263 20.9741 34.4107C20.975 34.3999 20.9826 34.3073 21.0194 34.1766C21.0583 34.0386 21.1428 33.8106 21.3288 33.5739L24.4735 36.0458C24.8964 35.5078 24.9448 34.9214 24.9592 34.7548C24.9778 34.5395 24.9758 34.2916 24.9757 34.1385L20.9757 34.1413ZM20.7238 36.0461C20.8381 36.148 21.0219 36.3143 21.1951 36.4436C21.329 36.5436 21.7993 36.8973 22.4823 36.9392L22.7269 32.9466C23.0275 32.965 23.254 33.0535 23.3829 33.1162C23.505 33.1757 23.5792 33.2316 23.5879 33.2381C23.6004 33.2474 23.5932 33.2428 23.5511 33.2065C23.5102 33.1712 23.4607 33.1271 23.3856 33.0602L20.7238 36.0461ZM21.3288 33.5739C21.6636 33.148 22.1862 32.9135 22.7269 32.9466L22.4823 36.9392C23.2524 36.9863 23.9967 36.6524 24.4735 36.0458L21.3288 33.5739Z" fill="#75B875" mask="url(#path-1-inside-1_642_97487)"/>
</svg>
