<svg width="38" height="38" viewBox="0 0 38 38" fill="none" xmlns="http://www.w3.org/2000/svg">
<path d="M36 19.0116C36 9.62971 28.3884 2.02344 19 2.02344C9.61159 2.02344 2 9.62971 2 19.0116C2 28.3934 9.61159 35.9997 19 35.9997C28.3884 35.9997 36 28.3934 36 19.0116Z" stroke="#333FAC" stroke-width="2.15248" stroke-miterlimit="10"/>
<path d="M34.492 12.1606C33.1794 12.1688 33.3085 14.5887 31.6731 13.4469C31.0659 13.0239 30.6923 12.4089 29.9298 12.2218C29.2637 12.0585 28.5812 12.2284 27.9233 12.3419C27.1755 12.4709 26.2887 12.5289 25.7215 13.0949C25.1731 13.6397 24.8829 14.3707 24.2994 14.9187C23.1707 15.9805 22.6942 17.1394 23.4248 18.6406C24.1277 20.0838 25.5981 20.867 27.1845 20.7641C28.7431 20.6604 30.3622 19.7571 30.3172 22.0202C30.3009 22.8206 30.4684 23.376 30.7144 24.1201C30.9424 24.8061 30.9269 25.471 30.9792 26.1791C31.0757 27.5022 31.3192 28.9854 31.9763 30.1541L33.2023 28.4259C33.3535 28.2119 33.6698 27.9122 33.745 27.6598C33.8782 27.2131 33.6159 26.4453 33.5856 25.9447C33.5554 25.444 33.5701 24.9368 33.4933 24.4361C33.3854 23.7346 32.9702 23.0771 32.913 22.3837C32.8075 21.0924 33.0437 20.0617 32.0483 18.982C31.0871 17.9406 29.6781 17.6907 28.332 17.9023C27.6536 18.0084 24.923 18.4446 26.019 16.8952C26.2356 16.5906 26.614 16.3406 26.8575 16.0507C27.0692 15.7983 27.2531 15.3344 27.5016 15.1376C27.75 14.9408 28.891 14.7145 29.2179 14.815C29.5448 14.9154 29.8857 15.3867 30.1693 15.5958C30.6933 15.9902 31.3047 16.2524 31.9518 16.3602C33.0683 16.5236 35.4025 15.8751 35.3845 14.4442C35.3812 13.7581 34.7437 12.8025 34.492 12.1606ZM21.5687 23.9347C21.1331 22.1019 18.6411 21.4894 17.2975 20.4954C16.5251 19.9237 15.8378 19.0408 14.8235 18.9689C14.356 18.9354 13.9645 19.0367 13.5011 18.9166C13.0761 18.8072 12.7426 18.5785 12.2898 18.6381C11.4439 18.7492 10.9102 19.6525 10.0014 19.53C9.13912 19.414 8.25071 18.4062 8.05455 17.5854C7.80282 16.5301 8.63811 16.1879 9.53306 16.094C9.90657 16.0548 10.3259 16.0123 10.6847 16.1487C11.1571 16.3243 11.3802 16.7866 11.8044 17.0202C12.5996 17.4555 12.7606 16.7596 12.6388 16.054C12.4566 14.9971 12.2441 14.5659 13.1872 13.839C13.8411 13.3375 14.4001 12.9749 14.2955 12.074C14.2334 11.5448 13.9433 11.3055 14.2138 10.7787C14.4189 10.3776 14.9821 10.0158 15.349 9.77653C16.2963 9.15907 19.407 9.20481 18.136 7.47659C17.7625 6.9694 17.0735 6.06282 16.4197 5.93868C15.6024 5.78431 15.2395 6.69579 14.6698 7.09763C14.0814 7.51335 12.9355 7.98542 12.3462 7.34265C11.5534 6.47772 12.8718 6.1935 13.1635 5.58993C13.4553 4.98636 12.4876 3.84538 11.9695 3.55625L9.53306 6.28661C9.46307 6.74387 9.48744 7.2106 9.60466 7.65809C9.72189 8.10559 9.92949 8.52439 10.2147 8.88873C10.6994 9.5119 11.4709 9.71201 11.506 10.563C11.5404 11.3798 11.4129 11.798 10.8784 12.3721C10.6471 12.6171 10.4836 12.9651 10.2482 13.1946C9.9597 13.4747 10.0668 13.389 9.61643 13.4657C8.7697 13.6087 8.04883 13.8292 7.23071 14.0546C5.86744 14.4311 5.74157 12.2055 5.12042 11.3324L3.07715 12.9814C3.05508 13.2517 3.41225 13.7491 3.50951 14.0432C4.06773 15.7232 5.19398 17.0226 5.92138 18.63C6.6872 20.332 8.74355 19.86 9.65157 21.3513C10.4574 22.6744 9.59682 24.3496 10.2 25.7348C10.6381 26.7402 11.6711 26.9599 12.3838 27.6949C13.1121 28.4373 13.0965 29.4534 13.2077 30.4196C13.333 31.556 13.5365 32.6825 13.8166 33.7911C13.9155 34.1741 14.0062 34.6805 14.2685 34.9966C14.4484 35.2138 15.0654 35.4009 14.8161 35.4727C15.1643 35.5299 15.7847 35.855 16.0748 35.6165C16.4573 35.3028 16.3551 34.3375 16.4213 33.9013C16.6199 32.6027 17.2705 31.3327 18.1483 30.3608C19.0155 29.4019 20.2038 28.7526 20.9361 27.6655C21.6497 26.6054 21.8646 25.1753 21.5687 23.9347ZM18.8397 26.0843C18.3494 26.9591 17.2574 27.5447 16.5554 28.2397C16.3649 28.4284 15.9596 29.0818 15.7209 28.9405C15.5501 28.8392 15.4921 27.9914 15.4291 27.797C15.1045 26.8182 14.4847 25.9637 13.6547 25.3509C13.3989 25.1573 12.7647 24.9058 12.6184 24.6403C12.4549 24.352 12.6021 23.6717 12.6078 23.3581C12.6168 22.9007 12.4084 22.1403 12.5211 21.7246C12.6519 21.2452 12.4002 21.5343 12.8293 21.4395C13.0557 21.3889 13.9907 21.5531 14.2726 21.6119C14.7205 21.705 14.9673 21.9835 15.3204 22.2653C16.2489 23.0093 17.2713 23.5851 18.3118 24.1552C19.1176 24.6011 19.3547 25.1655 18.8397 26.0843ZM13.1513 3.58076C13.5387 3.9589 13.9032 4.40648 14.481 4.44405C15.0278 4.4808 15.5435 4.18514 16.0209 4.55676C16.5505 4.96513 16.9322 5.48212 17.635 5.60953C18.315 5.73286 19.0351 5.33592 19.2034 4.64088C19.3669 3.97851 19.0147 3.25814 18.9934 2.59332C18.9934 2.50103 19.0433 2.09103 18.9795 2.0216C18.9321 1.96933 18.5365 2.02814 18.476 2.02977C18.0331 2.04284 17.5912 2.07333 17.1504 2.12125C15.5434 2.29506 13.9696 2.69799 12.477 3.31777C12.6756 3.45498 12.9249 3.5097 13.1513 3.58076ZM27.2041 8.16919C27.898 8.16919 28.6025 7.85883 28.3785 7.05679C28.1906 6.38462 27.8702 5.65527 27.0905 6.0179C26.5944 6.24822 25.8915 6.83464 25.8334 7.41616C25.7672 8.07608 26.7415 8.16919 27.2041 8.16919ZM26.6499 11.6787C27.3585 12.1026 28.4096 11.9033 28.9441 11.2981C29.3618 10.8244 29.6078 10.0019 30.3589 10.0028C30.6896 10.0021 31.0072 10.1315 31.2432 10.3629C31.5538 10.6839 31.4925 10.9853 31.5587 11.3871C31.7066 12.2896 32.6751 11.4386 32.9277 11.089C33.0911 10.8612 33.3126 10.523 33.2383 10.2266C33.1696 9.94968 32.8459 9.65483 32.7021 9.40083C32.282 8.66576 31.9363 7.81064 31.307 7.21687C30.7013 6.64516 29.9568 6.71131 29.3822 7.30508C28.9114 7.79512 28.3647 8.18307 28.0426 8.77929C27.8154 9.19828 27.5596 9.39838 27.0995 9.507C26.8461 9.56663 26.5568 9.58868 26.3443 9.75856C25.7525 10.2241 26.0893 11.3422 26.6499 11.6787Z" fill="#333FAC"/>
</svg>
