<svg width="50" height="50" viewBox="0 0 50 50" fill="none" xmlns="http://www.w3.org/2000/svg">
<path fill-rule="evenodd" clip-rule="evenodd" d="M6.77148 20.8954C6.77148 15.2694 11.7072 10.9375 17.5007 10.9375C20.4871 10.9375 23.1149 12.3378 25.0007 14.1497C26.8864 12.3378 29.5142 10.9375 32.5007 10.9375C38.2941 10.9375 43.2298 15.2694 43.2298 20.8954C43.2298 24.7493 41.5863 28.1384 39.3094 31.0032C37.0363 33.863 34.063 36.2902 31.2162 38.2624C30.1289 39.0157 29.0288 39.7106 28.022 40.2234C27.0767 40.7048 25.9897 41.1458 25.0007 41.1458C24.0116 41.1458 22.9246 40.7048 21.9793 40.2234C20.9725 39.7106 19.8724 39.0157 18.7851 38.2624C15.9383 36.2902 12.965 33.863 10.6919 31.0032C8.41499 28.1384 6.77148 24.7493 6.77148 20.8954ZM17.5007 14.0625C13.1689 14.0625 9.89648 17.2481 9.89648 20.8954C9.89648 23.8194 11.1377 26.5417 13.1383 29.0588C15.1429 31.5809 17.8401 33.8061 20.5647 35.6937C21.5957 36.4079 22.5668 37.0157 23.3974 37.4387C24.2895 37.893 24.8062 38.0208 25.0007 38.0208C25.1951 38.0208 25.7118 37.893 26.6039 37.4387C27.4345 37.0157 28.4056 36.4079 29.4366 35.6937C32.1612 33.8061 34.8584 31.5809 36.863 29.0588C38.8636 26.5417 40.1048 23.8194 40.1048 20.8954C40.1048 17.2481 36.8324 14.0625 32.5007 14.0625C30.0128 14.0625 27.6898 15.5488 26.2393 17.4353C25.9436 17.8199 25.4859 18.0453 25.0007 18.0453C24.5154 18.0453 24.0577 17.8199 23.762 17.4353C22.3115 15.5488 19.9885 14.0625 17.5007 14.0625Z" fill="#333FAC"/>
</svg>
