<svg width="294" height="141" viewBox="0 0 294 141" fill="none" xmlns="http://www.w3.org/2000/svg">
<g filter="url(#filter0_b_1011_61355)">
<path d="M0 40C0 17.9086 17.9086 0 40 0H294V101C294 123.091 276.091 141 254 141H0V40Z" fill="white" fill-opacity="0.9"/>
</g>
<path fill-rule="evenodd" clip-rule="evenodd" d="M41.7231 46.0215C36.0954 46.5948 31.6043 49.3271 28.6282 53.988C26.3882 57.4964 25.5077 62.0747 26.2676 66.2642C27.2835 71.8654 30.9452 79.208 36.6699 87.1236C38.8937 90.1983 42.7566 95 43.0064 95C43.2562 95 47.119 90.1983 49.3428 87.1236C54.2933 80.2785 57.8078 73.6625 59.219 68.5318C59.7154 66.727 59.9273 65.4052 59.9883 63.7344C60.2344 56.9909 56.5848 50.8295 50.5146 47.7406C49.1644 47.0535 47.1082 46.4077 45.4844 46.1607C44.7276 46.0456 42.3502 45.9576 41.7231 46.0215ZM44.8887 57.3531C46.1128 57.7677 47.0803 58.4588 47.8224 59.4487C49.6793 61.9257 49.4566 65.3046 47.293 67.4792C44.867 69.9177 41.1458 69.9177 38.7198 67.4792C35.9298 64.6749 36.4781 60.0734 39.8577 57.9291C40.3787 57.5986 41.3468 57.2268 41.9913 57.1097C42.7849 56.9656 44.0612 57.0728 44.8887 57.3531Z" fill="#75B875"/>
<path d="M73.9 73.506H71.66V78H70.652V68.2H71.66V72.596H73.9L77.218 68.2H78.338L74.698 72.96L78.548 78H77.358L73.9 73.506ZM86.1466 70.636L82.4646 78.882C82.1659 79.5727 81.8206 80.0627 81.4286 80.352C81.0366 80.6413 80.5653 80.786 80.0146 80.786C79.6599 80.786 79.3286 80.73 79.0206 80.618C78.7126 80.506 78.4466 80.338 78.2226 80.114L78.6846 79.372C79.0579 79.7453 79.5059 79.932 80.0286 79.932C80.3646 79.932 80.6493 79.8387 80.8826 79.652C81.1253 79.4653 81.3493 79.148 81.5546 78.7L81.8766 77.986L78.5866 70.636H79.6226L82.3946 76.894L85.1666 70.636H86.1466ZM92.9026 71.518H90.1166V78H89.1226V71.518H86.3366V70.636H92.9026V71.518ZM100.625 70.636L96.9431 78.882C96.6445 79.5727 96.2991 80.0627 95.9071 80.352C95.5151 80.6413 95.0438 80.786 94.4931 80.786C94.1385 80.786 93.8071 80.73 93.4991 80.618C93.1911 80.506 92.9251 80.338 92.7011 80.114L93.1631 79.372C93.5365 79.7453 93.9845 79.932 94.5071 79.932C94.8431 79.932 95.1278 79.8387 95.3611 79.652C95.6038 79.4653 95.8278 79.148 96.0331 78.7L96.3551 77.986L93.0651 70.636H94.1011L96.8731 76.894L99.6451 70.636H100.625ZM105.566 74.164C106.089 74.2853 106.49 74.4953 106.77 74.794C107.06 75.0927 107.204 75.4567 107.204 75.886C107.204 76.3153 107.055 76.698 106.756 77.034C106.467 77.37 106.07 77.6313 105.566 77.818C105.062 77.9953 104.507 78.084 103.9 78.084C103.368 78.084 102.846 78.0093 102.332 77.86C101.819 77.7013 101.371 77.4727 100.988 77.174L101.324 76.432C101.66 76.684 102.052 76.88 102.5 77.02C102.948 77.16 103.401 77.23 103.858 77.23C104.54 77.23 105.095 77.104 105.524 76.852C105.963 76.5907 106.182 76.2407 106.182 75.802C106.182 75.41 106.005 75.1067 105.65 74.892C105.296 74.668 104.81 74.556 104.194 74.556H102.934V73.828H104.138C104.689 73.828 105.132 73.7253 105.468 73.52C105.804 73.3053 105.972 73.0207 105.972 72.666C105.972 72.274 105.781 71.966 105.398 71.742C105.025 71.518 104.535 71.406 103.928 71.406C103.135 71.406 102.351 71.6067 101.576 72.008L101.296 71.238C102.174 70.7807 103.084 70.552 104.026 70.552C104.586 70.552 105.09 70.636 105.538 70.804C105.996 70.9627 106.35 71.1913 106.602 71.49C106.864 71.7887 106.994 72.134 106.994 72.526C106.994 72.8993 106.864 73.2307 106.602 73.52C106.35 73.8093 106.005 74.024 105.566 74.164ZM112.499 78.07C111.79 78.07 111.15 77.9113 110.581 77.594C110.012 77.2673 109.564 76.8193 109.237 76.25C108.91 75.6807 108.747 75.0367 108.747 74.318C108.747 73.5993 108.91 72.9553 109.237 72.386C109.564 71.8167 110.012 71.3733 110.581 71.056C111.15 70.7387 111.79 70.58 112.499 70.58C113.208 70.58 113.848 70.7387 114.417 71.056C114.986 71.3733 115.43 71.8167 115.747 72.386C116.074 72.9553 116.237 73.5993 116.237 74.318C116.237 75.0367 116.074 75.6807 115.747 76.25C115.43 76.8193 114.986 77.2673 114.417 77.594C113.848 77.9113 113.208 78.07 112.499 78.07ZM112.499 77.188C113.022 77.188 113.488 77.0713 113.899 76.838C114.319 76.5953 114.646 76.2547 114.879 75.816C115.112 75.3773 115.229 74.878 115.229 74.318C115.229 73.758 115.112 73.2587 114.879 72.82C114.646 72.3813 114.319 72.0453 113.899 71.812C113.488 71.5693 113.022 71.448 112.499 71.448C111.976 71.448 111.505 71.5693 111.085 71.812C110.674 72.0453 110.348 72.3813 110.105 72.82C109.872 73.2587 109.755 73.758 109.755 74.318C109.755 74.878 109.872 75.3773 110.105 75.816C110.348 76.2547 110.674 76.5953 111.085 76.838C111.505 77.0713 111.976 77.188 112.499 77.188ZM123.051 74.192C124.05 74.4253 124.549 75.0273 124.549 75.998C124.549 76.642 124.311 77.1367 123.835 77.482C123.359 77.8273 122.65 78 121.707 78H118.361V70.636H121.609C122.449 70.636 123.107 70.7993 123.583 71.126C124.059 71.4527 124.297 71.9193 124.297 72.526C124.297 72.9273 124.185 73.2727 123.961 73.562C123.747 73.842 123.443 74.052 123.051 74.192ZM119.327 73.912H121.539C122.109 73.912 122.543 73.8047 122.841 73.59C123.149 73.3753 123.303 73.0627 123.303 72.652C123.303 72.2413 123.149 71.9333 122.841 71.728C122.543 71.5227 122.109 71.42 121.539 71.42H119.327V73.912ZM121.665 77.216C122.3 77.216 122.776 77.1133 123.093 76.908C123.411 76.7027 123.569 76.3807 123.569 75.942C123.569 75.5033 123.425 75.1813 123.135 74.976C122.846 74.7613 122.389 74.654 121.763 74.654H119.327V77.216H121.665ZM129.959 78.07C129.231 78.07 128.578 77.9113 127.999 77.594C127.43 77.2767 126.982 76.8333 126.655 76.264C126.328 75.6853 126.165 75.0367 126.165 74.318C126.165 73.5993 126.328 72.9553 126.655 72.386C126.982 71.8167 127.43 71.3733 127.999 71.056C128.578 70.7387 129.231 70.58 129.959 70.58C130.594 70.58 131.158 70.706 131.653 70.958C132.157 71.2007 132.554 71.56 132.843 72.036L132.101 72.54C131.858 72.176 131.55 71.9053 131.177 71.728C130.804 71.5413 130.398 71.448 129.959 71.448C129.427 71.448 128.946 71.5693 128.517 71.812C128.097 72.0453 127.766 72.3813 127.523 72.82C127.29 73.2587 127.173 73.758 127.173 74.318C127.173 74.8873 127.29 75.3913 127.523 75.83C127.766 76.2593 128.097 76.5953 128.517 76.838C128.946 77.0713 129.427 77.188 129.959 77.188C130.398 77.188 130.804 77.0993 131.177 76.922C131.55 76.7447 131.858 76.474 132.101 76.11L132.843 76.614C132.554 77.09 132.157 77.454 131.653 77.706C131.149 77.9487 130.584 78.07 129.959 78.07ZM137.442 74.724H135.762V78H134.768V70.636H135.762V73.87H137.456L140.046 70.636H141.124L138.226 74.206L141.334 78H140.158L137.442 74.724ZM142.902 70.636H143.896V76.488L148.81 70.636H149.692V78H148.698V72.148L143.798 78H142.902V70.636ZM152.541 70.636H153.535V76.488L158.449 70.636H159.331V78H158.337V72.148L153.437 78H152.541V70.636ZM155.887 69.572C155.252 69.572 154.748 69.4133 154.375 69.096C154.002 68.7787 153.81 68.3307 153.801 67.752H154.515C154.524 68.116 154.655 68.41 154.907 68.634C155.159 68.8487 155.486 68.956 155.887 68.956C156.288 68.956 156.615 68.8487 156.867 68.634C157.128 68.41 157.264 68.116 157.273 67.752H157.987C157.978 68.3307 157.782 68.7787 157.399 69.096C157.026 69.4133 156.522 69.572 155.887 69.572ZM172.452 70.636V78H171.458V71.518H166.838V78H165.844V70.636H172.452ZM179.071 70.58C179.762 70.58 180.387 70.7387 180.947 71.056C181.507 71.364 181.946 71.8027 182.263 72.372C182.581 72.9413 182.739 73.59 182.739 74.318C182.739 75.0553 182.581 75.7087 182.263 76.278C181.946 76.8473 181.507 77.2907 180.947 77.608C180.397 77.916 179.771 78.07 179.071 78.07C178.474 78.07 177.933 77.9487 177.447 77.706C176.971 77.454 176.579 77.09 176.271 76.614V80.716H175.277V70.636H176.229V72.092C176.528 71.6067 176.92 71.2333 177.405 70.972C177.9 70.7107 178.455 70.58 179.071 70.58ZM179.001 77.188C179.515 77.188 179.981 77.0713 180.401 76.838C180.821 76.5953 181.148 76.2547 181.381 75.816C181.624 75.3773 181.745 74.878 181.745 74.318C181.745 73.758 181.624 73.2633 181.381 72.834C181.148 72.3953 180.821 72.0547 180.401 71.812C179.981 71.5693 179.515 71.448 179.001 71.448C178.479 71.448 178.007 71.5693 177.587 71.812C177.177 72.0547 176.85 72.3953 176.607 72.834C176.374 73.2633 176.257 73.758 176.257 74.318C176.257 74.878 176.374 75.3773 176.607 75.816C176.85 76.2547 177.177 76.5953 177.587 76.838C178.007 77.0713 178.479 77.188 179.001 77.188ZM187.913 78.07C187.204 78.07 186.564 77.9113 185.995 77.594C185.426 77.2673 184.978 76.8193 184.651 76.25C184.324 75.6807 184.161 75.0367 184.161 74.318C184.161 73.5993 184.324 72.9553 184.651 72.386C184.978 71.8167 185.426 71.3733 185.995 71.056C186.564 70.7387 187.204 70.58 187.913 70.58C188.622 70.58 189.262 70.7387 189.831 71.056C190.4 71.3733 190.844 71.8167 191.161 72.386C191.488 72.9553 191.651 73.5993 191.651 74.318C191.651 75.0367 191.488 75.6807 191.161 76.25C190.844 76.8193 190.4 77.2673 189.831 77.594C189.262 77.9113 188.622 78.07 187.913 78.07ZM187.913 77.188C188.436 77.188 188.902 77.0713 189.313 76.838C189.733 76.5953 190.06 76.2547 190.293 75.816C190.526 75.3773 190.643 74.878 190.643 74.318C190.643 73.758 190.526 73.2587 190.293 72.82C190.06 72.3813 189.733 72.0453 189.313 71.812C188.902 71.5693 188.436 71.448 187.913 71.448C187.39 71.448 186.919 71.5693 186.499 71.812C186.088 72.0453 185.762 72.3813 185.519 72.82C185.286 73.2587 185.169 73.758 185.169 74.318C185.169 74.878 185.286 75.3773 185.519 75.816C185.762 76.2547 186.088 76.5953 186.499 76.838C186.919 77.0713 187.39 77.188 187.913 77.188ZM196.855 78.07C196.127 78.07 195.474 77.9113 194.895 77.594C194.326 77.2767 193.878 76.8333 193.551 76.264C193.225 75.6853 193.061 75.0367 193.061 74.318C193.061 73.5993 193.225 72.9553 193.551 72.386C193.878 71.8167 194.326 71.3733 194.895 71.056C195.474 70.7387 196.127 70.58 196.855 70.58C197.49 70.58 198.055 70.706 198.549 70.958C199.053 71.2007 199.45 71.56 199.739 72.036L198.997 72.54C198.755 72.176 198.447 71.9053 198.073 71.728C197.7 71.5413 197.294 71.448 196.855 71.448C196.323 71.448 195.843 71.5693 195.413 71.812C194.993 72.0453 194.662 72.3813 194.419 72.82C194.186 73.2587 194.069 73.758 194.069 74.318C194.069 74.8873 194.186 75.3913 194.419 75.83C194.662 76.2593 194.993 76.5953 195.413 76.838C195.843 77.0713 196.323 77.188 196.855 77.188C197.294 77.188 197.7 77.0993 198.073 76.922C198.447 76.7447 198.755 76.474 198.997 76.11L199.739 76.614C199.45 77.09 199.053 77.454 198.549 77.706C198.045 77.9487 197.481 78.07 196.855 78.07ZM208.272 70.636V78H207.278V71.518H202.658V78H201.664V70.636H208.272ZM217.538 74.626H211.378C211.434 75.3913 211.728 76.012 212.26 76.488C212.792 76.9547 213.464 77.188 214.276 77.188C214.733 77.188 215.153 77.1087 215.536 76.95C215.918 76.782 216.25 76.5393 216.53 76.222L217.09 76.866C216.763 77.258 216.352 77.5567 215.858 77.762C215.372 77.9673 214.836 78.07 214.248 78.07C213.492 78.07 212.82 77.9113 212.232 77.594C211.653 77.2673 211.2 76.8193 210.874 76.25C210.547 75.6807 210.384 75.0367 210.384 74.318C210.384 73.5993 210.538 72.9553 210.846 72.386C211.163 71.8167 211.592 71.3733 212.134 71.056C212.684 70.7387 213.3 70.58 213.982 70.58C214.663 70.58 215.274 70.7387 215.816 71.056C216.357 71.3733 216.782 71.8167 217.09 72.386C217.398 72.946 217.552 73.59 217.552 74.318L217.538 74.626ZM213.982 71.434C213.272 71.434 212.675 71.6627 212.19 72.12C211.714 72.568 211.443 73.156 211.378 73.884H216.6C216.534 73.156 216.259 72.568 215.774 72.12C215.298 71.6627 214.7 71.434 213.982 71.434ZM222.426 74.724H220.746V78H219.752V70.636H220.746V73.87H222.44L225.03 70.636H226.108L223.21 74.206L226.318 78H225.142L222.426 74.724ZM232.916 71.518H230.13V78H229.136V71.518H226.35V70.636H232.916V71.518ZM233.809 76.544C234.023 76.544 234.201 76.6187 234.341 76.768C234.481 76.908 234.551 77.0853 234.551 77.3C234.551 77.412 234.532 77.5333 234.495 77.664C234.467 77.7947 234.42 77.944 234.355 78.112L233.767 80.044H233.095L233.571 78.014C233.421 77.9673 233.3 77.8833 233.207 77.762C233.113 77.6313 233.067 77.4773 233.067 77.3C233.067 77.0853 233.137 76.908 233.277 76.768C233.417 76.6187 233.594 76.544 233.809 76.544ZM76.42 94.104V95H69.546V94.286L73.62 90.296C74.1333 89.792 74.4787 89.358 74.656 88.994C74.8427 88.6207 74.936 88.2473 74.936 87.874C74.936 87.2953 74.7353 86.8473 74.334 86.53C73.942 86.2033 73.3773 86.04 72.64 86.04C71.492 86.04 70.6007 86.404 69.966 87.132L69.252 86.516C69.6347 86.068 70.12 85.7227 70.708 85.48C71.3053 85.2373 71.9773 85.116 72.724 85.116C73.7227 85.116 74.5113 85.354 75.09 85.83C75.678 86.2967 75.972 86.9407 75.972 87.762C75.972 88.266 75.86 88.7513 75.636 89.218C75.412 89.6847 74.9873 90.2213 74.362 90.828L71.03 94.104H76.42ZM81.3638 83.212H82.2738L77.6538 96.4H76.7437L81.3638 83.212ZM85.651 85.2V95H84.643V86.096H82.333V85.2H85.651ZM95.4237 95.07C94.6957 95.07 94.0424 94.9113 93.4637 94.594C92.8944 94.2767 92.4464 93.8333 92.1197 93.264C91.793 92.6853 91.6297 92.0367 91.6297 91.318C91.6297 90.5993 91.793 89.9553 92.1197 89.386C92.4464 88.8167 92.8944 88.3733 93.4637 88.056C94.0424 87.7387 94.6957 87.58 95.4237 87.58C96.0584 87.58 96.623 87.706 97.1177 87.958C97.6217 88.2007 98.0184 88.56 98.3077 89.036L97.5657 89.54C97.323 89.176 97.015 88.9053 96.6417 88.728C96.2684 88.5413 95.8624 88.448 95.4237 88.448C94.8917 88.448 94.411 88.5693 93.9817 88.812C93.5617 89.0453 93.2304 89.3813 92.9877 89.82C92.7544 90.2587 92.6377 90.758 92.6377 91.318C92.6377 91.8873 92.7544 92.3913 92.9877 92.83C93.2304 93.2593 93.5617 93.5953 93.9817 93.838C94.411 94.0713 94.8917 94.188 95.4237 94.188C95.8624 94.188 96.2684 94.0993 96.6417 93.922C97.015 93.7447 97.323 93.474 97.5657 93.11L98.3077 93.614C98.0184 94.09 97.6217 94.454 97.1177 94.706C96.6137 94.9487 96.049 95.07 95.4237 95.07ZM105.276 88.518H102.49V95H101.496V88.518H98.7096V87.636H105.276V88.518ZM110.507 87.58C111.197 87.58 111.823 87.7387 112.383 88.056C112.943 88.364 113.381 88.8027 113.699 89.372C114.016 89.9413 114.175 90.59 114.175 91.318C114.175 92.0553 114.016 92.7087 113.699 93.278C113.381 93.8473 112.943 94.2907 112.383 94.608C111.832 94.916 111.207 95.07 110.507 95.07C109.909 95.07 109.368 94.9487 108.883 94.706C108.407 94.454 108.015 94.09 107.707 93.614V97.716H106.713V87.636H107.665V89.092C107.963 88.6067 108.355 88.2333 108.841 87.972C109.335 87.7107 109.891 87.58 110.507 87.58ZM110.437 94.188C110.95 94.188 111.417 94.0713 111.837 93.838C112.257 93.5953 112.583 93.2547 112.817 92.816C113.059 92.3773 113.181 91.878 113.181 91.318C113.181 90.758 113.059 90.2633 112.817 89.834C112.583 89.3953 112.257 89.0547 111.837 88.812C111.417 88.5693 110.95 88.448 110.437 88.448C109.914 88.448 109.443 88.5693 109.023 88.812C108.612 89.0547 108.285 89.3953 108.043 89.834C107.809 90.2633 107.693 90.758 107.693 91.318C107.693 91.878 107.809 92.3773 108.043 92.816C108.285 93.2547 108.612 93.5953 109.023 93.838C109.443 94.0713 109.914 94.188 110.437 94.188ZM119.348 95.07C118.639 95.07 118 94.9113 117.43 94.594C116.861 94.2673 116.413 93.8193 116.086 93.25C115.76 92.6807 115.596 92.0367 115.596 91.318C115.596 90.5993 115.76 89.9553 116.086 89.386C116.413 88.8167 116.861 88.3733 117.43 88.056C118 87.7387 118.639 87.58 119.348 87.58C120.058 87.58 120.697 87.7387 121.266 88.056C121.836 88.3733 122.279 88.8167 122.596 89.386C122.923 89.9553 123.086 90.5993 123.086 91.318C123.086 92.0367 122.923 92.6807 122.596 93.25C122.279 93.8193 121.836 94.2673 121.266 94.594C120.697 94.9113 120.058 95.07 119.348 95.07ZM119.348 94.188C119.871 94.188 120.338 94.0713 120.748 93.838C121.168 93.5953 121.495 93.2547 121.728 92.816C121.962 92.3773 122.078 91.878 122.078 91.318C122.078 90.758 121.962 90.2587 121.728 89.82C121.495 89.3813 121.168 89.0453 120.748 88.812C120.338 88.5693 119.871 88.448 119.348 88.448C118.826 88.448 118.354 88.5693 117.934 88.812C117.524 89.0453 117.197 89.3813 116.954 89.82C116.721 90.2587 116.604 90.758 116.604 91.318C116.604 91.878 116.721 92.3773 116.954 92.816C117.197 93.2547 117.524 93.5953 117.934 93.838C118.354 94.0713 118.826 94.188 119.348 94.188ZM131.651 91.626H125.491C125.547 92.3913 125.841 93.012 126.373 93.488C126.905 93.9547 127.577 94.188 128.389 94.188C128.846 94.188 129.266 94.1087 129.649 93.95C130.032 93.782 130.363 93.5393 130.643 93.222L131.203 93.866C130.876 94.258 130.466 94.5567 129.971 94.762C129.486 94.9673 128.949 95.07 128.361 95.07C127.605 95.07 126.933 94.9113 126.345 94.594C125.766 94.2673 125.314 93.8193 124.987 93.25C124.66 92.6807 124.497 92.0367 124.497 91.318C124.497 90.5993 124.651 89.9553 124.959 89.386C125.276 88.8167 125.706 88.3733 126.247 88.056C126.798 87.7387 127.414 87.58 128.095 87.58C128.776 87.58 129.388 87.7387 129.929 88.056C130.47 88.3733 130.895 88.8167 131.203 89.386C131.511 89.946 131.665 90.59 131.665 91.318L131.651 91.626ZM128.095 88.434C127.386 88.434 126.788 88.6627 126.303 89.12C125.827 89.568 125.556 90.156 125.491 90.884H130.713C130.648 90.156 130.372 89.568 129.887 89.12C129.411 88.6627 128.814 88.434 128.095 88.434ZM133.865 87.636H134.859V90.898H139.493V87.636H140.487V95H139.493V91.752H134.859V95H133.865V87.636ZM143.312 87.636H144.306V93.488L149.22 87.636H150.102V95H149.108V89.148L144.208 95H143.312V87.636ZM159.391 91.626H153.231C153.287 92.3913 153.581 93.012 154.113 93.488C154.645 93.9547 155.317 94.188 156.129 94.188C156.586 94.188 157.006 94.1087 157.389 93.95C157.772 93.782 158.103 93.5393 158.383 93.222L158.943 93.866C158.616 94.258 158.206 94.5567 157.711 94.762C157.226 94.9673 156.689 95.07 156.101 95.07C155.345 95.07 154.673 94.9113 154.085 94.594C153.506 94.2673 153.054 93.8193 152.727 93.25C152.4 92.6807 152.237 92.0367 152.237 91.318C152.237 90.5993 152.391 89.9553 152.699 89.386C153.016 88.8167 153.446 88.3733 153.987 88.056C154.538 87.7387 155.154 87.58 155.835 87.58C156.516 87.58 157.128 87.7387 157.669 88.056C158.21 88.3733 158.635 88.8167 158.943 89.386C159.251 89.946 159.405 90.59 159.405 91.318L159.391 91.626ZM155.835 88.434C155.126 88.434 154.528 88.6627 154.043 89.12C153.567 89.568 153.296 90.156 153.231 90.884H158.453C158.388 90.156 158.112 89.568 157.627 89.12C157.151 88.6627 156.554 88.434 155.835 88.434ZM168.643 89.134C169.287 89.134 169.857 89.2553 170.351 89.498C170.855 89.7407 171.247 90.086 171.527 90.534C171.807 90.9727 171.947 91.486 171.947 92.074C171.947 92.6713 171.803 93.1987 171.513 93.656C171.224 94.1133 170.823 94.468 170.309 94.72C169.805 94.9627 169.236 95.084 168.601 95.084C167.304 95.084 166.31 94.6593 165.619 93.81C164.929 92.9513 164.583 91.7427 164.583 90.184C164.583 89.092 164.77 88.168 165.143 87.412C165.517 86.656 166.039 86.0867 166.711 85.704C167.383 85.312 168.167 85.116 169.063 85.116C170.034 85.116 170.809 85.2933 171.387 85.648L170.981 86.46C170.515 86.152 169.88 85.998 169.077 85.998C167.995 85.998 167.145 86.3433 166.529 87.034C165.913 87.7153 165.605 88.7093 165.605 90.016C165.605 90.2493 165.619 90.5153 165.647 90.814C165.89 90.282 166.277 89.8713 166.809 89.582C167.341 89.2833 167.953 89.134 168.643 89.134ZM168.559 94.23C169.269 94.23 169.843 94.0387 170.281 93.656C170.729 93.264 170.953 92.746 170.953 92.102C170.953 91.458 170.729 90.9447 170.281 90.562C169.843 90.1793 169.245 89.988 168.489 89.988C167.995 89.988 167.556 90.0813 167.173 90.268C166.8 90.4547 166.506 90.7113 166.291 91.038C166.077 91.3647 165.969 91.7287 165.969 92.13C165.969 92.5033 166.067 92.8487 166.263 93.166C166.469 93.4833 166.767 93.74 167.159 93.936C167.551 94.132 168.018 94.23 168.559 94.23ZM174.021 93.544C174.236 93.544 174.413 93.6187 174.553 93.768C174.693 93.908 174.763 94.0853 174.763 94.3C174.763 94.412 174.745 94.5333 174.707 94.664C174.679 94.7947 174.633 94.944 174.567 95.112L173.979 97.044H173.307L173.783 95.014C173.634 94.9673 173.513 94.8833 173.419 94.762C173.326 94.6313 173.279 94.4773 173.279 94.3C173.279 94.0853 173.349 93.908 173.489 93.768C173.629 93.6187 173.807 93.544 174.021 93.544ZM190.984 85.2V95H189.99V87.16L186.14 93.754H185.65L181.8 87.202V95H180.806V85.2H181.66L185.916 92.466L190.13 85.2H190.984ZM197.087 95.07C196.377 95.07 195.738 94.9113 195.169 94.594C194.599 94.2673 194.151 93.8193 193.825 93.25C193.498 92.6807 193.335 92.0367 193.335 91.318C193.335 90.5993 193.498 89.9553 193.825 89.386C194.151 88.8167 194.599 88.3733 195.169 88.056C195.738 87.7387 196.377 87.58 197.087 87.58C197.796 87.58 198.435 87.7387 199.005 88.056C199.574 88.3733 200.017 88.8167 200.335 89.386C200.661 89.9553 200.825 90.5993 200.825 91.318C200.825 92.0367 200.661 92.6807 200.335 93.25C200.017 93.8193 199.574 94.2673 199.005 94.594C198.435 94.9113 197.796 95.07 197.087 95.07ZM197.087 94.188C197.609 94.188 198.076 94.0713 198.487 93.838C198.907 93.5953 199.233 93.2547 199.467 92.816C199.7 92.3773 199.817 91.878 199.817 91.318C199.817 90.758 199.7 90.2587 199.467 89.82C199.233 89.3813 198.907 89.0453 198.487 88.812C198.076 88.5693 197.609 88.448 197.087 88.448C196.564 88.448 196.093 88.5693 195.673 88.812C195.262 89.0453 194.935 89.3813 194.693 89.82C194.459 90.2587 194.343 90.758 194.343 91.318C194.343 91.878 194.459 92.3773 194.693 92.816C194.935 93.2547 195.262 93.5953 195.673 93.838C196.093 94.0713 196.564 94.188 197.087 94.188ZM206.029 95.07C205.301 95.07 204.648 94.9113 204.069 94.594C203.5 94.2767 203.052 93.8333 202.725 93.264C202.398 92.6853 202.235 92.0367 202.235 91.318C202.235 90.5993 202.398 89.9553 202.725 89.386C203.052 88.8167 203.5 88.3733 204.069 88.056C204.648 87.7387 205.301 87.58 206.029 87.58C206.664 87.58 207.228 87.706 207.723 87.958C208.227 88.2007 208.624 88.56 208.913 89.036L208.171 89.54C207.928 89.176 207.62 88.9053 207.247 88.728C206.874 88.5413 206.468 88.448 206.029 88.448C205.497 88.448 205.016 88.5693 204.587 88.812C204.167 89.0453 203.836 89.3813 203.593 89.82C203.36 90.2587 203.243 90.758 203.243 91.318C203.243 91.8873 203.36 92.3913 203.593 92.83C203.836 93.2593 204.167 93.5953 204.587 93.838C205.016 94.0713 205.497 94.188 206.029 94.188C206.468 94.188 206.874 94.0993 207.247 93.922C207.62 93.7447 207.928 93.474 208.171 93.11L208.913 93.614C208.624 94.09 208.227 94.454 207.723 94.706C207.219 94.9487 206.654 95.07 206.029 95.07ZM213.512 91.724H211.832V95H210.838V87.636H211.832V90.87H213.526L216.116 87.636H217.194L214.296 91.206L217.404 95H216.228L213.512 91.724ZM223.663 91.192C224.661 91.4253 225.161 92.0273 225.161 92.998C225.161 93.642 224.923 94.1367 224.447 94.482C223.971 94.8273 223.261 95 222.319 95H218.973V87.636H222.221C223.061 87.636 223.719 87.7993 224.195 88.126C224.671 88.4527 224.909 88.9193 224.909 89.526C224.909 89.9273 224.797 90.2727 224.573 90.562C224.358 90.842 224.055 91.052 223.663 91.192ZM219.939 90.912H222.151C222.72 90.912 223.154 90.8047 223.453 90.59C223.761 90.3753 223.915 90.0627 223.915 89.652C223.915 89.2413 223.761 88.9333 223.453 88.728C223.154 88.5227 222.72 88.42 222.151 88.42H219.939V90.912ZM222.277 94.216C222.911 94.216 223.387 94.1133 223.705 93.908C224.022 93.7027 224.181 93.3807 224.181 92.942C224.181 92.5033 224.036 92.1813 223.747 91.976C223.457 91.7613 223 91.654 222.375 91.654H219.939V94.216H222.277ZM230.024 87.58C230.986 87.58 231.723 87.8227 232.236 88.308C232.75 88.784 233.006 89.4933 233.006 90.436V95H232.054V93.852C231.83 94.2347 231.499 94.5333 231.06 94.748C230.631 94.9627 230.118 95.07 229.52 95.07C228.699 95.07 228.046 94.874 227.56 94.482C227.075 94.09 226.832 93.572 226.832 92.928C226.832 92.3027 227.056 91.7987 227.504 91.416C227.962 91.0333 228.685 90.842 229.674 90.842H232.012V90.394C232.012 89.7593 231.835 89.2787 231.48 88.952C231.126 88.616 230.608 88.448 229.926 88.448C229.46 88.448 229.012 88.5273 228.582 88.686C228.153 88.8353 227.784 89.0453 227.476 89.316L227.028 88.574C227.402 88.2567 227.85 88.014 228.372 87.846C228.895 87.6687 229.446 87.58 230.024 87.58ZM229.674 94.286C230.234 94.286 230.715 94.16 231.116 93.908C231.518 93.6467 231.816 93.2733 232.012 92.788V91.584H229.702C228.442 91.584 227.812 92.0227 227.812 92.9C227.812 93.3293 227.976 93.67 228.302 93.922C228.629 94.1647 229.086 94.286 229.674 94.286Z" fill="#131313"/>
<path d="M81.266 59L81.248 50.648L77.108 57.56H76.064L71.924 50.756V59H69.692V46.4H71.618L76.622 54.752L81.536 46.4H83.462L83.48 59H81.266ZM90.3394 49.28C91.7554 49.28 92.8354 49.622 93.5794 50.306C94.3354 50.978 94.7134 51.998 94.7134 53.366V59H92.5894V57.83C92.3134 58.25 91.9174 58.574 91.4014 58.802C90.8974 59.018 90.2854 59.126 89.5654 59.126C88.8454 59.126 88.2154 59.006 87.6754 58.766C87.1354 58.514 86.7154 58.172 86.4154 57.74C86.1274 57.296 85.9834 56.798 85.9834 56.246C85.9834 55.382 86.3014 54.692 86.9374 54.176C87.5854 53.648 88.5994 53.384 89.9794 53.384H92.4634V53.24C92.4634 52.568 92.2594 52.052 91.8514 51.692C91.4554 51.332 90.8614 51.152 90.0694 51.152C89.5294 51.152 88.9954 51.236 88.4674 51.404C87.9514 51.572 87.5134 51.806 87.1534 52.106L86.2714 50.468C86.7754 50.084 87.3814 49.79 88.0894 49.586C88.7974 49.382 89.5474 49.28 90.3394 49.28ZM90.0334 57.488C90.5974 57.488 91.0954 57.362 91.5274 57.11C91.9714 56.846 92.2834 56.474 92.4634 55.994V54.878H90.1414C88.8454 54.878 88.1974 55.304 88.1974 56.156C88.1974 56.564 88.3594 56.888 88.6834 57.128C89.0074 57.368 89.4574 57.488 90.0334 57.488ZM99.743 50.792C100.391 49.784 101.531 49.28 103.163 49.28V51.422C102.971 51.386 102.797 51.368 102.641 51.368C101.765 51.368 101.081 51.626 100.589 52.142C100.097 52.646 99.851 53.378 99.851 54.338V59H97.601V49.388H99.743V50.792ZM109.304 59.126C108.332 59.126 107.456 58.916 106.676 58.496C105.896 58.076 105.284 57.494 104.84 56.75C104.408 55.994 104.192 55.142 104.192 54.194C104.192 53.246 104.408 52.4 104.84 51.656C105.284 50.912 105.896 50.33 106.676 49.91C107.456 49.49 108.332 49.28 109.304 49.28C110.288 49.28 111.17 49.49 111.95 49.91C112.73 50.33 113.336 50.912 113.768 51.656C114.212 52.4 114.434 53.246 114.434 54.194C114.434 55.142 114.212 55.994 113.768 56.75C113.336 57.494 112.73 58.076 111.95 58.496C111.17 58.916 110.288 59.126 109.304 59.126ZM109.304 57.2C110.132 57.2 110.816 56.924 111.356 56.372C111.896 55.82 112.166 55.094 112.166 54.194C112.166 53.294 111.896 52.568 111.356 52.016C110.816 51.464 110.132 51.188 109.304 51.188C108.476 51.188 107.792 51.464 107.252 52.016C106.724 52.568 106.46 53.294 106.46 54.194C106.46 55.094 106.724 55.82 107.252 56.372C107.792 56.924 108.476 57.2 109.304 57.2ZM120.905 59.126C119.933 59.126 119.057 58.916 118.277 58.496C117.497 58.076 116.885 57.494 116.441 56.75C116.009 55.994 115.793 55.142 115.793 54.194C115.793 53.246 116.009 52.4 116.441 51.656C116.885 50.912 117.497 50.33 118.277 49.91C119.057 49.49 119.933 49.28 120.905 49.28C121.889 49.28 122.771 49.49 123.551 49.91C124.331 50.33 124.937 50.912 125.369 51.656C125.813 52.4 126.035 53.246 126.035 54.194C126.035 55.142 125.813 55.994 125.369 56.75C124.937 57.494 124.331 58.076 123.551 58.496C122.771 58.916 121.889 59.126 120.905 59.126ZM120.905 57.2C121.733 57.2 122.417 56.924 122.957 56.372C123.497 55.82 123.767 55.094 123.767 54.194C123.767 53.294 123.497 52.568 122.957 52.016C122.417 51.464 121.733 51.188 120.905 51.188C120.077 51.188 119.393 51.464 118.853 52.016C118.325 52.568 118.061 53.294 118.061 54.194C118.061 55.094 118.325 55.82 118.853 56.372C119.393 56.924 120.077 57.2 120.905 57.2ZM133.641 49.28C134.853 49.28 135.825 49.634 136.557 50.342C137.289 51.05 137.655 52.1 137.655 53.492V59H135.405V53.78C135.405 52.94 135.207 52.31 134.811 51.89C134.415 51.458 133.851 51.242 133.119 51.242C132.291 51.242 131.637 51.494 131.157 51.998C130.677 52.49 130.437 53.204 130.437 54.14V59H128.187V49.388H130.329V50.63C130.701 50.186 131.169 49.85 131.733 49.622C132.297 49.394 132.933 49.28 133.641 49.28Z" fill="#131313"/>
<path fill-rule="evenodd" clip-rule="evenodd" d="M213.247 19.66C212.044 20.8481 210.525 21.6992 208.5 21.6992C206.475 21.6992 204.956 20.8481 203.753 19.6599C202.606 18.5271 201.706 17.0457 200.889 15.6998L200.852 15.6395C199.992 14.224 199.214 12.9557 198.269 12.0225C197.363 11.1278 196.35 10.5901 195 10.5901C193.65 10.5901 192.637 11.1278 191.731 12.0225C190.786 12.9557 190.008 14.224 189.148 15.6395L189.111 15.6999C188.294 17.0457 187.394 18.5271 186.247 19.6599C185.044 20.8481 183.525 21.6992 181.5 21.6992C179.474 21.6992 177.955 20.8483 176.751 19.66C175.603 18.5267 174.703 17.0443 173.885 15.6978L173.849 15.6395C172.989 14.2239 172.212 12.9556 171.267 12.0224C170.361 11.1276 169.349 10.5901 168 10.5901C166.65 10.5901 165.637 11.1278 164.731 12.0225C163.786 12.9557 163.008 14.224 162.148 15.6395L162.111 15.6998C161.294 17.0457 160.394 18.5271 159.247 19.6599C158.044 20.8481 156.525 21.6992 154.5 21.6992C152.474 21.6992 150.955 20.8483 149.751 19.66C148.603 18.5267 147.703 17.0443 146.885 15.6978L146.849 15.6395C145.989 14.2239 145.212 12.9556 144.267 12.0224C143.361 11.1276 142.349 10.5901 141 10.5901V8.4927C143.025 8.4927 144.544 9.34384 145.747 10.5321C146.894 11.6648 147.794 13.1463 148.611 14.4922L148.648 14.5525C149.508 15.9679 150.286 17.2362 151.231 18.1694C152.137 19.0641 153.15 19.6018 154.5 19.6018C155.849 19.6018 156.861 19.0643 157.767 18.1696C158.712 17.2363 159.489 15.968 160.349 14.5525L160.385 14.4941C161.203 13.1476 162.103 11.6653 163.251 10.5319C164.455 9.34366 165.974 8.4927 168 8.4927C170.025 8.4927 171.544 9.34384 172.747 10.5321C173.894 11.6648 174.794 13.1463 175.611 14.4921L175.648 14.5525C176.508 15.9679 177.286 17.2362 178.231 18.1694C179.137 19.0641 180.15 19.6018 181.5 19.6018C182.849 19.6018 183.861 19.0643 184.767 18.1696C185.712 17.2363 186.489 15.968 187.349 14.5525L187.385 14.494C188.203 13.1476 189.103 11.6652 190.251 10.5319C191.455 9.34366 192.974 8.4927 195 8.4927C197.026 8.4927 198.545 9.34366 199.749 10.5319C200.897 11.6653 201.797 13.1476 202.615 14.4941L202.651 14.5525C203.511 15.968 204.288 17.2363 205.233 18.1696C206.139 19.0643 207.151 19.6018 208.5 19.6018C209.849 19.6018 210.861 19.0643 211.767 18.1695C212.713 17.2362 213.49 15.9678 214.351 14.5523C214.363 14.5326 214.375 14.5128 214.387 14.493C215.205 13.1468 216.105 11.665 217.253 10.532C218.456 9.34381 219.975 8.4927 222 8.4927V10.5901C220.651 10.5901 219.639 11.1277 218.733 12.0225C217.787 12.9557 217.01 14.2241 216.149 15.6396C216.137 15.6593 216.125 15.6791 216.113 15.6989C215.295 17.0451 214.395 18.5269 213.247 19.66Z" fill="#75B875"/>
<path fill-rule="evenodd" clip-rule="evenodd" d="M132.247 19.66C131.044 20.8481 129.525 21.6992 127.5 21.6992C125.475 21.6992 123.956 20.8481 122.753 19.6599C121.606 18.5271 120.706 17.0457 119.889 15.6998L119.852 15.6395C118.992 14.224 118.214 12.9557 117.269 12.0225C116.363 11.1278 115.35 10.5901 114 10.5901C112.65 10.5901 111.637 11.1278 110.731 12.0225C109.786 12.9557 109.008 14.224 108.148 15.6395L108.111 15.6999C107.294 17.0457 106.394 18.5271 105.247 19.6599C104.044 20.8481 102.525 21.6992 100.5 21.6992C98.4738 21.6992 96.955 20.8483 95.7514 19.66C94.6034 18.5267 93.7028 17.0443 92.8848 15.6978L92.8493 15.6395C91.9892 14.2239 91.2117 12.9556 90.2668 12.0224C89.361 11.1276 88.3486 10.5901 87 10.5901C85.6503 10.5901 84.6372 11.1278 83.7309 12.0225C82.7857 12.9557 82.0079 14.224 81.1479 15.6395L81.1112 15.6998C80.2936 17.0457 79.3936 18.5271 78.2467 19.6599C77.0437 20.8481 75.5255 21.6992 73.5 21.6992C71.4738 21.6992 69.955 20.8483 68.7514 19.66C67.6034 18.5267 66.7028 17.0443 65.8848 15.6978L65.8493 15.6395C64.9892 14.2239 64.2117 12.9556 63.2668 12.0224C62.361 11.1276 61.3486 10.5901 60 10.5901V8.4927C62.0255 8.4927 63.5437 9.34384 64.7467 10.5321C65.8936 11.6648 66.7936 13.1463 67.6113 14.4922L67.6479 14.5525C68.5079 15.9679 69.2857 17.2362 70.2309 18.1694C71.1372 19.0641 72.1503 19.6018 73.5 19.6018C74.8486 19.6018 75.861 19.0643 76.7668 18.1696C77.7117 17.2363 78.4892 15.968 79.3493 14.5525L79.3848 14.4941C80.2028 13.1476 81.1034 11.6653 82.2514 10.5319C83.455 9.34366 84.9738 8.4927 87 8.4927C89.0255 8.4927 90.5437 9.34384 91.7467 10.5321C92.8936 11.6648 93.7936 13.1463 94.6113 14.4921L94.6479 14.5525C95.5079 15.9679 96.2857 17.2362 97.2309 18.1694C98.1372 19.0641 99.1503 19.6018 100.5 19.6018C101.849 19.6018 102.861 19.0643 103.767 18.1696C104.712 17.2363 105.489 15.968 106.349 14.5525L106.385 14.494C107.203 13.1476 108.103 11.6652 109.251 10.5319C110.455 9.34366 111.974 8.4927 114 8.4927C116.026 8.4927 117.545 9.34366 118.749 10.5319C119.897 11.6653 120.797 13.1476 121.615 14.4941L121.651 14.5525C122.511 15.968 123.288 17.2363 124.233 18.1696C125.139 19.0643 126.151 19.6018 127.5 19.6018C128.849 19.6018 129.861 19.0643 130.767 18.1695C131.713 17.2362 132.49 15.9678 133.351 14.5523C133.363 14.5326 133.375 14.5128 133.387 14.493C134.205 13.1468 135.105 11.665 136.253 10.532C137.456 9.34381 138.975 8.4927 141 8.4927V10.5901C139.651 10.5901 138.639 11.1277 137.733 12.0225C136.787 12.9557 136.01 14.2241 135.149 15.6396C135.137 15.6593 135.125 15.6791 135.113 15.6989C134.295 17.0451 133.395 18.5269 132.247 19.66Z" fill="#75B875"/>
<rect x="18" y="24" width="28" height="2" rx="1" fill="#75B875"/>
<rect x="72" y="24" width="28" height="2" rx="1" fill="#75B875"/>
<rect x="126" y="24" width="29" height="2" rx="1" fill="#75B875"/>
<rect x="181" y="24" width="28" height="2" rx="1" fill="#75B875"/>
<rect x="235" y="24" width="28" height="2" rx="1" fill="#75B875"/>
<rect x="32" y="4" width="28" height="2" rx="1" fill="#75B875"/>
<rect x="86" y="4" width="28" height="2" rx="1" fill="#75B875"/>
<rect x="140" y="4" width="29" height="2" rx="1" fill="#75B875"/>
<rect x="195" y="4" width="28" height="2" rx="1" fill="#75B875"/>
<rect x="249" y="4" width="28" height="2" rx="1" fill="#75B875"/>
<circle cx="33" cy="17.5" r="2.5" fill="#75B875"/>
<circle cx="87" cy="17.5" r="2.5" fill="#75B875"/>
<circle cx="141" cy="17.5" r="2.5" fill="#75B875"/>
<circle cx="195" cy="17.5" r="2.5" fill="#75B875"/>
<circle cx="249" cy="17.5" r="2.5" fill="#75B875"/>
<circle cx="46.5" cy="12.5" r="2.5" fill="#75B875"/>
<circle cx="100.5" cy="12.5" r="2.5" fill="#75B875"/>
<circle cx="154.5" cy="12.5" r="2.5" fill="#75B875"/>
<circle cx="208.5" cy="12.5" r="2.5" fill="#75B875"/>
<circle cx="262.5" cy="12.5" r="2.5" fill="#75B875"/>
<path d="M288 25C288 24.4477 288.448 24 289 24H294V26H289C288.448 26 288 25.5523 288 25V25Z" fill="#75B875"/>
<path fill-rule="evenodd" clip-rule="evenodd" d="M294 16.68C293.609 17.2386 293.206 17.7437 292.767 18.1768C291.861 19.0716 290.849 19.6091 289.5 19.6091C288.151 19.6091 287.139 19.0716 286.233 18.1769C285.288 17.2436 284.511 15.9753 283.651 14.5598L283.615 14.5014C282.797 13.1549 281.897 11.6726 280.749 10.5392C279.545 9.35097 278.026 8.5 276 8.5C273.974 8.5 272.455 9.35097 271.251 10.5392C270.103 11.6725 269.203 13.1549 268.385 14.5013L268.349 14.5598C267.489 15.9753 266.712 17.2436 265.767 18.1769C264.861 19.0716 263.849 19.6091 262.5 19.6091C261.15 19.6091 260.137 19.0714 259.231 18.1767C258.286 17.2435 257.508 15.9752 256.648 14.5598L256.611 14.4994C255.794 13.1536 254.894 11.6721 253.747 10.5394C252.544 9.35114 251.025 8.5 249 8.5C246.974 8.5 245.455 9.35097 244.251 10.5392C243.103 11.6726 242.203 13.1549 241.385 14.5014L241.349 14.5598C240.489 15.9753 239.712 17.2436 238.767 18.1769C237.861 19.0716 236.849 19.6091 235.5 19.6091C234.15 19.6091 233.137 19.0714 232.231 18.1767C231.286 17.2435 230.508 15.9752 229.648 14.5598L229.611 14.4995L229.611 14.4994C228.794 13.1536 227.894 11.6721 226.747 10.5394C225.544 9.35114 224.025 8.5 222 8.5V10.5974C223.349 10.5974 224.361 11.1349 225.267 12.0297C226.212 12.9629 226.989 14.2313 227.849 15.6468L227.885 15.7051L227.885 15.7052C228.703 17.0516 229.603 18.534 230.751 19.6673C231.955 20.8556 233.474 21.7065 235.5 21.7065C237.525 21.7065 239.044 20.8554 240.247 19.6672C241.394 18.5344 242.294 17.053 243.111 15.7071L243.148 15.6468C244.008 14.2314 244.786 12.963 245.731 12.0298C246.637 11.1351 247.65 10.5974 249 10.5974C250.349 10.5974 251.361 11.1349 252.267 12.0297C253.212 12.9629 253.989 14.2313 254.849 15.6468L254.885 15.7051C255.703 17.0516 256.603 18.534 257.751 19.6673C258.955 20.8556 260.474 21.7065 262.5 21.7065C264.525 21.7065 266.044 20.8554 267.247 19.6672C268.394 18.5344 269.294 17.053 270.111 15.7072L270.148 15.6468C271.008 14.2314 271.786 12.963 272.731 12.0298C273.637 11.1351 274.65 10.5974 276 10.5974C277.35 10.5974 278.363 11.1351 279.269 12.0298C280.214 12.963 280.992 14.2314 281.852 15.6468L281.889 15.7071C282.706 17.053 283.606 18.5344 284.753 19.6672C285.956 20.8554 287.475 21.7065 289.5 21.7065C291.389 21.7065 292.837 20.966 294 19.9023V16.68Z" fill="#75B875"/>
<path fill-rule="evenodd" clip-rule="evenodd" d="M10.2826 13.2249C10.8129 13.9454 11.3152 14.7677 11.8493 15.6468L11.8847 15.7051C12.7028 17.0516 13.6034 18.534 14.7513 19.6673C15.9549 20.8556 17.4738 21.7065 19.5 21.7065C21.5254 21.7065 23.0436 20.8554 24.2467 19.6672C25.3935 18.5344 26.2935 17.053 27.1112 15.7072L27.1479 15.6468C28.0079 14.2314 28.7856 12.963 29.7309 12.0298C30.6371 11.1351 31.6502 10.5974 33 10.5974C34.3497 10.5974 35.3628 11.1351 36.269 12.0298C37.2143 12.963 37.992 14.2314 38.852 15.6468L38.8887 15.7071C39.7063 17.053 40.6064 18.5344 41.7532 19.6672C42.9563 20.8554 44.4745 21.7065 46.5 21.7065C48.5254 21.7065 50.0438 20.8554 51.2471 19.6673C52.3945 18.5342 53.295 17.0524 54.1131 15.7062L54.1492 15.6469C55.0095 14.2314 55.7873 12.963 56.7325 12.0298C57.6387 11.135 58.6513 10.5974 60 10.5974V8.5C57.9745 8.5 56.4561 9.35112 55.2528 10.5393C54.1054 11.6723 53.2049 13.1541 52.3868 14.5003L52.3507 14.5597C51.4904 15.9751 50.7126 17.2435 49.7674 18.1768C48.8612 19.0716 47.8486 19.6091 46.5 19.6091C45.1513 19.6091 44.139 19.0716 43.2331 18.1769C42.2882 17.2436 41.5107 15.9753 40.6506 14.5598L40.6152 14.5014C39.7971 13.1549 38.8965 11.6726 37.7486 10.5392C36.545 9.35097 35.0261 8.5 33 8.5C30.9738 8.5 29.4549 9.35097 28.2513 10.5392C27.1034 11.6725 26.2028 13.1549 25.3848 14.5013L25.3848 14.5013L25.3493 14.5598C24.4892 15.9753 23.7117 17.2436 22.7668 18.1769C21.8609 19.0716 20.8486 19.6091 19.5 19.6091C18.1502 19.6091 17.1371 19.0714 16.2309 18.1767C15.2856 17.2435 14.5079 15.9752 13.6479 14.5598L13.6112 14.4994C13.0477 13.5719 12.445 12.5799 11.7494 11.682C11.247 12.1832 10.7579 12.6977 10.2826 13.2249Z" fill="#75B875"/>
<path fill-rule="evenodd" clip-rule="evenodd" d="M80.7529 121.34C81.9562 120.152 83.4746 119.301 85.5 119.301C87.5255 119.301 89.0437 120.152 90.2467 121.34C91.3936 122.473 92.2936 123.954 93.1113 125.3L93.1479 125.361C94.0079 126.776 94.7857 128.044 95.7309 128.977C96.6372 129.872 97.6503 130.41 99 130.41C100.35 130.41 101.363 129.872 102.269 128.977C103.214 128.044 103.992 126.776 104.852 125.361L104.889 125.3C105.706 123.954 106.606 122.473 107.753 121.34C108.956 120.152 110.475 119.301 112.5 119.301C114.526 119.301 116.045 120.152 117.249 121.34C118.397 122.473 119.297 123.956 120.115 125.302L120.151 125.361C121.011 126.776 121.788 128.044 122.733 128.978C123.639 129.872 124.651 130.41 126 130.41C127.35 130.41 128.363 129.872 129.269 128.977C130.214 128.044 130.992 126.776 131.852 125.361L131.889 125.3C132.706 123.954 133.606 122.473 134.753 121.34C135.956 120.152 137.475 119.301 139.5 119.301C141.526 119.301 143.045 120.152 144.249 121.34C145.397 122.473 146.297 123.956 147.115 125.302L147.151 125.361C148.011 126.776 148.788 128.044 149.733 128.978C150.639 129.872 151.651 130.41 153 130.41V132.507C150.975 132.507 149.456 131.656 148.253 130.468C147.106 129.335 146.206 127.854 145.389 126.508L145.352 126.448C144.492 125.032 143.714 123.764 142.769 122.831C141.863 121.936 140.85 121.398 139.5 121.398C138.151 121.398 137.139 121.936 136.233 122.83C135.288 123.764 134.511 125.032 133.651 126.448L133.615 126.506C132.797 127.852 131.897 129.335 130.749 130.468C129.545 131.656 128.026 132.507 126 132.507C123.975 132.507 122.456 131.656 121.253 130.468C120.106 129.335 119.206 127.854 118.389 126.508L118.352 126.448C117.492 125.032 116.714 123.764 115.769 122.831C114.863 121.936 113.85 121.398 112.5 121.398C111.151 121.398 110.139 121.936 109.233 122.83C108.288 123.764 107.511 125.032 106.651 126.448L106.615 126.506C105.797 127.852 104.897 129.335 103.749 130.468C102.545 131.656 101.026 132.507 99 132.507C96.9738 132.507 95.455 131.656 94.2514 130.468C93.1034 129.335 92.2028 127.852 91.3848 126.506L91.3493 126.448C90.4892 125.032 89.7117 123.764 88.7669 122.83C87.861 121.936 86.8486 121.398 85.5 121.398C84.1513 121.398 83.1387 121.936 82.2325 122.831C81.2874 123.764 80.5095 125.032 79.6492 126.448C79.6372 126.467 79.6252 126.487 79.6132 126.507C78.7951 127.853 77.8946 129.335 76.7471 130.468C75.5438 131.656 74.0254 132.507 72 132.507V130.41C73.3487 130.41 74.3613 129.872 75.2675 128.978C76.2126 128.044 76.9905 126.776 77.8508 125.36C77.8628 125.341 77.8748 125.321 77.8868 125.301C78.7049 123.955 79.6054 122.473 80.7529 121.34Z" fill="#75B875"/>
<path fill-rule="evenodd" clip-rule="evenodd" d="M161.753 121.34C162.956 120.152 164.475 119.301 166.5 119.301C168.525 119.301 170.044 120.152 171.247 121.34C172.394 122.473 173.294 123.954 174.111 125.3L174.148 125.361C175.008 126.776 175.786 128.044 176.731 128.977C177.637 129.872 178.65 130.41 180 130.41C181.35 130.41 182.363 129.872 183.269 128.977C184.214 128.044 184.992 126.776 185.852 125.361L185.889 125.3C186.706 123.954 187.606 122.473 188.753 121.34C189.956 120.152 191.475 119.301 193.5 119.301C195.526 119.301 197.045 120.152 198.249 121.34C199.397 122.473 200.297 123.956 201.115 125.302L201.151 125.361C202.011 126.776 202.788 128.044 203.733 128.978C204.639 129.872 205.651 130.41 207 130.41C208.35 130.41 209.363 129.872 210.269 128.977C211.214 128.044 211.992 126.776 212.852 125.361L212.889 125.3C213.706 123.954 214.606 122.473 215.753 121.34C216.956 120.152 218.475 119.301 220.5 119.301C222.526 119.301 224.045 120.152 225.249 121.34C226.397 122.473 227.297 123.956 228.115 125.302L228.151 125.361C229.011 126.776 229.788 128.044 230.733 128.978C231.639 129.872 232.651 130.41 234 130.41V132.507C231.975 132.507 230.456 131.656 229.253 130.468C228.106 129.335 227.206 127.854 226.389 126.508L226.352 126.448C225.492 125.032 224.714 123.764 223.769 122.831C222.863 121.936 221.85 121.398 220.5 121.398C219.151 121.398 218.139 121.936 217.233 122.83C216.288 123.764 215.511 125.032 214.651 126.448L214.615 126.506C213.797 127.852 212.897 129.335 211.749 130.468C210.545 131.656 209.026 132.507 207 132.507C204.975 132.507 203.456 131.656 202.253 130.468C201.106 129.335 200.206 127.854 199.389 126.508L199.352 126.448C198.492 125.032 197.714 123.764 196.769 122.831C195.863 121.936 194.85 121.398 193.5 121.398C192.151 121.398 191.139 121.936 190.233 122.83C189.288 123.764 188.511 125.032 187.651 126.448L187.615 126.506C186.797 127.852 185.897 129.335 184.749 130.468C183.545 131.656 182.026 132.507 180 132.507C177.974 132.507 176.455 131.656 175.251 130.468C174.103 129.335 173.203 127.852 172.385 126.506L172.349 126.448C171.489 125.032 170.712 123.764 169.767 122.83C168.861 121.936 167.849 121.398 166.5 121.398C165.151 121.398 164.139 121.936 163.233 122.831C162.287 123.764 161.51 125.032 160.649 126.448C160.637 126.467 160.625 126.487 160.613 126.507C159.795 127.853 158.895 129.335 157.747 130.468C156.544 131.656 155.025 132.507 153 132.507V130.41C154.349 130.41 155.361 129.872 156.267 128.978C157.213 128.044 157.99 126.776 158.851 125.36C158.863 125.341 158.875 125.321 158.887 125.301C159.705 123.955 160.605 122.473 161.753 121.34Z" fill="#75B875"/>
<rect x="276" y="117" width="28" height="2" rx="1" transform="rotate(-180 276 117)" fill="#75B875"/>
<rect x="222" y="117" width="28" height="2" rx="1" transform="rotate(-180 222 117)" fill="#75B875"/>
<rect x="168" y="117" width="29" height="2" rx="1" transform="rotate(-180 168 117)" fill="#75B875"/>
<rect x="113" y="117" width="28" height="2" rx="1" transform="rotate(-180 113 117)" fill="#75B875"/>
<rect x="59" y="117" width="28" height="2" rx="1" transform="rotate(-180 59 117)" fill="#75B875"/>
<rect x="262" y="137" width="28" height="2" rx="1" transform="rotate(-180 262 137)" fill="#75B875"/>
<rect x="208" y="137" width="28" height="2" rx="1" transform="rotate(-180 208 137)" fill="#75B875"/>
<rect x="154" y="137" width="29" height="2" rx="1" transform="rotate(-180 154 137)" fill="#75B875"/>
<rect x="99" y="137" width="28" height="2" rx="1" transform="rotate(-180 99 137)" fill="#75B875"/>
<rect x="45" y="137" width="28" height="2" rx="1" transform="rotate(-180 45 137)" fill="#75B875"/>
<circle cx="261" cy="123.5" r="2.5" transform="rotate(-180 261 123.5)" fill="#75B875"/>
<circle cx="207" cy="123.5" r="2.5" transform="rotate(-180 207 123.5)" fill="#75B875"/>
<circle cx="153" cy="123.5" r="2.5" transform="rotate(-180 153 123.5)" fill="#75B875"/>
<circle cx="99" cy="123.5" r="2.5" transform="rotate(-180 99 123.5)" fill="#75B875"/>
<circle cx="45" cy="123.5" r="2.5" transform="rotate(-180 45 123.5)" fill="#75B875"/>
<circle cx="247.5" cy="128.5" r="2.5" transform="rotate(-180 247.5 128.5)" fill="#75B875"/>
<circle cx="193.5" cy="128.5" r="2.5" transform="rotate(-180 193.5 128.5)" fill="#75B875"/>
<circle cx="139.5" cy="128.5" r="2.5" transform="rotate(-180 139.5 128.5)" fill="#75B875"/>
<circle cx="85.5" cy="128.5" r="2.5" transform="rotate(-180 85.5 128.5)" fill="#75B875"/>
<circle cx="31.5" cy="128.5" r="2.5" transform="rotate(-180 31.5 128.5)" fill="#75B875"/>
<path d="M6 116C6 116.552 5.55228 117 5 117H0V115H5C5.55228 115 6 115.448 6 116V116Z" fill="#75B875"/>
<path fill-rule="evenodd" clip-rule="evenodd" d="M0 124.32C0.391457 123.761 0.793983 123.256 1.23253 122.823C2.13873 121.928 3.15134 121.391 4.5 121.391C5.84862 121.391 6.86096 121.928 7.76685 122.823C8.71172 123.756 9.48924 125.025 10.3493 126.44L10.3848 126.499C11.2028 127.845 12.1034 129.327 13.2514 130.461C14.455 131.649 15.9738 132.5 18 132.5C20.0262 132.5 21.545 131.649 22.7486 130.461C23.8966 129.327 24.7972 127.845 25.6152 126.499L25.6507 126.44C26.5108 125.025 27.2883 123.756 28.2332 122.823C29.139 121.928 30.1514 121.391 31.5 121.391C32.8497 121.391 33.8628 121.929 34.7691 122.823C35.7143 123.756 36.4921 125.025 37.3521 126.44L37.3887 126.501C38.2064 127.846 39.1064 129.328 40.2533 130.461C41.4563 131.649 42.9745 132.5 45 132.5C47.0262 132.5 48.545 131.649 49.7486 130.461C50.8966 129.327 51.7972 127.845 52.6152 126.499L52.6507 126.44C53.5108 125.025 54.2883 123.756 55.2331 122.823C56.139 121.928 57.1514 121.391 58.5 121.391C59.8497 121.391 60.8628 121.929 61.7691 122.823C62.7143 123.756 63.4921 125.025 64.3521 126.44L64.3887 126.501L64.3887 126.501C65.2064 127.846 66.1064 129.328 67.2533 130.461C68.4563 131.649 69.9745 132.5 72 132.5V130.403C70.6514 130.403 69.639 129.865 68.7332 128.97C67.7883 128.037 67.0108 126.769 66.1507 125.353L66.1152 125.295L66.1152 125.295C65.2972 123.948 64.3966 122.466 63.2486 121.333C62.045 120.144 60.5262 119.293 58.5 119.293C56.4745 119.293 54.9563 120.145 53.7533 121.333C52.6064 122.466 51.7064 123.947 50.8888 125.293L50.8521 125.353C49.9921 126.769 49.2143 128.037 48.2691 128.97C47.3628 129.865 46.3497 130.403 45 130.403C43.6514 130.403 42.639 129.865 41.7332 128.97C40.7883 128.037 40.0108 126.769 39.1507 125.353L39.1152 125.295C38.2972 123.948 37.3966 122.466 36.2486 121.333C35.045 120.144 33.5262 119.293 31.5 119.293C29.4745 119.293 27.9563 120.145 26.7533 121.333C25.6064 122.466 24.7064 123.947 23.8888 125.293L23.8521 125.353C22.9921 126.769 22.2143 128.037 21.2691 128.97C20.3628 129.865 19.3497 130.403 18 130.403C16.6503 130.403 15.6372 129.865 14.7309 128.97C13.7857 128.037 13.0079 126.769 12.1479 125.353L12.1112 125.293C11.2936 123.947 10.3936 122.466 9.24671 121.333C8.04367 120.145 6.52546 119.293 4.5 119.293C2.61079 119.293 1.1627 120.034 0 121.098V124.32Z" fill="#75B875"/>
<path fill-rule="evenodd" clip-rule="evenodd" d="M283.717 127.775C283.187 127.055 282.685 126.232 282.151 125.353L282.115 125.295C281.297 123.948 280.397 122.466 279.249 121.333C278.045 120.144 276.526 119.293 274.5 119.293C272.475 119.293 270.956 120.145 269.753 121.333C268.606 122.466 267.706 123.947 266.889 125.293L266.852 125.353C265.992 126.769 265.214 128.037 264.269 128.97C263.363 129.865 262.35 130.403 261 130.403C259.65 130.403 258.637 129.865 257.731 128.97C256.786 128.037 256.008 126.769 255.148 125.353L255.111 125.293C254.294 123.947 253.394 122.466 252.247 121.333C251.044 120.145 249.526 119.293 247.5 119.293C245.475 119.293 243.956 120.145 242.753 121.333C241.605 122.466 240.705 123.948 239.887 125.294L239.851 125.353C238.991 126.769 238.213 128.037 237.268 128.97C236.361 129.865 235.349 130.403 234 130.403V132.5C236.025 132.5 237.544 131.649 238.747 130.461C239.895 129.328 240.795 127.846 241.613 126.5L241.649 126.44C242.51 125.025 243.287 123.756 244.233 122.823C245.139 121.928 246.151 121.391 247.5 121.391C248.849 121.391 249.861 121.928 250.767 122.823C251.712 123.756 252.489 125.025 253.349 126.44L253.385 126.499C254.203 127.845 255.103 129.327 256.251 130.461C257.455 131.649 258.974 132.5 261 132.5C263.026 132.5 264.545 131.649 265.749 130.461C266.897 129.327 267.797 127.845 268.615 126.499L268.615 126.499L268.651 126.44C269.511 125.025 270.288 123.756 271.233 122.823C272.139 121.928 273.151 121.391 274.5 121.391C275.85 121.391 276.863 121.929 277.769 122.823C278.714 123.756 279.492 125.025 280.352 126.44L280.389 126.501C280.952 127.428 281.555 128.42 282.251 129.318C282.753 128.817 283.242 128.302 283.717 127.775Z" fill="#75B875"/>
<defs>
<filter id="filter0_b_1011_61355" x="-4" y="-4" width="302" height="149" filterUnits="userSpaceOnUse" color-interpolation-filters="sRGB">
<feFlood flood-opacity="0" result="BackgroundImageFix"/>
<feGaussianBlur in="BackgroundImage" stdDeviation="2"/>
<feComposite in2="SourceAlpha" operator="in" result="effect1_backgroundBlur_1011_61355"/>
<feBlend mode="normal" in="SourceGraphic" in2="effect1_backgroundBlur_1011_61355" result="shape"/>
</filter>
</defs>
</svg>
