<svg width="81" height="81" viewBox="0 0 81 81" fill="none" xmlns="http://www.w3.org/2000/svg">
<path fill-rule="evenodd" clip-rule="evenodd" d="M59.3954 40.0942C59.3954 29.3933 50.6508 20.7022 39.8438 20.7022V19.209C51.4539 19.209 60.8814 28.551 60.8814 40.0942C60.8814 51.6373 51.4539 60.9794 39.8438 60.9794V59.4861C50.6508 59.4861 59.3954 50.795 59.3954 40.0942Z" fill="#131313"/>
<path fill-rule="evenodd" clip-rule="evenodd" d="M39.7344 80.288V0.8125H41.2588V80.288H39.7344Z" fill="#131313"/>
<path fill-rule="evenodd" clip-rule="evenodd" d="M6.40625 19.209H39.8429V20.7335H6.40625V19.209Z" fill="#131313"/>
<path fill-rule="evenodd" clip-rule="evenodd" d="M0.710938 39.8389H40.5503V41.2617H0.710938V39.8389Z" fill="#131313"/>
<path fill-rule="evenodd" clip-rule="evenodd" d="M5.79688 59.4541H40.9612V60.9786H5.79688V59.4541Z" fill="#131313"/>
<path fill-rule="evenodd" clip-rule="evenodd" d="M2.90482 43.9484C3.68642 43.1562 4.6822 42.3799 6.36133 42.3799C8.36766 42.3799 9.40382 43.4941 10.2359 44.3889C10.2464 44.4002 10.2569 44.4115 10.2674 44.4227C11.1086 45.327 11.7508 45.9894 13.0772 45.9894C14.4036 45.9894 15.0457 45.327 15.887 44.4227C15.8974 44.4115 15.9079 44.4002 15.9184 44.3889C16.7505 43.4941 17.7866 42.3799 19.793 42.3799C21.8007 42.3799 22.8372 43.4945 23.6697 44.3897L23.7004 44.4227C24.5418 45.3272 25.1835 45.9894 26.5088 45.9894C27.8352 45.9894 28.4774 45.327 29.3186 44.4227L29.35 44.3889C30.1822 43.4941 31.2183 42.3799 33.2246 42.3799C35.2323 42.3799 36.2689 43.4945 37.1013 44.3897L37.132 44.4227C37.9735 45.3272 38.6151 45.9894 39.9405 45.9894V47.4614C37.9341 47.4614 36.898 46.3472 36.0659 45.4524L36.0345 45.4186C35.1932 44.5144 34.551 43.8519 33.2246 43.8519C31.8993 43.8519 31.2576 44.5141 30.4162 45.4186L30.3855 45.4516C29.5531 46.3468 28.5165 47.4614 26.5088 47.4614C24.5025 47.4614 23.4663 46.3472 22.6342 45.4524L22.6028 45.4186C21.7616 44.5144 21.1194 43.8519 19.793 43.8519C18.4676 43.8519 17.826 44.5141 16.9846 45.4186L16.9538 45.4516C16.1214 46.3468 15.0848 47.4614 13.0772 47.4614C11.0695 47.4614 10.0329 46.3468 9.20047 45.4516C9.1902 45.4406 9.17997 45.4296 9.16976 45.4186C8.32834 44.5141 7.68667 43.8519 6.36133 43.8519C5.25777 43.8519 4.62355 44.3156 3.97235 44.9757C3.8328 45.1171 3.69793 45.262 3.55457 45.4161C3.52361 45.4493 3.49226 45.483 3.46038 45.5172C3.285 45.7052 3.09706 45.904 2.89614 46.0957C2.49239 46.4811 2.0144 46.8601 1.40239 47.1206L0.8125 45.7687C1.19742 45.6049 1.52681 45.3556 1.8603 45.0373C2.02799 44.8772 2.19114 44.7053 2.36424 44.5198C2.3932 44.4887 2.42257 44.4571 2.45232 44.4252C2.59612 44.2706 2.74862 44.1067 2.90482 43.9484Z" fill="#131313"/>
<path fill-rule="evenodd" clip-rule="evenodd" d="M3.31786 48.6744C4.05325 48.007 4.98361 47.4619 6.37596 47.4619C8.38186 47.4619 9.41779 48.5984 10.2497 49.5112C10.2602 49.5227 10.2707 49.5342 10.2811 49.5456C11.1222 50.4679 11.7642 51.1436 13.0903 51.1436C14.4164 51.1436 15.0585 50.4679 15.8995 49.5456C15.91 49.5342 15.9204 49.5227 15.9309 49.5112C16.7629 48.5984 17.7988 47.4619 19.8047 47.4619C21.8119 47.4619 22.8483 48.5989 23.6806 49.5119L23.7112 49.5456C24.5525 50.4682 25.194 51.1436 26.5191 51.1436C27.8452 51.1436 28.4872 50.4679 29.3283 49.5456L29.3597 49.5112C30.1916 48.5984 31.2275 47.4619 33.2334 47.4619C35.2407 47.4619 36.277 48.5989 37.1093 49.5119L37.14 49.5456C37.9812 50.4682 38.6228 51.1436 39.9478 51.1436V52.6451C37.9419 52.6451 36.906 51.5086 36.074 50.5959L36.0426 50.5614C35.2016 49.6391 34.5595 48.9634 33.2334 48.9634C31.9084 48.9634 31.2669 49.6389 30.4256 50.5614L30.3949 50.5951C29.5626 51.5082 28.5263 52.6451 26.5191 52.6451C24.5132 52.6451 23.4772 51.5086 22.6453 50.5959L22.6139 50.5614C21.7729 49.6391 21.1308 48.9634 19.8047 48.9634C18.4796 48.9634 17.8381 49.6389 16.9969 50.5614C16.9867 50.5726 16.9764 50.5838 16.9662 50.5951C16.1339 51.5082 15.0976 52.6451 13.0903 52.6451C11.0831 52.6451 10.0467 51.5082 9.21448 50.5951C9.20422 50.5838 9.19399 50.5726 9.18378 50.5614C8.34255 49.6389 7.70102 48.9634 6.37596 48.9634C5.44273 48.9634 4.85278 49.3021 4.31515 49.79C4.06094 50.0207 3.82804 50.2759 3.56705 50.5619C3.53431 50.5978 3.50114 50.6341 3.46743 50.671C3.17578 50.9897 2.84783 51.3407 2.4666 51.6504L1.53125 50.4816C1.81823 50.2484 2.08081 49.9713 2.37177 49.6533C2.40393 49.6181 2.43657 49.5823 2.46967 49.546C2.7248 49.2662 3.00767 48.9558 3.31786 48.6744Z" fill="#131313"/>
<path fill-rule="evenodd" clip-rule="evenodd" d="M2.84375 54.2639C3.63131 53.4565 4.63351 52.6445 6.35107 52.6445C8.35794 52.6445 9.39437 53.7588 10.2267 54.6536C10.2372 54.6649 10.2477 54.6761 10.2581 54.6874C11.0996 55.5916 11.7419 56.2541 13.0687 56.2541C14.3954 56.2541 15.0378 55.5916 15.8792 54.6874C15.8897 54.6761 15.9001 54.6649 15.9106 54.6536C16.743 53.7588 17.7794 52.6445 19.7863 52.6445C21.7945 52.6445 22.8313 53.7592 23.664 54.6543L23.6947 54.6874C24.5364 55.5918 25.1782 56.2541 26.5039 56.2541C27.8306 56.2541 28.473 55.5916 29.3144 54.6874L29.3459 54.6536C30.1782 53.7588 31.2146 52.6445 33.2215 52.6445C35.2297 52.6445 36.2665 53.7592 37.0992 54.6543L37.1299 54.6874C37.9716 55.5918 38.6134 56.2541 39.9391 56.2541V57.7261C37.9322 57.7261 36.8958 56.6119 36.0635 55.717L36.032 55.6833C35.1906 54.779 34.5482 54.1165 33.2215 54.1165C31.8958 54.1165 31.254 54.7788 30.4123 55.6833L30.3816 55.7163C29.5489 56.6114 28.5121 57.7261 26.5039 57.7261C24.497 57.7261 23.4606 56.6119 22.6282 55.717L22.5968 55.6833C21.7554 54.779 21.113 54.1165 19.7863 54.1165C18.4606 54.1165 17.8187 54.7788 16.9771 55.6833C16.9669 55.6942 16.9567 55.7052 16.9464 55.7163C16.1137 56.6114 15.0769 57.7261 13.0687 57.7261C11.0605 57.7261 10.0236 56.6114 9.19096 55.7163C9.18069 55.7052 9.17045 55.6942 9.16025 55.6833C8.31861 54.7788 7.67677 54.1165 6.35107 54.1165C5.22436 54.1165 4.58625 54.5995 3.91765 55.285L2.84375 54.2639Z" fill="#131313"/>
<path fill-rule="evenodd" clip-rule="evenodd" d="M9.04688 65.6531V60.165H10.5713V65.6531H9.04688Z" fill="#131313"/>
<path fill-rule="evenodd" clip-rule="evenodd" d="M14.0312 70.9379V60.165H15.5557V70.9379H14.0312Z" fill="#131313"/>
<path fill-rule="evenodd" clip-rule="evenodd" d="M19.1094 74.495V60.165H20.6338V74.495H19.1094Z" fill="#131313"/>
<path fill-rule="evenodd" clip-rule="evenodd" d="M24.0859 77.2391V60.165H25.6104V77.2391H24.0859Z" fill="#131313"/>
<path fill-rule="evenodd" clip-rule="evenodd" d="M29.1719 78.8652V60.165H30.6963V78.8652H29.1719Z" fill="#131313"/>
<path fill-rule="evenodd" clip-rule="evenodd" d="M34.1484 80.288V60.165H35.6729V80.288H34.1484Z" fill="#131313"/>
<path fill-rule="evenodd" clip-rule="evenodd" d="M39.0651 4.64746L35.8419 1.34368L36.9056 0.304688L41.1548 4.66006L36.1491 9.66868L41.1611 14.6836L35.6235 20.2244L34.5724 19.1726L39.0588 14.6836L34.0469 9.66868L39.0651 4.64746Z" fill="#131313"/>
<path fill-rule="evenodd" clip-rule="evenodd" d="M28.9963 5.03598L27.1526 3.18819L28.2037 2.13477L31.0986 5.03598L26.0866 10.059L31.0986 15.0819L25.561 20.6316L24.5099 19.5782L28.9963 15.0819L23.9844 10.059L28.9963 5.03598Z" fill="#131313"/>
<path fill-rule="evenodd" clip-rule="evenodd" d="M18.9279 14.8885L14.4297 10.401L15.4836 9.34961L21.0357 14.8885L15.4836 20.4274L14.4297 19.376L18.9279 14.8885Z" fill="#131313"/>
<path fill-rule="evenodd" clip-rule="evenodd" d="M40.5 1.4908C18.9558 1.4908 1.4908 18.9558 1.4908 40.5C1.4908 62.0442 18.9558 79.5092 40.5 79.5092C62.0442 79.5092 79.5092 62.0442 79.5092 40.5C79.5092 18.9558 62.0442 1.4908 40.5 1.4908ZM0 40.5C0 18.1325 18.1325 0 40.5 0C62.8675 0 81 18.1325 81 40.5C81 62.8675 62.8675 81 40.5 81C18.1325 81 0 62.8675 0 40.5Z" fill="#131313"/>
<path fill-rule="evenodd" clip-rule="evenodd" d="M40.5 1.4908C18.9558 1.4908 1.4908 18.9558 1.4908 40.5C1.4908 62.0442 18.9558 79.5092 40.5 79.5092C62.0442 79.5092 79.5092 62.0442 79.5092 40.5C79.5092 18.9558 62.0442 1.4908 40.5 1.4908ZM0 40.5C0 18.1325 18.1325 0 40.5 0C62.8675 0 81 18.1325 81 40.5C81 62.8675 62.8675 81 40.5 81C18.1325 81 0 62.8675 0 40.5Z" fill="#131313"/>
<path fill-rule="evenodd" clip-rule="evenodd" d="M28.2596 26.1345C26.9256 29.6836 26.0851 34.6369 26.0851 40.145H24.5938C24.5938 34.504 25.4519 29.3636 26.8642 25.6061C27.5694 23.7301 28.4271 22.1601 29.4174 21.0457C30.4072 19.9319 31.5918 19.209 32.9275 19.209C34.2632 19.209 35.4478 19.9319 36.4376 21.0457C37.4279 22.1601 38.2856 23.7301 38.9908 25.6061C40.4031 29.3636 41.2613 34.504 41.2613 40.145H39.7699C39.7699 34.6369 38.9294 29.6836 37.5954 26.1345C36.9274 24.3573 36.15 22.9708 35.3247 22.0421C34.4988 21.1127 33.6872 20.7058 32.9275 20.7058C32.1678 20.7058 31.3562 21.1127 30.5303 22.0421C29.705 22.9708 28.9276 24.3573 28.2596 26.1345Z" fill="#131313"/>
<path fill-rule="evenodd" clip-rule="evenodd" d="M13.1346 26.1345C11.8006 29.6836 10.9601 34.6369 10.9601 40.145H9.46875C9.46875 34.504 10.3269 29.3636 11.7392 25.6061C12.4444 23.7301 13.3021 22.1601 14.2924 21.0457C15.2822 19.9319 16.4668 19.209 17.8025 19.209C19.1382 19.209 20.3228 19.9319 21.3126 21.0457C22.3029 22.1601 23.1606 23.7301 23.8658 25.6061C25.2781 29.3636 26.1363 34.504 26.1363 40.145H24.6449C24.6449 34.6369 23.8044 29.6836 22.4704 26.1345C21.8024 24.3573 21.025 22.9708 20.1997 22.0421C19.3738 21.1127 18.5622 20.7058 17.8025 20.7058C17.0428 20.7058 16.2312 21.1127 15.4053 22.0421C14.58 22.9708 13.8026 24.3573 13.1346 26.1345Z" fill="#131313"/>
<path d="M6.18325 21.0449C7.17355 22.1593 8.03126 23.7293 8.73641 25.6053C10.1487 29.3628 11.0069 34.5033 11.0069 40.1442H9.51556C9.51556 34.6361 8.67509 29.6828 7.34107 26.1337C6.67305 24.3565 5.89567 22.9701 5.07031 22.0413L6.18325 21.0449Z" fill="#131313"/>
</svg>
