<svg width="935" height="22" viewBox="0 0 935 22" fill="none" xmlns="http://www.w3.org/2000/svg">
<path fill-rule="evenodd" clip-rule="evenodd" d="M234.247 15.66C233.044 16.8481 231.525 17.6992 229.5 17.6992C227.475 17.6992 225.956 16.8481 224.753 15.6599C223.606 14.5271 222.706 13.0457 221.889 11.6998L221.852 11.6395C220.992 10.224 220.214 8.95571 219.269 8.02252C218.363 7.1278 217.35 6.59013 216 6.59013C214.65 6.59013 213.637 7.1278 212.731 8.02252C211.786 8.95571 211.008 10.224 210.148 11.6395L210.111 11.6999C209.294 13.0457 208.394 14.5271 207.247 15.6599C206.044 16.8481 204.525 17.6992 202.5 17.6992C200.474 17.6992 198.955 16.8483 197.751 15.66C196.603 14.5267 195.703 13.0443 194.885 11.6978L194.849 11.6395C193.989 10.2239 193.212 8.95559 192.267 8.02235C191.361 7.12762 190.349 6.59013 189 6.59013C187.65 6.59013 186.637 7.1278 185.731 8.02252C184.786 8.95571 184.008 10.224 183.148 11.6395L183.111 11.6998C182.294 13.0457 181.394 14.5271 180.247 15.6599C179.044 16.8481 177.525 17.6992 175.5 17.6992C173.474 17.6992 171.955 16.8483 170.751 15.66C169.603 14.5267 168.703 13.0443 167.885 11.6978L167.849 11.6395C166.989 10.2239 166.212 8.95559 165.267 8.02235C164.361 7.12762 163.349 6.59013 162 6.59013V4.4927C164.025 4.4927 165.544 5.34384 166.747 6.53206C167.894 7.66483 168.794 9.1463 169.611 10.4922L169.648 10.5525C170.508 11.9679 171.286 13.2362 172.231 14.1694C173.137 15.0641 174.15 15.6018 175.5 15.6018C176.849 15.6018 177.861 15.0643 178.767 14.1696C179.712 13.2363 180.489 11.968 181.349 10.5525L181.385 10.4941C182.203 9.14763 183.103 7.66526 184.251 6.5319C185.455 5.34366 186.974 4.4927 189 4.4927C191.025 4.4927 192.544 5.34384 193.747 6.53206C194.894 7.66482 195.794 9.14627 196.611 10.4921L196.648 10.5525C197.508 11.9679 198.286 13.2362 199.231 14.1694C200.137 15.0641 201.15 15.6018 202.5 15.6018C203.849 15.6018 204.861 15.0643 205.767 14.1696C206.712 13.2363 207.489 11.968 208.349 10.5525L208.385 10.494C209.203 9.14758 210.103 7.66524 211.251 6.5319C212.455 5.34366 213.974 4.4927 216 4.4927C218.026 4.4927 219.545 5.34366 220.749 6.5319C221.897 7.66525 222.797 9.1476 223.615 10.4941L223.651 10.5525C224.511 11.968 225.288 13.2363 226.233 14.1696C227.139 15.0643 228.151 15.6018 229.5 15.6018C230.849 15.6018 231.861 15.0643 232.767 14.1695C233.713 13.2362 234.49 11.9678 235.351 10.5523C235.363 10.5326 235.375 10.5128 235.387 10.493C236.205 9.14683 237.105 7.66498 238.253 6.53196C239.456 5.34381 240.975 4.4927 243 4.4927V6.59013C241.651 6.59013 240.639 7.12765 239.733 8.02246C238.787 8.95572 238.01 10.2241 237.149 11.6396C237.137 11.6593 237.125 11.6791 237.113 11.6989C236.295 13.0451 235.395 14.5269 234.247 15.66Z" fill="#75B875"/>
<path fill-rule="evenodd" clip-rule="evenodd" d="M153.247 15.66C152.044 16.8481 150.525 17.6992 148.5 17.6992C146.475 17.6992 144.956 16.8481 143.753 15.6599C142.606 14.5271 141.706 13.0457 140.889 11.6998L140.852 11.6395C139.992 10.224 139.214 8.95571 138.269 8.02252C137.363 7.1278 136.35 6.59013 135 6.59013C133.65 6.59013 132.637 7.1278 131.731 8.02252C130.786 8.95571 130.008 10.224 129.148 11.6395L129.111 11.6999C128.294 13.0457 127.394 14.5271 126.247 15.6599C125.044 16.8481 123.525 17.6992 121.5 17.6992C119.474 17.6992 117.955 16.8483 116.751 15.66C115.603 14.5267 114.703 13.0443 113.885 11.6978L113.849 11.6395C112.989 10.2239 112.212 8.95559 111.267 8.02235C110.361 7.12762 109.349 6.59013 108 6.59013C106.65 6.59013 105.637 7.1278 104.731 8.02252C103.786 8.95571 103.008 10.224 102.148 11.6395L102.111 11.6998C101.294 13.0457 100.394 14.5271 99.2467 15.6599C98.0437 16.8481 96.5255 17.6992 94.5 17.6992C92.4738 17.6992 90.955 16.8483 89.7514 15.66C88.6034 14.5267 87.7028 13.0443 86.8848 11.6978L86.8493 11.6395C85.9892 10.2239 85.2117 8.95559 84.2668 8.02235C83.361 7.12762 82.3486 6.59013 81 6.59013V4.4927C83.0255 4.4927 84.5437 5.34384 85.7467 6.53206C86.8936 7.66483 87.7936 9.1463 88.6113 10.4922L88.6479 10.5525C89.5079 11.9679 90.2857 13.2362 91.2309 14.1694C92.1372 15.0641 93.1503 15.6018 94.5 15.6018C95.8486 15.6018 96.861 15.0643 97.7668 14.1696C98.7117 13.2363 99.4892 11.968 100.349 10.5525L100.385 10.4941C101.203 9.14763 102.103 7.66526 103.251 6.5319C104.455 5.34366 105.974 4.4927 108 4.4927C110.025 4.4927 111.544 5.34384 112.747 6.53206C113.894 7.66482 114.794 9.14627 115.611 10.4921L115.648 10.5525C116.508 11.9679 117.286 13.2362 118.231 14.1694C119.137 15.0641 120.15 15.6018 121.5 15.6018C122.849 15.6018 123.861 15.0643 124.767 14.1696C125.712 13.2363 126.489 11.968 127.349 10.5525L127.385 10.494C128.203 9.14758 129.103 7.66524 130.251 6.5319C131.455 5.34366 132.974 4.4927 135 4.4927C137.026 4.4927 138.545 5.34366 139.749 6.5319C140.897 7.66525 141.797 9.1476 142.615 10.4941L142.651 10.5525C143.511 11.968 144.288 13.2363 145.233 14.1696C146.139 15.0643 147.151 15.6018 148.5 15.6018C149.849 15.6018 150.861 15.0643 151.767 14.1695C152.713 13.2362 153.49 11.9678 154.351 10.5523C154.363 10.5326 154.375 10.5128 154.387 10.493C155.205 9.14683 156.105 7.66498 157.253 6.53196C158.456 5.34381 159.975 4.4927 162 4.4927V6.59013C160.651 6.59013 159.639 7.12765 158.733 8.02246C157.787 8.95572 157.01 10.2241 156.149 11.6396C156.137 11.6593 156.125 11.6791 156.113 11.6989C155.295 13.0451 154.395 14.5269 153.247 15.66Z" fill="#75B875"/>
<rect x="39" y="20" width="28" height="2" rx="1" fill="#75B875"/>
<rect x="93" y="20" width="28" height="2" rx="1" fill="#75B875"/>
<rect x="147" y="20" width="29" height="2" rx="1" fill="#75B875"/>
<rect x="202" y="20" width="28" height="2" rx="1" fill="#75B875"/>
<rect x="53" width="28" height="2" rx="1" fill="#75B875"/>
<rect x="107" width="28" height="2" rx="1" fill="#75B875"/>
<rect x="161" width="29" height="2" rx="1" fill="#75B875"/>
<rect x="216" width="28" height="2" rx="1" fill="#75B875"/>
<circle cx="54" cy="13.5" r="2.5" fill="#75B875"/>
<circle cx="108" cy="13.5" r="2.5" fill="#75B875"/>
<circle cx="162" cy="13.5" r="2.5" fill="#75B875"/>
<circle cx="216" cy="13.5" r="2.5" fill="#75B875"/>
<circle cx="67.5" cy="8.5" r="2.5" fill="#75B875"/>
<path d="M0 20H12C12.5523 20 13 20.4477 13 21C13 21.5523 12.5523 22 12 22H0V20Z" fill="#75B875"/>
<path d="M0.5 0H26C26.5523 0 27 0.447715 27 1C27 1.55228 26.5523 2 26 2H0.5V0Z" fill="#75B875"/>
<circle cx="13.5" cy="8.5" r="2.5" fill="#75B875"/>
<circle cx="121.5" cy="8.5" r="2.5" fill="#75B875"/>
<circle cx="175.5" cy="8.5" r="2.5" fill="#75B875"/>
<circle cx="229.5" cy="8.5" r="2.5" fill="#75B875"/>
<path fill-rule="evenodd" clip-rule="evenodd" d="M396.247 15.66C395.044 16.8481 393.525 17.6992 391.5 17.6992C389.475 17.6992 387.956 16.8481 386.753 15.6599C385.606 14.5271 384.706 13.0457 383.889 11.6998L383.852 11.6395C382.992 10.224 382.214 8.95571 381.269 8.02252C380.363 7.1278 379.35 6.59013 378 6.59013C376.65 6.59013 375.637 7.1278 374.731 8.02252C373.786 8.95571 373.008 10.224 372.148 11.6395L372.111 11.6999C371.294 13.0457 370.394 14.5271 369.247 15.6599C368.044 16.8481 366.525 17.6992 364.5 17.6992C362.474 17.6992 360.955 16.8483 359.751 15.66C358.603 14.5267 357.703 13.0443 356.885 11.6978L356.849 11.6395C355.989 10.2239 355.212 8.95559 354.267 8.02235C353.361 7.12762 352.349 6.59013 351 6.59013C349.65 6.59013 348.637 7.1278 347.731 8.02252C346.786 8.95571 346.008 10.224 345.148 11.6395L345.111 11.6998C344.294 13.0457 343.394 14.5271 342.247 15.6599C341.044 16.8481 339.525 17.6992 337.5 17.6992C335.474 17.6992 333.955 16.8483 332.751 15.66C331.603 14.5267 330.703 13.0443 329.885 11.6978L329.849 11.6395C328.989 10.2239 328.212 8.95559 327.267 8.02235C326.361 7.12762 325.349 6.59013 324 6.59013V4.4927C326.025 4.4927 327.544 5.34384 328.747 6.53206C329.894 7.66483 330.794 9.1463 331.611 10.4922L331.648 10.5525C332.508 11.9679 333.286 13.2362 334.231 14.1694C335.137 15.0641 336.15 15.6018 337.5 15.6018C338.849 15.6018 339.861 15.0643 340.767 14.1696C341.712 13.2363 342.489 11.968 343.349 10.5525L343.385 10.4941C344.203 9.14763 345.103 7.66526 346.251 6.5319C347.455 5.34366 348.974 4.4927 351 4.4927C353.025 4.4927 354.544 5.34384 355.747 6.53206C356.894 7.66482 357.794 9.14627 358.611 10.4921L358.648 10.5525C359.508 11.9679 360.286 13.2362 361.231 14.1694C362.137 15.0641 363.15 15.6018 364.5 15.6018C365.849 15.6018 366.861 15.0643 367.767 14.1696C368.712 13.2363 369.489 11.968 370.349 10.5525L370.385 10.494C371.203 9.14758 372.103 7.66524 373.251 6.5319C374.455 5.34366 375.974 4.4927 378 4.4927C380.026 4.4927 381.545 5.34366 382.749 6.5319C383.897 7.66525 384.797 9.1476 385.615 10.4941L385.651 10.5525C386.511 11.968 387.288 13.2363 388.233 14.1696C389.139 15.0643 390.151 15.6018 391.5 15.6018C392.849 15.6018 393.861 15.0643 394.767 14.1695C395.713 13.2362 396.49 11.9678 397.351 10.5523C397.363 10.5326 397.375 10.5128 397.387 10.493C398.205 9.14683 399.105 7.66498 400.253 6.53196C401.456 5.34381 402.975 4.4927 405 4.4927V6.59013C403.651 6.59013 402.639 7.12765 401.733 8.02246C400.787 8.95572 400.01 10.2241 399.149 11.6396C399.137 11.6593 399.125 11.6791 399.113 11.6989C398.295 13.0451 397.395 14.5269 396.247 15.66Z" fill="#75B875"/>
<path fill-rule="evenodd" clip-rule="evenodd" d="M315.247 15.66C314.044 16.8481 312.525 17.6992 310.5 17.6992C308.475 17.6992 306.956 16.8481 305.753 15.6599C304.606 14.5271 303.706 13.0457 302.889 11.6998L302.852 11.6395C301.992 10.224 301.214 8.95571 300.269 8.02252C299.363 7.1278 298.35 6.59013 297 6.59013C295.65 6.59013 294.637 7.1278 293.731 8.02252C292.786 8.95571 292.008 10.224 291.148 11.6395L291.111 11.6999C290.294 13.0457 289.394 14.5271 288.247 15.6599C287.044 16.8481 285.525 17.6992 283.5 17.6992C281.474 17.6992 279.955 16.8483 278.751 15.66C277.603 14.5267 276.703 13.0443 275.885 11.6978L275.849 11.6395C274.989 10.2239 274.212 8.95559 273.267 8.02235C272.361 7.12762 271.349 6.59013 270 6.59013C268.65 6.59013 267.637 7.1278 266.731 8.02252C265.786 8.95571 265.008 10.224 264.148 11.6395L264.111 11.6998C263.294 13.0457 262.394 14.5271 261.247 15.6599C260.044 16.8481 258.525 17.6992 256.5 17.6992C254.474 17.6992 252.955 16.8483 251.751 15.66C250.603 14.5267 249.703 13.0443 248.885 11.6978L248.849 11.6395C247.989 10.2239 247.212 8.95559 246.267 8.02235C245.361 7.12762 244.349 6.59013 243 6.59013V4.4927C245.025 4.4927 246.544 5.34384 247.747 6.53206C248.894 7.66483 249.794 9.1463 250.611 10.4922L250.648 10.5525C251.508 11.9679 252.286 13.2362 253.231 14.1694C254.137 15.0641 255.15 15.6018 256.5 15.6018C257.849 15.6018 258.861 15.0643 259.767 14.1696C260.712 13.2363 261.489 11.968 262.349 10.5525L262.385 10.4941C263.203 9.14763 264.103 7.66526 265.251 6.5319C266.455 5.34366 267.974 4.4927 270 4.4927C272.025 4.4927 273.544 5.34384 274.747 6.53206C275.894 7.66482 276.794 9.14627 277.611 10.4921L277.648 10.5525C278.508 11.9679 279.286 13.2362 280.231 14.1694C281.137 15.0641 282.15 15.6018 283.5 15.6018C284.849 15.6018 285.861 15.0643 286.767 14.1696C287.712 13.2363 288.489 11.968 289.349 10.5525L289.385 10.494C290.203 9.14758 291.103 7.66524 292.251 6.5319C293.455 5.34366 294.974 4.4927 297 4.4927C299.026 4.4927 300.545 5.34366 301.749 6.5319C302.897 7.66525 303.797 9.1476 304.615 10.4941L304.651 10.5525C305.511 11.968 306.288 13.2363 307.233 14.1696C308.139 15.0643 309.151 15.6018 310.5 15.6018C311.849 15.6018 312.861 15.0643 313.767 14.1695C314.713 13.2362 315.49 11.9678 316.351 10.5523C316.363 10.5326 316.375 10.5128 316.387 10.493C317.205 9.14683 318.105 7.66498 319.253 6.53196C320.456 5.34381 321.975 4.4927 324 4.4927V6.59013C322.651 6.59013 321.639 7.12765 320.733 8.02246C319.787 8.95572 319.01 10.2241 318.149 11.6396C318.137 11.6593 318.125 11.6791 318.113 11.6989C317.295 13.0451 316.395 14.5269 315.247 15.66Z" fill="#75B875"/>
<rect x="255" y="20" width="28" height="2" rx="1" fill="#75B875"/>
<rect x="309" y="20" width="29" height="2" rx="1" fill="#75B875"/>
<rect x="364" y="20" width="28" height="2" rx="1" fill="#75B875"/>
<rect x="269" width="28" height="2" rx="1" fill="#75B875"/>
<rect x="323" width="29" height="2" rx="1" fill="#75B875"/>
<rect x="378" width="28" height="2" rx="1" fill="#75B875"/>
<circle cx="270" cy="13.5" r="2.5" fill="#75B875"/>
<circle cx="324" cy="13.5" r="2.5" fill="#75B875"/>
<circle cx="378" cy="13.5" r="2.5" fill="#75B875"/>
<circle cx="283.5" cy="8.5" r="2.5" fill="#75B875"/>
<circle cx="337.5" cy="8.5" r="2.5" fill="#75B875"/>
<circle cx="391.5" cy="8.5" r="2.5" fill="#75B875"/>
<path fill-rule="evenodd" clip-rule="evenodd" d="M558.247 15.66C557.044 16.8481 555.525 17.6992 553.5 17.6992C551.475 17.6992 549.956 16.8481 548.753 15.6599C547.606 14.5271 546.706 13.0457 545.889 11.6998L545.852 11.6395C544.992 10.224 544.214 8.95571 543.269 8.02252C542.363 7.1278 541.35 6.59013 540 6.59013C538.65 6.59013 537.637 7.1278 536.731 8.02252C535.786 8.95571 535.008 10.224 534.148 11.6395L534.111 11.6999C533.294 13.0457 532.394 14.5271 531.247 15.6599C530.044 16.8481 528.525 17.6992 526.5 17.6992C524.474 17.6992 522.955 16.8483 521.751 15.66C520.603 14.5267 519.703 13.0443 518.885 11.6978L518.849 11.6395C517.989 10.2239 517.212 8.95559 516.267 8.02235C515.361 7.12762 514.349 6.59013 513 6.59013C511.65 6.59013 510.637 7.1278 509.731 8.02252C508.786 8.95571 508.008 10.224 507.148 11.6395L507.111 11.6998C506.294 13.0457 505.394 14.5271 504.247 15.6599C503.044 16.8481 501.525 17.6992 499.5 17.6992C497.474 17.6992 495.955 16.8483 494.751 15.66C493.603 14.5267 492.703 13.0443 491.885 11.6978L491.849 11.6395C490.989 10.2239 490.212 8.95559 489.267 8.02235C488.361 7.12762 487.349 6.59013 486 6.59013V4.4927C488.025 4.4927 489.544 5.34384 490.747 6.53206C491.894 7.66483 492.794 9.1463 493.611 10.4922L493.648 10.5525C494.508 11.9679 495.286 13.2362 496.231 14.1694C497.137 15.0641 498.15 15.6018 499.5 15.6018C500.849 15.6018 501.861 15.0643 502.767 14.1696C503.712 13.2363 504.489 11.968 505.349 10.5525L505.385 10.4941C506.203 9.14763 507.103 7.66526 508.251 6.5319C509.455 5.34366 510.974 4.4927 513 4.4927C515.025 4.4927 516.544 5.34384 517.747 6.53206C518.894 7.66482 519.794 9.14627 520.611 10.4921L520.648 10.5525C521.508 11.9679 522.286 13.2362 523.231 14.1694C524.137 15.0641 525.15 15.6018 526.5 15.6018C527.849 15.6018 528.861 15.0643 529.767 14.1696C530.712 13.2363 531.489 11.968 532.349 10.5525L532.385 10.494C533.203 9.14758 534.103 7.66524 535.251 6.5319C536.455 5.34366 537.974 4.4927 540 4.4927C542.026 4.4927 543.545 5.34366 544.749 6.5319C545.897 7.66525 546.797 9.1476 547.615 10.4941L547.651 10.5525C548.511 11.968 549.288 13.2363 550.233 14.1696C551.139 15.0643 552.151 15.6018 553.5 15.6018C554.849 15.6018 555.861 15.0643 556.767 14.1695C557.713 13.2362 558.49 11.9678 559.351 10.5523C559.363 10.5326 559.375 10.5128 559.387 10.493C560.205 9.14683 561.105 7.66498 562.253 6.53196C563.456 5.34381 564.975 4.4927 567 4.4927V6.59013C565.651 6.59013 564.639 7.12765 563.733 8.02246C562.787 8.95572 562.01 10.2241 561.149 11.6396C561.137 11.6593 561.125 11.6791 561.113 11.6989C560.295 13.0451 559.395 14.5269 558.247 15.66Z" fill="#75B875"/>
<path fill-rule="evenodd" clip-rule="evenodd" d="M477.247 15.66C476.044 16.8481 474.525 17.6992 472.5 17.6992C470.475 17.6992 468.956 16.8481 467.753 15.6599C466.606 14.5271 465.706 13.0457 464.889 11.6998L464.852 11.6395C463.992 10.224 463.214 8.95571 462.269 8.02252C461.363 7.1278 460.35 6.59013 459 6.59013C457.65 6.59013 456.637 7.1278 455.731 8.02252C454.786 8.95571 454.008 10.224 453.148 11.6395L453.111 11.6999C452.294 13.0457 451.394 14.5271 450.247 15.6599C449.044 16.8481 447.525 17.6992 445.5 17.6992C443.474 17.6992 441.955 16.8483 440.751 15.66C439.603 14.5267 438.703 13.0443 437.885 11.6978L437.849 11.6395C436.989 10.2239 436.212 8.95559 435.267 8.02235C434.361 7.12762 433.349 6.59013 432 6.59013C430.65 6.59013 429.637 7.1278 428.731 8.02252C427.786 8.95571 427.008 10.224 426.148 11.6395L426.111 11.6998C425.294 13.0457 424.394 14.5271 423.247 15.6599C422.044 16.8481 420.525 17.6992 418.5 17.6992C416.474 17.6992 414.955 16.8483 413.751 15.66C412.603 14.5267 411.703 13.0443 410.885 11.6978L410.849 11.6395C409.989 10.2239 409.212 8.95559 408.267 8.02235C407.361 7.12762 406.349 6.59013 405 6.59013V4.4927C407.025 4.4927 408.544 5.34384 409.747 6.53206C410.894 7.66483 411.794 9.1463 412.611 10.4922L412.648 10.5525C413.508 11.9679 414.286 13.2362 415.231 14.1694C416.137 15.0641 417.15 15.6018 418.5 15.6018C419.849 15.6018 420.861 15.0643 421.767 14.1696C422.712 13.2363 423.489 11.968 424.349 10.5525L424.385 10.4941C425.203 9.14763 426.103 7.66526 427.251 6.5319C428.455 5.34366 429.974 4.4927 432 4.4927C434.025 4.4927 435.544 5.34384 436.747 6.53206C437.894 7.66482 438.794 9.14627 439.611 10.4921L439.648 10.5525C440.508 11.9679 441.286 13.2362 442.231 14.1694C443.137 15.0641 444.15 15.6018 445.5 15.6018C446.849 15.6018 447.861 15.0643 448.767 14.1696C449.712 13.2363 450.489 11.968 451.349 10.5525L451.385 10.494C452.203 9.14758 453.103 7.66524 454.251 6.5319C455.455 5.34366 456.974 4.4927 459 4.4927C461.026 4.4927 462.545 5.34366 463.749 6.5319C464.897 7.66525 465.797 9.1476 466.615 10.4941L466.651 10.5525C467.511 11.968 468.288 13.2363 469.233 14.1696C470.139 15.0643 471.151 15.6018 472.5 15.6018C473.849 15.6018 474.861 15.0643 475.767 14.1695C476.713 13.2362 477.49 11.9678 478.351 10.5523C478.363 10.5326 478.375 10.5128 478.387 10.493C479.205 9.14683 480.105 7.66498 481.253 6.53196C482.456 5.34381 483.975 4.4927 486 4.4927V6.59013C484.651 6.59013 483.639 7.12765 482.733 8.02246C481.787 8.95572 481.01 10.2241 480.149 11.6396C480.137 11.6593 480.125 11.6791 480.113 11.6989C479.295 13.0451 478.395 14.5269 477.247 15.66Z" fill="#75B875"/>
<rect x="417" y="20" width="28" height="2" rx="1" fill="#75B875"/>
<rect x="471" y="20" width="29" height="2" rx="1" fill="#75B875"/>
<rect x="526" y="20" width="28" height="2" rx="1" fill="#75B875"/>
<rect x="431" width="28" height="2" rx="1" fill="#75B875"/>
<rect x="485" width="29" height="2" rx="1" fill="#75B875"/>
<rect x="540" width="28" height="2" rx="1" fill="#75B875"/>
<circle cx="432" cy="13.5" r="2.5" fill="#75B875"/>
<circle cx="486" cy="13.5" r="2.5" fill="#75B875"/>
<circle cx="540" cy="13.5" r="2.5" fill="#75B875"/>
<circle cx="445.5" cy="8.5" r="2.5" fill="#75B875"/>
<circle cx="499.5" cy="8.5" r="2.5" fill="#75B875"/>
<circle cx="553.5" cy="8.5" r="2.5" fill="#75B875"/>
<path fill-rule="evenodd" clip-rule="evenodd" d="M720.247 15.66C719.044 16.8481 717.525 17.6992 715.5 17.6992C713.475 17.6992 711.956 16.8481 710.753 15.6599C709.606 14.5271 708.706 13.0457 707.889 11.6998L707.852 11.6395C706.992 10.224 706.214 8.95571 705.269 8.02252C704.363 7.1278 703.35 6.59013 702 6.59013C700.65 6.59013 699.637 7.1278 698.731 8.02252C697.786 8.95571 697.008 10.224 696.148 11.6395L696.111 11.6999C695.294 13.0457 694.394 14.5271 693.247 15.6599C692.044 16.8481 690.525 17.6992 688.5 17.6992C686.474 17.6992 684.955 16.8483 683.751 15.66C682.603 14.5267 681.703 13.0443 680.885 11.6978L680.849 11.6395C679.989 10.2239 679.212 8.95559 678.267 8.02235C677.361 7.12762 676.349 6.59013 675 6.59013C673.65 6.59013 672.637 7.1278 671.731 8.02252C670.786 8.95571 670.008 10.224 669.148 11.6395L669.111 11.6998C668.294 13.0457 667.394 14.5271 666.247 15.6599C665.044 16.8481 663.525 17.6992 661.5 17.6992C659.474 17.6992 657.955 16.8483 656.751 15.66C655.603 14.5267 654.703 13.0443 653.885 11.6978L653.849 11.6395C652.989 10.2239 652.212 8.95559 651.267 8.02235C650.361 7.12762 649.349 6.59013 648 6.59013V4.4927C650.025 4.4927 651.544 5.34384 652.747 6.53206C653.894 7.66483 654.794 9.1463 655.611 10.4922L655.648 10.5525C656.508 11.9679 657.286 13.2362 658.231 14.1694C659.137 15.0641 660.15 15.6018 661.5 15.6018C662.849 15.6018 663.861 15.0643 664.767 14.1696C665.712 13.2363 666.489 11.968 667.349 10.5525L667.385 10.4941C668.203 9.14763 669.103 7.66526 670.251 6.5319C671.455 5.34366 672.974 4.4927 675 4.4927C677.025 4.4927 678.544 5.34384 679.747 6.53206C680.894 7.66482 681.794 9.14627 682.611 10.4921L682.648 10.5525C683.508 11.9679 684.286 13.2362 685.231 14.1694C686.137 15.0641 687.15 15.6018 688.5 15.6018C689.849 15.6018 690.861 15.0643 691.767 14.1696C692.712 13.2363 693.489 11.968 694.349 10.5525L694.385 10.494C695.203 9.14758 696.103 7.66524 697.251 6.5319C698.455 5.34366 699.974 4.4927 702 4.4927C704.026 4.4927 705.545 5.34366 706.749 6.5319C707.897 7.66525 708.797 9.1476 709.615 10.4941L709.651 10.5525C710.511 11.968 711.288 13.2363 712.233 14.1696C713.139 15.0643 714.151 15.6018 715.5 15.6018C716.849 15.6018 717.861 15.0643 718.767 14.1695C719.713 13.2362 720.49 11.9678 721.351 10.5523C721.363 10.5326 721.375 10.5128 721.387 10.493C722.205 9.14683 723.105 7.66498 724.253 6.53196C725.456 5.34381 726.975 4.4927 729 4.4927V6.59013C727.651 6.59013 726.639 7.12765 725.733 8.02246C724.787 8.95572 724.01 10.2241 723.149 11.6396C723.137 11.6593 723.125 11.6791 723.113 11.6989C722.295 13.0451 721.395 14.5269 720.247 15.66Z" fill="#75B875"/>
<path fill-rule="evenodd" clip-rule="evenodd" d="M639.247 15.66C638.044 16.8481 636.525 17.6992 634.5 17.6992C632.475 17.6992 630.956 16.8481 629.753 15.6599C628.606 14.5271 627.706 13.0457 626.889 11.6998L626.852 11.6395C625.992 10.224 625.214 8.95571 624.269 8.02252C623.363 7.1278 622.35 6.59013 621 6.59013C619.65 6.59013 618.637 7.1278 617.731 8.02252C616.786 8.95571 616.008 10.224 615.148 11.6395L615.111 11.6999C614.294 13.0457 613.394 14.5271 612.247 15.6599C611.044 16.8481 609.525 17.6992 607.5 17.6992C605.474 17.6992 603.955 16.8483 602.751 15.66C601.603 14.5267 600.703 13.0443 599.885 11.6978L599.849 11.6395C598.989 10.2239 598.212 8.95559 597.267 8.02235C596.361 7.12762 595.349 6.59013 594 6.59013C592.65 6.59013 591.637 7.1278 590.731 8.02252C589.786 8.95571 589.008 10.224 588.148 11.6395L588.111 11.6998C587.294 13.0457 586.394 14.5271 585.247 15.6599C584.044 16.8481 582.525 17.6992 580.5 17.6992C578.474 17.6992 576.955 16.8483 575.751 15.66C574.603 14.5267 573.703 13.0443 572.885 11.6978L572.849 11.6395C571.989 10.2239 571.212 8.95559 570.267 8.02235C569.361 7.12762 568.349 6.59013 567 6.59013V4.4927C569.025 4.4927 570.544 5.34384 571.747 6.53206C572.894 7.66483 573.794 9.1463 574.611 10.4922L574.648 10.5525C575.508 11.9679 576.286 13.2362 577.231 14.1694C578.137 15.0641 579.15 15.6018 580.5 15.6018C581.849 15.6018 582.861 15.0643 583.767 14.1696C584.712 13.2363 585.489 11.968 586.349 10.5525L586.385 10.4941C587.203 9.14763 588.103 7.66526 589.251 6.5319C590.455 5.34366 591.974 4.4927 594 4.4927C596.025 4.4927 597.544 5.34384 598.747 6.53206C599.894 7.66482 600.794 9.14627 601.611 10.4921L601.648 10.5525C602.508 11.9679 603.286 13.2362 604.231 14.1694C605.137 15.0641 606.15 15.6018 607.5 15.6018C608.849 15.6018 609.861 15.0643 610.767 14.1696C611.712 13.2363 612.489 11.968 613.349 10.5525L613.385 10.494C614.203 9.14758 615.103 7.66524 616.251 6.5319C617.455 5.34366 618.974 4.4927 621 4.4927C623.026 4.4927 624.545 5.34366 625.749 6.5319C626.897 7.66525 627.797 9.1476 628.615 10.4941L628.651 10.5525C629.511 11.968 630.288 13.2363 631.233 14.1696C632.139 15.0643 633.151 15.6018 634.5 15.6018C635.849 15.6018 636.861 15.0643 637.767 14.1695C638.713 13.2362 639.49 11.9678 640.351 10.5523C640.363 10.5326 640.375 10.5128 640.387 10.493C641.205 9.14683 642.105 7.66498 643.253 6.53196C644.456 5.34381 645.975 4.4927 648 4.4927V6.59013C646.651 6.59013 645.639 7.12765 644.733 8.02246C643.787 8.95572 643.01 10.2241 642.149 11.6396C642.137 11.6593 642.125 11.6791 642.113 11.6989C641.295 13.0451 640.395 14.5269 639.247 15.66Z" fill="#75B875"/>
<rect x="579" y="20" width="28" height="2" rx="1" fill="#75B875"/>
<rect x="633" y="20" width="29" height="2" rx="1" fill="#75B875"/>
<rect x="688" y="20" width="28" height="2" rx="1" fill="#75B875"/>
<rect x="593" width="28" height="2" rx="1" fill="#75B875"/>
<rect x="647" width="29" height="2" rx="1" fill="#75B875"/>
<rect x="702" width="28" height="2" rx="1" fill="#75B875"/>
<circle cx="594" cy="13.5" r="2.5" fill="#75B875"/>
<circle cx="648" cy="13.5" r="2.5" fill="#75B875"/>
<circle cx="702" cy="13.5" r="2.5" fill="#75B875"/>
<circle cx="607.5" cy="8.5" r="2.5" fill="#75B875"/>
<circle cx="661.5" cy="8.5" r="2.5" fill="#75B875"/>
<circle cx="715.5" cy="8.5" r="2.5" fill="#75B875"/>
<path fill-rule="evenodd" clip-rule="evenodd" d="M882.247 15.66C881.044 16.8481 879.525 17.6992 877.5 17.6992C875.475 17.6992 873.956 16.8481 872.753 15.6599C871.606 14.5271 870.706 13.0457 869.889 11.6998L869.852 11.6395C868.992 10.224 868.214 8.95571 867.269 8.02252C866.363 7.1278 865.35 6.59013 864 6.59013C862.65 6.59013 861.637 7.1278 860.731 8.02252C859.786 8.95571 859.008 10.224 858.148 11.6395L858.111 11.6999C857.294 13.0457 856.394 14.5271 855.247 15.6599C854.044 16.8481 852.525 17.6992 850.5 17.6992C848.474 17.6992 846.955 16.8483 845.751 15.66C844.603 14.5267 843.703 13.0443 842.885 11.6978L842.849 11.6395C841.989 10.2239 841.212 8.95559 840.267 8.02235C839.361 7.12762 838.349 6.59013 837 6.59013C835.65 6.59013 834.637 7.1278 833.731 8.02252C832.786 8.95571 832.008 10.224 831.148 11.6395L831.111 11.6998C830.294 13.0457 829.394 14.5271 828.247 15.6599C827.044 16.8481 825.525 17.6992 823.5 17.6992C821.474 17.6992 819.955 16.8483 818.751 15.66C817.603 14.5267 816.703 13.0443 815.885 11.6978L815.849 11.6395C814.989 10.2239 814.212 8.95559 813.267 8.02235C812.361 7.12762 811.349 6.59013 810 6.59013V4.4927C812.025 4.4927 813.544 5.34384 814.747 6.53206C815.894 7.66483 816.794 9.1463 817.611 10.4922L817.648 10.5525C818.508 11.9679 819.286 13.2362 820.231 14.1694C821.137 15.0641 822.15 15.6018 823.5 15.6018C824.849 15.6018 825.861 15.0643 826.767 14.1696C827.712 13.2363 828.489 11.968 829.349 10.5525L829.385 10.4941C830.203 9.14763 831.103 7.66526 832.251 6.5319C833.455 5.34366 834.974 4.4927 837 4.4927C839.025 4.4927 840.544 5.34384 841.747 6.53206C842.894 7.66482 843.794 9.14627 844.611 10.4921L844.648 10.5525C845.508 11.9679 846.286 13.2362 847.231 14.1694C848.137 15.0641 849.15 15.6018 850.5 15.6018C851.849 15.6018 852.861 15.0643 853.767 14.1696C854.712 13.2363 855.489 11.968 856.349 10.5525L856.385 10.494C857.203 9.14758 858.103 7.66524 859.251 6.5319C860.455 5.34366 861.974 4.4927 864 4.4927C866.026 4.4927 867.545 5.34366 868.749 6.5319C869.897 7.66525 870.797 9.1476 871.615 10.4941L871.651 10.5525C872.511 11.968 873.288 13.2363 874.233 14.1696C875.139 15.0643 876.151 15.6018 877.5 15.6018C878.849 15.6018 879.861 15.0643 880.767 14.1695C881.713 13.2362 882.49 11.9678 883.351 10.5523C883.363 10.5326 883.375 10.5128 883.387 10.493C884.205 9.14683 885.105 7.66498 886.253 6.53196C887.456 5.34381 888.975 4.4927 891 4.4927V6.59013C889.651 6.59013 888.639 7.12765 887.733 8.02246C886.787 8.95572 886.01 10.2241 885.149 11.6396C885.137 11.6593 885.125 11.6791 885.113 11.6989C884.295 13.0451 883.395 14.5269 882.247 15.66Z" fill="#75B875"/>
<path fill-rule="evenodd" clip-rule="evenodd" d="M801.247 15.66C800.044 16.8481 798.525 17.6992 796.5 17.6992C794.475 17.6992 792.956 16.8481 791.753 15.6599C790.606 14.5271 789.706 13.0457 788.889 11.6998L788.852 11.6395C787.992 10.224 787.214 8.95571 786.269 8.02252C785.363 7.1278 784.35 6.59013 783 6.59013C781.65 6.59013 780.637 7.1278 779.731 8.02252C778.786 8.95571 778.008 10.224 777.148 11.6395L777.111 11.6999C776.294 13.0457 775.394 14.5271 774.247 15.6599C773.044 16.8481 771.525 17.6992 769.5 17.6992C767.474 17.6992 765.955 16.8483 764.751 15.66C763.603 14.5267 762.703 13.0443 761.885 11.6978L761.849 11.6395C760.989 10.2239 760.212 8.95559 759.267 8.02235C758.361 7.12762 757.349 6.59013 756 6.59013C754.65 6.59013 753.637 7.1278 752.731 8.02252C751.786 8.95571 751.008 10.224 750.148 11.6395L750.111 11.6998C749.294 13.0457 748.394 14.5271 747.247 15.6599C746.044 16.8481 744.525 17.6992 742.5 17.6992C740.474 17.6992 738.955 16.8483 737.751 15.66C736.603 14.5267 735.703 13.0443 734.885 11.6978L734.849 11.6395C733.989 10.2239 733.212 8.95559 732.267 8.02235C731.361 7.12762 730.349 6.59013 729 6.59013V4.4927C731.025 4.4927 732.544 5.34384 733.747 6.53206C734.894 7.66483 735.794 9.1463 736.611 10.4922L736.648 10.5525C737.508 11.9679 738.286 13.2362 739.231 14.1694C740.137 15.0641 741.15 15.6018 742.5 15.6018C743.849 15.6018 744.861 15.0643 745.767 14.1696C746.712 13.2363 747.489 11.968 748.349 10.5525L748.385 10.4941C749.203 9.14763 750.103 7.66526 751.251 6.5319C752.455 5.34366 753.974 4.4927 756 4.4927C758.025 4.4927 759.544 5.34384 760.747 6.53206C761.894 7.66482 762.794 9.14627 763.611 10.4921L763.648 10.5525C764.508 11.9679 765.286 13.2362 766.231 14.1694C767.137 15.0641 768.15 15.6018 769.5 15.6018C770.849 15.6018 771.861 15.0643 772.767 14.1696C773.712 13.2363 774.489 11.968 775.349 10.5525L775.385 10.494C776.203 9.14758 777.103 7.66524 778.251 6.5319C779.455 5.34366 780.974 4.4927 783 4.4927C785.026 4.4927 786.545 5.34366 787.749 6.5319C788.897 7.66525 789.797 9.1476 790.615 10.4941L790.651 10.5525C791.511 11.968 792.288 13.2363 793.233 14.1696C794.139 15.0643 795.151 15.6018 796.5 15.6018C797.849 15.6018 798.861 15.0643 799.767 14.1695C800.713 13.2362 801.49 11.9678 802.351 10.5523C802.363 10.5326 802.375 10.5128 802.387 10.493C803.205 9.14683 804.105 7.66498 805.253 6.53196C806.456 5.34381 807.975 4.4927 810 4.4927V6.59013C808.651 6.59013 807.639 7.12765 806.733 8.02246C805.787 8.95572 805.01 10.2241 804.149 11.6396C804.137 11.6593 804.125 11.6791 804.113 11.6989C803.295 13.0451 802.395 14.5269 801.247 15.66Z" fill="#75B875"/>
<rect x="741" y="20" width="28" height="2" rx="1" fill="#75B875"/>
<rect x="795" y="20" width="29" height="2" rx="1" fill="#75B875"/>
<rect x="850" y="20" width="28" height="2" rx="1" fill="#75B875"/>
<rect x="755" width="28" height="2" rx="1" fill="#75B875"/>
<rect x="809" width="29" height="2" rx="1" fill="#75B875"/>
<rect x="864" width="28" height="2" rx="1" fill="#75B875"/>
<circle cx="756" cy="13.5" r="2.5" fill="#75B875"/>
<circle cx="810" cy="13.5" r="2.5" fill="#75B875"/>
<circle cx="864" cy="13.5" r="2.5" fill="#75B875"/>
<circle cx="769.5" cy="8.5" r="2.5" fill="#75B875"/>
<circle cx="823.5" cy="8.5" r="2.5" fill="#75B875"/>
<circle cx="877.5" cy="8.5" r="2.5" fill="#75B875"/>
<path d="M931.499 17.6992C929.473 17.6992 927.955 16.8481 926.752 15.6599C925.605 14.5271 924.705 13.0457 923.888 11.6999L923.888 11.6998L923.851 11.6395C922.991 10.224 922.213 8.95571 921.268 8.02252C920.362 7.1278 919.349 6.59013 917.999 6.59013C916.649 6.59013 915.636 7.1278 914.73 8.02252C913.784 8.95571 913.007 10.224 912.147 11.6395L912.11 11.6999L912.11 11.6999C911.292 13.0457 910.392 14.5271 909.245 15.6599C908.042 16.8481 906.524 17.6992 904.499 17.6992C902.473 17.6992 900.954 16.8483 899.75 15.66C898.602 14.5267 897.702 13.0443 896.884 11.6978L896.848 11.6395C895.988 10.2239 895.211 8.95559 894.266 8.02235C893.36 7.12762 892.347 6.59013 890.999 6.59013C889.649 6.59013 888.636 7.1278 887.73 8.02252C886.784 8.95571 886.007 10.224 885.147 11.6395L885.11 11.6998C884.292 13.0457 883.392 14.5271 882.246 15.6599C881.042 16.8481 879.524 17.6992 877.499 17.6992C875.473 17.6992 873.954 16.8483 872.75 15.66C871.602 14.5267 870.702 13.0443 869.884 11.6979L869.884 11.6978L869.848 11.6395C868.988 10.2239 868.211 8.95559 867.266 8.02235C866.36 7.12762 865.347 6.59013 863.999 6.59013V4.4927C866.024 4.4927 867.542 5.34384 868.746 6.53206C869.892 7.66482 870.792 9.14625 871.61 10.4921L871.61 10.4922L871.647 10.5525C872.507 11.9679 873.284 13.2362 874.23 14.1694C875.136 15.0641 876.149 15.6018 877.499 15.6018C878.847 15.6018 879.86 15.0643 880.766 14.1696C881.711 13.2363 882.488 11.968 883.348 10.5525L883.384 10.4941C884.202 9.14763 885.102 7.66526 886.25 6.5319C887.454 5.34366 888.973 4.4927 890.999 4.4927C893.024 4.4927 894.542 5.34384 895.746 6.53206C896.892 7.66482 897.792 9.14627 898.61 10.4921L898.647 10.5525C899.507 11.9679 900.284 13.2362 901.23 14.1694C902.136 15.0641 903.149 15.6018 904.499 15.6018C905.847 15.6018 906.86 15.0643 907.766 14.1696C908.711 13.2363 909.488 11.968 910.348 10.5525L910.384 10.494C911.202 9.14758 912.102 7.66524 913.25 6.5319C914.454 5.34366 915.973 4.4927 917.999 4.4927C920.025 4.4927 921.544 5.34366 922.747 6.5319C923.895 7.66525 924.796 9.1476 925.614 10.4941L925.649 10.5525C926.51 11.968 927.287 13.2363 928.232 14.1696C929.138 15.0643 930.15 15.6018 931.499 15.6018C932.481 15.6018 933.285 15.3166 934 14.8158L934.501 14.5C934.501 15.1842 934.498 16.2949 934.501 17C933.763 17.3125 932.434 17.6992 931.499 17.6992Z" fill="#75B875"/>
<rect x="904" y="20" width="28" height="2" rx="1" fill="#75B875"/>
<path d="M918 1C918 0.447715 918.448 0 919 0H934.5V2H919C918.448 2 918 1.55228 918 1Z" fill="#75B875"/>
<circle cx="918" cy="13.5" r="2.5" fill="#75B875"/>
<circle cx="931.5" cy="8.5" r="2.5" fill="#75B875"/>
<path fill-rule="evenodd" clip-rule="evenodd" d="M72.2471 15.6673C71.0438 16.8554 69.5254 17.7065 67.5 17.7065C65.4745 17.7065 63.9563 16.8554 62.7533 15.6672C61.6064 14.5344 60.7064 13.053 59.8887 11.7071L59.8521 11.6468C58.9921 10.2314 58.2143 8.96304 57.2691 8.02984C56.3628 7.13513 55.3497 6.59746 54 6.59746C52.6503 6.59746 51.6372 7.13513 50.7309 8.02984C49.7857 8.96304 49.0079 10.2314 48.1479 11.6468L48.1112 11.7072C47.2936 13.053 46.3936 14.5344 45.2467 15.6672C44.0437 16.8554 42.5255 17.7065 40.5 17.7065C38.4738 17.7065 36.955 16.8556 35.7514 15.6673C34.6034 14.534 33.7028 13.0516 32.8848 11.7051L32.8493 11.6468C31.9892 10.2313 31.2117 8.96292 30.2668 8.02968C29.361 7.13495 28.3486 6.59746 27 6.59746C25.6503 6.59746 24.6372 7.13513 23.7309 8.02984C22.7857 8.96304 22.0079 10.2314 21.1479 11.6468L21.1112 11.7072C20.2936 13.053 19.3936 14.5344 18.2467 15.6672C17.0437 16.8554 15.5255 17.7065 13.5 17.7065C11.4738 17.7065 9.95496 16.8556 8.75138 15.6673C7.6034 14.534 6.70281 13.0516 5.88477 11.7051L5.84933 11.6468C4.98924 10.2313 4.21172 8.96292 3.26685 8.02968C2.36096 7.13495 1.84862 6.61518 0.5 6.61518V4.51775C2.52547 4.51775 3.54368 5.35116 4.74671 6.53939C5.8936 7.67216 6.79364 9.15362 7.61129 10.4995L7.64792 10.5598C8.50793 11.9752 9.28568 13.2435 10.2309 14.1767C11.1372 15.0714 12.1503 15.6091 13.5 15.6091C14.8486 15.6091 15.861 15.0716 16.7668 14.1769C17.7117 13.2436 18.4892 11.9753 19.3493 10.5598L19.3848 10.5014C20.2028 9.15495 21.1034 7.67258 22.2514 6.53923C23.455 5.35098 24.9738 4.50002 27 4.50002C29.0255 4.50002 30.5437 5.35116 31.7467 6.53939C32.8936 7.67215 33.7936 9.1536 34.6113 10.4994L34.6479 10.5598C35.5079 11.9752 36.2857 13.2435 37.2309 14.1767C38.1372 15.0714 39.1503 15.6091 40.5 15.6091C41.8486 15.6091 42.861 15.0716 43.7668 14.1769C44.7117 13.2436 45.4892 11.9753 46.3493 10.5598L46.3848 10.5014C47.2028 9.1549 48.1034 7.67256 49.2514 6.53923C50.455 5.35098 51.9738 4.50002 54 4.50002C56.0262 4.50002 57.545 5.35098 58.7486 6.53923C59.8966 7.67257 60.7972 9.15493 61.6152 10.5014L61.6507 10.5598C62.5108 11.9753 63.2883 13.2436 64.2331 14.1769C65.139 15.0716 66.1514 15.6091 67.5 15.6091C68.8487 15.6091 69.8613 15.0716 70.7675 14.1768C71.7126 13.2435 72.4905 11.9751 73.3508 10.5597C73.3628 10.5399 73.3748 10.5201 73.3868 10.5003C74.2049 9.15415 75.1054 7.6723 76.2529 6.53929C77.4562 5.35114 78.9746 4.50002 81 4.50002V6.59746C79.6513 6.59746 78.6387 7.13498 77.7325 8.02978C76.7874 8.96304 76.0095 10.2314 75.1492 11.6469C75.1372 11.6666 75.1252 11.6864 75.1132 11.7062C74.2951 13.0524 73.3946 14.5343 72.2471 15.6673Z" fill="#75B875"/>
<path fill-rule="evenodd" clip-rule="evenodd" d="M0.5 15.9996C1.86593 15.9824 2.96793 14.8698 2.96793 13.4998C2.96793 12.1298 1.86593 11.0172 0.5 11V15.9996Z" fill="#75B875"/>
</svg>
