<svg width="154" height="154" viewBox="0 0 154 154" fill="none" xmlns="http://www.w3.org/2000/svg">
<path fill-rule="evenodd" clip-rule="evenodd" d="M112.897 76.4873C112.897 56.34 96.4319 39.9765 76.083 39.9765V37.165C97.944 37.165 115.695 54.7541 115.695 76.4873C115.695 98.2205 97.944 115.81 76.083 115.81V112.998C96.4319 112.998 112.897 96.6347 112.897 76.4873Z" fill="#626262" stroke="#626262" stroke-width="0.359873" stroke-miterlimit="10"/>
<path fill-rule="evenodd" clip-rule="evenodd" d="M75.8916 152.166V2.53125H78.762V152.166H75.8916Z" fill="#626262" stroke="#626262" stroke-width="0.359873" stroke-miterlimit="10"/>
<path fill-rule="evenodd" clip-rule="evenodd" d="M13.1221 37.165H76.0807V40.0353H13.1221V37.165Z" fill="#626262" stroke="#626262" stroke-width="0.359873" stroke-miterlimit="10"/>
<path fill-rule="evenodd" clip-rule="evenodd" d="M2.40723 76.0088H77.4218V78.6877H2.40723V76.0088Z" fill="#626262" stroke="#626262" stroke-width="0.359873" stroke-miterlimit="10"/>
<path fill-rule="evenodd" clip-rule="evenodd" d="M11.9736 112.939H78.1855V115.81H11.9736V112.939Z" fill="#626262" stroke="#626262" stroke-width="0.359873" stroke-miterlimit="10"/>
<path fill-rule="evenodd" clip-rule="evenodd" d="M77.3258 3.80685C36.7597 3.80685 3.87444 36.6897 3.87444 77.2527C3.87444 117.816 36.7597 150.699 77.3258 150.699C117.892 150.699 150.777 117.816 150.777 77.2527C150.777 36.6897 117.892 3.80685 77.3258 3.80685ZM1.06738 77.2527C1.06738 35.1395 35.2094 1 77.3258 1C119.442 1 153.584 35.1395 153.584 77.2527C153.584 119.366 119.442 153.505 77.3258 153.505C35.2094 153.505 1.06738 119.366 1.06738 77.2527Z" fill="#626262" stroke="#626262" stroke-width="0.359873" stroke-miterlimit="10"/>
<path fill-rule="evenodd" clip-rule="evenodd" d="M77.3258 3.80685C36.7597 3.80685 3.87444 36.6897 3.87444 77.2527C3.87444 117.816 36.7597 150.699 77.3258 150.699C117.892 150.699 150.777 117.816 150.777 77.2527C150.777 36.6897 117.892 3.80685 77.3258 3.80685ZM1.06738 77.2527C1.06738 35.1395 35.2094 1 77.3258 1C119.442 1 153.584 35.1395 153.584 77.2527C153.584 119.366 119.442 153.505 77.3258 153.505C35.2094 153.505 1.06738 119.366 1.06738 77.2527Z" fill="#626262" stroke="#626262" stroke-width="0.359873" stroke-miterlimit="10"/>
<path d="M35.8769 130.81H57.2579V132.19H35.8769V130.81Z" fill="#626262" stroke="#626262" stroke-width="1.61905"/>
<path d="M20.8769 94.8095H42.2579V96.1905H20.8769V94.8095Z" fill="#626262" stroke="#626262" stroke-width="1.61905"/>
<path d="M48.8769 94.8095H70.2579V96.1905H48.8769V94.8095Z" fill="#626262" stroke="#626262" stroke-width="1.61905"/>
<path d="M35.8769 56.8095H57.2579V58.1905H35.8769V56.8095Z" fill="#626262" stroke="#626262" stroke-width="1.61905"/>
<path d="M49.8769 19.8095H71.2579V21.1905H49.8769V19.8095Z" fill="#626262" stroke="#626262" stroke-width="1.61905"/>
<path d="M28.8769 19.8095H41.2579V21.1905H28.8769V19.8095Z" fill="#626262" stroke="#626262" stroke-width="1.61905"/>
<path d="M5.87691 56.8095H27.2579V58.1905H5.87691V56.8095Z" fill="#626262" stroke="#626262" stroke-width="1.61905"/>
<path d="M63.8769 56.8095H76.2579V58.1905H63.8769V56.8095Z" fill="#626262" stroke="#626262" stroke-width="1.61905"/>
<path d="M63.8769 130.81H76.2579V132.19H63.8769V130.81Z" fill="#626262" stroke="#626262" stroke-width="1.61905"/>
<path d="M4.87691 94.8095H13.2579V96.1905H4.87691V94.8095Z" fill="#626262" stroke="#626262" stroke-width="1.61905"/>
<circle cx="45.9245" cy="95.8571" r="3.2381" stroke="#626262" stroke-width="3.2381"/>
<circle cx="73.9245" cy="95.8571" r="3.2381" stroke="#626262" stroke-width="3.2381"/>
<circle cx="17.9245" cy="95.8571" r="3.2381" stroke="#626262" stroke-width="3.2381"/>
<path d="M55.7828 87.7143L65.4971 78H46.0685L55.7828 87.7143Z" stroke="#626262" stroke-width="3.2381"/>
<path d="M27.7828 87.7143L37.4971 78H18.0685L27.7828 87.7143Z" stroke="#626262" stroke-width="3.2381"/>
<path d="M55.7828 104L65.4971 113.714H46.0685L55.7828 104Z" stroke="#626262" stroke-width="3.2381"/>
<path d="M27.7828 104L37.4971 113.714H18.0685L27.7828 104Z" stroke="#626262" stroke-width="3.2381"/>
<circle cx="45.9245" cy="20.8571" r="3.2381" stroke="#626262" stroke-width="3.2381"/>
<circle cx="73.9245" cy="20.8571" r="3.2381" stroke="#626262" stroke-width="3.2381"/>
<path d="M55.7828 28.9996L65.4971 38.7139H46.0685L55.7828 28.9996Z" stroke="#626262" stroke-width="3.2381"/>
<path d="M27.7828 28.9996L37.4971 38.7139H18.0685L27.7828 28.9996Z" stroke="#626262" stroke-width="3.2381"/>
<circle cx="59.9245" cy="57.8571" r="3.2381" stroke="#626262" stroke-width="3.2381"/>
<circle cx="31.9245" cy="57.8571" r="3.2381" stroke="#626262" stroke-width="3.2381"/>
<path d="M41.7828 48.7143L51.4971 39H32.0685L41.7828 48.7143Z" stroke="#626262" stroke-width="3.2381"/>
<path d="M41.7828 67.9996L51.4971 77.7139H32.0685L41.7828 67.9996Z" stroke="#626262" stroke-width="3.2381"/>
<circle cx="59.9245" cy="131.857" r="3.2381" stroke="#626262" stroke-width="3.2381"/>
<circle cx="31.9245" cy="131.857" r="3.2381" stroke="#626262" stroke-width="3.2381"/>
<path d="M41.7828 123.714L51.4971 114H32.0685L41.7828 123.714Z" stroke="#626262" stroke-width="3.2381"/>
<path fill-rule="evenodd" clip-rule="evenodd" d="M47.6641 6.88535L54.6377 13.859L55.7826 15.0039L56.9274 13.859L66.6417 4.14475L69.4056 1.38086H68.6683L68.7421 1.67949L56.8405 4.61895H61.5881L55.7826 10.4245L51.3364 5.97835L47.6641 6.88535Z" fill="#626262"/>
<path fill-rule="evenodd" clip-rule="evenodd" d="M11.7866 40.3327H18.4969H22.4057L19.6418 37.5688L15.1277 33.0547L13.6869 36.1932L14.5882 37.0946H13.2731L11.7866 40.3327Z" fill="#626262"/>
<path fill-rule="evenodd" clip-rule="evenodd" d="M9.39795 46.6191L12.6379 49.859L13.7827 51.0039L14.9276 49.859L24.6419 40.1447L27.4058 37.3809H23.497H12.8287L11.6262 40.619H19.5883L13.7827 46.4245L10.638 43.2798L9.39795 46.6191Z" fill="#626262"/>
<path fill-rule="evenodd" clip-rule="evenodd" d="M2.06738 87.7193L10.6419 79.1447L13.4058 76.3809H9.49707H2.06738V79.619H5.58834L2.06738 83.1399V87.7193Z" fill="#626262"/>
<path fill-rule="evenodd" clip-rule="evenodd" d="M23.4971 79.333H27.4058L24.6419 76.5691L14.9276 66.8548L13.7828 65.71L12.6379 66.8548L2.92366 76.5691L2.06738 77.4254V79.333H4.0685L23.4971 79.333ZM13.7828 70.2893L19.5883 76.0949H7.97723L13.7828 70.2893Z" fill="#626262"/>
<path fill-rule="evenodd" clip-rule="evenodd" d="M17.6693 122.117L24.6418 115.145L27.4056 112.381H23.4969H12.2114L14.0266 115.619H19.5882L16.0244 119.183L17.6693 122.117Z" fill="#626262"/>
<path fill-rule="evenodd" clip-rule="evenodd" d="M78.0673 37.3809H60.0684H56.1597L58.9236 40.1447L68.6378 49.859L69.7827 51.0039L70.9275 49.859L78.0673 42.7193V37.3809ZM69.7827 46.4245L75.5882 40.619H63.9771L69.7827 46.4245Z" fill="#626262"/>
<path fill-rule="evenodd" clip-rule="evenodd" d="M77.0673 79.333V72.9946L70.9275 66.8548L69.7827 65.71L68.6378 66.8548L58.9236 76.5691L56.1597 79.333H60.0684L77.0673 79.333ZM69.7827 70.2893L75.5882 76.0949H63.9771L69.7827 70.2893Z" fill="#626262"/>
<path fill-rule="evenodd" clip-rule="evenodd" d="M77.0673 112.381H60.0684H56.1597L58.9236 115.145L68.6378 124.859L69.7827 126.004L70.9275 124.859L77.0673 118.719V112.381ZM83.0673 112.719L83.4057 112.381H83.0673V112.719ZM69.7827 121.425L75.5882 115.619H63.9771L69.7827 121.425Z" fill="#626262"/>
<path fill-rule="evenodd" clip-rule="evenodd" d="M62.4593 151.333H64.406L61.6421 148.569L51.9278 138.855L50.783 137.71L49.6381 138.855L43.7446 144.748L47.1587 145.914L50.783 142.289L56.5885 148.095H53.5499L62.5196 151.156L62.4593 151.333Z" fill="#626262"/>
<path fill-rule="evenodd" clip-rule="evenodd" d="M77.0674 144.995V151.333L64.0674 151.333V150H57.4927L58.9236 148.569L68.6379 138.855L69.7828 137.71L70.9276 138.855L77.0674 144.995ZM75.5883 148.095L69.7828 142.289L63.9772 148.095H75.5883Z" fill="#626262"/>
<path d="M7.16202 57.8571C7.16202 59.3405 6.16458 60.5909 4.8038 60.9743C4.89013 60.767 4.98194 60.5383 5.069 60.2968C5.30967 59.6292 5.54203 58.791 5.54203 57.8571C5.54203 56.9959 5.88829 56.3766 6.33116 55.5984C6.34065 55.5817 6.35063 55.5642 6.36106 55.546C6.40968 55.4609 6.46774 55.3593 6.52876 55.245C6.54923 55.2721 6.56898 55.2999 6.58809 55.3282C6.92969 55.8345 7.16202 56.6827 7.16202 57.8571Z" fill="white" stroke="#626262" stroke-width="3.2381"/>
</svg>
