<svg width="154" height="154" viewBox="0 0 154 154" fill="none" xmlns="http://www.w3.org/2000/svg">
<path fill-rule="evenodd" clip-rule="evenodd" d="M112.38 76.495C112.38 56.3457 95.9148 39.9806 75.5659 39.9806V37.1689C97.4269 37.1689 115.178 54.7597 115.178 76.495C115.178 98.2303 97.4269 115.821 75.5659 115.821V113.009C95.9148 113.009 112.38 96.6443 112.38 76.495Z" fill="#626262" stroke="#626262" stroke-width="0.359873" stroke-miterlimit="10"/>
<path fill-rule="evenodd" clip-rule="evenodd" d="M75.3745 152.181V2.53125H78.2449V152.181H75.3745Z" fill="#626262" stroke="#626262" stroke-width="0.359873" stroke-miterlimit="10"/>
<path fill-rule="evenodd" clip-rule="evenodd" d="M12.605 37.1689H75.5636V40.0395H12.605V37.1689Z" fill="#626262" stroke="#626262" stroke-width="0.359873" stroke-miterlimit="10"/>
<path fill-rule="evenodd" clip-rule="evenodd" d="M1.89014 76.0156H76.9047V78.6948H1.89014V76.0156Z" fill="#626262" stroke="#626262" stroke-width="0.359873" stroke-miterlimit="10"/>
<path fill-rule="evenodd" clip-rule="evenodd" d="M11.4565 112.95H77.6684V115.821H11.4565V112.95Z" fill="#626262" stroke="#626262" stroke-width="0.359873" stroke-miterlimit="10"/>
<path fill-rule="evenodd" clip-rule="evenodd" d="M76.8087 3.80712C36.2426 3.80712 3.35735 36.6931 3.35735 77.26C3.35735 117.827 36.2426 150.713 76.8087 150.713C117.375 150.713 150.26 117.827 150.26 77.26C150.26 36.6931 117.375 3.80712 76.8087 3.80712ZM0.550293 77.26C0.550293 35.1428 34.6923 1 76.8087 1C118.925 1 153.067 35.1428 153.067 77.26C153.067 119.377 118.925 153.52 76.8087 153.52C34.6923 153.52 0.550293 119.377 0.550293 77.26Z" fill="#626262" stroke="#626262" stroke-width="0.359873" stroke-miterlimit="10"/>
<path d="M13.6061 40.0039L23.4772 51.5288L5.55029 51.505L13.6061 40.0039Z" fill="#626262"/>
<path d="M39.942 51.5293L49.8132 40.0044H30.0581L39.942 51.5293Z" fill="#626262"/>
<path d="M66.2858 40.0039L76.1569 51.5288H56.4019L66.2858 40.0039Z" fill="#626262"/>
<path d="M13.6061 79.0078L23.4772 90.5327L5.55029 90.5089L13.6061 79.0078Z" fill="#626262"/>
<path d="M39.942 90.5332L49.8132 78.8234H30.0581L39.942 90.5332Z" fill="#626262"/>
<path d="M66.2858 79.0078L76.1569 90.5327H56.4019L66.2858 79.0078Z" fill="#626262"/>
<path d="M13.0503 114.011L23.4772 102.01L5.55029 102.034L13.0503 114.011Z" fill="#626262"/>
<path d="M39.942 101.703L49.8132 113.228H30.0581L39.942 101.703Z" fill="#626262"/>
<path d="M66.2858 113.229L76.1569 101.704H56.4019L66.2858 113.229Z" fill="#626262"/>
<path d="M13.0503 75.5068L23.4772 63.312L5.55029 63.3358L13.0503 75.5068Z" fill="#626262"/>
<path d="M39.942 64.0059L49.8132 76.007H30.0581L39.942 64.0059Z" fill="#626262"/>
<path d="M66.5503 75.5068L76.1569 63.0058H56.4019L66.5503 75.5068Z" fill="#626262"/>
<path d="M58.4676 17.6482L65.777 33.4765L73.0769 17.6482H58.4676Z" stroke="#626262" stroke-width="3.29251"/>
<path d="M32.5696 35.7581L39.4722 20.0142L46.7332 35.7581H32.5696Z" stroke="#626262" stroke-width="3.29251"/>
<path d="M59.4428 135.768L66.5838 119.94L74.052 135.768H59.4428Z" stroke="#626262" stroke-width="3.29251"/>
<path d="M33.0993 117.157L40.3732 133.276L47.082 117.157L33.0993 117.157Z" stroke="#626262" stroke-width="3.29251"/>
</svg>
