<svg width="154" height="153" viewBox="0 0 154 153" fill="none" xmlns="http://www.w3.org/2000/svg">
<path fill-rule="evenodd" clip-rule="evenodd" d="M112.346 75.495C112.346 55.3457 95.8811 38.9806 75.5322 38.9806V36.1689C97.3932 36.1689 115.145 53.7597 115.145 75.495C115.145 97.2303 97.3932 114.821 75.5322 114.821V112.009C95.8811 112.009 112.346 95.6443 112.346 75.495Z" fill="#626262"/>
<path fill-rule="evenodd" clip-rule="evenodd" d="M75.3408 151.181V1.53125H78.2113V151.181H75.3408Z" fill="#626262"/>
<path fill-rule="evenodd" clip-rule="evenodd" d="M12.5713 36.1689H75.5299V39.0395H12.5713V36.1689Z" fill="#626262"/>
<path fill-rule="evenodd" clip-rule="evenodd" d="M1.85645 75.0156H76.871V77.6948H1.85645V75.0156Z" fill="#626262"/>
<path fill-rule="evenodd" clip-rule="evenodd" d="M11.4229 111.95H77.6347V114.821H11.4229V111.95Z" fill="#626262"/>
<path fill-rule="evenodd" clip-rule="evenodd" d="M76.775 2.80712C36.209 2.80712 3.32366 35.6931 3.32366 76.26C3.32366 116.827 36.209 149.713 76.775 149.713C117.341 149.713 150.226 116.827 150.226 76.26C150.226 35.6931 117.341 2.80712 76.775 2.80712ZM0.516602 76.26C0.516602 34.1428 34.6587 0 76.775 0C118.891 0 153.033 34.1428 153.033 76.26C153.033 118.377 118.891 152.52 76.775 152.52C34.6587 152.52 0.516602 118.377 0.516602 76.26Z" fill="#626262"/>
<path fill-rule="evenodd" clip-rule="evenodd" d="M76.775 2.80712C36.209 2.80712 3.32366 35.6931 3.32366 76.26C3.32366 116.827 36.209 149.713 76.775 149.713C117.341 149.713 150.226 116.827 150.226 76.26C150.226 35.6931 117.341 2.80712 76.775 2.80712ZM0.516602 76.26C0.516602 34.1428 34.6587 0 76.775 0C118.891 0 153.033 34.1428 153.033 76.26C153.033 118.377 118.891 152.52 76.775 152.52C34.6587 152.52 0.516602 118.377 0.516602 76.26Z" fill="#626262"/>
<path d="M63.5166 76.0076C63.5166 71.5889 59.9349 68.0068 55.5166 68.0068C51.0983 68.0068 47.5166 71.5889 47.5166 76.0076" stroke="#626262" stroke-width="2.66667"/>
<path d="M69.5166 76.0072C69.5166 68.2745 63.2486 62.0059 55.5166 62.0059C47.7846 62.0059 41.5166 68.2745 41.5166 76.0072" stroke="#626262" stroke-width="2.66667"/>
<path d="M75.5166 76.0068C75.5166 64.96 66.5623 56.0049 55.5166 56.0049C44.4709 56.0049 35.5166 64.96 35.5166 76.0068" stroke="#626262" stroke-width="2.66667"/>
<path d="M23.5166 76.0076C23.5166 71.5889 19.9349 68.0068 15.5166 68.0068C11.0983 68.0068 7.5166 71.5889 7.5166 76.0076" stroke="#626262" stroke-width="2.66667"/>
<path d="M29.515 76.0072C29.515 68.2745 23.247 62.0059 15.515 62.0059C9.17293 62.0059 3.81582 66.2233 2.09473 72.0068" stroke="#626262" stroke-width="2.66667"/>
<path d="M35.5166 76.0068C35.5166 64.96 26.5623 56.0049 15.5166 56.0049C11.0142 56.0049 6.85924 57.4928 3.5166 60.0038" stroke="#626262" stroke-width="2.66667"/>
<path d="M48.0166 114.221C49.1489 111.178 52.0797 109.011 55.5166 109.011C58.9535 109.011 61.8843 111.178 63.0166 114.221" stroke="#626262" stroke-width="2.66667"/>
<path d="M69.1926 114.011C67.8192 107.72 62.217 103.01 55.5147 103.01C48.8125 103.01 43.2103 107.72 41.8369 114.011" stroke="#626262" stroke-width="2.66667"/>
<path d="M75.2946 114.01C73.8472 104.387 65.5442 97.0088 55.5181 97.0088C45.3191 97.0088 36.9031 104.644 35.6729 114.51" stroke="#626262" stroke-width="2.66667"/>
<path d="M10.2236 111.011C11.6339 109.766 13.4864 109.011 15.5153 109.011C18.8727 109.011 21.747 111.079 22.9338 114.011" stroke="#626262" stroke-width="2.66667"/>
<path d="M7.52832 105.51C9.79344 103.934 12.5462 103.01 15.5149 103.01C22.2171 103.01 27.8193 107.72 29.1927 114.011" stroke="#626262" stroke-width="2.66667"/>
<path d="M35.3406 114.356C34.0422 104.564 25.6609 97.0088 15.5152 97.0088C11.9996 97.0088 8.69582 97.916 5.8252 99.509" stroke="#626262" stroke-width="2.66667"/>
<path d="M48.0166 38.2935C49.1489 41.3363 52.0797 43.5039 55.5166 43.5039C58.9535 43.5039 61.8843 41.3363 63.0166 38.2935" stroke="#626262" stroke-width="2.66667"/>
<path d="M69.1926 38.5038C67.8192 44.7948 62.217 49.5049 55.5147 49.5049C48.8125 49.5049 43.2103 44.7948 41.8369 38.5038" stroke="#626262" stroke-width="2.66667"/>
<path d="M75.2946 38.5033C73.8472 48.1267 65.5442 55.5049 55.5181 55.5049C45.3191 55.5049 36.9031 47.8699 35.6729 38.0032" stroke="#626262" stroke-width="2.66667"/>
<path d="M63.859 2.29059C62.7267 5.33341 59.796 7.50098 56.359 7.50098C54.3301 7.50098 52.4776 6.74563 51.0674 5.50079" stroke="#626262" stroke-width="2.66667"/>
<path d="M70.0363 2.49993C68.663 8.79089 63.0607 13.501 56.3585 13.501C51.9873 13.501 48.084 11.4975 45.5166 8.35856" stroke="#626262" stroke-width="2.66667"/>
<path d="M76.1384 2.50033C74.6909 12.1238 66.3879 19.502 56.3619 19.502C49.6091 19.502 43.638 16.155 40.0166 11.0293" stroke="#626262" stroke-width="2.66667"/>
<path d="M10.2236 41.5037C11.6339 42.7486 13.4864 43.5039 15.5153 43.5039C18.8727 43.5039 21.747 41.4355 22.9338 38.5034" stroke="#626262" stroke-width="2.66667"/>
<path d="M7.52832 47.0046C9.79344 48.5808 12.5462 49.5049 15.5149 49.5049C22.2171 49.5049 27.8193 44.7948 29.1927 38.5038" stroke="#626262" stroke-width="2.66667"/>
<path d="M35.3406 38.1578C34.0422 47.9496 25.6609 55.5049 15.5152 55.5049C11.9996 55.5049 8.69582 54.5977 5.8252 53.0046" stroke="#626262" stroke-width="2.66667"/>
<path d="M17.5171 77.007C17.5171 81.4257 13.9354 85.0078 9.51712 85.0078C6.15974 85.0078 3.28541 82.9394 2.09863 80.0073" stroke="#626262" stroke-width="2.66667"/>
<path d="M23.5166 77.0074C23.5166 84.7402 17.2486 91.0088 9.5166 91.0088C7.1704 91.0088 4.95899 90.4316 3.0166 89.4114" stroke="#626262" stroke-width="2.66667"/>
<path d="M29.5166 77.0069C29.5166 88.0536 20.5623 97.0088 9.5166 97.0088C7.96927 97.0088 6.46298 96.8331 5.0166 96.5005" stroke="#626262" stroke-width="2.66667"/>
<path d="M57.5166 77.007C57.5166 81.4257 53.9349 85.0078 49.5166 85.0078C45.0983 85.0078 41.5166 81.4257 41.5166 77.007" stroke="#626262" stroke-width="2.66667"/>
<path d="M63.5166 77.0074C63.5166 84.7402 57.2486 91.0088 49.5166 91.0088C41.7846 91.0088 35.5166 84.7402 35.5166 77.0074" stroke="#626262" stroke-width="2.66667"/>
<path d="M69.5166 77.0069C69.5166 88.0536 60.5623 97.0088 49.5166 97.0088C38.4709 97.0088 29.5166 88.0536 29.5166 77.0069" stroke="#626262" stroke-width="2.66667"/>
<path d="M16.5166 112.51C16.5166 114.641 15.8743 115.077 14.5166 116.511" stroke="#626262" stroke-width="2.66667"/>
<path d="M18.0166 121.512C19.9196 119.647 21.991 116.435 22.9588 113.309" stroke="#626262" stroke-width="2.66667"/>
<path d="M22.0166 126.012C25.0854 123.095 28.045 118.254 29.1046 113.511" stroke="#626262" stroke-width="2.66667"/>
<path d="M42.2119 113.282C43.4622 116.07 46.2619 118.012 49.5151 118.012C52.7683 118.012 55.5679 116.07 56.8182 113.282" stroke="#626262" stroke-width="2.66667"/>
<path d="M63.015 113.732C61.3852 119.658 55.9584 124.012 49.515 124.012C43.1729 124.012 37.8158 119.794 36.0947 114.011" stroke="#626262" stroke-width="2.66667"/>
<path d="M69.2097 113.511C67.5547 122.889 59.3667 130.013 49.515 130.013C39.8391 130.013 31.7681 123.141 29.915 114.011" stroke="#626262" stroke-width="2.66667"/>
<path d="M69.5166 114.01C70.4988 118.849 73.2277 123.054 77.0166 125.938" stroke="#626262" stroke-width="2.66667"/>
<path d="M69.5166 76.0075C70.4988 80.8466 73.2277 85.0512 77.0166 87.9346" stroke="#626262" stroke-width="2.66667"/>
<path d="M69.5166 38.93C70.4988 34.0909 73.2277 29.8863 77.0166 27.0029" stroke="#626262" stroke-width="2.66667"/>
<path d="M47.5347 145.734C49.5183 143.41 52.7509 142.333 55.8729 143.248C58.9949 144.162 61.1358 146.813 61.552 149.84" stroke="#626262" stroke-width="2.66667"/>
<path d="M67.4733 150.723C67.3996 144.577 63.2543 138.989 57.0215 137.355C50.8868 135.747 44.6353 138.467 41.5039 143.625" stroke="#626262" stroke-width="2.66667"/>
<path d="M74.0729 151.115C74.1202 141.592 67.337 133.119 57.6439 131.359C49.2179 129.828 41.067 133.819 36.9095 140.754" stroke="#626262" stroke-width="2.66667"/>
<path d="M16.5166 37.5033C16.5166 35.3727 15.8743 34.9367 14.5166 33.5029" stroke="#626262" stroke-width="2.66667"/>
<path d="M18.0166 28.5029C19.9196 30.3679 21.991 33.5797 22.9588 36.7056" stroke="#626262" stroke-width="2.66667"/>
<path d="M22.0166 24.002C25.0854 26.9185 28.045 31.76 29.1046 36.5031" stroke="#626262" stroke-width="2.66667"/>
<path d="M42.2119 36.733C43.4622 33.9449 46.2619 32.0029 49.5151 32.0029C52.7683 32.0029 55.5679 33.9449 56.8182 36.733" stroke="#626262" stroke-width="2.66667"/>
<path d="M63.0166 37.004C61.3868 31.0778 55.9584 26.0029 49.515 26.0029C43.1729 26.0029 37.7377 31.2204 36.0166 37.004" stroke="#626262" stroke-width="2.66667"/>
<path d="M69.2097 36.5035C67.5547 27.1257 59.3667 20.002 49.515 20.002C39.8391 20.002 31.3697 27.3737 29.5166 36.5035" stroke="#626262" stroke-width="2.66667"/>
<ellipse cx="32.5166" cy="97.0092" rx="4" ry="4.00038" fill="#626262"/>
<ellipse cx="35.5166" cy="56.0053" rx="4" ry="4.00038" fill="#626262"/>
<ellipse cx="32.5166" cy="20.0023" rx="4" ry="4.00038" fill="#626262"/>
<ellipse cx="31.5166" cy="130.012" rx="4" ry="4.00038" fill="#626262"/>
<ellipse cx="70.5166" cy="23.0023" rx="4" ry="4.00038" fill="#626262"/>
<ellipse cx="72.5166" cy="56.0053" rx="4" ry="4.00038" fill="#626262"/>
<ellipse cx="70.5166" cy="93.0092" rx="4" ry="4.00038" fill="#626262"/>
<ellipse cx="70.5166" cy="128.012" rx="4" ry="4.00039" fill="#626262"/>
</svg>
