<svg width="154" height="154" viewBox="0 0 154 154" fill="none" xmlns="http://www.w3.org/2000/svg">
<path fill-rule="evenodd" clip-rule="evenodd" d="M112.864 76.495C112.864 56.3457 96.3982 39.9806 76.0493 39.9806V37.1689C97.9103 37.1689 115.662 54.7597 115.662 76.495C115.662 98.2303 97.9103 115.821 76.0493 115.821V113.009C96.3982 113.009 112.864 96.6443 112.864 76.495Z" fill="#626262" stroke="#626262" stroke-width="0.359873" stroke-miterlimit="10"/>
<path fill-rule="evenodd" clip-rule="evenodd" d="M75.8579 152.181V2.53125H78.7283V152.181H75.8579Z" fill="#626262" stroke="#626262" stroke-width="0.359873" stroke-miterlimit="10"/>
<path fill-rule="evenodd" clip-rule="evenodd" d="M13.0884 37.1689H76.047V40.0395H13.0884V37.1689Z" fill="#626262" stroke="#626262" stroke-width="0.359873" stroke-miterlimit="10"/>
<path fill-rule="evenodd" clip-rule="evenodd" d="M2.37354 76.0156H77.3881V78.6948H2.37354V76.0156Z" fill="#626262" stroke="#626262" stroke-width="0.359873" stroke-miterlimit="10"/>
<path fill-rule="evenodd" clip-rule="evenodd" d="M11.9399 112.95H78.1518V115.821H11.9399V112.95Z" fill="#626262" stroke="#626262" stroke-width="0.359873" stroke-miterlimit="10"/>
<path fill-rule="evenodd" clip-rule="evenodd" d="M77.2921 3.80712C36.726 3.80712 3.84075 36.6931 3.84075 77.26C3.84075 117.827 36.726 150.713 77.2921 150.713C117.858 150.713 150.743 117.827 150.743 77.26C150.743 36.6931 117.858 3.80712 77.2921 3.80712ZM1.03369 77.26C1.03369 35.1428 35.1757 1 77.2921 1C119.408 1 153.551 35.1428 153.551 77.26C153.551 119.377 119.408 153.52 77.2921 153.52C35.1757 153.52 1.03369 119.377 1.03369 77.26Z" fill="#626262" stroke="#626262" stroke-width="0.359873" stroke-miterlimit="10"/>
<path fill-rule="evenodd" clip-rule="evenodd" d="M77.2921 3.80712C36.726 3.80712 3.84075 36.6931 3.84075 77.26C3.84075 117.827 36.726 150.713 77.2921 150.713C117.858 150.713 150.743 117.827 150.743 77.26C150.743 36.6931 117.858 3.80712 77.2921 3.80712ZM1.03369 77.26C1.03369 35.1428 35.1757 1 77.2921 1C119.408 1 153.551 35.1428 153.551 77.26C153.551 119.377 119.408 153.52 77.2921 153.52C35.1757 153.52 1.03369 119.377 1.03369 77.26Z" fill="#626262" stroke="#626262" stroke-width="0.359873" stroke-miterlimit="10"/>
<rect x="2.1919" width="11.3137" height="11.3137" transform="matrix(0.707073 -0.707141 0.707073 0.707141 3.67576 59.7473)" stroke="#626262" stroke-width="3.09997"/>
<rect x="2.1919" width="11.3137" height="11.3137" transform="matrix(0.707073 -0.707141 0.707073 0.707141 23.6758 59.7473)" stroke="#626262" stroke-width="3.09997"/>
<rect x="2.1919" width="11.3137" height="11.3137" transform="matrix(0.707073 -0.707141 0.707073 0.707141 43.6758 59.7473)" stroke="#626262" stroke-width="3.09997"/>
<rect width="21.1329" height="3.00014" transform="matrix(0.707073 -0.707141 0.707073 0.707141 16.479 52.9473)" fill="#626262"/>
<rect width="21.1329" height="3.00014" transform="matrix(0.707073 -0.707141 0.707073 0.707141 36.0337 52.9473)" fill="#626262"/>
<rect width="21.1329" height="3.00014" transform="matrix(0.707073 -0.707141 0.707073 0.707141 56.0337 52.9473)" fill="#626262"/>
<rect width="21.1329" height="3.00014" transform="matrix(0.707073 -0.707141 0.707073 0.707141 53.0337 75.9492)" fill="#626262"/>
<rect width="21.1329" height="3.00014" transform="matrix(0.707073 -0.707141 0.707073 0.707141 33.0337 75.9492)" fill="#626262"/>
<rect width="21.1329" height="3.00014" transform="matrix(0.707073 -0.707141 0.707073 0.707141 13.0337 75.9492)" fill="#626262"/>
<rect width="11.8181" height="3.00014" transform="matrix(0.707073 -0.70714 0.707073 0.70714 1.61963 69.3633)" fill="#626262"/>
<path fill-rule="evenodd" clip-rule="evenodd" d="M67.4175 58.1964L73.2252 52.3881L75.5334 54.6966L76.0337 55.1969V50.8126L75.4171 50.196L73.2252 48.0039L71.0333 50.196L65.2256 56.0043L63.0337 58.1964L65.2256 60.3885L71.0333 66.1968L73.2252 68.3889L75.4171 66.1968L76.0337 65.5802V61.196L75.5334 61.6963L73.2252 64.0047L67.4175 58.1964Z" fill="#626262"/>
<rect x="-2.19191" width="11.3137" height="11.3137" transform="matrix(-0.707073 -0.70714 -0.707073 0.70714 58.7763 94.6502)" stroke="#626262" stroke-width="3.09997"/>
<rect x="-2.19191" width="11.3137" height="11.3137" transform="matrix(-0.707073 -0.707141 -0.707073 0.707141 38.7763 94.6502)" stroke="#626262" stroke-width="3.09997"/>
<rect width="21.1329" height="3.00014" transform="matrix(-0.707073 -0.707141 -0.707073 0.707141 69.0728 90.9512)" fill="#626262"/>
<rect width="21.1329" height="3.00014" transform="matrix(-0.707073 -0.707141 -0.707073 0.707141 49.5181 90.9512)" fill="#626262"/>
<rect width="21.1329" height="3.00014" transform="matrix(-0.707073 -0.707141 -0.707073 0.707141 29.5181 90.9512)" fill="#626262"/>
<rect width="9.56478" height="3.00014" transform="matrix(-0.707073 -0.707141 -0.707073 0.707141 10.5806 90.9512)" fill="#626262"/>
<rect width="21.1329" height="3.00014" transform="matrix(-0.707073 -0.707141 -0.707073 0.707141 32.5181 113.953)" fill="#626262"/>
<rect width="21.1329" height="3.00014" transform="matrix(-0.707073 -0.707141 -0.707073 0.707141 52.5181 113.953)" fill="#626262"/>
<rect width="21.1329" height="3.00014" transform="matrix(-0.707073 -0.707141 -0.707073 0.707141 72.5181 113.953)" fill="#626262"/>
<path fill-rule="evenodd" clip-rule="evenodd" d="M18.1343 96.2003L12.3265 90.392L10.0183 92.7005L6.51881 96.2003L10.0183 99.7002L12.3265 102.009L18.1343 96.2003ZM22.5181 96.2003L20.3262 94.0082L14.5184 88.1999L12.3265 86.0078L10.1346 88.1999L7.8264 90.5084L4.51807 93.817V98.5836L7.8264 101.892L10.1346 104.201L12.3265 106.393L14.5184 104.201L20.3262 98.3924L22.5181 96.2003Z" fill="#626262"/>
<rect x="-2.19191" width="11.3137" height="11.3137" transform="matrix(-0.707073 -0.707141 -0.707073 0.707141 59.2919 17.6434)" stroke="#626262" stroke-width="3.09997"/>
<rect width="7.21317" height="3.00014" transform="matrix(-0.707073 -0.707141 -0.707073 0.707141 50.0337 13.9434)" fill="#626262"/>
<rect width="15.0087" height="3.00014" transform="matrix(-0.707073 -0.707141 -0.707073 0.707141 70.0962 13.9434)" fill="#626262"/>
<rect width="14.7244" height="3.00014" transform="matrix(-0.707073 -0.707141 -0.707073 0.707141 33.0337 36.9463)" fill="#626262"/>
<rect width="21.1329" height="3.00014" transform="matrix(-0.707073 -0.707141 -0.707073 0.707141 53.0337 36.9463)" fill="#626262"/>
<rect width="21.1329" height="3.00014" transform="matrix(-0.707073 -0.707141 -0.707073 0.707141 73.0337 36.9463)" fill="#626262"/>
<path fill-rule="evenodd" clip-rule="evenodd" d="M76.5178 94.584L72.3263 90.392L66.5186 96.2003L72.3263 102.009L76.5178 97.8167V102.201L74.5182 104.201L72.3263 106.393L70.1344 104.201L64.3267 98.3924L62.1348 96.2003L64.3267 94.0082L70.1344 88.1999L72.3263 86.0078L74.5182 88.1999L76.5178 90.1997V94.584Z" fill="#626262"/>
<rect x="2.1919" width="11.3137" height="11.3137" transform="matrix(0.707073 -0.707141 0.707073 0.707141 42.6758 134.754)" stroke="#626262" stroke-width="3.09997"/>
<rect width="16.9285" height="3.00014" transform="matrix(0.707073 -0.707141 0.707073 0.707141 18.4517 124.981)" fill="#626262"/>
<rect width="21.1329" height="3.00014" transform="matrix(0.707073 -0.70714 0.707073 0.70714 35.0337 127.954)" fill="#626262"/>
<rect width="21.1329" height="3.00014" transform="matrix(0.707073 -0.70714 0.707073 0.70714 55.0337 127.954)" fill="#626262"/>
<rect width="17.5063" height="3.00014" transform="matrix(0.707073 -0.707141 0.707073 0.707141 54.5962 148.392)" fill="#626262"/>
<rect width="9.22132" height="3.00014" transform="matrix(0.707073 -0.70714 0.707073 0.70714 40.4556 142.533)" fill="#626262"/>
<path fill-rule="evenodd" clip-rule="evenodd" d="M66.4175 133.204L72.2252 127.396L74.5334 129.704L77.0337 132.205V129.012H78.2253L76.7254 127.512L74.4171 125.204L72.2252 123.012L70.0333 125.204L64.2256 131.012L62.0337 133.204L64.2256 135.396L70.0333 141.205L72.2252 143.397L74.4171 141.205L76.7254 138.896L78.6082 137.013H77.0337V134.204L74.5334 136.704L72.2252 139.013L66.4175 133.204Z" fill="#626262"/>
<path fill-rule="evenodd" clip-rule="evenodd" d="M25.3594 21.9021L30.6505 27.1937L32.8424 29.3858L35.0343 27.1937L40.842 21.3854L43.0339 19.1933L40.842 17.0012L36.5473 12.7061L34.1411 14.6839L38.6501 19.1933L32.8424 25.0016L27.7656 19.9243L25.3594 21.9021Z" fill="#626262"/>
<path fill-rule="evenodd" clip-rule="evenodd" d="M77.0335 17.1943L73.2247 13.3852L67.417 19.1935L73.2247 25.0018L77.0335 21.1927V25.5769L75.4166 27.1939L73.2247 29.386L71.0328 27.1939L65.2251 21.3856L63.0332 19.1935L65.2251 17.0014L71.0328 11.1931L73.2247 9.00098L75.4166 11.1931L77.0335 12.8101V17.1943Z" fill="#626262"/>
<path fill-rule="evenodd" clip-rule="evenodd" d="M26.8593 132.762L32.2252 127.396L38.033 133.204L33.1584 138.079L35.5357 140.086L40.2249 135.396L42.4168 133.204L40.2249 131.012L34.4171 125.204L32.2252 123.012L30.0333 125.204L24.4819 130.756L26.8593 132.762Z" fill="#626262"/>
</svg>
