<svg width="154" height="154" viewBox="0 0 154 154" fill="none" xmlns="http://www.w3.org/2000/svg">
<path d="M7.19571 58.862C7.19571 60.3454 6.19827 61.5958 4.83749 61.9791C4.92382 61.7719 5.01563 61.5432 5.10269 61.3017C5.34336 60.6341 5.57572 59.7959 5.57572 58.862C5.57572 58.0007 5.92198 57.3815 6.36485 56.6032C6.37434 56.5866 6.38433 56.5691 6.39475 56.5509C6.44337 56.4658 6.50143 56.3642 6.56245 56.2499C6.58293 56.277 6.60267 56.3048 6.62178 56.3331C6.96338 56.8394 7.19571 57.6876 7.19571 58.862Z" fill="#DEDCDC" stroke="#AEAEAE" stroke-width="3.2381"/>
<path fill-rule="evenodd" clip-rule="evenodd" d="M112.931 76.495C112.931 56.3457 96.4656 39.9806 76.1167 39.9806V37.1689C97.9777 37.1689 115.729 54.7597 115.729 76.495C115.729 98.2303 97.9777 115.821 76.1167 115.821V113.009C96.4656 113.009 112.931 96.6443 112.931 76.495Z" fill="#626262" stroke="#626262" stroke-width="0.359873" stroke-miterlimit="10"/>
<path fill-rule="evenodd" clip-rule="evenodd" d="M75.9253 152.181V2.53125H78.7957V152.181H75.9253Z" fill="#626262" stroke="#626262" stroke-width="0.359873" stroke-miterlimit="10"/>
<path fill-rule="evenodd" clip-rule="evenodd" d="M13.1558 37.1689H76.1144V40.0395H13.1558V37.1689Z" fill="#626262" stroke="#626262" stroke-width="0.359873" stroke-miterlimit="10"/>
<path fill-rule="evenodd" clip-rule="evenodd" d="M2.44092 76.0156H77.4555V78.6948H2.44092V76.0156Z" fill="#626262" stroke="#626262" stroke-width="0.359873" stroke-miterlimit="10"/>
<path fill-rule="evenodd" clip-rule="evenodd" d="M12.0073 112.95H78.2192V115.821H12.0073V112.95Z" fill="#626262" stroke="#626262" stroke-width="0.359873" stroke-miterlimit="10"/>
<path fill-rule="evenodd" clip-rule="evenodd" d="M77.3595 3.80712C36.7934 3.80712 3.90813 36.6931 3.90813 77.26C3.90813 117.827 36.7934 150.713 77.3595 150.713C117.926 150.713 150.811 117.827 150.811 77.26C150.811 36.6931 117.926 3.80712 77.3595 3.80712ZM1.10107 77.26C1.10107 35.1428 35.2431 1 77.3595 1C119.476 1 153.618 35.1428 153.618 77.26C153.618 119.377 119.476 153.52 77.3595 153.52C35.2431 153.52 1.10107 119.377 1.10107 77.26Z" fill="#626262" stroke="#626262" stroke-width="0.359873" stroke-miterlimit="10"/>
<ellipse cx="62.1952" cy="21.1723" rx="11.5238" ry="11.5249" stroke="#626262" stroke-width="3.29251"/>
<ellipse cx="62.2039" cy="21.1726" rx="4.93876" ry="4.93923" stroke="#626262" stroke-width="3.29251"/>
<ellipse cx="62.2005" cy="21.1728" rx="1.64625" ry="1.64641" fill="#626262"/>
<path fill-rule="evenodd" clip-rule="evenodd" d="M17.7236 29.8516C20.1375 32.6041 23.6801 34.3418 27.6286 34.3418C34.9024 34.3418 40.7987 28.4448 40.7987 21.1707C40.7987 18.4205 39.9558 15.8671 38.5143 13.7549L35.9043 15.7756C36.9173 17.3266 37.5061 19.1799 37.5061 21.1707C37.5061 26.6267 33.0837 31.0493 27.6286 31.0493C24.7394 31.0493 22.1398 29.8087 20.3336 27.8309L17.7236 29.8516Z" fill="#626262"/>
<path fill-rule="evenodd" clip-rule="evenodd" d="M22.52 25.3271C23.7274 26.8104 25.5678 27.7579 27.6295 27.7579C31.2664 27.7579 34.2145 24.8093 34.2145 21.1724C34.2145 19.2761 33.413 17.5669 32.1302 16.3652L29.7112 18.6211C30.4502 19.2249 30.922 20.1435 30.922 21.1724C30.922 22.9912 29.4477 24.4654 27.6295 24.4654C26.5182 24.4654 25.5353 23.9147 24.9391 23.0712L22.52 25.3271Z" fill="#626262"/>
<ellipse rx="11.5238" ry="11.5249" transform="matrix(1 0 0 -1 62.1952 133.182)" stroke="#626262" stroke-width="3.29251"/>
<ellipse rx="4.93876" ry="4.93924" transform="matrix(1 0 0 -1 62.2039 133.182)" stroke="#626262" stroke-width="3.29251"/>
<ellipse rx="1.64625" ry="1.64641" transform="matrix(1 0 0 -1 62.2005 133.183)" fill="#626262"/>
<path fill-rule="evenodd" clip-rule="evenodd" d="M17.7324 124.488C20.29 121.581 24.0995 119.824 28.2672 120.027C35.5323 120.382 41.1343 126.559 40.7799 133.825C40.6358 136.779 39.5287 139.459 37.7771 141.575L35.2709 139.439C36.5663 137.858 37.3841 135.863 37.4913 133.664C37.7571 128.215 33.5554 123.582 28.1068 123.316C24.9989 123.164 22.1565 124.466 20.2386 126.624L17.7324 124.488Z" fill="#626262"/>
<path fill-rule="evenodd" clip-rule="evenodd" d="M22.5239 129.027C23.7313 127.544 25.5717 126.597 27.6334 126.597C31.2703 126.597 34.2184 129.545 34.2184 133.182C34.2184 135.078 33.4169 136.788 32.1341 137.989L29.7151 135.733C30.4541 135.13 30.9259 134.211 30.9259 133.182C30.9259 131.363 29.4516 129.889 27.6334 129.889C26.5221 129.889 25.5392 130.44 24.943 131.283L22.5239 129.027Z" fill="#626262"/>
<ellipse cx="15.7473" cy="35.6493" rx="1.64625" ry="1.64641" fill="#626262"/>
<ellipse cx="22.3255" cy="35.6493" rx="1.64625" ry="1.64641" fill="#626262"/>
<ellipse cx="28.9114" cy="35.6493" rx="1.64625" ry="1.64641" fill="#626262"/>
<ellipse cx="35.4973" cy="35.6493" rx="1.64625" ry="1.64641" fill="#626262"/>
<ellipse cx="42.0911" cy="35.6493" rx="1.64625" ry="1.64641" fill="#626262"/>
<ellipse cx="48.6692" cy="35.6493" rx="1.64625" ry="1.64641" fill="#626262"/>
<ellipse cx="55.2512" cy="35.6493" rx="1.64625" ry="1.64641" fill="#626262"/>
<ellipse cx="61.8411" cy="35.6493" rx="1.64625" ry="1.64641" fill="#626262"/>
<ellipse cx="68.427" cy="35.6493" rx="1.64626" ry="1.64641" fill="#626262"/>
<ellipse cx="75.013" cy="35.6493" rx="1.64626" ry="1.64641" fill="#626262"/>
<ellipse cx="15.7473" cy="41.6503" rx="1.64625" ry="1.64641" fill="#626262"/>
<ellipse cx="22.3255" cy="41.6503" rx="1.64625" ry="1.64641" fill="#626262"/>
<ellipse cx="28.9114" cy="41.6503" rx="1.64625" ry="1.64641" fill="#626262"/>
<ellipse cx="35.4973" cy="41.6503" rx="1.64625" ry="1.64641" fill="#626262"/>
<ellipse cx="42.0911" cy="41.6503" rx="1.64625" ry="1.64641" fill="#626262"/>
<ellipse cx="48.6692" cy="41.6503" rx="1.64625" ry="1.64641" fill="#626262"/>
<ellipse cx="55.2512" cy="41.6503" rx="1.64625" ry="1.64641" fill="#626262"/>
<ellipse cx="61.8411" cy="41.6503" rx="1.64625" ry="1.64641" fill="#626262"/>
<ellipse cx="68.427" cy="41.6503" rx="1.64626" ry="1.64641" fill="#626262"/>
<ellipse cx="75.013" cy="41.6503" rx="1.64626" ry="1.64641" fill="#626262"/>
<ellipse cx="61.8411" cy="4.64641" rx="1.64625" ry="1.64641" fill="#626262"/>
<ellipse cx="68.427" cy="4.64641" rx="1.64626" ry="1.64641" fill="#626262"/>
<ellipse cx="75.013" cy="4.64641" rx="1.64626" ry="1.64641" fill="#626262"/>
<ellipse cx="6.9192" cy="74.6532" rx="1.64625" ry="1.64641" fill="#626262"/>
<ellipse cx="13.5051" cy="74.6532" rx="1.64625" ry="1.64641" fill="#626262"/>
<ellipse cx="20.0833" cy="74.6532" rx="1.64625" ry="1.64641" fill="#626262"/>
<ellipse cx="26.6692" cy="74.6532" rx="1.64625" ry="1.64641" fill="#626262"/>
<ellipse cx="33.2551" cy="74.6532" rx="1.64625" ry="1.64641" fill="#626262"/>
<ellipse cx="39.8489" cy="74.6532" rx="1.64625" ry="1.64641" fill="#626262"/>
<ellipse cx="46.427" cy="74.6532" rx="1.64625" ry="1.64641" fill="#626262"/>
<ellipse cx="53.009" cy="74.6532" rx="1.64625" ry="1.64641" fill="#626262"/>
<ellipse cx="59.5989" cy="74.6532" rx="1.64625" ry="1.64641" fill="#626262"/>
<ellipse cx="66.1848" cy="74.6532" rx="1.64626" ry="1.64641" fill="#626262"/>
<ellipse cx="72.7708" cy="74.6532" rx="1.64626" ry="1.64641" fill="#626262"/>
<ellipse cx="6.9192" cy="79.6542" rx="1.64625" ry="1.64641" fill="#626262"/>
<ellipse cx="13.5051" cy="79.6542" rx="1.64625" ry="1.64641" fill="#626262"/>
<ellipse cx="20.0833" cy="79.6542" rx="1.64625" ry="1.64641" fill="#626262"/>
<ellipse cx="26.6692" cy="79.6542" rx="1.64625" ry="1.64641" fill="#626262"/>
<ellipse cx="33.2551" cy="79.6542" rx="1.64625" ry="1.64641" fill="#626262"/>
<ellipse cx="39.8489" cy="79.6542" rx="1.64625" ry="1.64641" fill="#626262"/>
<ellipse cx="46.427" cy="79.6542" rx="1.64625" ry="1.64641" fill="#626262"/>
<ellipse cx="53.009" cy="79.6542" rx="1.64625" ry="1.64641" fill="#626262"/>
<ellipse cx="59.5989" cy="79.6542" rx="1.64625" ry="1.64641" fill="#626262"/>
<ellipse cx="66.1848" cy="79.6542" rx="1.64626" ry="1.64641" fill="#626262"/>
<ellipse cx="72.7708" cy="79.6542" rx="1.64626" ry="1.64641" fill="#626262"/>
<ellipse cx="13.5051" cy="111.657" rx="1.64625" ry="1.64641" fill="#626262"/>
<ellipse cx="20.0833" cy="111.657" rx="1.64625" ry="1.64641" fill="#626262"/>
<ellipse cx="26.6692" cy="111.657" rx="1.64625" ry="1.64641" fill="#626262"/>
<ellipse cx="33.2551" cy="111.657" rx="1.64625" ry="1.64641" fill="#626262"/>
<ellipse cx="39.8489" cy="111.657" rx="1.64625" ry="1.64641" fill="#626262"/>
<ellipse cx="46.427" cy="111.657" rx="1.64625" ry="1.64641" fill="#626262"/>
<ellipse cx="53.009" cy="111.657" rx="1.64625" ry="1.64641" fill="#626262"/>
<ellipse cx="59.5989" cy="111.657" rx="1.64625" ry="1.64641" fill="#626262"/>
<ellipse cx="66.1848" cy="111.657" rx="1.64626" ry="1.64641" fill="#626262"/>
<ellipse cx="72.7708" cy="111.657" rx="1.64626" ry="1.64641" fill="#626262"/>
<ellipse cx="20.0833" cy="116.657" rx="1.64625" ry="1.64641" fill="#626262"/>
<ellipse cx="26.6692" cy="116.657" rx="1.64625" ry="1.64641" fill="#626262"/>
<ellipse cx="33.2551" cy="116.657" rx="1.64625" ry="1.64641" fill="#626262"/>
<ellipse cx="39.8489" cy="116.657" rx="1.64625" ry="1.64641" fill="#626262"/>
<ellipse cx="46.427" cy="116.657" rx="1.64625" ry="1.64641" fill="#626262"/>
<ellipse cx="53.009" cy="116.657" rx="1.64625" ry="1.64641" fill="#626262"/>
<ellipse cx="59.5989" cy="116.657" rx="1.64625" ry="1.64641" fill="#626262"/>
<ellipse cx="66.1848" cy="116.657" rx="1.64626" ry="1.64641" fill="#626262"/>
<ellipse cx="72.7708" cy="116.657" rx="1.64626" ry="1.64641" fill="#626262"/>
<ellipse cx="59.5989" cy="149.66" rx="1.64625" ry="1.64641" fill="#626262"/>
<ellipse cx="66.1848" cy="149.66" rx="1.64626" ry="1.64641" fill="#626262"/>
<ellipse cx="72.7708" cy="149.66" rx="1.64626" ry="1.64641" fill="#626262"/>
<ellipse cx="6.62233" cy="58.1757" rx="1.64625" ry="1.64641" fill="#626262"/>
<ellipse cx="41.1913" cy="58.1753" rx="11.5238" ry="11.5249" stroke="#626262" stroke-width="3.29251"/>
<ellipse cx="41.1961" cy="58.1765" rx="4.93876" ry="4.93923" stroke="#626262" stroke-width="3.29251"/>
<ellipse cx="41.1965" cy="58.1757" rx="1.64625" ry="1.64641" fill="#626262"/>
<ellipse cx="75.6301" cy="58.1757" rx="1.64626" ry="1.64641" fill="#626262"/>
<path fill-rule="evenodd" clip-rule="evenodd" d="M78.1008 45.2373C77.2988 45.0847 76.4711 45.0049 75.6246 45.0049C68.3509 45.0049 62.4546 50.9019 62.4546 58.176C62.4546 65.4501 68.3509 71.3471 75.6246 71.3471C76.4711 71.3471 77.2988 71.2673 78.1008 71.1147V67.7416C77.3095 67.946 76.4798 68.0546 75.6246 68.0546C70.1696 68.0546 65.7471 63.632 65.7471 58.176C65.7471 52.7201 70.1696 48.2974 75.6246 48.2974C76.4798 48.2974 77.3095 48.4061 78.1008 48.6104V45.2373Z" fill="#626262"/>
<path fill-rule="evenodd" clip-rule="evenodd" d="M77.1008 51.7558C76.6278 51.6479 76.1353 51.5908 75.6294 51.5908C71.9925 51.5908 69.0444 54.5394 69.0444 58.1763C69.0444 61.8132 71.9925 64.7618 75.6294 64.7618C76.1353 64.7618 76.6278 64.7048 77.1008 64.5968V61.123C76.658 61.3446 76.1583 61.4693 75.6294 61.4693C73.8112 61.4693 72.3369 59.9951 72.3369 58.1763C72.3369 56.3575 73.8112 54.8833 75.6294 54.8833C76.1583 54.8833 76.658 55.008 77.1008 55.2296V51.7558Z" fill="#626262"/>
<path fill-rule="evenodd" clip-rule="evenodd" d="M3.16797 63.7821C4.17286 64.4033 5.35729 64.7618 6.62549 64.7618C10.2624 64.7618 13.2105 61.8132 13.2105 58.1763C13.2105 54.6479 10.4358 51.7674 6.94924 51.5986L5.90527 54.9623C6.13708 54.9106 6.3781 54.8833 6.62549 54.8833C8.44375 54.8833 9.918 56.3575 9.918 58.1763C9.918 59.9951 8.44375 61.4693 6.62549 61.4693C5.67234 61.4693 4.81372 61.0642 4.21245 60.4167L3.16797 63.7821Z" fill="#626262"/>
<path fill-rule="evenodd" clip-rule="evenodd" d="M2.30518 70.6221C3.65837 71.0918 5.11185 71.347 6.62494 71.347C13.8987 71.347 19.795 65.4499 19.795 58.1759C19.795 51.8953 15.3994 46.6413 9.51682 45.3232L8.61206 48.4972C13.1148 49.417 16.5025 53.4006 16.5025 58.1759C16.5025 63.6318 12.08 68.0545 6.62494 68.0545C5.42457 68.0545 4.2742 67.8403 3.20995 67.4481L2.30518 70.6221Z" fill="#626262"/>
<ellipse rx="1.64625" ry="1.64641" transform="matrix(1 0 0 -1 6.62233 96.1788)" fill="#626262"/>
<ellipse rx="11.5238" ry="11.5249" transform="matrix(1 0 0 -1 41.1913 96.1782)" stroke="#626262" stroke-width="3.29251"/>
<ellipse rx="4.93876" ry="4.93924" transform="matrix(1 0 0 -1 41.1961 96.1789)" stroke="#626262" stroke-width="3.29251"/>
<ellipse rx="1.64625" ry="1.64641" transform="matrix(1 0 0 -1 41.1965 96.1788)" fill="#626262"/>
<ellipse rx="1.64626" ry="1.64641" transform="matrix(1 0 0 -1 75.6301 96.1788)" fill="#626262"/>
<path fill-rule="evenodd" clip-rule="evenodd" d="M78.1008 109.117C77.2988 109.27 76.4711 109.35 75.6246 109.35C68.3509 109.35 62.4546 103.453 62.4546 96.1785C62.4546 88.9044 68.3509 83.0074 75.6246 83.0074C76.4711 83.0074 77.2988 83.0872 78.1008 83.2398V86.6128C77.3095 86.4085 76.4798 86.2999 75.6246 86.2999C70.1696 86.2999 65.7471 90.7225 65.7471 96.1785C65.7471 101.634 70.1696 106.057 75.6246 106.057C76.4798 106.057 77.3095 105.948 78.1008 105.744V109.117Z" fill="#626262"/>
<path fill-rule="evenodd" clip-rule="evenodd" d="M77.1008 102.6C76.6278 102.708 76.1353 102.765 75.6294 102.765C71.9925 102.765 69.0444 99.8161 69.0444 96.1792C69.0444 92.5422 71.9925 89.5937 75.6294 89.5937C76.1353 89.5937 76.6278 89.6507 77.1008 89.7587V93.2325C76.658 93.0109 76.1583 92.8862 75.6294 92.8862C73.8112 92.8862 72.3369 94.3604 72.3369 96.1792C72.3369 97.998 73.8112 99.4721 75.6294 99.4721C76.1583 99.4721 76.658 99.3474 77.1008 99.1258V102.6Z" fill="#626262"/>
<path fill-rule="evenodd" clip-rule="evenodd" d="M3.16797 90.5724C4.17286 89.9512 5.3573 89.5927 6.6255 89.5927C10.2624 89.5927 13.2105 92.5413 13.2105 96.1782C13.2105 99.7066 10.4358 102.587 6.94924 102.756L5.90527 99.3921C6.13708 99.4439 6.37811 99.4712 6.6255 99.4712C8.44375 99.4712 9.918 97.997 9.918 96.1782C9.918 94.3594 8.44375 92.8852 6.6255 92.8852C5.67235 92.8852 4.81372 93.2903 4.21245 93.9378L3.16797 90.5724Z" fill="#626262"/>
<path fill-rule="evenodd" clip-rule="evenodd" d="M2.30518 83.7324C3.65837 83.2627 5.11185 83.0075 6.62494 83.0075C13.8987 83.0075 19.795 88.9046 19.795 96.1786C19.795 102.459 15.3994 107.713 9.51682 109.031L8.61206 105.857C13.1148 104.938 16.5025 100.954 16.5025 96.1786C16.5025 90.7227 12.08 86.3 6.62494 86.3C5.42457 86.3 4.2742 86.5142 3.20995 86.9063L2.30518 83.7324Z" fill="#626262"/>
</svg>
