<svg width="154" height="154" viewBox="0 0 154 154" fill="none" xmlns="http://www.w3.org/2000/svg">
<path fill-rule="evenodd" clip-rule="evenodd" d="M112.897 76.495C112.897 56.3457 96.4319 39.9806 76.083 39.9806V37.1689C97.944 37.1689 115.695 54.7597 115.695 76.495C115.695 98.2303 97.944 115.821 76.083 115.821V113.009C96.4319 113.009 112.897 96.6443 112.897 76.495Z" fill="#626262" stroke="#626262" stroke-width="0.359873" stroke-miterlimit="10"/>
<path fill-rule="evenodd" clip-rule="evenodd" d="M75.8916 152.181V2.53125H78.762V152.181H75.8916Z" fill="#626262" stroke="#626262" stroke-width="0.359873" stroke-miterlimit="10"/>
<path fill-rule="evenodd" clip-rule="evenodd" d="M13.1221 37.1689H76.0807V40.0395H13.1221V37.1689Z" fill="#626262" stroke="#626262" stroke-width="0.359873" stroke-miterlimit="10"/>
<path fill-rule="evenodd" clip-rule="evenodd" d="M2.40723 76.0156H77.4218V78.6948H2.40723V76.0156Z" fill="#626262" stroke="#626262" stroke-width="0.359873" stroke-miterlimit="10"/>
<path fill-rule="evenodd" clip-rule="evenodd" d="M11.9736 112.95H78.1855V115.821H11.9736V112.95Z" fill="#626262" stroke="#626262" stroke-width="0.359873" stroke-miterlimit="10"/>
<path fill-rule="evenodd" clip-rule="evenodd" d="M77.3258 3.80712C36.7597 3.80712 3.87444 36.6931 3.87444 77.26C3.87444 117.827 36.7597 150.713 77.3258 150.713C117.892 150.713 150.777 117.827 150.777 77.26C150.777 36.6931 117.892 3.80712 77.3258 3.80712ZM1.06738 77.26C1.06738 35.1428 35.2094 1 77.3258 1C119.442 1 153.584 35.1428 153.584 77.26C153.584 119.377 119.442 153.52 77.3258 153.52C35.2094 153.52 1.06738 119.377 1.06738 77.26Z" fill="#626262" stroke="#626262" stroke-width="0.359873" stroke-miterlimit="10"/>
<path fill-rule="evenodd" clip-rule="evenodd" d="M77.3258 3.80712C36.7597 3.80712 3.87444 36.6931 3.87444 77.26C3.87444 117.827 36.7597 150.713 77.3258 150.713C117.892 150.713 150.777 117.827 150.777 77.26C150.777 36.6931 117.892 3.80712 77.3258 3.80712ZM1.06738 77.26C1.06738 35.1428 35.2094 1 77.3258 1C119.442 1 153.584 35.1428 153.584 77.26C153.584 119.377 119.442 153.52 77.3258 153.52C35.2094 153.52 1.06738 119.377 1.06738 77.26Z" fill="#626262" stroke="#626262" stroke-width="0.359873" stroke-miterlimit="10"/>
<path d="M35.8769 130.822H57.2579V132.203H35.8769V130.822Z" fill="#626262" stroke="#626262" stroke-width="1.61905"/>
<path d="M20.8769 94.8183H42.2579V96.1995H20.8769V94.8183Z" fill="#626262" stroke="#626262" stroke-width="1.61905"/>
<path d="M48.8769 94.8183H70.2579V96.1995H48.8769V94.8183Z" fill="#626262" stroke="#626262" stroke-width="1.61905"/>
<path d="M35.8769 56.8144H57.2579V58.1956H35.8769V56.8144Z" fill="#626262" stroke="#626262" stroke-width="1.61905"/>
<path d="M49.8769 19.8115H71.2579V21.1927H49.8769V19.8115Z" fill="#626262" stroke="#626262" stroke-width="1.61905"/>
<path d="M28.8769 19.8115H41.2579V21.1927H28.8769V19.8115Z" fill="#626262" stroke="#626262" stroke-width="1.61905"/>
<path d="M5.87691 56.8144H27.2579V58.1956H5.87691V56.8144Z" fill="#626262" stroke="#626262" stroke-width="1.61905"/>
<path d="M63.8769 56.8144H76.2579V58.1956H63.8769V56.8144Z" fill="#626262" stroke="#626262" stroke-width="1.61905"/>
<path d="M63.8769 130.822H76.2579V132.203H63.8769V130.822Z" fill="#626262" stroke="#626262" stroke-width="1.61905"/>
<path d="M4.87691 94.8183H13.2579V96.1995H4.87691V94.8183Z" fill="#626262" stroke="#626262" stroke-width="1.61905"/>
<path d="M49.1626 95.8664C49.1626 97.6552 47.7127 99.105 45.9245 99.105C44.1363 99.105 42.6864 97.6552 42.6864 95.8664C42.6864 94.0776 44.1363 92.6278 45.9245 92.6278C47.7127 92.6278 49.1626 94.0776 49.1626 95.8664Z" stroke="#626262" stroke-width="3.2381"/>
<path d="M77.1626 95.8664C77.1626 97.6552 75.7127 99.105 73.9245 99.105C72.1363 99.105 70.6864 97.6552 70.6864 95.8664C70.6864 94.0776 72.1363 92.6278 73.9245 92.6278C75.7127 92.6278 77.1626 94.0776 77.1626 95.8664Z" stroke="#626262" stroke-width="3.2381"/>
<path d="M21.1626 95.8664C21.1626 97.6552 19.7127 99.105 17.9245 99.105C16.1363 99.105 14.6864 97.6552 14.6864 95.8664C14.6864 94.0776 16.1363 92.6278 17.9245 92.6278C19.7127 92.6278 21.1626 94.0776 21.1626 95.8664Z" stroke="#626262" stroke-width="3.2381"/>
<path d="M55.7828 87.723L65.4971 78.0078H46.0685L55.7828 87.723Z" stroke="#626262" stroke-width="3.2381"/>
<path d="M27.7828 87.723L37.4971 78.0078H18.0685L27.7828 87.723Z" stroke="#626262" stroke-width="3.2381"/>
<path d="M55.7828 104.009L65.4971 113.725H46.0685L55.7828 104.009Z" stroke="#626262" stroke-width="3.2381"/>
<path d="M27.7828 104.009L37.4971 113.725H18.0685L27.7828 104.009Z" stroke="#626262" stroke-width="3.2381"/>
<path d="M49.1626 20.8586C49.1626 22.6473 47.7127 24.0971 45.9245 24.0971C44.1363 24.0971 42.6864 22.6473 42.6864 20.8586C42.6864 19.0698 44.1363 17.62 45.9245 17.62C47.7127 17.62 49.1626 19.0698 49.1626 20.8586Z" stroke="#626262" stroke-width="3.2381"/>
<path d="M77.1626 20.8586C77.1626 22.6473 75.7127 24.0971 73.9245 24.0971C72.1363 24.0971 70.6864 22.6473 70.6864 20.8586C70.6864 19.0698 72.1363 17.62 73.9245 17.62C75.7127 17.62 77.1626 19.0698 77.1626 20.8586Z" stroke="#626262" stroke-width="3.2381"/>
<path d="M55.7828 29.0026L65.4971 38.7178H46.0685L55.7828 29.0026Z" stroke="#626262" stroke-width="3.2381"/>
<path d="M27.7828 29.0026L37.4971 38.7178H18.0685L27.7828 29.0026Z" stroke="#626262" stroke-width="3.2381"/>
<path d="M63.1626 57.8625C63.1626 59.6512 61.7127 61.101 59.9245 61.101C58.1363 61.101 56.6864 59.6512 56.6864 57.8625C56.6864 56.0737 58.1363 54.6239 59.9245 54.6239C61.7127 54.6239 63.1626 56.0737 63.1626 57.8625Z" stroke="#626262" stroke-width="3.2381"/>
<path d="M35.1626 57.8625C35.1626 59.6512 33.7127 61.101 31.9245 61.101C30.1363 61.101 28.6864 59.6512 28.6864 57.8625C28.6864 56.0737 30.1363 54.6239 31.9245 54.6239C33.7127 54.6239 35.1626 56.0737 35.1626 57.8625Z" stroke="#626262" stroke-width="3.2381"/>
<path d="M41.7828 48.7191L51.4971 39.0039H32.0685L41.7828 48.7191Z" stroke="#626262" stroke-width="3.2381"/>
<path d="M41.7828 68.0065L51.4971 77.7217H32.0685L41.7828 68.0065Z" stroke="#626262" stroke-width="3.2381"/>
<path d="M63.1626 131.869C63.1626 133.658 61.7127 135.108 59.9245 135.108C58.1363 135.108 56.6864 133.658 56.6864 131.869C56.6864 130.081 58.1363 128.631 59.9245 128.631C61.7127 128.631 63.1626 130.081 63.1626 131.869Z" stroke="#626262" stroke-width="3.2381"/>
<path d="M35.1626 131.869C35.1626 133.658 33.7127 135.108 31.9245 135.108C30.1363 135.108 28.6864 133.658 28.6864 131.869C28.6864 130.081 30.1363 128.631 31.9245 128.631C33.7127 128.631 35.1626 130.081 35.1626 131.869Z" stroke="#626262" stroke-width="3.2381"/>
<path d="M41.7828 123.726L51.4971 114.011H32.0685L41.7828 123.726Z" stroke="#626262" stroke-width="3.2381"/>
<path fill-rule="evenodd" clip-rule="evenodd" d="M47.665 6.88622L54.6381 13.8599L55.783 15.0049L56.9278 13.8599L66.6421 4.14469L69.4057 1.38086H68.6689L68.7428 1.6804L56.845 4.61895H61.5888L55.783 10.4253L51.3373 5.97925L47.665 6.88622Z" fill="#626262"/>
<path fill-rule="evenodd" clip-rule="evenodd" d="M11.7866 40.3361H18.4969H22.4053L19.6417 37.5722L15.1276 33.0576L13.6868 36.1963L14.5884 37.098H13.273L11.7866 40.3361Z" fill="#626262"/>
<path fill-rule="evenodd" clip-rule="evenodd" d="M9.39795 46.6237L12.6378 49.8638L13.7827 51.0088L14.9276 49.8638L24.6419 40.1486L27.4054 37.3848H23.497H12.8286L11.6262 40.6229H19.5885L13.7827 46.4292L10.638 43.2842L9.39795 46.6237Z" fill="#626262"/>
<path fill-rule="evenodd" clip-rule="evenodd" d="M2.06738 87.7269L10.642 79.1515L13.4055 76.3877H9.49707H2.06738V79.6258H5.58861L2.06738 83.1474V87.7269Z" fill="#626262"/>
<path fill-rule="evenodd" clip-rule="evenodd" d="M23.4971 79.3399H27.4055L24.642 76.576L14.9277 66.8608L13.7828 65.7158L12.6379 66.8608L2.9236 76.576L2.06738 77.4323V79.3399H4.0685L23.4971 79.3399ZM13.7828 70.2954L19.5886 76.1018H7.97696L13.7828 70.2954Z" fill="#626262"/>
<path fill-rule="evenodd" clip-rule="evenodd" d="M17.6699 122.128L24.6418 115.155L27.4053 112.392H23.4969H12.2119L14.0271 115.63H19.5884L16.0249 119.194L17.6699 122.128Z" fill="#626262"/>
<path fill-rule="evenodd" clip-rule="evenodd" d="M78.0675 37.3848H60.0686H56.1602L58.9237 40.1486L68.638 49.8638L69.7829 51.0088L70.9278 49.8638L78.0675 42.7234V37.3848ZM69.7829 46.4292L75.5887 40.6229H63.9771L69.7829 46.4292Z" fill="#626262"/>
<path fill-rule="evenodd" clip-rule="evenodd" d="M77.0675 79.3399V73.0011L70.9278 66.8608L69.7829 65.7158L68.638 66.8608L58.9237 76.576L56.1602 79.3399H60.0686L77.0675 79.3399ZM69.7829 70.2954L75.5887 76.1018H63.9771L69.7829 70.2954Z" fill="#626262"/>
<path fill-rule="evenodd" clip-rule="evenodd" d="M77.0675 112.392H60.0686H56.1602L58.9237 115.155L68.638 124.871L69.7829 126.016L70.9278 124.871L77.0675 118.73V112.392ZM83.0675 112.73L83.4057 112.392H83.0675V112.73ZM69.7829 121.436L75.5887 115.63H63.9771L69.7829 121.436Z" fill="#626262"/>
<path fill-rule="evenodd" clip-rule="evenodd" d="M62.4592 151.347H64.4057L61.6421 148.583L51.9278 138.868L50.7829 137.723L49.638 138.868L43.7446 144.762L47.1586 145.927L50.7829 142.302L56.5887 148.109H53.5503L62.5195 151.17L62.4592 151.347Z" fill="#626262"/>
<path fill-rule="evenodd" clip-rule="evenodd" d="M77.0673 145.008V151.347L64.0673 151.347V150.014H57.4927L58.9235 148.583L68.6378 138.868L69.7827 137.723L70.9276 138.868L77.0673 145.008ZM75.5885 148.109L69.7827 142.302L63.9768 148.109H75.5885Z" fill="#626262"/>
<path d="M7.16202 57.862C7.16202 59.3454 6.16458 60.5958 4.8038 60.9791C4.89013 60.7719 4.98194 60.5432 5.069 60.3017C5.30967 59.6341 5.54203 58.7959 5.54203 57.862C5.54203 57.0007 5.88829 56.3815 6.33116 55.6032C6.34065 55.5866 6.35063 55.5691 6.36106 55.5509C6.40968 55.4658 6.46774 55.3642 6.52876 55.2499C6.54923 55.277 6.56898 55.3048 6.58809 55.3331C6.92969 55.8394 7.16202 56.6876 7.16202 57.862Z" fill="white" stroke="#626262" stroke-width="3.2381"/>
</svg>
