<svg width="154" height="154" viewBox="0 0 154 154" fill="none" xmlns="http://www.w3.org/2000/svg">
<path fill-rule="evenodd" clip-rule="evenodd" d="M112.83 76.495C112.83 56.3457 96.3645 39.9806 76.0156 39.9806V37.1689C97.8766 37.1689 115.628 54.7597 115.628 76.495C115.628 98.2303 97.8766 115.821 76.0156 115.821V113.009C96.3645 113.009 112.83 96.6443 112.83 76.495Z" fill="#626262" stroke="#626262" stroke-width="0.359873" stroke-miterlimit="10"/>
<path fill-rule="evenodd" clip-rule="evenodd" d="M75.8242 152.181V2.53125H78.6946V152.181H75.8242Z" fill="#626262" stroke="#626262" stroke-width="0.359873" stroke-miterlimit="10"/>
<path fill-rule="evenodd" clip-rule="evenodd" d="M13.0547 37.1689H76.0133V40.0395H13.0547V37.1689Z" fill="#626262" stroke="#626262" stroke-width="0.359873" stroke-miterlimit="10"/>
<path fill-rule="evenodd" clip-rule="evenodd" d="M2.33984 76.0156H77.3544V78.6948H2.33984V76.0156Z" fill="#626262" stroke="#626262" stroke-width="0.359873" stroke-miterlimit="10"/>
<path fill-rule="evenodd" clip-rule="evenodd" d="M11.9062 112.95H78.1181V115.821H11.9062V112.95Z" fill="#626262" stroke="#626262" stroke-width="0.359873" stroke-miterlimit="10"/>
<path fill-rule="evenodd" clip-rule="evenodd" d="M77.2584 3.80712C36.6923 3.80712 3.80706 36.6931 3.80706 77.26C3.80706 117.827 36.6923 150.713 77.2584 150.713C117.824 150.713 150.71 117.827 150.71 77.26C150.71 36.6931 117.824 3.80712 77.2584 3.80712ZM1 77.26C1 35.1428 35.1421 1 77.2584 1C119.375 1 153.517 35.1428 153.517 77.26C153.517 119.377 119.375 153.52 77.2584 153.52C35.1421 153.52 1 119.377 1 77.26Z" fill="#626262" stroke="#626262" stroke-width="0.359873" stroke-miterlimit="10"/>
<path fill-rule="evenodd" clip-rule="evenodd" d="M77.2584 3.80712C36.6923 3.80712 3.80706 36.6931 3.80706 77.26C3.80706 117.827 36.6923 150.713 77.2584 150.713C117.824 150.713 150.71 117.827 150.71 77.26C150.71 36.6931 117.824 3.80712 77.2584 3.80712ZM1 77.26C1 35.1428 35.1421 1 77.2584 1C119.375 1 153.517 35.1428 153.517 77.26C153.517 119.377 119.375 153.52 77.2584 153.52C35.1421 153.52 1 119.377 1 77.26Z" fill="#626262" stroke="#626262" stroke-width="0.359873" stroke-miterlimit="10"/>
<path fill-rule="evenodd" clip-rule="evenodd" d="M46.8366 9.65411C47.021 9.37313 47.1635 9.15589 46.5 8.50073C47.3216 9.31193 47.7983 9.14781 48.2123 9.00526C48.6396 8.85814 49.0002 8.73399 49.6044 9.7286L49.656 9.81347C50.9068 11.8722 52.0375 13.717 53.4116 15.0743C54.7291 16.3756 56.2013 17.1573 58.1626 17.1573C60.1255 17.1573 61.5988 16.3753 62.9167 15.074C64.2914 13.7168 65.4225 11.8721 66.6732 9.81347L66.7264 9.72577L66.7265 9.72573C67.9156 7.76829 69.2245 5.61363 70.8924 3.96611C72.6419 2.23793 74.8498 1 77.7954 1V4.05057C75.8342 4.05057 74.3619 4.83231 73.0445 6.13363C71.6704 7.49095 70.5396 9.33568 69.2888 11.3944L69.2373 11.4793L69.2372 11.4794C68.0476 13.4377 66.7379 15.5937 65.0684 17.242C63.3181 18.9702 61.1092 20.2079 58.1626 20.2079C55.217 20.2079 53.0091 18.97 51.2595 17.2418C49.5916 15.5943 48.2827 13.4397 47.0937 11.4823L47.0403 11.3944C46.3933 10.3295 46.639 9.95522 46.8366 9.65411Z" fill="#626262"/>
<path fill-rule="evenodd" clip-rule="evenodd" d="M25.804 20.9679C25.0984 21.7301 25.7829 21.9704 26.0938 22.0304C25.9994 22.0232 25.8504 22.0151 25.6297 22.0095C25.7168 22.0177 25.641 22.0356 25.4768 22.0742C25.0164 22.1824 23.8612 22.4541 23.6523 23.1359C25.027 24.4932 26.158 26.3379 27.4088 28.3965L27.4621 28.4842C28.6512 30.4417 29.9601 32.5963 31.628 34.2439C33.3775 35.972 35.5854 37.21 38.531 37.21C41.4777 37.21 43.6865 35.9723 45.4369 34.2441C47.1064 32.5957 48.4161 30.4397 49.6058 28.4814L49.6573 28.3965C50.9081 26.3377 52.0389 24.493 53.413 23.1357C54.7304 21.8344 56.2026 21.0526 58.1639 21.0526C60.1268 21.0526 61.6001 21.8346 62.9181 23.1359C64.2927 24.4932 65.4238 26.3379 66.6745 28.3965L66.7278 28.4842L66.7278 28.4843L66.7279 28.4843C67.9169 30.4417 69.2258 32.5964 70.8937 34.2439C72.6432 35.972 74.8512 37.21 77.7968 37.21V34.1594C75.8355 34.1594 74.3633 33.3777 73.0458 32.0763C71.6717 30.719 70.541 28.8743 69.2902 26.8155L69.2386 26.7306L69.2386 26.7306L69.2385 26.7305C68.0489 24.7722 66.7392 22.6163 65.0698 20.9679C63.3194 19.2397 61.1105 18.0021 58.1639 18.0021C55.2183 18.0021 53.0104 19.24 51.2608 20.9682C49.593 22.6157 48.2841 24.7703 47.095 26.7277L47.0416 26.8155C45.7909 28.8741 44.6599 30.7188 43.2852 32.0761C41.9673 33.3774 40.4939 34.1594 38.531 34.1594C36.5698 34.1594 35.0975 33.3777 33.7801 32.0763C32.406 30.719 31.2753 28.8743 30.0244 26.8155L29.9729 26.7306C28.7832 24.7723 27.4735 22.6163 25.804 20.9679ZM24.9996 22.0024C25.3607 22.0024 25.5551 22.0024 25.6297 22.0095C25.463 22.0053 25.2554 22.0024 24.9996 22.0024Z" fill="#626262"/>
<path fill-rule="evenodd" clip-rule="evenodd" d="M7.90431 49.0725C8.19722 48.9951 8.40912 48.9391 7.77807 48.316C8.62912 49.1563 8.96966 48.7392 9.2566 48.3877C9.53255 48.0497 9.75894 47.7724 10.3421 48.7324L10.3938 48.8174C11.6446 50.8761 12.7753 52.7209 14.1494 54.0782C15.4668 55.3795 16.9391 56.1612 18.9003 56.1612C20.8633 56.1612 22.3366 55.3792 23.6545 54.078C25.0292 52.7207 26.1602 50.876 27.4109 48.8174L27.4643 48.7296C28.6533 46.7722 29.9623 44.6175 31.6301 42.97C33.3797 41.2418 35.5876 40.0039 38.5332 40.0039C41.4799 40.0039 43.6887 41.2416 45.4391 42.9698C47.1086 44.6182 48.4183 46.7742 49.6079 48.7325L49.6595 48.8174C50.9103 50.8761 52.041 52.7209 53.4151 54.0782C54.7326 55.3795 56.2048 56.1612 58.1661 56.1612C60.129 56.1612 61.6023 55.3792 62.9203 54.078C64.2949 52.7207 65.426 50.876 66.6767 48.8174L66.73 48.7297C67.9191 46.7722 69.228 44.6175 70.8959 42.97C72.6454 41.2418 74.8533 40.0039 77.799 40.0039V43.0545C75.8377 43.0545 74.3654 43.8362 73.048 45.1375C71.6739 46.4949 70.5432 48.3396 69.2924 50.3983L69.2408 50.4832L69.2407 50.4833L69.2407 50.4834C68.0511 52.4417 66.7414 54.5976 65.0719 56.2459C63.3216 57.9741 61.1127 59.2118 58.1661 59.2118C55.2205 59.2118 53.0126 57.9739 51.263 56.2457C49.5951 54.5982 48.2862 52.4436 47.0972 50.4862L47.0438 50.3983C45.7931 48.3397 44.662 46.495 43.2874 45.1378C41.9694 43.8365 40.4961 43.0545 38.5332 43.0545C36.5719 43.0545 35.0997 43.8362 33.7823 45.1375C32.4082 46.4949 31.2774 48.3396 30.0266 50.3983L29.9751 50.4832C28.7854 52.4416 27.4757 54.5976 25.8062 56.2459C24.0558 57.9741 21.847 59.2118 18.9003 59.2118C15.9547 59.2118 13.7468 57.9739 11.9973 56.2457C10.3294 54.5982 9.02052 52.4436 7.83144 50.4862L7.83144 50.4862L7.77807 50.3983C7.10151 49.2848 7.55916 49.1638 7.90431 49.0725Z" fill="#626262"/>
<path fill-rule="evenodd" clip-rule="evenodd" d="M3.10795 73.1094C2.86327 74.1127 2.64524 75.0067 1.5 75.0067C4.39047 75.0067 4.42113 74.9764 6.07338 73.344C6.10549 73.3123 6.13822 73.28 6.17158 73.247C7.84105 71.5987 9.15075 69.4427 10.3404 67.4844L10.392 67.3994C11.6428 65.3407 12.7736 63.4959 14.1477 62.1386C15.4651 60.8373 16.9373 60.0556 18.8986 60.0556C20.8615 60.0556 22.3348 60.8376 23.6528 62.1388C25.0274 63.4961 26.1585 65.3408 27.4092 67.3994L27.4625 67.4872C28.6516 69.4446 29.9605 71.5993 31.6284 73.2468C33.378 74.975 35.5859 76.2129 38.5315 76.2129C41.4781 76.2129 43.687 74.9752 45.4373 73.247C47.1068 71.5986 48.4165 69.4426 49.6062 67.4843L49.6578 67.3994C50.9086 65.3407 52.0393 63.4959 53.4134 62.1386C54.7308 60.8373 56.2031 60.0556 58.1644 60.0556C60.1273 60.0556 61.6006 60.8376 62.9185 62.1388C64.2932 63.4961 65.4242 65.3408 66.6749 67.3994L66.7282 67.4871L66.7283 67.4872C67.9174 69.4446 69.2262 71.5993 70.8941 73.2468C72.6437 74.975 74.8516 76.2129 77.7972 76.2129V73.1623C75.8359 73.1623 74.3637 72.3806 73.0463 71.0793C71.6722 69.7219 70.5414 67.8772 69.2906 65.8185L69.2391 65.7336L69.239 65.7335C68.0494 63.7752 66.7397 61.6192 65.0702 59.9709C63.3199 58.2427 61.111 57.005 58.1644 57.005C55.2187 57.005 53.0108 58.2429 51.2613 59.9711C49.5934 61.6186 48.2845 63.7732 47.0954 65.7306L47.0421 65.8185C45.7914 67.8771 44.6603 69.7218 43.2857 71.079C41.9677 72.3803 40.4944 73.1623 38.5315 73.1623C36.5702 73.1623 35.098 72.3806 33.7805 71.0793C32.4064 69.7219 31.2757 67.8772 30.0249 65.8185L29.9733 65.7336C28.7837 63.7752 27.4739 61.6192 25.8044 59.9709C24.0541 58.2427 21.8452 57.005 18.8986 57.005C15.953 57.005 13.7451 58.2429 11.9955 59.9711C10.3277 61.6186 9.01878 63.7732 7.8297 65.7306L7.77634 65.8185C6.52562 67.8771 5.39457 69.7218 4.01992 71.079C3.47091 71.6211 3.28264 72.3931 3.10795 73.1094Z" fill="#626262"/>
<path fill-rule="evenodd" clip-rule="evenodd" d="M3.1053 81.0223C2.86169 79.9651 2.64111 79.0079 1.5 79.0079C4.20538 79.0079 4.40547 79.2082 5.77475 80.5785C5.89686 80.7007 6.02827 80.8322 6.17158 80.9737C7.84105 82.622 9.15075 84.778 10.3404 86.7363L10.392 86.8213C11.6428 88.88 12.7736 90.7248 14.1477 92.0821C15.4651 93.3834 16.9373 94.1652 18.8986 94.1652C20.8615 94.1652 22.3348 93.3832 23.6528 92.0819C25.0274 90.7246 26.1585 88.8799 27.4092 86.8213L27.4625 86.7335C28.6516 84.7761 29.9605 82.6214 31.6284 80.9739C33.378 79.2457 35.5859 78.0078 38.5315 78.0078C41.4781 78.0078 43.687 79.2455 45.4373 80.9737C47.1068 82.6221 48.4165 84.7781 49.6062 86.7364L49.6578 86.8213C50.9086 88.88 52.0393 90.7248 53.4134 92.0821C54.7308 93.3834 56.2031 94.1652 58.1644 94.1652C60.1273 94.1652 61.6006 93.3832 62.9185 92.0819C64.2932 90.7246 65.4242 88.8799 66.6749 86.8213L66.7282 86.7336L66.7283 86.7335C67.9174 84.7761 69.2262 82.6214 70.8941 80.9739C72.6437 79.2457 74.8516 78.0078 77.7972 78.0078V81.0584C75.8359 81.0584 74.3637 81.8401 73.0463 83.1414C71.6722 84.4988 70.5414 86.3435 69.2906 88.4023L69.2391 88.4871L69.239 88.4872L69.2389 88.4874C68.0493 90.4457 66.7396 92.6015 65.0702 94.2498C63.3199 95.9781 61.111 97.2157 58.1644 97.2157C55.2187 97.2157 53.0108 95.9778 51.2613 94.2496C49.5934 92.6021 48.2845 90.4475 47.0954 88.4901L47.0421 88.4023C45.7914 86.3436 44.6603 84.4989 43.2857 83.1417C41.9677 81.8404 40.4944 81.0584 38.5315 81.0584C36.5702 81.0584 35.098 81.8401 33.7805 83.1414C32.4064 84.4988 31.2757 86.3435 30.0249 88.4023L29.9733 88.4871C28.7837 90.4455 27.4739 92.6015 25.8044 94.2498C24.0541 95.9781 21.8452 97.2157 18.8986 97.2157C15.953 97.2157 13.7451 95.9778 11.9955 94.2496C10.3277 92.6021 9.01878 90.4475 7.8297 88.4901L7.77634 88.4023C6.52562 86.3436 5.39457 84.4989 4.01992 83.1417C3.46813 82.5969 3.28074 81.7837 3.1053 81.0223Z" fill="#626262"/>
<path fill-rule="evenodd" clip-rule="evenodd" d="M7.7225 105.465C7.96494 105.691 8.15201 105.865 7.49914 106.51C8.33033 105.689 8.74305 105.918 9.09477 106.113C9.4495 106.309 9.74218 106.472 10.3395 105.488L10.3912 105.403C11.642 103.345 12.7727 101.5 14.1468 100.143C15.4642 98.8412 16.9365 98.0595 18.8977 98.0595C20.8607 98.0595 22.334 98.8415 23.6519 100.143C25.0266 101.5 26.1576 103.345 27.4083 105.403L27.4617 105.491C28.6507 107.449 29.9597 109.603 31.6275 111.251C33.3771 112.979 35.585 114.217 38.5306 114.217C41.4773 114.217 43.6861 112.979 45.4365 111.251C47.106 109.603 48.4157 107.447 49.6053 105.488L49.6569 105.403C50.9077 103.345 52.0384 101.5 53.4125 100.143C54.73 98.8412 56.2022 98.0595 58.1635 98.0595C60.1264 98.0595 61.5997 98.8415 62.9177 100.143C64.2923 101.5 65.4234 103.345 66.6741 105.403L66.7274 105.491C67.9165 107.448 69.2254 109.603 70.8933 111.251C72.6428 112.979 74.8507 114.217 77.7964 114.217V111.166C75.8351 111.166 74.3628 110.384 73.0454 109.083C71.6713 107.726 70.5406 105.881 69.2898 103.822L69.2382 103.737L69.2381 103.737C68.0485 101.779 66.7388 99.6231 65.0693 97.9748C63.319 96.2466 61.1101 95.0089 58.1635 95.0089C55.2179 95.0089 53.01 96.2468 51.2604 97.975C49.5925 99.6225 48.2836 101.777 47.0946 103.735L47.0412 103.822C45.7905 105.881 44.6594 107.726 43.2848 109.083C41.9668 110.384 40.4935 111.166 38.5306 111.166C36.5693 111.166 35.0971 110.384 33.7797 109.083C32.4056 107.726 31.2748 105.881 30.024 103.822L29.9725 103.737C28.7828 101.779 27.4731 99.6232 25.8036 97.9748C24.0532 96.2466 21.8444 95.0089 18.8977 95.0089C15.9521 95.0089 13.7442 96.2468 11.9947 97.975C10.3268 99.6225 9.01792 101.777 7.82884 103.735L7.82884 103.735L7.77547 103.822C7.11877 104.903 7.45447 105.216 7.7225 105.465Z" fill="#626262"/>
<path fill-rule="evenodd" clip-rule="evenodd" d="M25.8031 131.253C25.6137 131.44 25.4787 131.583 25.3847 131.691C25.4678 131.41 25.3231 131.012 23.9986 131.012C24.8426 131.012 24.653 130.897 24.2673 130.661C23.756 130.349 22.9001 129.827 23.6514 129.085C25.026 127.728 26.1571 125.883 27.4078 123.824L27.4611 123.736C28.6502 121.779 29.9591 119.624 31.627 117.977C33.3766 116.249 35.5845 115.011 38.5301 115.011C41.4767 115.011 43.6856 116.248 45.4359 117.977C47.1054 119.625 48.4152 121.781 49.6048 123.739L49.6564 123.824C50.9072 125.883 52.0379 127.728 53.412 129.085C54.7294 130.386 56.2017 131.168 58.163 131.168C60.1259 131.168 61.5992 130.386 62.9171 129.085C64.2918 127.728 65.4228 125.883 66.6736 123.824L66.7268 123.737L66.7269 123.736L66.7269 123.736C67.916 121.779 69.2249 119.624 70.8927 117.977C72.6423 116.249 74.8502 115.011 77.7958 115.011V118.061C75.8346 118.061 74.3623 118.843 73.0449 120.144C71.6708 121.502 70.54 123.346 69.2892 125.405L69.2377 125.49L69.2376 125.49C68.048 127.448 66.7383 129.604 65.0688 131.253C63.3185 132.981 61.1096 134.219 58.163 134.219C55.2174 134.219 53.0094 132.981 51.2599 131.253C49.592 129.605 48.2831 127.45 47.094 125.493L47.0407 125.405C45.79 123.347 44.6589 121.502 43.2843 120.145C41.9663 118.843 40.493 118.061 38.5301 118.061C36.5688 118.061 35.0966 118.843 33.7792 120.144C32.405 121.502 31.2743 123.346 30.0235 125.405L29.9719 125.49C28.7823 127.448 27.4726 129.604 25.8031 131.253Z" fill="#626262"/>
<path fill-rule="evenodd" clip-rule="evenodd" d="M46.0744 142.524C45.4452 143.673 44.9526 144.573 43.9998 145.514C45.5582 145.514 45.8177 146.277 45.9753 146.741C46.1157 147.153 46.1752 147.328 46.9998 146.514C48.0955 145.432 48.3631 144.882 48.754 144.077C48.9587 143.656 49.1971 143.165 49.606 142.492L49.6575 142.407C50.9083 140.348 52.0391 138.504 53.4132 137.146C54.7306 135.845 56.2028 135.063 58.1641 135.063C60.127 135.063 61.6003 135.845 62.9183 137.147C64.2929 138.504 65.424 140.349 66.6747 142.407L66.728 142.495L66.728 142.495L66.728 142.495C67.9171 144.452 69.226 146.607 70.8939 148.255C72.6435 149.983 74.8514 151.221 77.797 151.221V148.17C75.8357 148.17 74.3635 147.388 73.0461 146.087C71.6719 144.73 70.5412 142.885 69.2904 140.826L69.2388 140.741L69.2388 140.741C68.0491 138.783 66.7394 136.627 65.07 134.979C63.3196 133.25 61.1108 132.013 58.1641 132.013C55.2185 132.013 53.0106 133.251 51.261 134.979C49.5932 136.626 48.2843 138.781 47.0952 140.738L47.0418 140.826C46.6581 141.458 46.3528 142.015 46.0744 142.524Z" fill="#626262"/>
<ellipse cx="38.6357" cy="57.6409" rx="3.63572" ry="3.63606" fill="#626262"/>
<ellipse cx="38.6357" cy="96.6449" rx="3.63572" ry="3.63607" fill="#626262"/>
<ellipse cx="38.6357" cy="133.649" rx="3.63572" ry="3.63606" fill="#626262"/>
<ellipse cx="38.6357" cy="19.637" rx="3.63572" ry="3.63606" fill="#626262"/>
<path d="M77.5 19.637C77.5 21.6452 78.6437 23.2731 76.6357 23.2731C74.6278 23.2731 73 21.6452 73 19.637C73 17.6289 74.6278 16.001 76.6357 16.001C78.6437 16.001 77.5 17.6289 77.5 19.637Z" fill="#626262"/>
<path d="M78 57.6409C78 59.6491 78.6437 61.277 76.6357 61.277C74.6278 61.277 73 59.6491 73 57.6409C73 55.6328 74.6278 54.0049 76.6357 54.0049C78.6437 54.0049 78 55.6328 78 57.6409Z" fill="#626262"/>
<path d="M78 96.6449C78 98.653 78.6437 100.281 76.6357 100.281C74.6278 100.281 73 98.653 73 96.6449C73 94.6367 74.6278 93.0088 76.6357 93.0088C78.6437 93.0088 78 94.6367 78 96.6449Z" fill="#626262"/>
<path d="M78.5 133.649C78.5 135.657 78.6437 137.285 76.6357 137.285C74.6278 137.285 73 135.657 73 133.649C73 131.641 74.6278 130.013 76.6357 130.013C78.6437 130.013 78.5 131.641 78.5 133.649Z" fill="#626262"/>
</svg>
