<svg width="18" height="18" viewBox="0 0 18 18" fill="none" xmlns="http://www.w3.org/2000/svg">
<path fill-rule="evenodd" clip-rule="evenodd" d="M9.00056 0C8.29048 0 7.71484 0.575634 7.71484 1.28571V7.71387L1.28572 7.71387C0.575634 7.71387 0 8.2895 0 8.99958C0 9.70966 0.575634 10.2853 1.28571 10.2853H7.71484V16.7143C7.71484 17.4244 8.29048 18 9.00056 18C9.71064 18 10.2863 17.4244 10.2863 16.7143V10.2853H16.7143C17.4244 10.2853 18 9.70966 18 8.99958C18 8.2895 17.4244 7.71387 16.7143 7.71387L10.2863 7.71387V1.28571C10.2863 0.575634 9.71064 0 9.00056 0Z" fill="white"/>
</svg>
