<svg width="52" height="52" viewBox="0 0 52 52" fill="none" xmlns="http://www.w3.org/2000/svg">
<path fill-rule="evenodd" clip-rule="evenodd" d="M30.8924 31.2718C26.5539 35.9313 19.3115 36.6779 14.0849 32.7893C8.47687 28.6169 7.313 20.6884 11.4853 15.0804C15.6576 9.47239 23.5861 8.30852 29.1942 12.4808C34.4208 16.3694 35.7872 23.5207 32.5712 29.0153L43.5395 37.1756C44.1626 37.6392 44.2919 38.5202 43.8283 39.1433C43.3647 39.7664 42.4838 39.8957 41.8607 39.4321L30.8924 31.2718ZM15.7637 30.5328C11.4019 27.2876 10.4967 21.121 13.7418 16.7592C16.9869 12.3974 23.1536 11.4922 27.5154 14.7373C31.8739 17.9801 32.781 24.14 29.5444 28.5013C29.542 28.5044 29.5396 28.5076 29.5372 28.5108C29.5348 28.514 29.5325 28.5172 29.5301 28.5205C26.2831 32.874 20.1223 33.7755 15.7637 30.5328Z" fill="#333FAC"/>
</svg>
