<svg width="563" height="675" viewBox="0 0 563 675" fill="none" xmlns="http://www.w3.org/2000/svg">
<path fill-rule="evenodd" clip-rule="evenodd" d="M457.64 62.3361C525.477 66.4236 588.114 105.212 632.937 156.295C672.444 201.318 661.533 268.768 686.537 323.198C716.888 389.265 801.467 434.536 793.983 506.856C786.514 579.023 719.901 640.561 651.261 664.068C587.213 686.003 525.337 621.448 457.64 622.046C388.851 622.653 325.806 691.99 261.517 667.511C195.586 642.407 162.496 567.637 139.543 500.927C116.286 433.332 108.912 359.412 132.263 291.85C155.359 225.025 208.515 174.957 266.291 134.203C323.364 93.945 387.924 58.1354 457.64 62.3361Z" stroke="white" stroke-width="4"/>
<path fill-rule="evenodd" clip-rule="evenodd" d="M457.64 62.3361C525.477 66.4236 588.114 105.212 632.937 156.295C672.444 201.318 661.533 268.768 686.537 323.198C716.888 389.265 801.467 434.536 793.983 506.856C786.514 579.023 719.901 640.561 651.261 664.068C587.213 686.003 525.337 621.448 457.64 622.046C388.851 622.653 325.806 691.99 261.517 667.511C195.586 642.407 162.496 567.637 139.543 500.927C116.286 433.332 108.912 359.412 132.263 291.85C155.359 225.025 208.515 174.957 266.291 134.203C323.364 93.945 387.924 58.1354 457.64 62.3361Z" stroke="white" stroke-opacity="0.2" stroke-width="4"/>
<path fill-rule="evenodd" clip-rule="evenodd" d="M364.008 2.33625C436.313 6.42542 532.453 41.1312 580.229 92.2353C622.337 137.278 581.329 208.855 607.981 263.308C640.331 329.403 730.48 374.693 722.503 447.043C714.542 519.241 643.541 580.805 570.381 604.322C502.115 626.266 436.164 561.683 364.008 562.282C290.689 562.89 223.492 632.255 154.969 607.766C84.696 582.652 49.4265 507.85 24.962 441.112C0.172968 373.489 -7.68652 299.538 17.2024 231.947C41.8198 165.093 98.476 115.005 160.058 74.233C220.889 33.9584 289.701 -1.86619 364.008 2.33625Z" stroke="white" stroke-width="4"/>
<path fill-rule="evenodd" clip-rule="evenodd" d="M364.008 2.33625C436.313 6.42542 532.453 41.1312 580.229 92.2353C622.337 137.278 581.329 208.855 607.981 263.308C640.331 329.403 730.48 374.693 722.503 447.043C714.542 519.241 643.541 580.805 570.381 604.322C502.115 626.266 436.164 561.683 364.008 562.282C290.689 562.89 223.492 632.255 154.969 607.766C84.696 582.652 49.4265 507.85 24.962 441.112C0.172968 373.489 -7.68652 299.538 17.2024 231.947C41.8198 165.093 98.476 115.005 160.058 74.233C220.889 33.9584 289.701 -1.86619 364.008 2.33625Z" stroke="white" stroke-opacity="0.2" stroke-width="4"/>
</svg>
