<svg width="281" height="746" viewBox="0 0 281 746" fill="none" xmlns="http://www.w3.org/2000/svg">
<path fill-rule="evenodd" clip-rule="evenodd" d="M418.298 666.137C353.726 698.935 270.412 723.46 207.439 687.687C144.703 652.049 146.069 562.832 118.832 496.019C99.7267 449.152 76.038 405.944 72.0196 355.493C67.7534 301.933 68.873 246.782 95.2517 199.973C123.362 150.091 166.002 103.429 221.655 89.9653C275.748 76.8791 328.343 108.683 379.202 131.28C423.946 151.16 462.304 178.187 497.296 212.433C538.822 253.075 591.404 290.292 600.338 347.706C609.673 407.701 574.734 463.72 544.6 516.432C511.384 574.534 477.969 635.828 418.298 666.137Z" stroke="white" stroke-width="4"/>
<path fill-rule="evenodd" clip-rule="evenodd" d="M377.558 658.427C305.422 652.68 221.396 630.748 185.492 569.862C149.724 509.205 196.25 437.106 206.82 368.886C214.235 321.032 215.853 273.857 238.048 230.674C261.612 184.829 290.609 140.399 337.061 115.489C386.563 88.9438 446.909 72.3396 501.553 89.371C554.667 105.925 583.674 158.349 615.871 202.387C644.196 241.13 663.404 282.49 676.049 328.044C691.057 382.105 717.301 438.939 695.788 490.277C673.308 543.923 614.821 572.037 562.142 599.872C504.077 630.553 444.217 663.738 377.558 658.427Z" stroke="white" stroke-width="4"/>
</svg>
