<svg width="223" height="615" viewBox="0 0 223 615" fill="none" xmlns="http://www.w3.org/2000/svg">
<path fill-rule="evenodd" clip-rule="evenodd" d="M-116.36 2.3361C-48.5234 6.42356 14.1141 45.212 58.9374 96.2945C98.4439 141.318 87.5327 208.768 112.537 263.198C142.888 329.265 227.467 374.536 219.983 446.856C212.514 519.023 145.901 580.561 77.2612 604.068C13.2134 626.003 -48.6631 561.448 -116.36 562.046C-185.149 562.653 -248.194 631.99 -312.483 607.511C-378.414 582.407 -411.504 507.637 -434.457 440.927C-457.714 373.332 -465.088 299.412 -441.737 231.85C-418.641 165.025 -365.485 114.957 -307.709 74.2026C-250.636 33.945 -186.076 -1.86456 -116.36 2.3361Z" stroke="white" stroke-width="4"/>
</svg>
