<svg width="24" height="24" viewBox="0 0 24 24" fill="none" xmlns="http://www.w3.org/2000/svg">
<path fill-rule="evenodd" clip-rule="evenodd" d="M10.7099 0.0278409C7.73056 0.472538 5.44926 1.57633 3.52787 3.5029C-0.0679174 7.10818 -1.01746 12.5494 1.15374 17.1077C1.79274 18.4494 2.48734 19.4339 3.53108 20.4776C5.93665 22.8831 9.24994 24.1637 12.6016 23.9832C18.1748 23.6831 22.6508 19.8139 23.8286 14.2779C24.0571 13.2035 24.0571 10.783 23.8286 9.70858C22.7929 4.84077 19.2276 1.24984 14.3963 0.208396C13.7252 0.0638162 11.2736 -0.0563277 10.7099 0.0278409ZM17.7495 7.43914C17.9015 7.52049 17.937 7.64481 17.9367 8.09367C17.936 9.18243 16.578 17.6314 16.3247 18.1236C16.1578 18.4481 15.8808 18.6041 15.4504 18.6163C15.1796 18.624 14.7063 18.3463 12.7467 17.0306C11.4401 16.1534 10.345 15.3554 10.3131 15.2575C10.1505 14.7597 10.3523 14.4479 11.5609 13.33C14.3866 10.7164 14.8749 10.153 14.252 10.2246C14.131 10.2385 13.2191 10.8116 12.2254 11.498C10.0339 13.0121 8.78846 13.8174 8.3655 13.9941C7.70883 14.2683 6.43867 14.0463 4.98672 13.4033C4.36837 13.1294 4.17008 12.9122 4.36401 12.7209C4.63952 12.4491 7.32516 11.1938 10.2248 9.98165C11.5342 9.43426 16.0833 7.61203 16.5305 7.45572C16.9139 7.3218 17.5148 7.31366 17.7495 7.43914Z" fill="#AEAEAE"/>
</svg>
