<svg width="25" height="16" viewBox="0 0 25 16" fill="none" xmlns="http://www.w3.org/2000/svg">
<path fill-rule="evenodd" clip-rule="evenodd" d="M24.4115 1.11111C24.5969 0.484444 24.4115 0.0288887 23.5912 0.0288887H20.8636C20.1755 0.0288887 19.8578 0.427778 19.6724 0.854444C19.6724 0.854444 18.2693 4.49889 16.3099 6.86167C15.6745 7.545 15.3834 7.77278 15.0391 7.77278C14.8537 7.77278 14.6151 7.545 14.6151 6.91889V1.08167C14.6151 0.341667 14.4037 0 13.8209 0H9.53126C9.1073 0 8.84272 0.341667 8.84272 0.683334C8.84272 1.395 9.82241 1.56611 9.92814 3.55889V7.88889C9.92814 8.82833 9.77189 9 9.42501 9C8.49845 9 6.24793 5.32722 4.89792 1.14222C4.63542 0.313333 4.36876 0 3.68021 0H0.926564C0.132292 0 0 0.398333 0 0.825556C0 1.59444 0.926564 5.46611 4.31563 10.5906C6.56615 14.0906 9.7698 15.9717 12.6557 15.9717C14.4037 15.9717 14.6151 15.5444 14.6151 14.8328V12.185C14.6151 11.3311 14.774 11.1889 15.3302 11.1889C15.7271 11.1889 16.4422 11.4161 18.0573 13.0961C19.9104 15.0889 20.2282 16 21.261 16H23.9881C24.7823 16 25.1532 15.5728 24.9412 14.7472C24.7032 13.9217 23.8026 12.7261 22.6375 11.3028C22.0021 10.5061 21.049 9.62333 20.7578 9.19611C20.361 8.62667 20.4667 8.39889 20.7578 7.88667C20.7313 7.88667 24.0677 2.81889 24.4115 1.10889" fill="#AEAEAE"/>
</svg>
