<svg width="24" height="25" viewBox="0 0 24 25" fill="none" xmlns="http://www.w3.org/2000/svg">
<path fill-rule="evenodd" clip-rule="evenodd" d="M10.8312 0.0638297C8.53486 0.297419 6.26992 1.22616 4.48568 2.66581C3.88232 3.15266 2.89266 4.17 2.45765 4.75065C1.21398 6.4105 0.406815 8.34778 0.130048 10.3369C0.0942225 10.5945 0.0502957 11.0213 0.0324534 11.2853L0 11.7653L0.322801 11.7645C0.907758 11.7631 3.0228 11.673 3.61932 11.624C5.97615 11.4306 7.5104 11.0179 8.63016 10.2762C10.5021 9.03637 11.3334 7.18882 11.6266 3.6168C11.6753 3.02374 11.7656 0.906728 11.767 0.326969L11.7678 0.0108646L11.4985 0.017093C11.3504 0.0205117 11.0501 0.0415385 10.8312 0.0638297ZM12.4892 1.11765C12.6091 5.2582 12.9894 7.17149 13.9918 8.67723C15.174 10.4531 16.9971 11.2934 20.3317 11.5994C21.1863 11.6778 23.9368 11.7877 23.9794 11.7452C23.995 11.7295 23.9826 11.4221 23.9518 11.0621C23.7401 8.59036 22.8577 6.37173 21.3352 4.48316C20.8493 3.8804 19.8319 2.89055 19.2507 2.45512C18.2023 1.66955 16.9564 1.01341 15.7793 0.62673C14.79 0.301821 13.9772 0.13932 12.8031 0.0317509L12.4569 0L12.4892 1.11765ZM0.0365744 12.8307C0.223942 15.012 0.890056 16.9583 2.02878 18.6518C4.13914 21.7904 7.48671 23.7119 11.2925 23.9692L11.7772 24.002L11.7469 23.0701C11.648 20.0265 11.4478 18.4419 10.99 17.0786C10.4924 15.5964 9.55356 14.4489 8.23211 13.7076C7.5496 13.3248 6.25381 12.9305 5.16472 12.7743C4.07606 12.6182 1.72523 12.4678 0.372348 12.4677H0.00538548L0.0365744 12.8307ZM22.1173 12.5183C18.9628 12.6434 17.0655 13.0414 15.768 13.85C13.8282 15.0591 12.9572 16.847 12.6365 20.2782C12.5595 21.1033 12.4422 23.9287 12.4834 23.9698C12.5255 24.012 13.5799 23.8942 14.2334 23.7743C17.6844 23.1413 20.7694 20.9142 22.4868 17.8162C23.3244 16.3055 23.7943 14.7174 23.969 12.8072L24 12.4677L23.5152 12.4749C23.2486 12.4789 22.6195 12.4984 22.1173 12.5183Z" fill="#AEAEAE"/>
</svg>
