<svg width="41" height="37" viewBox="0 0 41 37" fill="none" xmlns="http://www.w3.org/2000/svg">
<path fill-rule="evenodd" clip-rule="evenodd" d="M19.7543 30.9434C19.9942 31.0873 20.2507 31.151 20.5 31.1479C20.7493 31.151 21.0058 31.0873 21.2457 30.9434L23.3744 29.6662C27.549 27.1614 32.6547 26.7523 37.1749 28.5604C38.8424 29.2274 40.6562 27.9993 40.6562 26.2034V4.34299C40.6562 3.25934 39.9965 2.28486 38.9903 1.8824C33.1683 -0.446419 26.5923 0.0804979 21.2154 3.30666L20.5 3.73588L19.7846 3.30666C14.4077 0.0804979 7.83169 -0.446419 2.00965 1.8824C1.00351 2.28486 0.34375 3.25934 0.34375 4.34299V26.2034C0.34375 27.9993 2.15761 29.2274 3.82509 28.5604C8.34534 26.7523 13.451 27.1614 17.6256 29.6662L19.7543 30.9434ZM3.15625 4.45329V25.8035C8.39835 23.8385 14.2596 24.3666 19.0727 27.2545L19.0938 27.2671V6.17204L18.3376 5.71836C13.7458 2.96325 8.13688 2.49762 3.15625 4.45329ZM21.9273 27.2545L21.9062 27.2671V6.17204L22.6624 5.71836C27.2542 2.96325 32.8631 2.49762 37.8438 4.45329V25.8035C32.6016 23.8385 26.7404 24.3666 21.9273 27.2545Z" fill="#333FAC"/>
<path d="M15.3909 31.705C11.5962 29.4914 6.9038 29.4914 3.10907 31.705L2.91643 31.8174C2.24558 32.2087 2.01898 33.0698 2.41031 33.7407C2.80164 34.4115 3.66271 34.6381 4.33357 34.2468L4.52621 34.1344C7.44523 32.4316 11.0548 32.4316 13.9738 34.1344L16.0124 35.3236C18.7855 36.9412 22.2145 36.9412 24.9876 35.3236L27.0262 34.1344C29.9452 32.4316 33.5548 32.4316 36.4738 34.1344L36.6664 34.2468C37.3373 34.6381 38.1984 34.4115 38.5897 33.7407C38.981 33.0698 38.7544 32.2087 38.0836 31.8174L37.8909 31.705C34.0962 29.4914 29.4038 29.4914 25.6091 31.705L23.5705 32.8942C21.6731 34.001 19.3269 34.001 17.4295 32.8942L15.3909 31.705Z" fill="#333FAC"/>
</svg>
